<svg width="192" height="205" viewBox="0 0 192 205" fill="none" xmlns="http://www.w3.org/2000/svg">
<g clip-path="url(#clip0_245_1553)">
<path d="M158.637 103.547L156.987 104.499C156.78 104.619 156.757 104.8 156.937 104.904L158.687 105.914C158.867 106.018 159.18 106.005 159.388 105.885L158.637 103.547Z" fill="#FF2B85"/>
<path d="M148.988 100.314L150.738 101.325C150.918 101.429 151.232 101.416 151.439 101.296L153.089 100.343C153.296 100.224 153.319 100.043 153.139 99.939L151.388 98.9282C151.209 98.8244 150.895 98.8376 150.688 98.9571L149.038 99.91C148.831 100.03 148.808 100.211 148.988 100.314Z" fill="#FF2B85"/>
<path d="M166.99 117.081L165.34 118.034C165.133 118.153 165.11 118.335 165.29 118.438L167.041 119.449L166.99 117.081Z" fill="#FF2B85"/>
<path d="M157.341 113.849L159.092 114.86C159.271 114.963 159.585 114.95 159.792 114.831L161.442 113.878C161.65 113.758 161.672 113.577 161.492 113.474L159.742 112.463C159.562 112.359 159.249 112.372 159.041 112.492L157.391 113.445C157.184 113.564 157.161 113.745 157.341 113.849Z" fill="#FF2B85"/>
<path d="M149.392 109.26L151.143 110.271C151.322 110.374 151.636 110.361 151.843 110.241L153.493 109.288C153.701 109.169 153.723 108.988 153.544 108.884L151.793 107.873C151.613 107.77 151.3 107.783 151.093 107.902L149.442 108.855C149.235 108.975 149.212 109.156 149.392 109.26Z" fill="#FF2B85"/>
<path d="M141.443 104.67L143.194 105.681C143.373 105.785 143.687 105.772 143.894 105.652L145.544 104.699C145.752 104.58 145.774 104.398 145.595 104.295L143.844 103.284C143.664 103.18 143.351 103.193 143.143 103.313L141.493 104.266C141.286 104.385 141.264 104.567 141.443 104.67Z" fill="#FF2B85"/>
<path d="M169.846 127.008L168.095 125.997C167.915 125.894 167.602 125.907 167.395 126.026L165.744 126.979C165.537 127.099 165.515 127.28 165.694 127.383L167.445 128.394C167.624 128.498 167.938 128.485 168.145 128.365L169.796 127.413L169.846 127.008Z" fill="#FF2B85"/>
<path d="M157.745 122.794L159.496 123.805C159.676 123.909 159.989 123.896 160.196 123.776L161.846 122.823C162.054 122.703 162.076 122.523 161.897 122.419L160.146 121.408C159.967 121.304 159.653 121.317 159.446 121.437L157.795 122.39C157.588 122.51 157.566 122.69 157.745 122.794Z" fill="#FF2B85"/>
<path d="M149.796 118.205L151.547 119.216C151.727 119.319 152.04 119.306 152.247 119.187L153.898 118.234C154.105 118.114 154.127 117.933 153.948 117.83L152.197 116.819C152.017 116.715 151.704 116.728 151.497 116.848L149.847 117.8C149.639 117.92 149.617 118.101 149.796 118.205Z" fill="#FF2B85"/>
<path d="M141.847 113.615L143.598 114.626C143.778 114.73 144.091 114.717 144.298 114.597L145.949 113.644C146.156 113.525 146.178 113.344 145.999 113.24L144.248 112.229C144.069 112.126 143.755 112.139 143.548 112.258L141.898 113.211C141.69 113.331 141.668 113.512 141.847 113.615Z" fill="#FF2B85"/>
<path d="M133.898 109.026L135.649 110.037C135.829 110.141 136.142 110.128 136.349 110.008L138 109.055C138.207 108.936 138.229 108.755 138.05 108.651L136.299 107.64C136.12 107.536 135.806 107.55 135.599 107.669L133.949 108.622C133.741 108.742 133.719 108.923 133.898 109.026Z" fill="#FF2B85"/>
<path d="M175.309 139.815L173.658 140.767C173.451 140.887 173.428 141.068 173.608 141.172L175.359 142.182L175.309 139.815Z" fill="#FF2B85"/>
<path d="M165.659 136.582L167.41 137.593C167.59 137.697 167.903 137.684 168.11 137.564L169.76 136.611C169.968 136.492 169.99 136.311 169.811 136.207L168.06 135.196C167.881 135.093 167.567 135.106 167.36 135.225L165.709 136.178C165.502 136.298 165.48 136.479 165.659 136.582Z" fill="#FF2B85"/>
<path d="M157.71 131.993L159.461 133.004C159.64 133.107 159.954 133.094 160.161 132.975L161.812 132.022C162.019 131.902 162.041 131.721 161.862 131.618L160.111 130.607C159.931 130.503 159.618 130.516 159.411 130.636L157.76 131.589C157.553 131.708 157.531 131.889 157.71 131.993Z" fill="#FF2B85"/>
<path d="M149.761 127.404L151.512 128.414C151.692 128.518 152.005 128.505 152.212 128.386L153.863 127.433C154.07 127.313 154.093 127.132 153.913 127.028L152.162 126.017C151.983 125.914 151.669 125.927 151.462 126.047L149.811 127C149.604 127.119 149.582 127.3 149.761 127.404Z" fill="#FF2B85"/>
<path d="M141.812 122.814L143.563 123.825C143.742 123.929 144.056 123.916 144.263 123.796L145.914 122.843C146.121 122.724 146.143 122.543 145.964 122.439L144.213 121.428C144.033 121.325 143.72 121.338 143.513 121.457L141.863 122.41C141.655 122.53 141.633 122.711 141.812 122.814Z" fill="#FF2B85"/>
<path d="M133.863 118.225L135.614 119.236C135.794 119.339 136.107 119.327 136.314 119.207L137.965 118.254C138.172 118.134 138.195 117.953 138.015 117.85L136.264 116.839C136.085 116.735 135.771 116.748 135.564 116.868L133.914 117.821C133.706 117.94 133.684 118.121 133.863 118.225Z" fill="#FF2B85"/>
<path d="M125.914 113.636L127.665 114.647C127.845 114.75 128.158 114.737 128.365 114.618L130.016 113.665C130.223 113.545 130.245 113.364 130.066 113.261L128.315 112.25C128.136 112.146 127.822 112.159 127.615 112.278L125.965 113.231C125.757 113.351 125.735 113.532 125.914 113.636Z" fill="#FF2B85"/>
<path d="M175.713 148.76L174.062 149.713C173.855 149.832 173.833 150.013 174.012 150.117L175.763 151.128C175.943 151.231 176.256 151.218 176.463 151.099L175.713 148.76Z" fill="#FF2B85"/>
<path d="M166.063 145.528L167.814 146.539C167.994 146.642 168.307 146.629 168.514 146.509L170.165 145.556C170.372 145.437 170.395 145.256 170.215 145.152L168.464 144.142C168.285 144.038 167.971 144.051 167.764 144.17L166.114 145.123C165.906 145.243 165.884 145.424 166.063 145.528Z" fill="#FF2B85"/>
<path d="M158.114 140.938L159.865 141.949C160.045 142.053 160.358 142.04 160.565 141.92L162.216 140.967C162.423 140.848 162.446 140.666 162.266 140.563L160.515 139.552C160.336 139.448 160.022 139.461 159.815 139.581L158.165 140.534C157.957 140.653 157.935 140.835 158.114 140.938Z" fill="#FF2B85"/>
<path d="M150.165 136.349L151.916 137.36C152.096 137.463 152.409 137.45 152.617 137.331L154.267 136.378C154.474 136.258 154.497 136.077 154.317 135.974L152.566 134.963C152.387 134.859 152.073 134.872 151.866 134.992L150.216 135.945C150.009 136.064 149.986 136.245 150.165 136.349Z" fill="#FF2B85"/>
<path d="M142.216 131.76L143.968 132.771C144.147 132.874 144.46 132.861 144.668 132.741L146.318 131.789C146.525 131.669 146.548 131.488 146.368 131.384L144.617 130.373C144.438 130.27 144.124 130.283 143.917 130.403L142.267 131.355C142.059 131.475 142.037 131.656 142.216 131.76Z" fill="#FF2B85"/>
<path d="M134.268 127.17L136.018 128.181C136.198 128.285 136.511 128.272 136.719 128.152L138.369 127.199C138.576 127.08 138.599 126.899 138.419 126.795L136.668 125.784C136.489 125.68 136.175 125.693 135.968 125.813L134.318 126.766C134.111 126.886 134.088 127.067 134.268 127.17Z" fill="#FF2B85"/>
<path d="M126.318 122.581L128.07 123.592C128.249 123.695 128.562 123.682 128.77 123.563L130.42 122.61C130.627 122.49 130.65 122.309 130.47 122.206L128.719 121.195C128.54 121.091 128.226 121.104 128.019 121.224L126.369 122.177C126.162 122.296 126.139 122.477 126.318 122.581Z" fill="#FF2B85"/>
<path d="M118.37 117.991L120.12 119.002C120.3 119.106 120.614 119.093 120.821 118.973L122.471 118.021C122.678 117.901 122.701 117.72 122.521 117.616L120.77 116.605C120.591 116.502 120.277 116.515 120.07 116.635L118.42 117.587C118.213 117.707 118.19 117.888 118.37 117.991Z" fill="#FF2B85"/>
<path d="M166.468 154.473L168.218 155.484C168.398 155.587 168.712 155.574 168.919 155.455L170.569 154.502C170.776 154.382 170.799 154.201 170.619 154.098L168.868 153.087C168.689 152.983 168.375 152.996 168.168 153.116L166.518 154.068C166.311 154.188 166.288 154.369 166.468 154.473Z" fill="#FF2B85"/>
<path d="M158.518 149.883L160.27 150.894C160.449 150.998 160.762 150.985 160.97 150.865L162.62 149.913C162.827 149.793 162.85 149.612 162.67 149.508L160.919 148.497C160.74 148.394 160.426 148.407 160.219 148.526L158.569 149.479C158.362 149.599 158.339 149.78 158.518 149.883Z" fill="#FF2B85"/>
<path d="M150.57 145.294L152.321 146.305C152.5 146.409 152.814 146.396 153.021 146.276L154.671 145.323C154.878 145.204 154.901 145.023 154.721 144.919L152.971 143.908C152.791 143.805 152.477 143.818 152.27 143.937L150.62 144.89C150.413 145.01 150.39 145.191 150.57 145.294Z" fill="#FF2B85"/>
<path d="M142.621 140.705L144.372 141.716C144.551 141.819 144.865 141.806 145.072 141.687L146.722 140.734C146.929 140.614 146.952 140.433 146.773 140.33L145.021 139.319C144.842 139.215 144.529 139.228 144.321 139.348L142.671 140.301C142.464 140.42 142.441 140.601 142.621 140.705Z" fill="#FF2B85"/>
<path d="M134.672 136.116L136.423 137.126C136.602 137.23 136.916 137.217 137.123 137.097L138.773 136.144C138.98 136.025 139.003 135.844 138.824 135.74L137.073 134.729C136.893 134.626 136.58 134.639 136.372 134.758L134.722 135.711C134.515 135.831 134.492 136.012 134.672 136.116Z" fill="#FF2B85"/>
<path d="M126.723 131.526L128.474 132.537C128.653 132.641 128.967 132.628 129.174 132.508L130.824 131.555C131.032 131.436 131.054 131.254 130.875 131.151L129.124 130.14C128.944 130.036 128.631 130.049 128.423 130.169L126.773 131.122C126.566 131.242 126.543 131.423 126.723 131.526Z" fill="#FF2B85"/>
<path d="M118.774 126.937L120.525 127.948C120.704 128.051 121.018 128.038 121.225 127.919L122.875 126.966C123.083 126.846 123.105 126.665 122.926 126.562L121.175 125.551C120.995 125.447 120.682 125.46 120.474 125.58L118.824 126.533C118.617 126.652 118.594 126.833 118.774 126.937Z" fill="#FF2B85"/>
<path d="M110.825 122.348L112.576 123.358C112.755 123.462 113.069 123.449 113.276 123.329L114.926 122.377C115.134 122.257 115.156 122.076 114.977 121.972L113.226 120.961C113.046 120.858 112.733 120.871 112.526 120.99L110.875 121.943C110.668 122.063 110.645 122.244 110.825 122.348Z" fill="#FF2B85"/>
<path d="M150.535 154.493L152.285 155.504C152.465 155.607 152.778 155.595 152.986 155.475L154.636 154.522C154.843 154.402 154.866 154.221 154.686 154.118L152.935 153.107C152.756 153.003 152.442 153.016 152.235 153.136L150.585 154.089C150.378 154.209 150.355 154.389 150.535 154.493Z" fill="#FF2B85"/>
<path d="M142.586 149.904L144.337 150.915C144.516 151.018 144.83 151.005 145.037 150.886L146.687 149.933C146.894 149.813 146.917 149.632 146.737 149.529L144.987 148.518C144.807 148.414 144.494 148.427 144.286 148.547L142.636 149.5C142.429 149.619 142.406 149.8 142.586 149.904Z" fill="#FF2B85"/>
<path d="M134.637 145.314L136.388 146.325C136.567 146.429 136.881 146.416 137.088 146.296L138.738 145.343C138.945 145.224 138.968 145.043 138.788 144.939L137.037 143.928C136.858 143.825 136.545 143.838 136.337 143.957L134.687 144.91C134.48 145.03 134.457 145.211 134.637 145.314Z" fill="#FF2B85"/>
<path d="M129.139 141.707L130.789 140.754C130.997 140.634 131.019 140.453 130.839 140.35L129.089 139.339L129.139 141.707Z" fill="#FF2B85"/>
<path d="M102.841 126.957L104.592 127.968C104.771 128.072 105.085 128.058 105.292 127.939L106.942 126.986C107.15 126.867 107.172 126.685 106.993 126.582L105.242 125.571C105.062 125.467 104.749 125.48 104.541 125.6L102.891 126.553C102.684 126.672 102.662 126.853 102.841 126.957Z" fill="#FF2B85"/>
<path d="M182.594 179.268L184.345 180.278C184.524 180.382 184.837 180.369 185.045 180.249L186.695 179.297C186.902 179.177 186.925 178.996 186.745 178.892L184.994 177.881C184.815 177.778 184.501 177.791 184.294 177.91L182.644 178.863C182.437 178.983 182.414 179.164 182.594 179.268Z" fill="#FF2B85"/>
<path d="M174.645 174.678L176.396 175.689C176.575 175.793 176.889 175.78 177.096 175.66L178.746 174.707C178.953 174.588 178.976 174.407 178.796 174.303L177.046 173.292C176.866 173.188 176.553 173.201 176.345 173.321L174.695 174.274C174.488 174.394 174.465 174.574 174.645 174.678Z" fill="#FF2B85"/>
<path d="M142.99 158.849L144.741 159.86C144.92 159.963 145.234 159.95 145.441 159.831L147.091 158.878C147.299 158.758 147.321 158.577 147.142 158.474L145.391 157.463C145.211 157.359 144.898 157.372 144.691 157.492L143.04 158.445C142.833 158.564 142.81 158.745 142.99 158.849Z" fill="#FF2B85"/>
<path d="M135.041 154.26L136.792 155.27C136.971 155.374 137.285 155.361 137.492 155.241L139.142 154.289C139.35 154.169 139.372 153.988 139.193 153.884L137.442 152.873C137.262 152.77 136.949 152.783 136.742 152.903L135.091 153.855C134.884 153.975 134.862 154.156 135.041 154.26Z" fill="#FF2B85"/>
<path d="M127.092 149.67L128.843 150.681C129.022 150.785 129.336 150.772 129.543 150.652L131.193 149.699C131.401 149.58 131.423 149.399 131.244 149.295L129.493 148.284C129.313 148.181 129 148.193 128.793 148.313L127.142 149.266L127.092 149.67Z" fill="#FF2B85"/>
<path d="M95.2962 131.313L97.0472 132.324C97.2268 132.428 97.5401 132.415 97.7475 132.295L99.3976 131.342C99.6051 131.222 99.6274 131.041 99.448 130.938L97.6972 129.927C97.5178 129.823 97.2041 129.836 96.997 129.956L95.3466 130.909C95.1394 131.028 95.1168 131.209 95.2962 131.313Z" fill="#FF2B85"/>
<path d="M175.049 183.623L176.8 184.634C176.979 184.738 177.293 184.725 177.5 184.605L179.15 183.653C179.358 183.533 179.38 183.352 179.201 183.248L177.45 182.237C177.27 182.134 176.957 182.147 176.75 182.266L175.099 183.219C174.892 183.339 174.869 183.52 175.049 183.623Z" fill="#FF2B85"/>
<path d="M167.1 179.034L168.851 180.045C169.03 180.148 169.344 180.136 169.551 180.016L171.202 179.063C171.409 178.943 171.431 178.763 171.252 178.659L169.501 177.648C169.321 177.544 169.008 177.557 168.801 177.677L167.15 178.63C166.943 178.75 166.921 178.93 167.1 179.034Z" fill="#FF2B85"/>
<path d="M182.189 170.322L183.94 171.333C184.12 171.437 184.433 171.424 184.641 171.304L186.291 170.351C186.498 170.232 186.521 170.051 186.341 169.947L184.59 168.936C184.411 168.833 184.097 168.845 183.89 168.965L182.24 169.918C182.032 170.038 182.01 170.219 182.189 170.322Z" fill="#FF2B85"/>
<path d="M87.7517 135.669L89.5024 136.68C89.682 136.783 89.9956 136.77 90.2028 136.651L91.853 135.698C92.0603 135.578 92.0826 135.397 91.9033 135.294L90.1524 134.283C89.973 134.179 89.6595 134.192 89.4522 134.312L87.8019 135.265C87.5946 135.384 87.5722 135.565 87.7517 135.669Z" fill="#FF2B85"/>
<path d="M167.065 188.233L168.816 189.244C168.995 189.348 169.309 189.335 169.516 189.215L171.166 188.262C171.374 188.142 171.396 187.961 171.217 187.858L169.466 186.847C169.286 186.743 168.973 186.756 168.766 186.876L167.115 187.829C166.908 187.948 166.886 188.129 167.065 188.233Z" fill="#FF2B85"/>
<path d="M159.116 183.644L160.867 184.655C161.046 184.758 161.36 184.745 161.567 184.625L163.217 183.673C163.425 183.553 163.447 183.372 163.268 183.268L161.517 182.257C161.337 182.154 161.024 182.167 160.817 182.287L159.166 183.239C158.959 183.359 158.937 183.54 159.116 183.644Z" fill="#FF2B85"/>
<path d="M79.7677 140.278L81.5186 141.289C81.6979 141.393 82.0116 141.38 82.2187 141.26L83.8691 140.308C84.0763 140.188 84.0989 140.007 83.9192 139.903L82.1685 138.892C81.989 138.789 81.6755 138.802 81.4682 138.921L79.8177 139.874C79.6106 139.994 79.5881 140.175 79.7677 140.278Z" fill="#FF2B85"/>
<path d="M159.52 192.589L161.271 193.6C161.451 193.703 161.764 193.69 161.971 193.571L163.622 192.618C163.829 192.498 163.851 192.317 163.672 192.214L161.921 191.203C161.742 191.099 161.428 191.112 161.221 191.232L159.571 192.185C159.363 192.304 159.341 192.485 159.52 192.589Z" fill="#FF2B85"/>
<path d="M151.571 188L153.322 189.01C153.502 189.114 153.815 189.101 154.023 188.981L155.673 188.028C155.88 187.909 155.903 187.728 155.723 187.624L153.972 186.614C153.793 186.51 153.479 186.523 153.272 186.642L151.622 187.595C151.414 187.715 151.392 187.896 151.571 188Z" fill="#FF2B85"/>
<path d="M144.027 192.355L145.778 193.366C145.957 193.47 146.271 193.457 146.478 193.337L148.128 192.385C148.335 192.265 148.358 192.084 148.178 191.98L146.428 190.969C146.248 190.866 145.935 190.879 145.727 190.998L144.077 191.951C143.87 192.071 143.847 192.252 144.027 192.355Z" fill="#FF2B85"/>
<path d="M143.622 183.41L145.373 184.421C145.553 184.525 145.866 184.512 146.074 184.392L147.724 183.439C147.931 183.32 147.954 183.139 147.774 183.035L146.023 182.024C145.844 181.92 145.53 181.933 145.323 182.053L143.673 183.006C143.466 183.126 143.443 183.307 143.622 183.41Z" fill="#FF2B85"/>
<path d="M135.674 178.821L137.424 179.832C137.604 179.935 137.917 179.922 138.125 179.803L139.775 178.85C139.982 178.73 140.005 178.549 139.825 178.446L138.074 177.435C137.895 177.331 137.582 177.344 137.374 177.464L135.724 178.417C135.516 178.536 135.494 178.717 135.674 178.821Z" fill="#FF2B85"/>
<path d="M127.725 174.232L129.475 175.242C129.655 175.346 129.968 175.333 130.176 175.213L131.826 174.261C132.033 174.141 132.056 173.96 131.876 173.856L130.125 172.846C129.946 172.742 129.632 172.755 129.425 172.875L127.775 173.827C127.568 173.947 127.545 174.128 127.725 174.232Z" fill="#FF2B85"/>
<path d="M119.776 169.642L121.526 170.653C121.706 170.757 122.019 170.744 122.227 170.624L123.877 169.671C124.084 169.552 124.107 169.371 123.927 169.267L122.177 168.256C121.997 168.152 121.683 168.165 121.476 168.285L119.826 169.238C119.618 169.358 119.596 169.539 119.776 169.642Z" fill="#FF2B85"/>
<path d="M72.2229 144.634L73.9739 145.645C74.1533 145.749 74.4668 145.736 74.6739 145.616L76.3243 144.663C76.5316 144.544 76.5541 144.363 76.3747 144.259L74.6238 143.248C74.4443 143.145 74.1308 143.158 73.9235 143.277L72.2733 144.23C72.066 144.35 72.0435 144.531 72.2229 144.634Z" fill="#FF2B85"/>
<path d="M136.078 187.766L137.829 188.777C138.008 188.881 138.322 188.868 138.529 188.748L140.179 187.795C140.386 187.676 140.409 187.495 140.229 187.391L138.479 186.38C138.299 186.277 137.986 186.29 137.778 186.409L136.128 187.362C135.921 187.481 135.898 187.663 136.078 187.766Z" fill="#FF2B85"/>
<path d="M128.129 183.177L129.88 184.188C130.059 184.291 130.373 184.278 130.58 184.159L132.23 183.206C132.437 183.086 132.46 182.905 132.281 182.802L130.53 181.791C130.35 181.687 130.037 181.7 129.829 181.82L128.179 182.773C127.972 182.892 127.949 183.073 128.129 183.177Z" fill="#FF2B85"/>
<path d="M120.18 178.588L121.931 179.598C122.11 179.702 122.424 179.689 122.631 179.569L124.281 178.617C124.489 178.497 124.511 178.316 124.332 178.212L122.581 177.201C122.401 177.098 122.088 177.111 121.88 177.23L120.23 178.183C120.023 178.303 120 178.484 120.18 178.588Z" fill="#FF2B85"/>
<path d="M64.6782 148.99L66.4291 150.001C66.6088 150.105 66.9221 150.092 67.1294 149.972L68.7797 149.019C68.987 148.9 69.0095 148.719 68.8301 148.615L67.079 147.604C66.8997 147.501 66.5862 147.514 66.379 147.633L64.7286 148.586C64.5215 148.706 64.4988 148.887 64.6782 148.99Z" fill="#FF2B85"/>
<path d="M56.6944 153.6L58.4451 154.611C58.6248 154.714 58.9383 154.701 59.1454 154.582L60.7957 153.629C61.003 153.509 61.0256 153.328 60.8461 153.225L59.095 152.214C58.9156 152.11 58.6021 152.123 58.395 152.243L56.7446 153.196C56.5374 153.315 56.5148 153.496 56.6944 153.6Z" fill="#FF2B85"/>
<path d="M71.9074 172.304L73.6584 173.314C73.8378 173.418 74.1513 173.405 74.3584 173.285L76.0088 172.332C76.216 172.213 76.2386 172.032 76.0591 171.928L74.308 170.917C74.1286 170.814 73.8152 170.827 73.608 170.946L71.9576 171.899C71.7505 172.019 71.7278 172.2 71.9074 172.304Z" fill="#FF2B85"/>
<path d="M65.0476 167.134L66.7983 168.145C66.978 168.249 67.2915 168.236 67.4986 168.116L69.149 167.164C69.3562 167.044 69.3788 166.863 69.1993 166.759L67.4482 165.748C67.269 165.645 66.9553 165.658 66.7482 165.777L65.0978 166.73C64.8906 166.85 64.868 167.031 65.0476 167.134Z" fill="#FF2B85"/>
<path d="M57.0986 162.545L58.8495 163.556C59.0291 163.66 59.3425 163.647 59.5498 163.527L61.2 162.574C61.4073 162.454 61.4298 162.274 61.2504 162.17L59.4994 161.159C59.3198 161.055 59.0065 161.068 58.7991 161.188L57.149 162.141C56.9418 162.261 56.9192 162.441 57.0986 162.545Z" fill="#FF2B85"/>
<path d="M49.1497 157.956L50.9006 158.967C51.08 159.07 51.3935 159.057 51.6007 158.938L53.2512 157.985C53.4583 157.865 53.4808 157.684 53.3012 157.581L51.5505 156.57C51.371 156.466 51.0573 156.479 50.8502 156.599L49.1998 157.551C48.9926 157.671 48.97 157.852 49.1497 157.956Z" fill="#FF2B85"/>
<path d="M72.3115 181.249L74.0624 182.26C74.2421 182.363 74.5555 182.35 74.7628 182.23L76.413 181.278C76.6203 181.158 76.6428 180.977 76.4634 180.873L74.7124 179.863C74.533 179.759 74.2195 179.772 74.0124 179.892L72.3619 180.844C72.1548 180.964 72.1322 181.145 72.3115 181.249Z" fill="#FF2B85"/>
<path d="M64.3627 176.659L66.1136 177.67C66.293 177.774 66.6066 177.761 66.8138 177.641L68.4642 176.688C68.6713 176.569 68.694 176.388 68.5143 176.284L66.7635 175.273C66.584 175.169 66.2706 175.182 66.0632 175.302L64.4131 176.255C64.2056 176.375 64.1833 176.556 64.3627 176.659Z" fill="#FF2B85"/>
<path d="M57.5029 171.49L59.2538 172.501C59.4332 172.605 59.7468 172.592 59.954 172.472L61.6044 171.519C61.8115 171.4 61.8341 171.219 61.6545 171.115L59.9037 170.104C59.7242 170.001 59.4105 170.014 59.2034 170.133L57.553 171.086C57.3458 171.206 57.3232 171.387 57.5029 171.49Z" fill="#FF2B85"/>
<path d="M49.5541 166.901L51.3048 167.912C51.4844 168.015 51.7977 168.003 52.0051 167.883L53.6552 166.93C53.8627 166.81 53.885 166.629 53.7056 166.526L51.9547 165.515C51.7754 165.411 51.4617 165.424 51.2546 165.544L49.6042 166.497C49.397 166.617 49.3744 166.797 49.5541 166.901Z" fill="#FF2B85"/>
<path d="M41.6049 162.312L43.3558 163.323C43.5352 163.426 43.8488 163.413 44.056 163.294L45.7064 162.341C45.9135 162.221 45.9362 162.04 45.7566 161.936L44.0059 160.926C43.8262 160.822 43.5129 160.835 43.3056 160.955L41.6553 161.908C41.4479 162.027 41.4255 162.208 41.6049 162.312Z" fill="#FF2B85"/>
<path d="M64.3277 185.858L66.0784 186.869C66.2581 186.973 66.5716 186.96 66.7788 186.84L68.4292 185.887C68.6363 185.768 68.659 185.587 68.4794 185.483L66.7284 184.472C66.549 184.369 66.2355 184.381 66.0284 184.501L64.3779 185.454C64.1708 185.574 64.1482 185.755 64.3277 185.858Z" fill="#FF2B85"/>
<path d="M56.3787 181.269L58.1296 182.28C58.309 182.383 58.6225 182.371 58.8299 182.251L60.4802 181.298C60.6873 181.178 60.7098 180.997 60.5306 180.894L58.7795 179.883C58.6 179.779 58.2867 179.792 58.0792 179.912L56.4291 180.865C56.2217 180.984 56.1993 181.165 56.3787 181.269Z" fill="#FF2B85"/>
<path d="M49.5188 176.1L51.2697 177.111C51.4491 177.214 51.7628 177.201 51.9699 177.082L53.6203 176.129C53.8275 176.009 53.8501 175.828 53.6707 175.725L51.9197 174.714C51.7401 174.61 51.4268 174.623 51.2193 174.743L49.5692 175.696C49.3618 175.815 49.3395 175.996 49.5188 176.1Z" fill="#FF2B85"/>
<path d="M41.57 171.511L43.3209 172.522C43.5003 172.625 43.8138 172.612 44.0211 172.492L45.6715 171.54C45.8787 171.42 45.9011 171.239 45.7216 171.135L43.9707 170.125C43.7913 170.021 43.4777 170.034 43.2705 170.154L41.6201 171.106C41.413 171.226 41.3904 171.407 41.57 171.511Z" fill="#FF2B85"/>
<path d="M33.6209 166.921L35.3718 167.932C35.5515 168.036 35.8648 168.023 36.0721 167.903L37.7224 166.95C37.9298 166.831 37.9522 166.65 37.7728 166.546L36.0219 165.535C35.8425 165.431 35.5289 165.444 35.3217 165.564L33.6713 166.517C33.4642 166.637 33.4415 166.818 33.6209 166.921Z" fill="#FF2B85"/>
<path d="M56.7831 190.214L58.5339 191.225C58.7133 191.329 59.0268 191.316 59.2341 191.196L60.8845 190.243C61.0917 190.123 61.1141 189.943 60.9346 189.839L59.1839 188.828C59.0043 188.724 58.6907 188.737 58.4836 188.857L56.8331 189.81C56.626 189.93 56.6034 190.11 56.7831 190.214Z" fill="#FF2B85"/>
<path d="M48.8341 185.625L50.5848 186.636C50.7645 186.739 51.0778 186.726 51.2853 186.607L52.9354 185.654C53.1428 185.534 53.1652 185.353 52.9858 185.249L51.2349 184.239C51.0555 184.135 50.7419 184.148 50.5347 184.268L48.8843 185.22C48.6772 185.34 48.6545 185.521 48.8341 185.625Z" fill="#FF2B85"/>
<path d="M41.9741 180.456L43.7251 181.467C43.9046 181.57 44.218 181.557 44.4254 181.438L46.0755 180.485C46.283 180.365 46.3053 180.184 46.1259 180.081L44.375 179.07C44.1957 178.966 43.882 178.979 43.6749 179.099L42.0245 180.052C41.8173 180.171 41.7947 180.352 41.9741 180.456Z" fill="#FF2B85"/>
<path d="M34.0252 175.866L35.7761 176.877C35.9555 176.981 36.2691 176.968 36.4763 176.848L38.1267 175.895C38.3338 175.776 38.3565 175.595 38.1769 175.491L36.4262 174.48C36.2465 174.377 35.9332 174.39 35.7257 174.509L34.0756 175.462C33.8682 175.582 33.8458 175.763 34.0252 175.866Z" fill="#FF2B85"/>
<path d="M26.0764 171.277L27.8272 172.288C28.0067 172.392 28.3204 172.379 28.5275 172.259L30.1776 171.306C30.385 171.187 30.4074 171.005 30.228 170.902L28.4771 169.891C28.2977 169.787 27.9842 169.801 27.7769 169.92L26.1265 170.873C25.9194 170.992 25.8969 171.174 26.0764 171.277Z" fill="#FF2B85"/>
<path d="M49.2383 194.57L50.9892 195.581C51.1685 195.684 51.4822 195.672 51.6893 195.552L53.3397 194.599C53.5469 194.479 53.5695 194.298 53.3901 194.195L51.6392 193.184C51.4595 193.08 51.1462 193.093 50.9389 193.213L49.2887 194.166C49.0812 194.285 49.0589 194.466 49.2383 194.57Z" fill="#FF2B85"/>
<path d="M41.2894 189.981L43.0401 190.992C43.2197 191.095 43.5333 191.082 43.7405 190.962L45.3909 190.01C45.598 189.89 45.6206 189.709 45.441 189.606L43.6901 188.595C43.5107 188.491 43.1972 188.504 42.9899 188.624L41.3395 189.576C41.1323 189.696 41.1099 189.877 41.2894 189.981Z" fill="#FF2B85"/>
<path d="M34.4296 184.812L36.1803 185.823C36.3598 185.926 36.6735 185.913 36.8806 185.794L38.531 184.841C38.7382 184.721 38.7608 184.54 38.5813 184.436L36.8302 183.426C36.6509 183.322 36.3374 183.335 36.1301 183.455L34.4798 184.407C34.2725 184.527 34.25 184.708 34.4296 184.812Z" fill="#FF2B85"/>
<path d="M26.4805 180.222L28.2315 181.233C28.4109 181.337 28.7244 181.324 28.9318 181.204L30.5819 180.251C30.7892 180.132 30.8117 179.951 30.6323 179.847L28.8814 178.836C28.7019 178.733 28.3886 178.746 28.1811 178.865L26.5309 179.818C26.3236 179.938 26.3012 180.119 26.4805 180.222Z" fill="#FF2B85"/>
<path d="M18.5316 175.633L20.2827 176.644C20.4621 176.748 20.7755 176.735 20.9827 176.615L22.6331 175.662C22.8402 175.543 22.8629 175.361 22.6833 175.258L20.9326 174.247C20.7531 174.143 20.4394 174.156 20.2323 174.276L18.5819 175.229C18.3747 175.348 18.3521 175.53 18.5316 175.633Z" fill="#FF2B85"/>
<path d="M41.2542 199.18L43.0051 200.19C43.1848 200.294 43.4981 200.281 43.7056 200.161L45.3557 199.209C45.5631 199.089 45.5855 198.908 45.4061 198.804L43.6552 197.793C43.4758 197.69 43.1622 197.703 42.955 197.823L41.3046 198.775C41.0975 198.895 41.0748 199.076 41.2542 199.18Z" fill="#FF2B85"/>
<path d="M33.3054 194.59L35.0563 195.601C35.2357 195.705 35.5493 195.692 35.7564 195.572L37.4069 194.619C37.614 194.5 37.6366 194.319 37.4569 194.215L35.7062 193.204C35.5267 193.1 35.2132 193.114 35.0059 193.233L33.3558 194.186C33.1483 194.306 33.126 194.487 33.3054 194.59Z" fill="#FF2B85"/>
<path d="M26.4455 189.421L28.1964 190.432C28.3758 190.536 28.6895 190.523 28.8966 190.403L30.547 189.45C30.7541 189.331 30.7768 189.15 30.5971 189.046L28.8464 188.035C28.6668 187.932 28.3533 187.944 28.146 188.064L26.4958 189.017C26.2885 189.137 26.266 189.318 26.4455 189.421Z" fill="#FF2B85"/>
<path d="M18.4967 184.832L20.2474 185.843C20.427 185.946 20.7403 185.933 20.9478 185.814L22.5979 184.861C22.8053 184.741 22.8277 184.56 22.6483 184.457L20.8974 183.446C20.718 183.342 20.4043 183.355 20.1972 183.475L18.5468 184.428C18.3396 184.547 18.317 184.728 18.4967 184.832Z" fill="#FF2B85"/>
<path d="M33.7097 203.536L35.4605 204.546C35.64 204.65 35.9536 204.637 36.1608 204.517L37.8109 203.564C38.0183 203.445 38.041 203.264 37.8613 203.16L36.1104 202.149C35.931 202.046 35.6175 202.059 35.4102 202.178L33.7598 203.131C33.5527 203.251 33.5302 203.432 33.7097 203.536Z" fill="#FF2B85"/>
<path d="M25.7606 198.946L27.5117 199.957C27.691 200.061 28.0045 200.048 28.2117 199.928L29.8621 198.975C30.0694 198.856 30.0919 198.674 29.9125 198.571L28.1616 197.56C27.9821 197.456 27.6686 197.469 27.4613 197.589L25.811 198.542C25.6037 198.661 25.5812 198.843 25.7606 198.946Z" fill="#FF2B85"/>
<path d="M17.8117 194.357L19.5628 195.368C19.7421 195.471 20.0556 195.458 20.2628 195.339L21.9132 194.386C22.1203 194.266 22.143 194.085 21.9634 193.982L20.2127 192.971C20.033 192.867 19.7195 192.88 19.5124 193L17.862 193.953C17.6548 194.072 17.6322 194.253 17.8117 194.357Z" fill="#FF2B85"/>
<path d="M9.86273 189.768L11.6136 190.778C11.7932 190.882 12.1065 190.869 12.3139 190.749L13.9642 189.797C14.1715 189.677 14.1938 189.496 14.0146 189.392L12.2635 188.381C12.0842 188.278 11.7707 188.291 11.5634 188.41L9.91312 189.363C9.70583 189.483 9.68335 189.664 9.86273 189.768Z" fill="#FF2B85"/>
<path d="M18.2159 203.302L19.9668 204.313C20.1465 204.417 20.4599 204.404 20.6671 204.284L22.3174 203.331C22.5247 203.212 22.5472 203.03 22.3678 202.927L20.6167 201.916C20.4374 201.812 20.1239 201.825 19.9167 201.945L18.2663 202.898C18.0592 203.017 18.0365 203.199 18.2159 203.302Z" fill="#FF2B85"/>
<path d="M10.2671 198.713L12.018 199.724C12.1974 199.827 12.5109 199.814 12.7182 199.695L14.3686 198.742C14.5757 198.622 14.5982 198.441 14.4187 198.337L12.6679 197.327C12.4884 197.223 12.1751 197.236 11.9676 197.356L10.3175 198.309C10.1101 198.428 10.0877 198.609 10.2671 198.713Z" fill="#FF2B85"/>
<path d="M133.124 91.1556L134.875 92.1665C135.055 92.27 135.368 92.257 135.575 92.1373L137.226 91.1846C137.433 91.0651 137.455 90.884 137.276 90.7802L135.525 89.7694C135.346 89.6658 135.032 89.6788 134.825 89.7985L133.175 90.7513C132.967 90.8709 132.945 91.052 133.124 91.1556Z" fill="#FF2B85"/>
<path d="M141.073 95.745L142.824 96.7559C143.004 96.8594 143.317 96.8464 143.524 96.7267L145.175 95.7738C145.382 95.6541 145.404 95.4733 145.225 95.3698L143.474 94.3589C143.295 94.2553 142.981 94.268 142.774 94.3877L141.124 95.3406C140.916 95.4603 140.894 95.6414 141.073 95.745Z" fill="#FF2B85"/>
<path d="M125.175 86.5664L126.926 87.5772C127.106 87.6808 127.419 87.6678 127.627 87.5481L125.175 86.5664Z" fill="#FF2B85"/>
<path d="M125.58 95.5115L127.33 96.5224C127.51 96.6259 127.823 96.6129 128.031 96.4934L129.681 95.5406C129.888 95.4209 129.911 95.2399 129.731 95.1363L127.981 94.1254C127.801 94.0219 127.488 94.0349 127.28 94.1546L125.63 95.1071C125.423 95.2268 125.4 95.4079 125.58 95.5115Z" fill="#FF2B85"/>
<path d="M133.529 100.101L135.279 101.112C135.459 101.215 135.772 101.202 135.98 101.083L137.63 100.13C137.837 100.01 137.86 99.8292 137.68 99.7255L135.929 98.7147C135.75 98.6111 135.436 98.6241 135.229 98.7437L133.579 99.6965C133.372 99.8162 133.349 99.9972 133.529 100.101Z" fill="#FF2B85"/>
<path d="M117.631 90.9221L119.382 91.933C119.561 92.0365 119.875 92.0238 120.082 91.9041L121.732 90.9512C121.939 90.8316 121.962 90.6505 121.782 90.5469L120.032 89.536C119.852 89.4325 119.538 89.4455 119.331 89.565L117.681 90.5179C117.474 90.6376 117.451 90.8185 117.631 90.9221Z" fill="#FF2B85"/>
<path d="M118.035 99.8675L119.786 100.878C119.965 100.982 120.279 100.969 120.486 100.849L122.136 99.8964C122.344 99.7767 122.366 99.5959 122.187 99.4922L120.436 98.4813C120.256 98.3776 119.943 98.3906 119.736 98.5103L118.085 99.4632C117.878 99.5829 117.856 99.7637 118.035 99.8675Z" fill="#FF2B85"/>
<path d="M125.984 104.457L127.735 105.468C127.914 105.571 128.228 105.558 128.435 105.439L130.085 104.486C130.293 104.366 130.315 104.185 130.136 104.081L128.385 103.071C128.205 102.967 127.892 102.98 127.684 103.1L126.034 104.052C125.827 104.172 125.804 104.353 125.984 104.457Z" fill="#FF2B85"/>
<path d="M110.086 95.2782L111.837 96.289C112.016 96.3926 112.33 96.3796 112.537 96.2599L114.187 95.3072C114.395 95.1876 114.417 95.0064 114.238 94.9028L112.487 93.8919C112.307 93.7884 111.994 93.8014 111.787 93.9211L110.136 94.8738C109.929 94.9934 109.907 95.1744 110.086 95.2782Z" fill="#FF2B85"/>
<path d="M102.137 90.6886L103.888 91.6995C104.068 91.8034 104.381 91.7903 104.588 91.6706L106.239 90.7178C106.446 90.5981 106.468 90.4173 106.289 90.3134L104.538 89.3025C104.358 89.199 104.045 89.212 103.838 89.3317L102.187 90.2846C101.98 90.4043 101.958 90.585 102.137 90.6886Z" fill="#FF2B85"/>
<path d="M110.051 104.477L111.802 105.488C111.981 105.591 112.295 105.579 112.502 105.459L114.153 104.506C114.36 104.386 114.382 104.205 114.203 104.102L112.452 103.091C112.272 102.987 111.959 103 111.752 103.12L110.101 104.073C109.894 104.192 109.871 104.373 110.051 104.477Z" fill="#FF2B85"/>
<path d="M118 109.066L119.751 110.077C119.93 110.181 120.244 110.168 120.451 110.048L122.101 109.095C122.308 108.976 122.331 108.795 122.152 108.691L120.401 107.68C120.221 107.577 119.908 107.59 119.7 107.709L118.05 108.662C117.843 108.782 117.82 108.963 118 109.066Z" fill="#FF2B85"/>
<path d="M102.102 99.8877L103.853 100.899C104.032 101.002 104.346 100.989 104.553 100.869L106.203 99.9165C106.411 99.797 106.433 99.6161 106.254 99.5125L104.503 98.5016C104.323 98.3981 104.01 98.4108 103.803 98.5305L102.152 99.4833C101.945 99.603 101.923 99.7841 102.102 99.8877Z" fill="#FF2B85"/>
<path d="M94.1531 95.2983L95.9041 96.3092C96.0833 96.4128 96.397 96.3999 96.6041 96.2804L98.2545 95.3275C98.4617 95.2078 98.4843 95.0267 98.3048 94.9231L96.554 93.9122C96.3743 93.8085 96.0608 93.8215 95.8537 93.9412L94.2033 94.8941C93.996 95.0138 93.9735 95.1948 94.1531 95.2983Z" fill="#FF2B85"/>
<path d="M102.506 108.833L104.257 109.844C104.437 109.947 104.75 109.934 104.957 109.815L106.608 108.862C106.815 108.742 106.837 108.561 106.658 108.458L104.907 107.447C104.728 107.343 104.414 107.356 104.207 107.476L102.557 108.428C102.349 108.548 102.327 108.729 102.506 108.833Z" fill="#FF2B85"/>
<path d="M110.455 113.422L112.206 114.433C112.386 114.537 112.699 114.524 112.906 114.404L114.557 113.451C114.764 113.332 114.786 113.151 114.607 113.047L112.856 112.036C112.677 111.932 112.363 111.945 112.156 112.065L110.505 113.018C110.298 113.138 110.276 113.318 110.455 113.422Z" fill="#FF2B85"/>
<path d="M94.5574 104.243L96.3081 105.254C96.4877 105.358 96.8013 105.345 97.0085 105.225L98.6587 104.273C98.866 104.153 98.8885 103.972 98.7091 103.868L96.9581 102.857C96.7787 102.754 96.4652 102.767 96.258 102.887L94.6076 103.839C94.4003 103.959 94.3779 104.14 94.5574 104.243Z" fill="#FF2B85"/>
<path d="M86.6084 99.6542L88.3593 100.665C88.5387 100.769 88.8522 100.756 89.0595 100.636L90.7099 99.6834C90.917 99.5637 90.9395 99.3826 90.7603 99.279L89.0092 98.2681C88.8297 98.1646 88.5164 98.1776 88.3089 98.2973L86.6588 99.2499C86.4514 99.3696 86.429 99.5506 86.6084 99.6542Z" fill="#FF2B85"/>
<path d="M94.9616 113.189L96.7125 114.2C96.8919 114.303 97.2055 114.29 97.4127 114.171L99.0631 113.218C99.2702 113.098 99.2928 112.917 99.1135 112.814L97.3624 111.803C97.1829 111.699 96.8695 111.712 96.6621 111.832L95.012 112.785C94.8045 112.904 94.7822 113.085 94.9616 113.189Z" fill="#FF2B85"/>
<path d="M102.911 117.778L104.661 118.789C104.841 118.893 105.155 118.88 105.362 118.76L107.012 117.807C107.219 117.688 107.242 117.507 107.062 117.403L105.311 116.392C105.132 116.288 104.818 116.301 104.611 116.421L102.961 117.374C102.754 117.494 102.731 117.675 102.911 117.778Z" fill="#FF2B85"/>
<path d="M87.0128 108.599L88.7636 109.61C88.943 109.714 89.2565 109.701 89.4638 109.581L91.1142 108.628C91.3214 108.509 91.3439 108.328 91.1643 108.224L89.4136 107.213C89.234 107.11 88.9204 107.123 88.7133 107.242L87.0628 108.195C86.8557 108.315 86.8331 108.496 87.0128 108.599Z" fill="#FF2B85"/>
<path d="M79.0636 104.01L80.8145 105.021C80.9942 105.125 81.3075 105.112 81.515 104.992L83.1651 104.039C83.3725 103.919 83.3949 103.739 83.2155 103.635L81.4646 102.624C81.2852 102.52 80.9716 102.533 80.7644 102.653L79.114 103.606C78.9069 103.726 78.8842 103.906 79.0636 104.01Z" fill="#FF2B85"/>
<path d="M86.9777 117.798L88.7284 118.809C88.908 118.913 89.2215 118.9 89.4288 118.78L91.079 117.827C91.2863 117.708 91.3088 117.527 91.1294 117.423L89.3784 116.412C89.199 116.308 88.8855 116.322 88.6784 116.441L87.028 117.394C86.8207 117.514 86.7982 117.695 86.9777 117.798Z" fill="#FF2B85"/>
<path d="M94.9265 122.388L96.6776 123.399C96.857 123.502 97.1705 123.489 97.3776 123.369L99.028 122.417C99.2352 122.297 99.2578 122.116 99.0783 122.012L97.3275 121.002C97.1478 120.898 96.8343 120.911 96.6272 121.031L94.9768 121.983C94.7696 122.103 94.747 122.284 94.9265 122.388Z" fill="#FF2B85"/>
<path d="M79.0287 113.209L80.7796 114.22C80.959 114.323 81.2725 114.31 81.4798 114.191L83.1302 113.238C83.3373 113.118 83.3598 112.937 83.1803 112.834L81.4295 111.823C81.25 111.719 80.9367 111.732 80.7292 111.852L79.079 112.805C78.8717 112.924 78.8493 113.105 79.0287 113.209Z" fill="#FF2B85"/>
<path d="M71.0797 108.62L72.8305 109.631C73.0102 109.734 73.3236 109.721 73.5308 109.602L75.1812 108.649C75.3885 108.529 75.411 108.348 75.2314 108.244L73.4806 107.234C73.3012 107.13 72.9875 107.143 72.7804 107.263L71.13 108.215C70.9228 108.335 70.9002 108.516 71.0797 108.62Z" fill="#FF2B85"/>
<path d="M79.4331 122.154L81.1838 123.165C81.3634 123.269 81.6769 123.256 81.8841 123.136L83.5344 122.183C83.7417 122.064 83.7642 121.883 83.5846 121.779L81.8338 120.768C81.6544 120.665 81.3407 120.678 81.1336 120.797L79.4832 121.75C79.276 121.87 79.2534 122.051 79.4331 122.154Z" fill="#FF2B85"/>
<path d="M87.3819 126.744L89.1328 127.755C89.3122 127.858 89.6258 127.845 89.833 127.725L91.4834 126.773C91.6905 126.653 91.7132 126.472 91.5338 126.368L89.7827 125.357C89.6032 125.254 89.2899 125.267 89.0824 125.386L87.4323 126.339C87.2249 126.459 87.2025 126.64 87.3819 126.744Z" fill="#FF2B85"/>
<path d="M71.4839 117.565L73.2348 118.576C73.4145 118.68 73.7279 118.666 73.9352 118.547L75.5854 117.594C75.7929 117.474 75.8152 117.293 75.6358 117.19L73.8849 116.179C73.7055 116.075 73.3919 116.088 73.1848 116.208L71.5343 117.161C71.3272 117.28 71.3046 117.461 71.4839 117.565Z" fill="#FF2B85"/>
<path d="M63.5351 112.976L65.286 113.986C65.4654 114.09 65.779 114.077 65.9862 113.957L67.6366 113.005C67.8437 112.885 67.8664 112.704 67.6867 112.6L65.936 111.589C65.7564 111.486 65.4429 111.499 65.2356 111.619L63.5852 112.571C63.3781 112.691 63.3556 112.872 63.5351 112.976Z" fill="#FF2B85"/>
<path d="M71.8883 126.51L73.6392 127.521C73.8185 127.625 74.1322 127.612 74.3393 127.492L75.9898 126.539C76.1969 126.42 76.2195 126.239 76.0398 126.135L74.2893 125.124C74.1096 125.02 73.7961 125.034 73.5888 125.153L71.9387 126.106C71.7312 126.226 71.7089 126.407 71.8883 126.51Z" fill="#FF2B85"/>
<path d="M79.8371 131.1L81.5882 132.11C81.7677 132.214 82.081 132.201 82.2885 132.081L83.9386 131.128C84.146 131.009 84.1684 130.828 83.989 130.724L82.2381 129.714C82.0587 129.61 81.7451 129.623 81.5379 129.742L79.8875 130.695C79.6804 130.815 79.6577 130.996 79.8371 131.1Z" fill="#FF2B85"/>
<path d="M63.9395 121.921L65.6902 122.932C65.8697 123.035 66.1831 123.022 66.3905 122.903L68.0406 121.95C68.2481 121.83 68.2704 121.649 68.091 121.545L66.3401 120.535C66.1607 120.431 65.8472 120.444 65.64 120.564L63.9895 121.517C63.7824 121.636 63.7599 121.817 63.9395 121.921Z" fill="#FF2B85"/>
<path d="M55.9903 117.332L57.7413 118.342C57.9207 118.446 58.2342 118.433 58.4413 118.313L60.0917 117.361C60.2989 117.241 60.3215 117.06 60.1421 116.956L58.3912 115.946L55.9903 117.332Z" fill="#FF2B85"/>
<path d="M63.9043 131.12L65.6552 132.131C65.8346 132.234 66.1482 132.221 66.3553 132.102L68.0058 131.149C68.2129 131.029 68.2355 130.848 68.0561 130.745L66.3051 129.734C66.1256 129.63 65.8122 129.643 65.6048 129.763L63.9547 130.715C63.7472 130.835 63.7249 131.016 63.9043 131.12Z" fill="#FF2B85"/>
<path d="M71.8532 135.709L73.604 136.72C73.7837 136.823 74.0972 136.811 74.3045 136.691L75.9546 135.738C76.162 135.618 76.1843 135.437 76.005 135.334L74.2541 134.323C74.0747 134.219 73.761 134.232 73.5539 134.352L71.9035 135.305C71.6963 135.425 71.6737 135.605 71.8532 135.709Z" fill="#FF2B85"/>
<path d="M55.9554 126.53L57.7063 127.541C57.8857 127.645 58.1993 127.632 58.4065 127.512L60.0569 126.56C60.264 126.44 60.2867 126.259 60.107 126.155L58.3561 125.144C58.1767 125.041 57.8631 125.054 57.6559 125.173L56.0055 126.126C55.7984 126.246 55.7757 126.427 55.9554 126.53Z" fill="#FF2B85"/>
<path d="M56.3597 135.475L58.1105 136.486C58.29 136.59 58.6034 136.577 58.8108 136.458L60.4609 135.505C60.6684 135.385 60.6907 135.204 60.5113 135.1L58.7604 134.089C58.581 133.986 58.2674 133.999 58.0602 134.119L56.4098 135.071C56.2027 135.191 56.1801 135.372 56.3597 135.475Z" fill="#FF2B85"/>
<path d="M64.3086 140.065L66.0595 141.076C66.2389 141.18 66.5525 141.166 66.7597 141.047L68.4101 140.094C68.6172 139.975 68.6399 139.793 68.4602 139.69L66.7094 138.679C66.5299 138.575 66.2164 138.588 66.0091 138.708L64.3587 139.661C64.1516 139.78 64.1291 139.962 64.3086 140.065Z" fill="#FF2B85"/>
<path d="M48.4106 130.886L50.1616 131.897C50.341 132.001 50.6545 131.988 50.8617 131.868L52.5121 130.915C52.7192 130.796 52.7418 130.615 52.5623 130.511L50.8116 129.5C50.6319 129.397 50.3185 129.41 50.1112 129.529L48.461 130.482C48.2537 130.602 48.2312 130.783 48.4106 130.886Z" fill="#FF2B85"/>
<path d="M48.815 139.832L50.5657 140.842C50.7454 140.946 51.0589 140.933 51.2661 140.813L52.9165 139.861C53.1236 139.741 53.1463 139.56 52.9667 139.456L51.2157 138.445C51.0363 138.342 50.7228 138.355 50.5157 138.474L48.8652 139.427C48.6581 139.547 48.6355 139.728 48.815 139.832Z" fill="#FF2B85"/>
<path d="M56.7638 144.421L58.5148 145.432C58.6942 145.535 59.0077 145.522 59.2148 145.403L60.8653 144.45C61.0726 144.33 61.095 144.149 60.9156 144.046L59.1648 143.035C58.9852 142.931 58.6717 142.944 58.4644 143.064L56.8142 144.017C56.6069 144.136 56.5844 144.317 56.7638 144.421Z" fill="#FF2B85"/>
<path d="M40.866 135.242L42.6168 136.253C42.7964 136.357 43.1099 136.344 43.3172 136.224L44.9674 135.271C45.1747 135.152 45.1972 134.971 45.0178 134.867L43.2668 133.856C43.0874 133.752 42.7739 133.765 42.5664 133.885L40.9163 134.838C40.7091 134.958 40.6866 135.139 40.866 135.242Z" fill="#FF2B85"/>
<path d="M40.8309 144.441L42.582 145.452C42.7614 145.556 43.0749 145.543 43.282 145.423L44.9324 144.47C45.1395 144.351 45.1622 144.169 44.9827 144.066L43.2319 143.055C43.0522 142.951 42.7387 142.964 42.5316 143.084L40.8813 144.037C40.674 144.156 40.6516 144.338 40.8309 144.441Z" fill="#FF2B85"/>
<path d="M48.7798 149.03L50.5308 150.041C50.7104 150.145 51.0237 150.132 51.2312 150.012L52.8813 149.059C53.0887 148.94 53.111 148.759 52.9317 148.655L51.1808 147.644C51.0014 147.541 50.6877 147.554 50.4806 147.673L48.8302 148.626C48.623 148.746 48.6004 148.927 48.7798 149.03Z" fill="#FF2B85"/>
<path d="M32.9323 139.448C32.7251 139.567 32.7026 139.748 32.8821 139.852L34.6328 140.863C34.8124 140.966 35.1257 140.953 35.3332 140.834L36.9834 139.881C37.1907 139.761 37.213 139.58 37.0338 139.477L35.2828 138.466L32.9323 139.448Z" fill="#FF2B85"/>
<path d="M33.2863 148.797L35.0372 149.808C35.2166 149.912 35.5301 149.899 35.7374 149.779L37.3878 148.826C37.5949 148.706 37.6174 148.526 37.4382 148.422L35.6871 147.411C35.5076 147.307 35.1943 147.32 34.9868 147.44L33.3367 148.393C33.1292 148.513 33.1069 148.693 33.2863 148.797Z" fill="#FF2B85"/>
<path d="M41.2353 153.386L42.986 154.397C43.1657 154.501 43.4792 154.488 43.6864 154.368L45.3368 153.415C45.5439 153.296 45.5665 153.115 45.387 153.011L43.636 152C43.4566 151.897 43.1431 151.91 42.936 152.029L41.2855 152.982C41.0784 153.102 41.0558 153.283 41.2353 153.386Z" fill="#FF2B85"/>
<path d="M25.3373 144.208L27.0883 145.219C27.2677 145.322 27.5812 145.309 27.7885 145.189L29.4388 144.237C29.6461 144.117 29.6685 143.936 29.489 143.832L27.7383 142.822C27.5587 142.718 27.2451 142.731 27.038 142.851L25.3875 143.803C25.1804 143.923 25.1578 144.104 25.3373 144.208Z" fill="#FF2B85"/>
<path d="M25.7415 153.153L27.4924 154.164C27.6721 154.268 27.9854 154.254 28.1929 154.135L29.843 153.182C30.0504 153.062 30.0728 152.881 29.8934 152.778L28.1425 151.767C27.9631 151.663 27.6495 151.676 27.4423 151.796L25.7919 152.749C25.5848 152.868 25.5621 153.049 25.7415 153.153Z" fill="#FF2B85"/>
<path d="M33.6907 157.742L35.4415 158.753C35.6209 158.857 35.9344 158.844 36.1417 158.724L37.7921 157.771C37.9993 157.652 38.0217 157.471 37.8422 157.367L36.0915 156.356C35.9119 156.253 35.5983 156.266 35.3912 156.385L33.7407 157.338C33.5336 157.458 33.511 157.639 33.6907 157.742Z" fill="#FF2B85"/>
<path d="M17.7927 148.564L19.5436 149.575C19.723 149.678 20.0366 149.665 20.2438 149.546L21.8942 148.593C22.1013 148.473 22.1239 148.292 21.9443 148.188L20.1935 147.178C20.014 147.074 19.7006 147.087 19.4932 147.206L17.8431 148.159C17.6356 148.279 17.6133 148.46 17.7927 148.564Z" fill="#FF2B85"/>
<path d="M17.7577 157.762L19.5084 158.773C19.6881 158.877 20.0016 158.864 20.2087 158.744L21.8591 157.792C22.0664 157.672 22.0889 157.491 21.9094 157.387L20.1585 156.376C19.9791 156.273 19.6654 156.286 19.4583 156.406L17.8079 157.358C17.6007 157.478 17.5781 157.659 17.7577 157.762Z" fill="#FF2B85"/>
<path d="M25.7066 162.352L27.4575 163.363C27.6369 163.466 27.9504 163.453 28.1577 163.334L29.8081 162.381C30.0152 162.261 30.0377 162.08 29.8582 161.977L28.1075 160.966C27.9279 160.862 27.6146 160.875 27.4071 160.995L25.757 161.948C25.5496 162.067 25.5273 162.248 25.7066 162.352Z" fill="#FF2B85"/>
<path d="M8.07001 152.494L9.82107 153.505C10.0005 153.609 10.3139 153.596 10.5211 153.476L12.1715 152.523C12.3788 152.404 12.4013 152.223 12.2217 152.119L10.471 151.108C10.2915 151.004 9.9778 151.018 9.77067 151.137L8.12026 152.09C7.91313 152.21 7.89048 152.391 8.07001 152.494Z" fill="#FF2B85"/>
<path d="M0.121183 147.905L1.87192 148.916C2.05161 149.019 2.36494 149.006 2.57223 148.887L4.2225 147.934C4.42979 147.815 4.45227 147.633 4.27289 147.53L2.52185 146.519C2.34247 146.415 2.02897 146.428 1.82184 146.548L0.171415 147.501C-0.0357203 147.62 -0.0583549 147.801 0.121183 147.905Z" fill="#FF2B85"/>
<path d="M18.1618 166.708L19.9127 167.719C20.0924 167.822 20.4057 167.809 20.613 167.69L22.2633 166.737C22.4707 166.617 22.4931 166.436 22.3137 166.332L20.5628 165.322C20.3834 165.218 20.0697 165.231 19.8626 165.351L18.2122 166.304C18.0051 166.423 17.9824 166.604 18.1618 166.708Z" fill="#FF2B85"/>
<path d="M0.52538 156.85L2.27626 157.861C2.45565 157.965 2.76929 157.952 2.97643 157.832L4.62685 156.879C4.83399 156.76 4.85662 156.579 4.67724 156.475L2.9262 155.464C2.74666 155.361 2.43333 155.374 2.22588 155.493L0.575764 156.446C0.368319 156.566 0.345996 156.747 0.52538 156.85Z" fill="#FF2B85"/>
<path d="M72.7342 84.96C72.7328 84.9017 72.8969 29.7412 72.9018 28.2195C72.9024 28.0609 73.0085 27.9361 73.1613 27.8939L114.682 31.7483C114.711 31.7405 114.739 31.7287 114.765 31.7137L118.644 8.8151C118.753 8.75184 118.888 8.752 118.998 8.81572L157.167 30.8755C157.249 30.9233 157.347 30.9358 157.438 30.9107L164.753 28.8983C164.979 28.8364 165.201 28.9973 165.2 29.2311C165.189 31.0989 165.008 85.3902 164.988 85.5978L164.98 85.6603C164.848 86.8857 164.204 88.0634 162.985 88.7669L124.389 110.987C121.103 112.884 117.052 112.877 113.773 110.968L74.7603 88.4169C73.4527 87.6557 72.7914 86.3507 72.7424 85.0266L72.7342 84.96Z" fill="#F8C1D9"/>
<path d="M119.097 113.324C121.085 113.324 123.076 112.813 124.854 111.787L163.445 89.5664C164.829 88.7693 165.722 87.3828 165.896 85.7603C165.918 85.5603 165.936 82.4562 166.083 40.4359L166.122 29.2353C166.128 28.8426 165.951 28.4728 165.635 28.2277C165.319 27.9811 164.898 27.9028 164.51 28.0066L157.424 29.9571L119.461 8.01586C119.076 7.79028 118.583 7.78594 118.186 8.01137C117.945 8.14842 117.779 8.38595 117.731 8.6596L113.99 30.7557L73.2446 26.9734C73.1334 26.9599 73.0221 26.9734 72.9167 27.0035C72.3543 27.1568 71.9784 27.6457 71.9784 28.2186C71.9723 29.7375 71.8098 84.9017 71.8098 84.9603C71.8098 85.0024 71.8129 85.0443 71.819 85.0849L71.8281 85.1511C71.8822 86.7947 72.8086 88.3484 74.2944 89.2162L113.31 111.768C115.094 112.805 117.097 113.324 119.097 113.324ZM164.272 29.9887L164.236 40.4298C164.179 55.9991 164.08 84.9783 164.065 85.5662C163.996 86.1664 163.71 87.282 162.525 87.9664L123.93 110.187C120.938 111.912 117.22 111.906 114.239 110.169L75.2236 87.6174C74.2764 87.0656 73.7048 86.1077 73.6657 84.9933L72.7333 84.9603L73.6565 84.9618C73.6565 84.7902 73.804 35.3437 73.8221 28.8832L114.597 32.6686C114.7 32.685 114.802 32.6701 114.907 32.6444C114.985 32.6249 115.145 32.5602 115.214 32.5211C115.461 32.3842 115.629 32.1452 115.677 31.8684L119.365 10.0944L156.705 31.676C157.006 31.8503 157.361 31.8879 157.682 31.8024L164.272 29.9887Z" fill="#FF2B85"/>
<path d="M73.161 27.9093L114.682 31.7635C114.711 31.7557 114.739 31.7439 114.765 31.7289L119.58 45.8963L119.381 112.401C117.447 112.452 115.503 111.99 113.773 110.983L74.7603 88.4321C73.4527 87.6709 72.7914 86.3659 72.7424 85.0418L72.7342 84.9752C72.7328 84.9169 72.8968 29.7564 72.9018 28.2347C72.9024 28.0761 73.0085 27.9513 73.161 27.9093Z" fill="#FF2B85"/>
<path d="M119.091 113.329C119.196 113.329 119.299 113.327 119.404 113.324C119.903 113.311 120.303 112.903 120.303 112.404L120.505 45.8994C120.505 45.797 120.489 45.6963 120.456 45.5986L115.641 31.4307C115.554 31.1721 115.352 30.9645 115.1 30.8668C114.928 30.8008 114.745 30.7901 114.573 30.8247L73.2446 26.9883C73.1334 26.9779 73.0221 26.9883 72.9167 27.0185C72.3544 27.1719 71.9784 27.6607 71.9784 28.235C71.9723 29.7541 71.8098 84.9166 71.8098 84.9752C71.8822 86.8099 72.8086 88.3633 74.2944 89.2311L113.31 111.783C115.051 112.796 117.043 113.329 119.091 113.329ZM118.658 46.0481L118.459 111.461C116.961 111.365 115.518 110.93 114.239 110.184L75.2236 87.6326C74.2764 87.0806 73.7048 86.1226 73.6657 85.0082C73.6565 84.8082 73.804 35.3544 73.8221 28.8983L114.098 32.6368L118.658 46.0481Z" fill="#FF2B85"/>
<path d="M124.379 54.3814L163.153 32.0588C165.881 30.4837 165.888 26.5477 163.166 24.9626L123.976 2.30878C120.806 0.463323 116.891 0.456191 113.714 2.28987L74.941 24.6125C72.2123 26.1877 72.2052 30.1237 74.9279 31.7089L114.117 54.3625C117.287 56.2078 121.203 56.2152 124.379 54.3814Z" fill="white"/>
<path d="M119.262 56.6728C121.19 56.6728 123.118 56.1751 124.839 55.1811L163.614 32.8594C165.187 31.9526 166.125 30.3285 166.128 28.5163C166.131 26.7027 165.196 25.0771 163.632 24.1642L124.439 1.50876C120.992 -0.497321 116.706 -0.501973 113.253 1.48923L74.4807 23.8124C72.9078 24.7191 71.9692 26.342 71.9664 28.1553C71.9635 29.969 72.8957 31.5963 74.4657 32.5077L113.653 55.163C115.382 56.169 117.322 56.6728 119.262 56.6728ZM118.829 1.84706C120.447 1.84706 122.068 2.26816 123.509 3.10755L162.702 25.7627C163.692 26.3373 164.282 27.3676 164.278 28.5135C164.278 29.6592 163.683 30.6864 162.69 31.2594L123.918 53.5809H123.915C121.037 55.2427 117.455 55.2413 114.582 53.5643L75.3921 30.9089C74.4026 30.3346 73.8131 29.3059 73.8131 28.16C73.8162 27.0125 74.4086 25.9854 75.404 25.4125L114.173 3.08941C115.611 2.26227 117.22 1.84706 118.829 1.84706Z" fill="#FF2B85"/>
<path d="M138.074 46.2561L87.457 17.1658L100.972 9.62613L150.598 39.0461L138.074 46.2561Z" fill="white"/>
<path d="M138.075 47.1791C138.235 47.1791 138.394 47.1385 138.536 47.0557L151.057 39.8462C151.342 39.6824 151.517 39.38 151.52 39.0524C151.523 38.7245 151.351 38.4191 151.069 38.2509L101.445 8.83107C101.153 8.66254 100.807 8.6596 100.521 8.81898L87.0049 16.3579C86.716 16.5202 86.5355 16.8269 86.5326 17.1593C86.5295 17.4916 86.7072 17.7999 86.9957 17.9669L137.615 47.0572C137.757 47.1385 137.916 47.1791 138.075 47.1791ZM148.765 39.0343L138.075 45.1894L89.3297 17.1774L100.958 10.6928L148.765 39.0343Z" fill="#FF2B85"/>
<path d="M148.652 16.5731L100.217 46.4278L87.7106 39.1983L136.312 9.54008L148.652 16.5731Z" fill="white"/>
<path d="M100.218 47.3504C100.386 47.3504 100.554 47.3055 100.702 47.2137L149.138 17.3593C149.417 17.188 149.583 16.8827 149.577 16.5563C149.571 16.23 149.393 15.9321 149.111 15.7698L136.77 8.73774C136.481 8.56952 136.12 8.57681 135.832 8.75294L87.2305 38.4102C86.9506 38.5785 86.7853 38.8839 86.7884 39.2087C86.7912 39.5351 86.9658 39.8343 87.2486 39.9983L99.7544 47.2273C99.8989 47.31 100.058 47.3504 100.218 47.3504ZM146.843 16.6046L100.203 45.3504L89.5193 39.1772L136.328 10.6131L146.843 16.6046Z" fill="#FF2B85"/>
<path d="M138.259 94.3789H138.262C138.773 94.3774 139.185 93.9622 139.182 93.4524L138.999 46.2527C138.999 45.7429 138.584 45.3324 138.075 45.3324H138.073C137.561 45.3339 137.149 45.7488 137.152 46.2588L137.335 93.4583C137.335 93.9682 137.751 94.3789 138.259 94.3789Z" fill="#FF2B85"/>
<path d="M150.684 60.1542H150.687C151.198 60.1528 151.61 59.7378 151.607 59.2263L151.52 39.0417C151.517 38.5335 151.105 38.123 150.596 38.123H150.593C150.082 38.1245 149.67 38.5394 149.673 39.0509L149.76 59.2355C149.763 59.7437 150.175 60.1542 150.684 60.1542Z" fill="#FF2B85"/>
<path d="M88.214 59.0788C88.7252 59.0788 89.1373 58.664 89.1373 58.1542L89.1192 44.9459C89.1192 44.4361 88.7041 44.024 88.1957 44.024C87.6846 44.024 87.2725 44.439 87.2725 44.9488L87.2906 58.1571C87.2906 58.6669 87.7056 59.0788 88.214 59.0788Z" fill="#F8C1D9"/>
<path d="M101.809 93.1352C102.32 93.1352 102.732 92.7231 102.732 92.2117L102.744 51.1883C102.744 50.6785 102.332 50.2649 101.821 50.2649C101.309 50.2633 100.897 50.677 100.897 51.1883L100.885 92.2117C100.885 92.7215 101.297 93.1352 101.809 93.1352Z" fill="#F8C1D9"/>
<path d="M135.245 73.5686L135.235 72.8928C135.198 70.4 137.189 67.1528 139.66 65.6767L148.231 60.5573C150.702 59.081 152.754 59.9128 152.791 62.4053L152.801 63.0814C152.838 65.5742 150.847 68.8212 148.375 70.2975L139.805 75.4168C137.334 76.893 135.282 76.0614 135.245 73.5686Z" fill="white"/>
<path d="M87.8801 77.0794C91.6293 74.3822 97.9925 75.9393 104.452 83.3785C108.716 88.2901 111.197 94.6104 111.08 101.114C111.007 105.155 109.926 107.422 107.447 109.055L107.038 109.343L30.7438 153.306C30.5077 153.442 30.2062 153.36 30.0721 153.123L12.078 121.346C11.9448 121.112 12.0265 120.814 12.2603 120.679L87.8801 77.0794Z" fill="#F8C1D9"/>
<path d="M30.5022 154.296C30.7459 154.296 30.9866 154.232 31.2061 154.107L107.98 109.81C110.714 108.008 111.927 105.408 112.002 101.131C112.125 94.5217 109.692 88.0024 105.15 82.7722C98.9184 75.5911 91.9436 73.0587 87.3808 76.3026L11.8006 119.88C11.1298 120.261 10.8922 121.123 11.2712 121.8L29.2693 153.579C29.4586 153.913 29.7655 154.148 30.1324 154.247C30.2528 154.28 30.3791 154.296 30.5022 154.296ZM91.9074 76.7477C95.3872 76.7477 99.6882 79.3011 103.755 83.9841C107.995 88.8672 110.269 94.9456 110.155 101.098C110.089 104.787 109.187 106.802 106.94 108.283L106.507 108.589L30.6616 152.287L13.0938 121.266L88.3402 77.88C88.3674 77.8651 88.3945 77.8485 88.4184 77.8305C89.432 77.1011 90.6141 76.7477 91.9074 76.7477Z" fill="#FF2B85"/>
<path d="M73.2455 108.705L21.7418 138.412L12.078 121.346C11.9448 121.112 12.0262 120.813 12.2603 120.679L87.8798 77.0792C91.6293 74.3822 97.9925 75.9393 104.452 83.3785C105.74 84.8626 106.843 86.4867 107.783 88.1941C107.8 88.2917 107.81 88.3958 107.85 88.4678L73.2455 108.705Z" fill="white"/>
<path d="M21.741 139.335C21.9005 139.335 22.0599 139.294 22.2011 139.211L73.7048 109.504C74.1469 109.25 74.3003 108.685 74.0446 108.243C73.7891 107.802 73.2206 107.649 72.7844 107.904L22.0867 137.145L13.0938 121.266L88.3402 77.8784C92.1631 75.1401 98.1753 77.5581 103.755 83.9841C104.919 85.3242 105.974 86.8445 106.898 88.5062C106.925 88.64 106.967 88.7904 107.057 88.9393C107.322 89.3815 107.89 89.5199 108.323 89.2611C108.762 88.9994 108.907 88.4326 108.645 87.9951C108.627 87.8971 108.639 87.8354 108.591 87.7484C107.586 85.9212 106.429 84.2472 105.15 82.7722C98.9001 75.5731 91.9043 73.0438 87.3418 76.328L11.8006 119.88C11.1298 120.26 10.8922 121.123 11.2712 121.798L20.938 138.867C21.0583 139.081 21.2599 139.239 21.4974 139.303C21.5786 139.324 21.6599 139.335 21.741 139.335Z" fill="#FF2B85"/>
<path d="M83.6091 103.653C83.7656 103.653 83.925 103.612 84.0724 103.528L102.326 92.9981C102.765 92.744 102.918 92.1786 102.663 91.7364C102.404 91.2973 101.848 91.1441 101.4 91.3981L83.146 101.928C82.7069 102.182 82.5533 102.748 82.8091 103.19C82.9804 103.486 83.2904 103.653 83.6091 103.653Z" fill="#FF2B85"/>
<path d="M107.451 108.872L107.042 109.16L30.7477 153.124C30.5117 153.26 30.2103 153.177 30.076 152.94L26.98 147.473L33.8421 145.008L110.412 101.316C110.339 105.357 109.93 107.239 107.451 108.872Z" fill="#FF2B85"/>
<path d="M30.5053 154.114C30.7491 154.114 30.9926 154.05 31.2091 153.923L107.969 109.637C110.754 107.799 111.259 105.588 111.334 101.333C111.34 101 111.169 100.69 110.883 100.521C110.591 100.351 110.239 100.349 109.954 100.513L33.3838 144.204L26.6674 146.604C26.4119 146.696 26.2073 146.896 26.1143 147.152C26.018 147.407 26.0422 147.692 26.1773 147.929L29.2723 153.396C29.4617 153.728 29.7655 153.964 30.1325 154.063C30.2559 154.098 30.3819 154.114 30.5053 154.114ZM109.427 102.94C109.259 105.659 108.718 106.933 106.943 108.1C106.934 108.104 106.928 108.11 106.919 108.117L106.51 108.405L30.6647 152.105L28.3248 147.973L34.1538 145.876L109.427 102.94Z" fill="#FF2B85"/>
<path d="M7.26271 129.847C7.26271 138.321 13.2117 148.625 20.5506 152.862C27.8892 157.099 33.8383 153.664 33.8383 145.19C33.8383 136.716 27.8892 126.412 20.5506 122.175C13.2117 117.938 7.26271 121.373 7.26271 129.847Z" fill="#F8C1D9"/>
<path d="M26.487 155.608C27.9099 155.608 29.2332 155.271 30.4092 154.593C33.2153 152.973 34.7612 149.633 34.7612 145.191C34.7612 136.435 28.5926 125.752 21.013 121.376C17.1634 119.155 13.503 118.825 10.6907 120.443C7.88459 122.065 6.33867 125.405 6.33867 129.847C6.33867 138.602 12.5075 149.286 20.0867 153.662C22.3273 154.955 24.5051 155.608 26.487 155.608ZM14.6187 121.28C16.2761 121.28 18.1378 121.85 20.0867 122.976C27.1609 127.059 32.9145 137.023 32.9145 145.191C32.9145 148.946 31.6965 151.716 29.4827 152.993C27.275 154.271 24.2613 153.939 21.013 152.062C13.939 147.979 8.18536 138.014 8.18536 129.847C8.18536 126.092 9.40338 123.322 11.6171 122.045C12.5014 121.534 13.5149 121.28 14.6187 121.28Z" fill="#FF2B85"/>
<path d="M17.0312 135.487C17.0312 137.731 18.6068 140.46 20.5505 141.582C22.4941 142.705 24.0698 141.795 24.0698 139.551C24.0698 137.306 22.4941 134.577 20.5505 133.455C18.6068 132.333 17.0312 133.243 17.0312 135.487Z" fill="#FF2B85"/>
<path d="M49.7905 136.046C53.5399 133.348 59.9031 134.906 66.3623 142.345C70.627 147.257 73.1078 153.577 72.9903 160.08C72.9175 164.121 71.8367 166.388 69.3577 168.021L68.9484 168.309L32.0615 189.606C31.8255 189.742 31.524 189.659 31.3898 189.422L13.3954 157.646C13.2625 157.411 13.3442 157.113 13.578 156.978L49.7905 136.046Z" fill="#F8C1D9"/>
<path d="M31.8198 190.596C32.0635 190.596 32.3041 190.532 32.5236 190.407L69.891 168.776C72.625 166.975 73.837 164.375 73.9123 160.097C74.0357 153.489 71.6025 146.97 67.0609 141.739C60.8257 134.557 53.8541 132.023 49.2914 135.268L13.1149 156.178C12.4473 156.564 12.2094 157.426 12.5885 158.1L30.5865 189.877C30.7762 190.21 31.0799 190.447 31.4467 190.547C31.57 190.58 31.6965 190.596 31.8198 190.596ZM53.8178 135.713C57.2979 135.713 61.5989 138.267 65.6652 142.951C69.9061 147.835 72.1799 153.911 72.0656 160.064C71.9994 163.754 71.0971 165.769 68.8504 167.249L68.4172 167.554L31.9791 188.587L14.4114 157.564L50.2539 136.846C50.2809 136.831 50.3049 136.814 50.3291 136.796C51.3428 136.067 52.5246 135.713 53.8178 135.713Z" fill="#FF2B85"/>
<path d="M63.4333 151.56L23.0595 174.711L13.3957 157.646C13.2625 157.411 13.344 157.113 13.5781 156.978L49.7905 136.046C53.5399 133.349 59.9031 134.906 66.3623 142.345C67.6509 143.829 68.7534 145.453 69.6937 147.161C69.7103 147.258 69.7208 147.362 69.7604 147.434L63.4333 151.56Z" fill="white"/>
<path d="M23.0584 175.634C23.2178 175.634 23.3771 175.594 23.5185 175.513L63.8939 152.361C64.3359 152.107 64.4892 151.543 64.2337 151.099C63.9809 150.657 63.4095 150.51 62.9732 150.758L23.4043 173.448L14.4114 157.564L50.2539 136.846C54.0676 134.109 60.0859 136.527 65.6652 142.951C66.8263 144.288 67.885 145.809 68.8084 147.474C68.8355 147.606 68.8774 147.752 68.9647 147.901C69.2203 148.341 69.7889 148.489 70.228 148.233C70.667 147.976 70.8174 147.41 70.5588 146.968C70.5408 146.872 70.5497 146.803 70.5018 146.715C69.4972 144.885 68.3391 143.21 67.0609 141.739C60.8109 134.54 53.812 132.012 49.2524 135.295L13.1149 156.178C12.4473 156.564 12.2095 157.426 12.5886 158.1L22.2553 175.167C22.3756 175.38 22.5771 175.537 22.8146 175.603C22.8928 175.624 22.9771 175.634 23.0584 175.634Z" fill="#FF2B85"/>
<path d="M69.3619 167.838L68.9526 168.127L32.0654 189.423C31.8294 189.559 31.528 189.477 31.3937 189.24L28.2977 183.773L35.1598 181.307L72.3226 160.283C72.2497 164.324 71.8407 166.206 69.3619 167.838Z" fill="#FF2B85"/>
<path d="M31.8229 190.411C32.0604 190.411 32.3041 190.353 32.5237 190.226L69.8791 168.604C72.6641 166.765 73.1695 164.554 73.2446 160.3C73.2508 159.969 73.0792 159.659 72.7934 159.489C72.5109 159.318 72.1559 159.316 71.8672 159.479L34.7071 180.502L27.985 182.904C27.7295 182.996 27.5248 183.196 27.4315 183.451C27.3352 183.707 27.3594 183.991 27.4946 184.229L30.5895 189.695C30.8512 190.154 31.3294 190.411 31.8229 190.411ZM71.3377 161.9C71.1723 164.623 70.6279 165.897 68.8535 167.067C68.8443 167.073 68.8383 167.078 68.8295 167.084L68.4203 167.372L31.9822 188.405L29.642 184.273L35.4741 182.176L71.3377 161.9Z" fill="#FF2B85"/>
<path d="M8.5804 166.146C8.5804 174.62 14.5293 184.925 21.8681 189.162C29.207 193.398 35.1559 189.964 35.1559 181.49C35.1559 173.016 29.207 162.712 21.8681 158.475C14.5293 154.238 8.5804 157.673 8.5804 166.146Z" fill="#F8C1D9"/>
<path d="M27.8045 191.906C29.2271 191.906 30.5504 191.569 31.7264 190.893C34.5327 189.271 36.0787 185.931 36.0787 181.491C36.0787 172.737 29.9098 162.052 22.3304 157.674C18.4806 155.457 14.8202 155.125 12.008 156.743C9.20179 158.364 7.65587 161.704 7.65587 166.147C7.65587 174.902 13.8247 185.585 21.404 189.962C23.6449 191.253 25.8223 191.906 27.8045 191.906ZM15.9362 157.579C17.5933 157.579 19.4552 158.149 21.404 159.274C28.4781 163.359 34.2319 173.324 34.2319 181.491C34.2319 185.244 33.0137 188.014 30.803 189.291C28.5865 190.568 25.5788 190.234 22.3304 188.362C15.2565 184.279 9.50256 174.314 9.50256 166.147C9.50256 162.392 10.7207 159.622 12.9344 158.345C13.8186 157.833 14.8323 157.579 15.9362 157.579Z" fill="#FF2B85"/>
<path d="M18.349 171.786C18.349 174.031 19.9245 176.76 21.8683 177.882C23.8119 179.004 25.3876 178.094 25.3876 175.85C25.3876 173.606 23.8119 170.877 21.8683 169.754C19.9245 168.632 18.349 169.542 18.349 171.786Z" fill="#FF2B85"/>
<path d="M133.552 94.9888L189.836 95.0746C190.475 95.0755 190.993 95.5941 190.993 96.2334L190.993 123.813L190.956 126.963C190.831 128.679 189.55 130.459 187.113 131.866L170.174 141.646C165.484 144.354 158.389 144.647 154.328 142.303L135.113 131.209C133.162 130.082 132.293 128.549 132.408 126.963H132.392V96.1473C132.392 95.507 132.912 94.9879 133.552 94.9888Z" fill="#FFE7B3"/>
<path d="M161.226 144.827C164.486 144.827 167.906 144.022 170.637 142.446L187.576 132.665C190.193 131.154 191.721 129.152 191.877 127.03L191.916 123.824V96.2329C191.916 95.0854 190.984 94.1516 189.835 94.1516L133.552 94.0659H133.555H133.549C132.992 94.0659 132.472 94.2809 132.078 94.6735C131.684 95.0675 131.468 95.5909 131.468 96.1473V126.962C131.468 127.008 131.47 127.053 131.477 127.098C131.413 129.05 132.532 130.788 134.65 132.01L153.866 143.103C155.866 144.258 158.489 144.827 161.226 144.827ZM133.552 95.9126L189.835 95.9985C189.964 95.9985 190.069 96.1038 190.069 96.2329L190.033 126.952C189.928 128.366 188.692 129.886 186.65 131.065L169.71 140.846C165.286 143.402 158.591 143.693 154.792 141.503L135.576 130.409C134.484 129.779 133.209 128.681 133.329 127.03C133.335 126.946 133.332 126.862 133.314 126.781V96.1473C133.314 96.1473 133.549 95.9126 133.552 95.9126Z" fill="#FF2B85"/>
<path d="M133.552 95.0409L159.456 95.0803V143.834C157.536 143.648 155.743 143.171 154.328 142.355L135.113 131.261C133.162 130.134 132.293 128.601 132.408 127.015H132.392V96.1996C132.392 95.5586 132.912 95.0399 133.552 95.0409Z" fill="#FF2B85"/>
<path d="M135.113 99.3223L154.328 110.416C158.389 112.761 165.484 112.467 170.174 109.759L187.113 99.9792C191.803 97.2714 192.313 93.1753 188.251 90.8305L169.036 79.7368C164.974 77.3916 157.88 77.6857 153.19 80.3934L136.251 90.1734C131.561 92.8811 131.051 96.9771 135.113 99.3223Z" fill="white"/>
<path d="M161.229 112.939C164.486 112.939 167.909 112.135 170.637 110.559L187.576 100.779C190.334 99.1864 191.916 97.009 191.916 94.8042C191.916 92.9184 190.779 91.2238 188.713 90.0295L169.5 78.9374C165.108 76.4063 157.749 76.6966 152.726 79.593L135.787 89.374C133.029 90.9666 131.446 93.144 131.446 95.3487C131.446 97.2329 132.586 98.9294 134.65 100.122L153.866 111.216C155.869 112.371 158.492 112.939 161.229 112.939ZM162.155 79.0665C164.567 79.0665 166.865 79.5493 168.573 80.5374L187.786 91.6299C189.281 92.4916 190.069 93.5893 190.069 94.8042C190.069 96.3306 188.824 97.9249 186.65 99.1792L169.71 108.959C165.286 111.515 158.591 111.808 154.792 109.616L135.576 98.5218C134.084 97.6601 133.296 96.5639 133.296 95.3487C133.296 93.8223 134.541 92.2283 136.713 90.974L153.652 81.1929C156.086 79.7884 159.207 79.0665 162.155 79.0665Z" fill="#FF2B85"/>
<path d="M138.981 129.322C139.492 129.322 139.904 128.909 139.904 128.399V105.986C139.904 105.476 139.492 105.062 138.981 105.062C138.469 105.062 138.057 105.476 138.057 105.986V128.399C138.057 128.909 138.469 129.322 138.981 129.322Z" fill="#F8C1D9"/>
<path d="M167.488 143.763C167.999 143.763 168.411 143.35 168.411 142.84V119.437C168.411 118.927 167.999 118.514 167.488 118.514C166.976 118.514 166.564 118.927 166.564 119.437V142.84C166.564 143.35 166.976 143.763 167.488 143.763Z" fill="#FF2B85"/>
<path d="M144.419 105.619C144.578 105.619 144.737 105.578 144.885 105.492L178.646 85.8158C179.085 85.5588 179.236 84.9933 178.977 84.5527C178.718 84.1074 178.153 83.9631 177.714 84.2189L143.952 103.895C143.513 104.152 143.363 104.718 143.621 105.158C143.793 105.453 144.103 105.619 144.419 105.619Z" fill="#FF2B85"/>
<path d="M124.709 142.264L180.993 142.349C181.632 142.35 182.15 142.869 182.15 143.508L182.15 157.726L182.113 160.876C181.988 162.592 180.707 164.372 178.27 165.778L161.331 175.558C156.641 178.266 149.546 178.56 145.485 176.215L126.27 165.122C124.319 163.995 123.45 162.462 123.565 160.876H123.549V143.422C123.549 142.782 124.069 142.263 124.709 142.264Z" fill="#FFE7B3"/>
<path d="M152.386 178.739C155.643 178.739 159.066 177.934 161.794 176.358L178.733 166.578C181.35 165.067 182.878 163.065 183.034 160.943L183.074 157.736V143.508C183.074 142.36 182.141 141.427 180.992 141.427L124.709 141.341C124.15 141.341 123.629 141.556 123.236 141.948C122.841 142.342 122.625 142.866 122.625 143.422V160.876C122.625 160.921 122.628 160.966 122.634 161.011C122.571 162.961 123.693 164.7 125.807 165.921L145.023 177.015C147.026 178.17 149.649 178.739 152.386 178.739ZM124.709 143.188L180.992 143.273C181.121 143.273 181.227 143.379 181.227 143.508L181.191 160.865C181.085 162.279 179.849 163.799 177.807 164.978L160.868 174.758C156.446 177.313 149.745 177.609 145.949 175.415L126.733 164.321C125.642 163.691 124.366 162.595 124.487 160.943C124.493 160.859 124.49 160.775 124.472 160.694V143.422L124.709 143.188Z" fill="#FF2B85"/>
<path d="M124.709 142.316L150.613 142.355V177.746C148.692 177.56 146.9 177.084 145.485 176.267L126.27 165.173C124.319 164.047 123.45 162.514 123.565 160.928H123.549V143.474C123.549 142.834 124.069 142.315 124.709 142.316Z" fill="#FF2B85"/>
<path d="M126.27 146.597L145.485 157.691C149.546 160.036 156.641 159.742 161.331 157.034L178.27 147.254C182.96 144.546 183.47 140.45 179.408 138.105L160.193 127.012C156.132 124.666 149.037 124.961 144.347 127.669L127.408 137.448C122.718 140.156 122.208 144.252 126.27 146.597Z" fill="white"/>
<path d="M152.386 160.214C155.643 160.214 159.066 159.409 161.794 157.833L178.733 148.054C181.491 146.461 183.074 144.282 183.074 142.078C183.074 140.193 181.936 138.499 179.87 137.306L160.657 126.212C156.269 123.683 148.909 123.973 143.883 126.868L126.944 136.649C124.186 138.241 122.604 140.419 122.604 142.624C122.604 144.508 123.744 146.204 125.807 147.397L145.023 158.491C147.026 159.646 149.649 160.214 152.386 160.214ZM153.312 126.342C155.725 126.342 158.022 126.824 159.731 127.812L178.944 138.906C180.436 139.768 181.227 140.864 181.227 142.079C181.227 143.606 179.982 145.2 177.807 146.454L160.868 156.233C156.446 158.788 149.745 159.083 145.949 156.891L126.733 145.797C125.242 144.935 124.454 143.839 124.454 142.624C124.454 141.097 125.699 139.503 127.87 138.249L144.81 128.468C147.243 127.063 150.365 126.342 153.312 126.342Z" fill="#FF2B85"/>
<path d="M130.138 163.235C130.649 163.235 131.062 162.822 131.062 162.312V153.26C131.062 152.751 130.649 152.337 130.138 152.337C129.627 152.337 129.215 152.751 129.215 153.26V162.312C129.215 162.822 129.627 163.235 130.138 163.235Z" fill="#F8C1D9"/>
<path d="M158.645 177.675C159.156 177.675 159.568 177.262 159.568 176.752V166.712C159.568 166.202 159.156 165.789 158.645 165.789C158.134 165.789 157.722 166.202 157.722 166.712V176.752C157.722 177.262 158.134 177.675 158.645 177.675Z" fill="#FF2B85"/>
<path d="M135.967 153.114C136.127 153.114 136.286 153.074 136.433 152.988L170.197 133.31C170.637 133.053 170.787 132.488 170.528 132.047C170.27 131.602 169.707 131.457 169.265 131.713L135.501 151.391C135.062 151.648 134.911 152.214 135.17 152.654C135.341 152.949 135.651 153.114 135.967 153.114Z" fill="#FF2B85"/>
</g>
<defs>
<clipPath id="clip0_245_1553">
<rect width="191.916" height="204.616" fill="white" transform="matrix(-1 0 0 1 191.916 0)"/>
</clipPath>
</defs>
</svg>
