<svg width="202" height="321" viewBox="0 0 202 321" fill="none" xmlns="http://www.w3.org/2000/svg">
<g clip-path="url(#clip0_245_1437)">
<path d="M85.7683 301.849L87.5267 302.865C87.7069 302.969 88.0219 302.956 88.2301 302.836L89.8877 301.879C90.0958 301.758 90.1183 301.577 89.9381 301.472L88.1794 300.457C87.9993 300.353 87.6844 300.366 87.4762 300.486L85.8186 301.443C85.6105 301.563 85.5878 301.745 85.7683 301.849Z" fill="#FF2B85"/>
<path d="M78.1903 306.224L79.949 307.24C80.1292 307.344 80.4441 307.331 80.6523 307.211L82.3098 306.254C82.518 306.133 82.5407 305.952 82.3603 305.847L80.6018 304.832C80.4214 304.728 80.1067 304.741 79.8985 304.861L78.2408 305.818C78.0326 305.938 78.0101 306.12 78.1903 306.224Z" fill="#FF2B85"/>
<path d="M86.1743 310.834L87.9328 311.849C88.1132 311.953 88.4279 311.94 88.6361 311.82L90.2937 310.863C90.5018 310.743 90.5243 310.561 90.3441 310.457L88.5854 309.442C88.4054 309.338 88.0904 309.351 87.8822 309.471L86.2246 310.428C86.0165 310.548 85.994 310.73 86.1743 310.834Z" fill="#FF2B85"/>
<path d="M70.6126 310.599L72.371 311.615C72.5515 311.719 72.8664 311.706 73.0745 311.586L74.732 310.629C74.9401 310.508 74.9628 310.327 74.7824 310.222L73.0241 309.207C72.8436 309.103 72.5288 309.116 72.3207 309.236L70.6631 310.193C70.4549 310.313 70.4324 310.495 70.6126 310.599Z" fill="#FF2B85"/>
<path d="M78.5964 315.209L80.3551 316.224C80.5353 316.328 80.8503 316.315 81.0585 316.195L82.7161 315.238C82.9242 315.118 82.9467 314.936 82.7664 314.832L81.0078 313.817C80.8276 313.713 80.5128 313.726 80.3046 313.846L78.647 314.803C78.4389 314.923 78.4162 315.105 78.5964 315.209Z" fill="#FF2B85"/>
<path d="M62.5937 315.229L64.3521 316.245C64.5326 316.349 64.8474 316.336 65.0556 316.215L66.713 315.258C66.9212 315.138 66.9439 314.957 66.7635 314.852L65.0051 313.837C64.8246 313.733 64.5099 313.746 64.3017 313.866L62.6441 314.823C62.436 314.943 62.4135 315.125 62.5937 315.229Z" fill="#FF2B85"/>
<path d="M70.5773 319.839L72.336 320.854C72.5162 320.958 72.8313 320.945 73.0394 320.825L74.697 319.868C74.9052 319.748 74.9277 319.566 74.7473 319.462L72.9888 318.447C72.8085 318.342 72.4937 318.355 72.2856 318.476L70.628 319.433C70.4198 319.553 70.3972 319.735 70.5773 319.839Z" fill="#FF2B85"/>
<path d="M54.6098 310.62L56.3683 311.635C56.5486 311.739 56.8634 311.726 57.0715 311.606L58.7291 310.649C58.9373 310.529 58.9599 310.347 58.7798 310.243L57.0211 309.228C56.8409 309.123 56.5258 309.137 56.3177 309.257L54.6601 310.214C54.4522 310.334 54.4294 310.516 54.6098 310.62Z" fill="#FF2B85"/>
<path d="M46.6261 306.01L48.3845 307.026C48.5647 307.13 48.8797 307.117 49.0879 306.997L50.7455 306.039C50.9536 305.919 50.9761 305.738 50.7958 305.633L49.0372 304.618C48.8571 304.514 48.5422 304.527 48.334 304.647L46.6764 305.604C46.4683 305.724 46.4458 305.906 46.6261 306.01Z" fill="#FF2B85"/>
<path d="M55.0158 319.604L56.7743 320.62C56.9547 320.724 57.2694 320.711 57.4775 320.59L59.1351 319.633C59.3433 319.513 59.3659 319.332 59.1858 319.227L57.4272 318.212C57.2469 318.108 56.932 318.121 56.7238 318.241L55.0664 319.198C54.8582 319.318 54.8354 319.5 55.0158 319.604Z" fill="#FF2B85"/>
<path d="M47.0321 314.995L48.7906 316.01C48.9706 316.114 49.2857 316.101 49.4938 315.981L51.1514 315.024C51.3596 314.904 51.3821 314.722 51.2021 314.618L49.4432 313.603C49.2632 313.498 48.9481 313.512 48.74 313.632L47.0824 314.589C46.8742 314.709 46.8517 314.891 47.0321 314.995Z" fill="#FF2B85"/>
<path d="M42.2128 272.164L43.9711 273.179C44.1515 273.284 44.4664 273.27 44.6745 273.15L46.3321 272.193C46.5403 272.073 46.5628 271.891 46.3826 271.787L44.6239 270.772C44.4437 270.668 44.1288 270.681 43.9207 270.801L42.2632 271.758C42.0551 271.878 42.0323 272.06 42.2128 272.164Z" fill="#FF2B85"/>
<path d="M34.6349 276.539L36.3935 277.554C36.5736 277.659 36.8885 277.645 37.0967 277.525L38.7543 276.568C38.9624 276.448 38.9851 276.266 38.8049 276.162L37.0462 275.147C36.866 275.043 36.5511 275.056 36.3428 275.176L34.6852 276.133C34.4771 276.253 34.4546 276.435 34.6349 276.539Z" fill="#FF2B85"/>
<path d="M42.6188 281.149L44.3773 282.164C44.5576 282.268 44.8724 282.255 45.0805 282.135L46.7381 281.178C46.9463 281.058 46.9688 280.876 46.7886 280.772L45.0302 279.756C44.8497 279.652 44.5348 279.665 44.3267 279.786L42.6692 280.743C42.4611 280.863 42.4384 281.044 42.6188 281.149Z" fill="#FF2B85"/>
<path d="M27.0571 280.914L28.8158 281.93C28.996 282.034 29.3109 282.02 29.519 281.9L31.1766 280.943C31.3848 280.823 31.4073 280.642 31.2269 280.537L29.4684 279.522C29.2881 279.418 28.9733 279.431 28.7652 279.551L27.1076 280.508C26.8994 280.628 26.8769 280.81 27.0571 280.914Z" fill="#FF2B85"/>
<path d="M35.041 285.524L36.7995 286.539C36.9799 286.643 37.2946 286.63 37.5029 286.51L39.1605 285.553C39.3686 285.433 39.3912 285.251 39.211 285.147L37.4523 284.131C37.2721 284.027 36.9572 284.04 36.749 284.161L35.0914 285.118C34.8833 285.238 34.8606 285.419 35.041 285.524Z" fill="#FF2B85"/>
<path d="M19.0381 285.544L20.7968 286.559C20.977 286.663 21.2918 286.65 21.5 286.53L23.1576 285.573C23.3658 285.453 23.3882 285.271 23.2079 285.167L21.4495 284.152C21.269 284.048 20.9543 284.061 20.7461 284.181L19.0885 285.138C18.8804 285.258 18.8579 285.44 19.0381 285.544Z" fill="#FF2B85"/>
<path d="M27.0219 290.154L28.7805 291.169C28.9607 291.273 29.2757 291.26 29.4839 291.14L31.1414 290.183C31.3496 290.062 31.3721 289.881 31.1919 289.777L29.4332 288.761C29.253 288.657 28.9382 288.67 28.73 288.791L27.0724 289.747C26.8642 289.868 26.8416 290.049 27.0219 290.154Z" fill="#FF2B85"/>
<path d="M11.0542 280.935L12.8128 281.95C12.9931 282.054 13.3078 282.041 13.516 281.921L15.1736 280.964C15.3817 280.844 15.4044 280.662 15.2242 280.558L13.4657 279.542C13.2853 279.438 12.9703 279.451 12.7624 279.571L11.1048 280.529C10.8967 280.649 10.8739 280.83 11.0542 280.935Z" fill="#FF2B85"/>
<path d="M3.07056 276.325L4.82893 277.34C5.00943 277.444 5.32416 277.431 5.53232 277.311L7.18991 276.354C7.39807 276.234 7.42057 276.052 7.24039 275.948L5.48169 274.933C5.30151 274.829 4.98661 274.842 4.77846 274.962L3.12087 275.919C2.91271 276.039 2.89022 276.221 3.07056 276.325Z" fill="#FF2B85"/>
<path d="M11.4602 289.919L13.2187 290.934C13.399 291.038 13.7141 291.025 13.9223 290.905L15.5795 289.948C15.7877 289.828 15.8105 289.646 15.6302 289.542L13.8716 288.527C13.6913 288.423 13.3765 288.436 13.1684 288.556L11.5108 289.513C11.3026 289.633 11.2801 289.815 11.4602 289.919Z" fill="#FF2B85"/>
<path d="M3.47652 285.31L5.23507 286.325C5.41541 286.429 5.73014 286.416 5.9383 286.296L7.59589 285.339C7.80405 285.219 7.82655 285.037 7.64652 284.933L5.88767 283.917C5.70765 283.813 5.3926 283.826 5.18444 283.946L3.527 284.904C3.31884 285.024 3.29619 285.205 3.47652 285.31Z" fill="#FF2B85"/>
<path d="M96.8978 40.5314L84.23 49.3558C83.0851 50.1533 81.7303 50.5948 80.3357 50.6253L36.4114 51.5782L50.3712 74.248L89.1865 67.5529C89.1865 67.5529 99.8484 59.0454 100.515 55.5616C101.181 52.078 103.18 39.5839 103.18 39.5839C103.18 39.5839 104.013 37.6871 103.18 38.0523C102.347 38.4176 96.8978 40.5314 96.8978 40.5314Z" fill="#F8C1D9"/>
<path d="M50.3697 75.1791C50.4213 75.1791 50.4758 75.1745 50.5275 75.1655L89.3438 68.4703C89.4983 68.4445 89.6438 68.3793 89.7682 68.2807C90.887 67.3879 100.718 59.4513 101.431 55.7376C102.058 52.4589 103.877 41.1162 104.08 39.846C104.829 38.0801 104.332 37.583 104.141 37.3934C104.014 37.2661 103.538 36.8766 102.807 37.1995C101.976 37.5633 96.5619 39.6627 96.5619 39.6627C96.4924 39.69 96.4255 39.7249 96.365 39.7672L83.6959 48.5921C82.7015 49.2863 81.5314 49.667 80.3157 49.694L36.3912 50.6474C36.0575 50.6551 35.7544 50.8401 35.5937 51.1325C35.4362 51.4268 35.4453 51.7829 35.6181 52.0662L49.5755 74.7365C49.7482 75.0153 50.0514 75.1791 50.3697 75.1791ZM88.792 66.6755L50.8335 73.2238L38.0586 52.4741L80.3582 51.5554C81.9408 51.5221 83.4654 51.0252 84.7629 50.12L97.3381 41.3587C97.8988 41.1421 100.576 40.1021 102.261 39.4306V39.4351C102.24 39.5611 100.258 51.957 99.5995 55.386C99.169 57.643 92.821 63.4378 88.792 66.6755Z" fill="#FF2B85"/>
<path d="M112.521 33.4386L117.768 21.4942C117.772 21.4862 117.78 21.4804 117.788 21.4797L122.196 20.9941C122.203 20.9935 122.209 20.9899 122.213 20.9844L128.465 12.8068L128.471 12.801L137.712 6.84199C137.723 6.83494 137.737 6.83762 137.745 6.84809L149.519 22.7653C149.528 22.7786 149.548 22.7786 149.558 22.7653L159.349 9.73102C159.349 9.73102 159.354 9.726 159.357 9.7243L165.893 6.07766L165.897 6.07563L181.108 1.10176C181.118 1.09848 181.129 1.10192 181.136 1.11065L190.224 13.4897C190.229 13.4969 190.23 13.5063 190.227 13.5144L183.051 29.8479C183.042 29.8692 183.064 29.8904 183.085 29.8801L190.334 26.2569C190.345 26.2515 190.358 26.2547 190.365 26.2646L199.67 39.0366C201.166 41.5742 199.919 46.0142 194.058 50.8878C194.057 50.8892 194.055 50.8905 194.055 50.8905C188.418 54.0756 184.221 54.1084 182.237 52.2469C176.415 48.9311 172.146 54.6907 172.126 54.7174L172.125 54.7202L160.92 80.2283C160.916 80.2364 160.909 80.2419 160.9 80.243L133.203 83.2931L131.656 82.2198L122.623 69.9164C122.334 70.3863 122.062 70.8609 121.849 71.3438C120.991 73.2966 120.938 74.9889 121.552 76.2635C122.972 82.8113 116.198 85.1584 116.167 85.1693C116.167 85.1693 116.166 85.1693 116.164 85.1695L88.47 88.2195C88.4613 88.2204 88.4527 88.2167 88.4474 88.2095L79.3596 75.8311C79.3531 75.8221 79.3534 75.81 79.3601 75.8012L112.518 33.4439C112.518 33.4439 112.521 33.4405 112.521 33.4386Z" fill="#FFE7B3"/>
<path d="M88.4767 89.1502C88.5252 89.1502 88.5738 89.1456 88.6252 89.1382L116.267 86.0959C116.522 86.0321 124.058 83.4159 122.461 76.0658C121.876 74.7867 121.982 73.3555 122.7 71.7186C122.712 71.6926 122.725 71.6672 122.737 71.6412L130.904 82.7716C130.967 82.8535 131.04 82.9262 131.125 82.9856L132.674 84.0587C132.859 84.1875 133.071 84.2434 133.308 84.2193L161.004 81.1695C161.344 81.1315 161.656 80.8937 161.783 80.574L172.976 55.0948C173.03 55.0631 176.729 50.1836 181.777 53.0561C184.135 55.3025 188.956 54.8403 194.512 51.701C201.336 46.0457 202.04 41.2224 200.473 38.5636L191.117 25.7159C190.823 25.3111 190.226 25.2064 189.82 25.4823L184.908 27.9305L191.078 13.888C191.217 13.5713 191.165 13.1787 190.95 12.9074L181.889 0.55824C181.64 0.226143 181.179 0.0867632 180.779 0.230831L165.609 5.1905L158.903 8.91168C158.831 8.95262 158.752 9.01169 158.691 9.07389L149.542 21.2366L138.495 6.29535C138.198 5.89372 137.606 5.79074 137.197 6.06672L127.966 12.0192C127.939 12.0479 127.748 12.2086 127.724 12.242L121.7 20.1194L117.686 20.5531C117.346 20.5909 117.031 20.8288 116.904 21.1488L111.714 32.9582L78.627 75.2261C78.3362 75.5976 78.3694 76.1569 78.7029 76.4888L87.6944 88.7605C87.8734 89.003 88.1764 89.1502 88.4767 89.1502ZM122.624 68.9855H122.588C122.279 68.9978 121.997 69.1629 121.833 69.4253C121.518 69.9344 121.224 70.4468 120.996 70.9697C120.051 73.1191 119.954 75.0883 120.711 76.6662C121.87 82.1229 116.107 84.204 115.861 84.2906L88.8859 87.2373L80.5157 75.8309L113.251 34.0179C113.299 33.9542 113.342 33.8859 113.372 33.8132L118.411 22.3462L122.3 21.9202C122.573 21.89 122.834 21.7308 122.988 21.5018L129.115 13.4894L137.503 8.08421L148.769 23.3177C148.951 23.5679 149.239 23.6876 149.578 23.7058C149.857 23.6937 150.133 23.5482 150.303 23.3254L159.98 10.4428L166.346 6.88964L180.8 2.18176L189.161 13.6183L182.198 29.4733C182.037 29.8342 182.131 30.2828 182.416 30.5527C182.701 30.821 183.153 30.8907 183.502 30.7134L190.065 27.4332L198.917 39.5853C199.993 41.4179 199.254 45.3545 193.463 50.1732C187.931 53.2805 184.347 52.9486 182.874 51.5677C176.974 48.1783 172.294 52.7893 171.351 54.2006L160.274 79.3838L133.45 82.329L132.313 81.5439L123.376 69.3645C123.2 69.1251 122.922 68.9855 122.624 68.9855Z" fill="#FF2B85"/>
<path d="M108.661 9.08905C108.665 9.08092 108.672 9.07529 108.681 9.07434L136.378 6.02421C136.378 6.02421 141.716 7.02936 134.089 14.5889C130.507 17.577 128.234 21.7059 129.396 25.4992C129.396 25.4992 129.403 25.5096 129.406 25.5138C134.425 30.2136 144.851 24.531 147.732 17.9735C148.59 16.0207 148.643 14.3284 148.029 13.0539C146.609 6.506 153.383 4.15893 153.414 4.14799H153.416L181.082 1.10082C181.101 1.09894 181.115 1.11817 181.108 1.13551L169.913 26.6203C169.913 26.6203 169.273 32.0142 178.77 27.002C182.574 24.5567 187.032 23.6061 190.28 25.5959C190.412 25.7501 190.612 25.9839 190.744 26.1383C193.274 32.2939 184.905 40.2621 177.912 41.0322C175.792 41.2657 174.161 40.81 173.129 39.8416C167.308 36.5261 163.039 42.2857 163.019 42.3125L163.018 42.3153L151.812 67.8233C151.809 67.8314 151.801 67.8369 151.792 67.838L124.096 70.8881C124.096 70.8881 118.758 69.8828 126.385 62.3233C129.967 59.335 132.24 55.2064 131.077 51.4129C131.077 51.4129 131.071 51.4024 131.068 51.3983C126.048 46.6984 115.623 52.3813 112.742 58.9388C111.884 60.8915 111.831 62.5839 112.445 63.8585C113.865 70.4062 107.091 72.7534 107.06 72.7642C107.06 72.7642 107.058 72.7644 107.056 72.7645L79.3912 75.8112C79.3723 75.8134 79.3581 75.7942 79.3657 75.7767L108.661 9.08905Z" fill="white"/>
<path d="M79.394 76.742C79.4182 76.742 79.4426 76.742 79.4699 76.7388L107.16 73.6907C107.415 73.627 114.952 71.0106 113.354 63.6605C112.766 62.3842 112.875 60.952 113.593 59.3133C115.294 55.4419 120.054 51.7056 124.431 50.8083C126.123 50.4551 128.494 50.3838 130.285 51.9481C131.27 55.4163 128.63 59.2376 125.786 61.6083C122.267 65.0932 120.878 67.72 121.485 69.6934C121.906 71.0758 123.216 71.6701 123.922 71.8034C124.013 71.8201 124.095 71.8247 124.198 71.8139L151.894 68.7642C152.234 68.7264 152.549 68.4884 152.676 68.1687L163.869 42.6895C163.924 42.6578 167.622 37.7769 172.67 40.6509C173.77 41.7196 175.665 42.2121 178.014 41.9589C182.728 41.439 188.025 37.9074 190.605 33.5585C192.226 30.827 192.572 28.138 191.605 25.7854C191.569 25.6915 191.514 25.6067 191.45 25.5309L190.987 24.9883C190.923 24.9153 190.85 24.8519 190.765 24.8019C187.464 22.7767 182.789 23.3104 178.266 26.2191C173.464 28.7504 171.812 28.27 171.336 27.9425C170.887 27.6424 170.836 27.083 170.836 26.8389L181.959 1.51026C182.089 1.21756 182.055 0.855316 181.877 0.589964C181.686 0.311172 181.365 0.147398 181.004 0.173183L153.313 3.22145C153.058 3.28505 145.525 5.89998 147.12 13.2515C147.708 14.5278 147.599 15.9602 146.88 17.5988C145.179 21.4701 140.42 25.2064 136.042 26.1039C134.354 26.4526 131.986 26.5237 130.188 24.9639C129.203 21.4957 131.843 17.6761 134.687 15.3037C138.207 11.8191 139.595 9.19219 138.989 7.21861C138.567 5.83622 137.258 5.24191 136.552 5.10861C136.461 5.09361 136.372 5.09048 136.276 5.09814L108.579 8.14781C108.249 8.18422 107.942 8.41004 107.809 8.71477L78.5149 75.4019C78.3844 75.6945 78.418 76.0569 78.5968 76.3221C78.7726 76.5812 79.0819 76.742 79.394 76.742ZM126.338 48.739C125.611 48.739 124.85 48.8209 124.055 48.9831C119.068 50.0064 113.839 54.1247 111.89 58.5646C110.944 60.7171 110.844 62.6874 111.605 64.2625C112.763 69.7176 107 71.7989 106.754 71.8853L80.8492 74.7153L109.304 9.94089L136.312 6.96842C136.539 7.03983 137.061 7.25815 137.212 7.77635C137.376 8.33581 137.34 10.0562 133.435 13.9274C129.188 17.4655 127.323 21.9142 128.506 25.7719C128.533 25.8583 128.572 25.9402 128.621 26.0159C130.661 27.9637 133.293 28.564 136.418 27.9289C141.405 26.9056 146.634 22.7873 148.584 18.3476C149.53 16.1951 149.63 14.2247 148.869 12.6496C147.711 7.19281 153.474 5.1133 153.719 5.02672L179.624 2.19675L169.062 26.2465C169.026 26.3298 169.001 26.4191 168.989 26.5102C168.905 27.2239 169.077 28.652 170.272 29.4704C171.97 30.6346 174.892 30.1025 179.203 27.8259C183.123 25.3096 186.997 24.7655 189.671 26.3175L189.935 26.6253C190.777 28.8459 189.898 31.0969 189.004 32.608C186.733 36.4311 181.922 39.655 177.808 40.1068C176.041 40.3068 174.634 39.9779 173.767 39.1624C167.868 35.7762 163.19 40.3856 162.244 41.7955L151.17 66.9711L124.161 69.9436C123.934 69.8722 123.413 69.654 123.261 69.1357C123.097 68.5762 123.134 66.8558 127.038 62.9846C131.286 59.4466 133.15 54.9978 131.968 51.1402C131.94 51.0538 131.901 50.9719 131.853 50.8962C130.331 49.4426 128.472 48.739 126.338 48.739Z" fill="#FF2B85"/>
<path d="M184.333 38.6274L193.412 50.9927C193.421 51.005 193.416 51.0225 193.403 51.0295L189.523 53.0053L189.514 53.008L184.236 53.5995C184.232 53.6001 184.227 53.5991 184.223 53.5973L181.214 52.1339L181.21 52.1323L177.868 51.4727C177.863 51.4718 177.859 51.4723 177.859 51.4723L174.389 52.6506L172.978 53.7071L163.871 41.3018L165.504 40.1027L168.874 39.0631L171.231 39.2829L174.981 41.1663L174.992 41.169L179.341 41.2656C179.341 41.2656 179.349 41.2646 179.353 41.2626L184.302 38.62C184.313 38.6144 184.326 38.6175 184.333 38.6274Z" fill="#FF2B85"/>
<path d="M151.755 68.4517L159.735 79.3217C160.111 79.8329 159.786 80.5586 159.155 80.6193L132.546 83.177C132.271 83.2036 132.001 83.089 131.828 82.8729L122.757 71.4856L125.502 70.6439C125.555 70.6331 125.608 70.6226 125.662 70.6118L151.016 68.1221C151.303 68.0938 151.584 68.219 151.755 68.4517Z" fill="#FF2B85"/>
<path d="M117.18 53.4182L124.815 63.8182C124.824 63.8307 124.842 63.8318 124.853 63.8205L128.925 59.5202C128.925 59.5202 128.93 59.5133 128.931 59.5092L130.697 52.6282C130.699 52.6201 130.697 52.6118 130.692 52.6054L127.626 49.153C127.621 49.1464 127.612 49.1433 127.603 49.145L121.248 50.4035C121.248 50.4035 121.241 50.4057 121.238 50.4079L117.185 53.3835C117.174 53.3916 117.172 53.4072 117.18 53.4182Z" fill="#FF2B85"/>
<path d="M109.634 71.2805C109.645 71.2757 109.658 71.279 109.665 71.2885L118.762 83.6799L115.844 85.4069C115.841 85.4086 115.838 85.4097 115.834 85.4101L88.143 88.4596C88.1342 88.4604 88.1255 88.4567 88.1202 88.4498L79.0472 76.0911C79.036 76.0756 79.0455 76.0537 79.0647 76.0517L104.751 73.4845L104.759 73.4826L109.634 71.2805Z" fill="#FF2B85"/>
<path d="M121.651 78.1637C121.842 78.1637 122.036 78.1062 122.203 77.9834C122.618 77.6787 122.706 77.0966 122.403 76.6813L113.296 64.276C112.99 63.8591 112.411 63.7713 111.993 64.0776C111.577 64.3822 111.49 64.9643 111.793 65.3795L120.9 77.7849C121.084 78.0333 121.366 78.1637 121.651 78.1637Z" fill="#FF2B85"/>
<path d="M140.108 26.7118C140.298 26.7118 140.493 26.6542 140.659 26.5313C141.075 26.2283 141.163 25.6445 140.859 25.2293L133.402 15.069C133.095 14.6522 132.516 14.5627 132.098 14.8704C131.683 15.1735 131.595 15.7571 131.898 16.1723L139.356 26.3327C139.541 26.5813 139.823 26.7118 140.108 26.7118Z" fill="#FF2B85"/>
<path d="M15.7839 261.426C15.7839 261.426 12.7484 259.536 12.1737 272.378C12.1737 272.378 18.731 278.597 24.7135 275.554C32.9794 271.351 41.87 258.086 41.87 258.086C41.87 258.086 43.9187 255.394 39.6284 253.39C35.3381 251.387 21.8454 257.39 21.8454 257.39L15.7839 261.426Z" fill="#F8C1D9"/>
<path d="M21.1574 277.333C22.4578 277.333 23.8039 277.063 25.1347 276.385C33.5232 272.12 42.2753 259.155 42.6422 258.605C42.7119 258.519 43.5789 257.318 43.194 255.755C42.8725 254.459 41.8054 253.38 40.0228 252.546C35.4847 250.429 22.8914 255.905 21.4665 256.539L15.6247 260.413C15.2761 260.368 14.8577 260.413 14.4364 260.636C12.596 261.605 11.5533 265.432 11.2441 272.338C11.2319 272.608 11.3381 272.869 11.535 273.055C11.7626 273.272 16.1187 277.333 21.1574 277.333ZM37.2702 253.898C38.0614 253.898 38.7313 254 39.2345 254.235C40.4656 254.81 41.2082 255.489 41.384 256.201C41.56 256.912 41.1324 257.517 41.1295 257.523C41.0082 257.699 32.2439 270.681 24.2921 274.724C19.6538 277.079 14.4364 273.088 13.1265 271.977C13.4966 264.615 14.679 262.81 15.179 262.375C15.4853 262.566 15.9915 262.404 16.2978 262.201L22.3609 258.164C25.3198 256.862 33.0109 253.898 37.2702 253.898Z" fill="#FF2B85"/>
<path d="M57.7032 289.12C57.7032 289.12 54.7217 293.748 54.8572 301.203C54.8572 301.203 59.0159 309.016 71.587 302.04C72.5938 301.481 73.6625 301.062 74.7519 300.69C78.0933 299.547 85.2616 296.309 87.1145 289.12C89.5541 279.652 70.1726 288.327 70.1726 288.327L57.7032 289.12Z" fill="#F8C1D9"/>
<path d="M62.2414 305.872C65.1365 305.872 68.4198 304.864 72.0394 302.854C72.8609 302.399 73.7886 302.002 75.0528 301.57C78.2875 300.465 86.0273 297.062 88.0157 289.353C88.5402 287.322 88.2189 285.798 87.061 284.822C83.3653 281.7 71.8878 286.552 69.9475 287.408L57.6455 288.19C57.3485 288.208 57.0817 288.366 56.921 288.615C56.7906 288.815 53.7892 293.57 53.9258 301.219C53.9286 301.366 53.9651 301.509 54.0348 301.64C54.0924 301.751 55.5265 304.376 59.1067 305.436C60.095 305.726 61.1378 305.872 62.2414 305.872ZM83.3836 285.616C84.4689 285.616 85.3359 285.804 85.8604 286.247C86.0696 286.423 86.7093 286.962 86.2121 288.887C84.4508 295.719 77.3993 298.801 74.4524 299.809C73.0791 300.277 72.0546 300.715 71.136 301.226C66.5947 303.747 62.7294 304.565 59.6343 303.648C57.2817 302.953 56.1205 301.446 55.7842 300.937C55.7356 295.214 57.603 291.239 58.2608 290.017L70.2295 289.256C70.3418 289.248 70.4509 289.223 70.5509 289.177C74.1736 287.557 79.8943 285.616 83.3836 285.616Z" fill="#FF2B85"/>
<path d="M49.6518 187.346C49.6518 187.346 47.451 209.855 39.0157 225.265C39.0157 225.265 34.1159 245.072 32.654 260.173C32.5675 261.066 32.2331 261.891 31.6487 262.572C29.8031 264.722 24.9953 268.555 16.1248 264.702C14.3715 263.94 13.0473 262.407 12.4774 260.582C12.0948 259.358 12.0731 258.049 12.4145 256.813L19.2262 234.773C19.2262 234.773 21.1918 218.578 23.7548 207.987C26.318 197.396 18.87 175.491 24.4246 154.179C29.9793 132.866 35.0177 128.985 35.0177 128.985L53.4591 165.132L49.6518 187.346Z" fill="#FF2B85"/>
<path d="M23.1915 267.272C28.1421 267.272 31.0919 264.651 32.356 263.178C33.0533 262.363 33.4778 261.355 33.5809 260.262C34.9631 245.997 39.4894 227.257 39.8926 225.605C48.1173 210.492 50.4697 188.494 50.5758 187.472L54.3774 165.29C54.4109 165.091 54.3804 164.888 54.2896 164.709L35.8484 128.562C35.7211 128.315 35.4937 128.138 35.221 128.077C34.9511 128.017 34.6692 128.079 34.4509 128.247C34.2327 128.414 29.094 132.568 23.5252 153.944C20.1903 166.744 21.4908 179.82 22.5338 190.328C23.2429 197.455 23.8554 203.611 22.849 207.768C20.3025 218.29 18.323 234.499 18.3017 234.662L11.5231 256.539C11.1258 257.973 11.1502 259.458 11.5896 260.86C12.2535 262.983 13.7695 264.694 15.7549 265.556C18.6108 266.796 21.0846 267.272 23.1915 267.272ZM52.4889 165.279L48.7327 187.188C48.7296 187.211 48.7264 187.232 48.7236 187.255C48.7024 187.478 46.4406 209.756 38.2008 224.818C38.1614 224.889 38.1313 224.964 38.113 225.041C38.0645 225.241 33.1807 245.087 31.7255 260.084C31.6589 260.806 31.3951 261.438 30.9433 261.967C29.0333 264.186 24.6194 267.377 16.4949 263.847C15.0092 263.201 13.8695 261.911 13.3661 260.306C13.0358 259.246 13.0177 258.125 13.3116 257.062L20.1145 235.048C20.169 234.724 22.1396 218.622 24.6617 208.206C25.7411 203.741 25.1135 197.44 24.389 190.143C23.3584 179.784 22.0759 166.89 25.3259 154.414C29.3971 138.788 33.199 132.658 34.7997 130.607L52.4889 165.279Z" fill="#FF2B85"/>
<path d="M74.0239 150.148C74.9554 150.443 75.6194 151.248 75.7145 152.22C76.5235 160.492 79.9821 199.243 76.4832 224.609C72.9373 250.316 74.6802 280.322 75.0594 286.519C75.1037 287.247 74.8375 287.933 74.3011 288.427C72.2049 290.359 66.1186 294.411 56.1004 288.653C55.3531 288.223 54.8981 287.397 54.8981 286.536V282.024L54.9206 281.809C56.3849 267.865 54.6597 253.834 54.0501 239.827C53.7595 233.151 54.0939 228.064 56.2148 221.818C56.3825 221.324 56.3956 220.807 56.2317 220.312C54.7201 215.749 46.8383 191.331 45.0616 173.078C43.6695 158.776 44.2476 148.635 44.7047 143.928C44.8544 142.386 46.3944 141.388 47.8717 141.857L74.0239 150.148Z" fill="#FF2B85"/>
<path d="M65.8761 292.566C70.4812 292.566 73.5098 290.425 74.9316 289.112C75.6653 288.436 76.0503 287.469 75.9897 286.461C75.3316 275.742 74.1585 248.272 77.4054 224.736C80.9371 199.147 77.3872 159.765 76.6413 152.13C76.511 150.796 75.5954 149.668 74.3071 149.259L48.1536 140.969C47.1682 140.666 46.1254 140.807 45.2674 141.368C44.4186 141.927 43.876 142.827 43.776 143.837C43.3121 148.647 42.7422 158.849 44.1337 173.169C45.9193 191.51 53.7892 215.901 55.3474 220.604C55.4446 220.895 55.4385 221.203 55.3324 221.521C53.1102 228.063 52.8373 233.391 53.1192 239.868C53.2771 243.506 53.5104 247.144 53.7439 250.783C54.3955 260.948 55.0717 271.46 53.9923 281.712C53.9892 281.744 53.9683 281.992 53.9683 282.024V286.535C53.9683 287.748 54.6079 288.868 55.6355 289.461C59.6371 291.76 63.0538 292.566 65.8761 292.566ZM73.7433 151.035C74.3191 151.217 74.7284 151.719 74.7861 152.31C75.5318 159.91 79.0606 199.098 75.5621 224.482C72.291 248.184 73.4702 275.802 74.1283 286.576C74.1585 287.029 73.9947 287.443 73.6704 287.742C71.6758 289.58 66.0247 293.283 56.5632 287.845C56.1175 287.588 55.8296 287.075 55.8296 286.535V282.024C56.9392 271.498 56.26 260.907 55.6023 250.664C55.3717 247.038 55.1384 243.412 54.9806 239.787C54.7079 233.526 54.9654 228.386 57.0967 222.118C57.3331 221.418 57.3392 220.693 57.118 220.019C55.5687 215.349 47.7534 191.131 45.9891 172.987C44.6097 158.825 45.1735 148.759 45.6312 144.017C45.6737 143.572 45.9161 143.171 46.2923 142.923C46.6772 142.67 47.15 142.603 47.5898 142.745L73.7433 151.035Z" fill="#FF2B85"/>
<path d="M143.682 48.0886L154.795 40.2095C155.87 39.4473 156.574 38.2679 156.737 36.9602L157.221 33.049C157.487 30.9067 156.256 28.8598 154.239 28.0903L152.702 27.5037C151.447 27.025 150.028 27.3174 149.065 28.2536L146.022 31.2116C145.894 31.3357 145.682 31.2952 145.609 31.133L144.164 27.9353L143.066 27.7128C141.899 29.8262 141.22 32.1659 141.091 34.5766C140.948 37.2323 140.169 40.9297 137.181 42.9216C132.177 46.2576 139.307 48.1358 139.307 48.1358H143.533C143.586 48.1358 143.638 48.1194 143.682 48.0886Z" fill="white"/>
<path d="M139.307 49.0666H143.533C143.727 49.0666 144.061 48.9606 144.222 48.8483L155.335 40.9691C156.621 40.0554 157.469 38.635 157.661 37.0737L158.146 33.1644C158.467 30.5891 156.996 28.1441 154.568 27.2196L153.031 26.6345C151.452 26.0295 149.633 26.3994 148.417 27.5863L146.062 29.8737L145.013 27.5513C144.888 27.2786 144.643 27.0814 144.349 27.0223L143.252 26.7995C142.854 26.7223 142.451 26.9056 142.251 27.2621C141.002 29.5251 140.298 31.97 140.159 34.5272C140.026 37.0296 139.31 40.3825 136.667 42.147C135.03 43.2368 134.302 44.3979 134.499 45.597C134.872 47.8222 138.374 48.853 139.071 49.0363C139.147 49.0575 139.228 49.0666 139.307 49.0666ZM143.318 47.2052H139.431C138.173 46.8491 136.458 46.0154 136.336 45.2907C136.273 44.9027 136.782 44.307 137.698 43.6963C140.987 41.5044 141.863 37.5541 142.02 34.6272C142.13 32.5976 142.642 30.6451 143.539 28.8172L144.761 31.5166C144.919 31.8668 145.24 32.1202 145.619 32.1944C145.983 32.2639 146.389 32.1503 146.668 31.882L149.715 28.9219C150.412 28.2396 151.467 28.0275 152.367 28.3746L153.907 28.9597C155.529 29.578 156.511 31.212 156.296 32.934L155.811 36.8448C155.684 37.8905 155.117 38.8396 154.256 39.4503L143.318 47.2052Z" fill="#FF2B85"/>
<path d="M135.582 54.9862L142.201 49.8841C143.397 48.9619 143.989 47.456 143.741 45.966L142.991 41.4662C142.683 39.6147 141.081 38.2576 139.203 38.2576C138.221 38.2576 137.276 38.6344 136.563 39.31L127.197 48.1829C127.083 48.2904 127.091 48.4729 127.213 48.5703L135.265 54.9836C135.358 55.0573 135.488 55.0583 135.582 54.9862Z" fill="#FF2B85"/>
<path d="M135.424 55.9725C135.679 55.9725 135.936 55.8892 136.151 55.7238L142.772 50.6217C144.24 49.4879 144.964 47.6462 144.661 45.8138L143.909 41.3132C143.524 39.0032 141.545 37.3267 139.204 37.3267C137.979 37.3267 136.812 37.7905 135.924 38.6334L126.556 47.5068C126.359 47.6933 126.174 48.1539 126.187 48.4254C126.202 48.7679 126.365 49.0877 126.635 49.3001L134.687 55.7134C134.902 55.8845 135.163 55.9725 135.424 55.9725ZM139.204 39.1881C140.632 39.1881 141.836 40.2114 142.072 41.6195L142.824 46.1183C143.015 47.2719 142.557 48.4331 141.633 49.1469L135.433 53.9247L128.4 48.3254L137.203 39.9855C137.746 39.4716 138.458 39.1881 139.204 39.1881Z" fill="#FF2B85"/>
<path d="M132.983 42.4536L111.711 56.9551C110.746 57.4655 109.686 57.655 108.603 57.801C98.3964 59.1776 79.5398 59.1372 69.9803 60.6813L46.3733 62.6778L38.067 53.3014L35.0178 50.897C35.0178 50.897 26.6174 44.8775 20.4969 59.5228C14.3765 74.1678 21.0175 112.319 21.0175 112.319L19.3885 151.431L22.456 157.327C22.8948 158.171 24.134 158.066 24.4247 157.16L26.2636 151.431C26.2636 151.431 42.4386 164.483 59.2696 164.046C76.1007 163.608 79.1609 152.679 79.1609 152.679C79.1609 152.679 73.9149 126.591 76.1007 110.711C77.6394 99.534 80.6944 91.2424 82.3684 87.3122C83.0403 85.7352 84.4913 84.6324 86.1861 84.3755L110.431 74.8247C110.886 74.6457 111.321 74.4218 111.731 74.1564L134.63 56.0406C137.922 53.912 139.602 50.0069 138.885 46.1532C137.792 40.4862 132.983 42.4536 132.983 42.4536Z" fill="#F8C1D9"/>
<path d="M58.4275 164.988C58.7186 164.988 59.0066 164.984 59.2945 164.976C76.6141 164.527 79.9245 153.403 80.0581 152.93C80.0975 152.788 80.1034 152.639 80.0731 152.495C80.0215 152.236 74.8861 126.377 77.0232 110.84C78.545 99.7879 81.5616 91.5831 83.2259 87.6769C83.7716 86.399 84.9297 85.5076 86.3242 85.2954L110.774 75.6915C111.274 75.4929 111.768 75.2397 112.235 74.9397L135.209 56.7715C138.758 54.481 140.589 50.2261 139.801 45.9836C139.401 43.9144 138.501 42.4911 137.124 41.7453C135.042 40.6281 132.726 41.5514 132.632 41.5908C132.571 41.6164 132.513 41.6469 132.459 41.6831L111.186 56.1848C110.495 56.5439 109.628 56.7229 108.479 56.8774C103.677 57.5246 96.7771 57.8643 90.1075 58.1931C82.6347 58.5614 74.9073 58.9418 69.8325 59.7605L46.7622 61.7114L38.7649 52.6849L35.5936 50.1655C35.4361 50.0519 32.4528 47.9663 28.6332 49.053C25.0408 50.0716 22.0152 53.473 19.6386 59.1631C13.4814 73.8908 19.8264 110.909 20.0993 112.478L18.4592 151.392C18.4531 151.555 18.4895 151.716 18.5623 151.86L21.6271 157.756C22.0002 158.475 22.7307 158.899 23.5734 158.828C24.3829 158.76 25.0648 158.217 25.3105 157.446L26.7443 152.974C30.5886 155.825 44.0578 164.987 58.4275 164.988ZM78.1995 152.624C77.6904 154.1 74.0826 162.73 59.2462 163.115C58.9793 163.121 58.7125 163.125 58.4488 163.125C42.442 163.125 27.0053 150.832 26.8475 150.706C26.6081 150.514 26.2836 150.456 25.9956 150.538C25.7017 150.628 25.4684 150.855 25.3741 151.146L23.5371 156.876L22.4548 157.327L23.2826 156.898L20.3296 151.222L21.9484 112.358C21.8697 111.781 15.4093 74.1089 21.3545 59.8818C23.5038 54.7417 26.123 51.701 29.1425 50.8445C32.1286 49.9972 34.4539 51.6388 34.4752 51.654L37.4916 54.0339L45.6767 63.2953C45.8737 63.5181 46.1649 63.65 46.4529 63.6061L70.0599 61.6083C75.1012 60.7974 82.7772 60.4198 90.1987 60.0545C96.9075 59.7241 103.847 59.3816 108.728 58.7237C109.786 58.5811 111.013 58.378 112.147 57.7779L133.411 43.2884C133.756 43.1718 135.121 42.773 136.248 43.39C137.106 43.8585 137.685 44.8481 137.97 46.3291C138.619 49.8214 137.109 53.3291 134.123 55.2585L111.153 73.4254C110.868 73.6042 110.489 73.8012 110.092 73.9575L85.8422 83.5085C84.008 83.7646 82.3134 85.0698 81.51 86.9463C79.8124 90.9389 76.7293 99.3197 75.1802 110.585C73.0822 125.813 77.6479 149.806 78.1995 152.624Z" fill="#FF2B85"/>
<path d="M34.1142 157.555C34.4841 157.555 34.8359 157.331 34.9814 156.965C37.0642 151.689 38.0826 138.852 38.5738 129.013C38.598 128.499 38.2039 128.061 37.6886 128.035C37.155 128.032 36.7366 128.406 36.7124 128.918C36.0212 142.829 34.8237 152.291 33.2472 156.28C33.0594 156.759 33.2928 157.3 33.7716 157.488C33.884 157.534 33.999 157.555 34.1142 157.555Z" fill="#FF2B85"/>
<path d="M37.8494 125.129C38.3494 125.129 38.7618 124.735 38.78 124.233C38.9526 119.649 38.9983 116.501 38.9983 116.501C39.0075 115.987 38.5951 115.564 38.0795 115.557H38.0675C37.5582 115.557 37.143 115.964 37.1369 116.474C37.1369 116.48 37.0913 119.608 36.9186 124.163C36.9005 124.677 37.3005 125.109 37.8129 125.129H37.8494Z" fill="#FF2B85"/>
<path d="M74.4102 177.621C74.4404 177.621 74.4708 177.619 74.501 177.616C76.3929 177.431 77.6751 177.037 77.7298 177.021C78.2208 176.867 78.4936 176.346 78.342 175.856C78.1936 175.364 77.6691 175.085 77.178 175.241C77.1656 175.244 76.0078 175.597 74.3191 175.764C73.8067 175.814 73.434 176.269 73.4823 176.781C73.5309 177.262 73.9341 177.621 74.4102 177.621Z" fill="#F8C1D9"/>
<path d="M71.6816 177.692C72.1759 177.692 72.5883 177.306 72.6123 176.808C72.6366 176.295 72.2426 175.856 71.7272 175.831C69.8991 175.74 68.2439 175.343 66.8038 174.65C66.3431 174.43 65.7854 174.621 65.561 175.084C65.3397 175.547 65.5336 176.104 65.9975 176.326C67.6619 177.128 69.5566 177.588 71.6363 177.692H71.6816ZM64.1059 174.945C64.3725 174.945 64.6362 174.832 64.8212 174.611C65.1517 174.215 65.0972 173.628 64.6999 173.299C63.4661 172.272 62.4566 170.923 61.7017 169.29C61.4865 168.82 60.9378 168.62 60.4649 168.835C59.9981 169.052 59.795 169.605 60.0102 170.072C60.8833 171.958 62.0627 173.525 63.5116 174.73C63.6843 174.876 63.8967 174.945 64.1059 174.945Z" fill="#F8C1D9"/>
<path d="M59.904 168.03C59.9888 168.03 60.0737 168.018 60.1587 167.994C60.6527 167.853 60.9407 167.339 60.8013 166.844C60.5467 165.951 60.3406 164.964 60.192 163.913C60.1193 163.406 59.6282 163.054 59.14 163.124C58.6307 163.197 58.2761 163.668 58.3487 164.177C58.5094 165.309 58.7307 166.378 59.0067 167.353C59.125 167.762 59.4977 168.03 59.904 168.03Z" fill="#F8C1D9"/>
<path d="M28.5423 184.566C29.0575 184.566 29.5213 184.149 29.5213 183.635C29.5213 183.122 29.1546 182.705 28.6393 182.705C26.4687 182.705 24.68 182.229 23.222 181.292C22.7944 181.016 22.2123 181.137 21.9365 181.572C21.6577 182.005 21.7819 182.58 22.2152 182.859C23.9766 183.992 26.1049 184.566 28.5423 184.566ZM31.7224 184.234C31.7831 184.234 31.8465 184.227 31.9103 184.214C32.5166 184.089 32.9228 183.97 33.0441 183.934C33.4535 183.883 33.6716 183.587 33.7354 183.178L34.5358 178.16C34.6177 177.653 34.2721 177.175 33.7628 177.093C33.2685 177.013 32.7773 177.359 32.6985 177.866L31.9922 182.288C31.8557 182.32 31.7042 182.355 31.5345 182.39C31.0313 182.494 30.7068 182.987 30.81 183.492C30.9008 183.931 31.2889 184.234 31.7224 184.234ZM34.1083 175.879C34.5599 175.879 34.954 175.553 35.0267 175.096L36.0061 168.964C36.0879 168.456 35.7423 167.979 35.233 167.897C34.739 167.821 34.2478 168.164 34.1689 168.67L33.1897 174.801C33.1078 175.309 33.4535 175.787 33.9628 175.869C34.0111 175.876 34.0597 175.879 34.1083 175.879ZM34.4386 167.297C34.7873 167.297 35.1239 167.097 35.2816 166.759C35.4997 166.293 35.2997 165.739 34.8328 165.52C33.6141 164.95 31.6921 163.985 29.4577 162.617C29.0244 162.351 28.4482 162.486 28.1785 162.925C27.9088 163.365 28.0482 163.938 28.4876 164.206C30.7947 165.617 32.7834 166.618 34.0447 167.209C34.172 167.268 34.3053 167.297 34.4386 167.297ZM26.3716 162.646C26.6656 162.646 26.9567 162.507 27.1386 162.246C27.4298 161.823 27.3237 161.243 26.9022 160.95C26.2929 160.529 25.6744 160.08 25.0621 159.606C24.6559 159.295 24.0677 159.366 23.7553 159.775C23.4401 160.183 23.5159 160.768 23.9222 161.082C24.5648 161.575 25.2074 162.042 25.8411 162.481C26.0017 162.593 26.1868 162.646 26.3716 162.646Z" fill="#F8C1D9"/>
<path d="M65.8094 281.419L66.0762 281.418C66.5917 281.409 67.001 280.984 66.9918 280.47C66.9829 279.961 66.5674 279.556 66.0612 279.556H66.0492L65.8094 279.558C64.0361 279.558 62.1747 279.229 60.2708 278.58C59.7889 278.419 59.2552 278.673 59.0886 279.162C58.9248 279.649 59.1825 280.178 59.6706 280.344C61.7684 281.058 63.8329 281.419 65.8094 281.419ZM69.1382 281.04C69.2081 281.04 69.2808 281.031 69.3534 281.015C73.1521 280.117 75.1893 278.037 75.2741 277.949C75.6319 277.581 75.6198 276.995 75.2529 276.637C74.883 276.279 74.2949 276.288 73.9372 276.655C73.9191 276.673 72.1638 278.438 68.923 279.202C68.4226 279.32 68.1135 279.822 68.2318 280.322C68.3319 280.751 68.7169 281.04 69.1382 281.04ZM57.106 279.206C57.4485 279.206 57.7818 279.014 57.9425 278.683C58.17 278.221 57.9761 277.663 57.5151 277.437C56.9422 277.157 56.3541 276.843 55.7506 276.497C55.308 276.237 54.7381 276.391 54.4804 276.84C54.2229 277.286 54.3774 277.854 54.823 278.11C55.4627 278.48 56.0874 278.812 56.6967 279.111C56.8269 279.174 56.9664 279.206 57.106 279.206Z" fill="#F8C1D9"/>
<path d="M24.1648 258.194C24.6377 258.194 25.044 257.837 25.0923 257.356C25.1409 256.844 24.7681 256.387 24.2556 256.337C22.2883 256.142 20.4996 255.486 18.9414 254.388C18.5199 254.093 17.9439 254.193 17.6439 254.614C17.3468 255.035 17.4468 255.616 17.8681 255.911C19.6932 257.197 21.782 257.962 24.0737 258.19C24.1042 258.193 24.1344 258.194 24.1648 258.194ZM27.2631 258.162C27.2964 258.162 27.3326 258.161 27.3661 258.158C30.9071 257.758 33.5292 256.363 33.6384 256.304C34.0902 256.06 34.2599 255.496 34.0143 255.043C33.7749 254.591 33.2079 254.418 32.7561 254.664C32.7321 254.676 30.325 255.949 27.16 256.306C26.6475 256.363 26.2808 256.825 26.3384 257.336C26.3899 257.812 26.793 258.162 27.2631 258.162ZM16.1007 254.009C16.3219 254.009 16.5404 253.933 16.7192 253.776C17.1042 253.435 17.1375 252.847 16.7979 252.462C16.1947 251.781 15.6309 251.006 15.1185 250.159C14.8517 249.718 14.2818 249.577 13.8392 249.844C13.3996 250.111 13.2571 250.682 13.524 251.123C14.0938 252.066 14.7273 252.931 15.4035 253.695C15.5884 253.903 15.843 254.009 16.1007 254.009Z" fill="#F8C1D9"/>
<path d="M82.4194 289.866C82.4194 289.866 80.1605 287.056 75.7931 284.696L82.4194 289.866Z" fill="#FF2B85"/>
<path d="M82.4195 290.797C82.6258 290.797 82.8319 290.729 83.0046 290.591C83.4047 290.268 83.4684 289.683 83.144 289.283C83.0471 289.162 80.7188 286.298 76.235 283.876C75.7893 283.637 75.2166 283.798 74.974 284.254C74.7284 284.707 74.8981 285.271 75.3499 285.516C79.4819 287.748 81.6738 290.425 81.695 290.452C81.8801 290.679 82.1467 290.797 82.4195 290.797Z" fill="#FF2B85"/>
<path d="M39.0614 257.861C39.0614 257.861 37.6926 256.612 34.0422 255.548L39.0614 257.861Z" fill="#FF2B85"/>
<path d="M39.0589 258.788C39.3164 258.788 39.5682 258.684 39.7532 258.479C40.0927 258.099 40.0683 257.517 39.6895 257.173C39.6257 257.115 38.1161 255.766 34.3023 254.653C33.793 254.503 33.2898 254.796 33.1472 255.287C33.0047 255.781 33.2866 256.298 33.7809 256.442C37.1217 257.415 38.4282 258.543 38.4405 258.555C38.6193 258.711 38.8406 258.788 39.0589 258.788Z" fill="#FF2B85"/>
<path d="M72.194 24.9284C72.3479 31.391 71.4431 40.7232 65.8779 46.5734L59.2716 49.1688C59.2716 49.1688 59.7435 54.1236 64.4624 56.483L50.7778 61.9098L38.9807 59.0284L40.868 51.5284C40.868 51.5284 46.295 44.9217 42.9917 34.0687C39.6885 23.2154 55.5952 10.3594 55.5952 10.3594L68.0015 12.9151C70.5798 16.4065 72.0907 20.5897 72.194 24.9284Z" fill="white"/>
<path d="M50.7789 62.8407C50.8971 62.8407 51.0126 62.8194 51.1215 62.7754L64.806 57.3489C65.1486 57.2141 65.3791 56.8912 65.3942 56.5229C65.4094 56.1559 65.2092 55.8149 64.8787 55.6496C61.6442 54.0323 60.6226 51.0886 60.3194 49.7578L66.2187 47.4403C66.3461 47.3901 66.4613 47.3129 66.5553 47.2143C72.282 41.192 73.2884 31.7592 73.1248 24.9064C73.0185 20.4287 71.5059 16.0904 68.7502 12.3617C68.6138 12.1769 68.4137 12.0495 68.1893 12.0023L55.7842 9.44691C55.5081 9.39222 55.2293 9.45895 55.0111 9.63475C54.341 10.1761 38.6557 23.0146 42.0995 34.3392C45.2068 44.5465 40.3564 50.6823 40.1472 50.9386C40.0625 51.0448 39.9987 51.1689 39.9653 51.3008L38.0767 58.8009C38.0161 59.042 38.0555 59.2967 38.1827 59.5088C38.31 59.7211 38.5193 59.8741 38.7587 59.9332L50.5576 62.8147C50.6303 62.833 50.7063 62.8407 50.7789 62.8407ZM62.4021 56.2985L50.7122 60.9352L40.1108 58.3463L41.7235 51.945C42.5966 50.7811 47.0349 44.1569 43.8821 33.7966C41.0565 24.5048 53.6197 13.2636 55.8478 11.3628L67.4588 13.7547C69.8538 17.1076 71.1695 20.9713 71.2634 24.9519C71.418 31.3954 70.5116 40.2114 65.3428 45.7834L58.9308 48.3012C58.5429 48.4527 58.3033 48.8422 58.3427 49.2561C58.3608 49.453 58.7975 53.5701 62.4021 56.2985Z" fill="#FF2B85"/>
<path d="M69.229 6.95451C69.229 6.95451 65.8191 0.403998 57.797 0.0167365C49.7748 -0.370493 44.5844 6.06016 44.5844 9.09733C44.5844 12.1343 63.6954 12.9234 63.6954 12.9234L69.229 6.95451Z" fill="#FF2B85"/>
<path d="M75.7875 15.0074C75.7875 15.9012 75.6129 16.7743 75.2586 17.5948C73.6809 21.2488 68.3051 30.7023 55.5952 28.406L51.4854 28.7609C51.4854 28.7609 50.805 32.9293 52.4784 36.7871C53.0783 38.1703 52.6698 39.8032 51.3624 40.5542C49.2671 41.7583 45.7969 42.7636 41.34 40.4994C41.34 40.4994 27.4032 19.9047 43.322 7.23283C46.4826 4.71683 50.7061 3.93656 54.5741 5.10157C58.0222 6.14048 63.0231 7.16204 68.4586 6.68853C69.7041 6.57992 70.9586 6.7512 72.084 7.29595C74.349 8.39238 75.7875 10.6873 75.7875 13.2039V15.0074Z" fill="#FF2B85"/>
<path d="M46.5681 42.7867C48.7356 42.7867 50.5121 42.1152 51.8278 41.3618C53.4921 40.4069 54.1378 38.2817 53.3346 36.4188C52.1856 33.7723 52.231 30.9195 52.3282 29.6235L55.5536 29.3447C69.0594 31.7093 74.701 21.2382 76.1138 17.9641C76.5141 17.038 76.7173 16.0421 76.7173 15.0068V13.2045C76.7173 10.3488 75.0589 7.7007 72.491 6.45756C71.2602 5.86513 69.8719 5.63619 68.3801 5.76042C62.981 6.23049 58.0456 5.17845 54.8442 4.20972C50.6487 2.94719 46.1285 3.80654 42.7422 6.50319C26.3383 19.5617 40.4231 40.8085 40.5686 41.0209C40.6564 41.1526 40.7746 41.2587 40.9171 41.3301C43.0058 42.3911 44.9005 42.7867 46.5681 42.7867ZM55.596 27.4757C55.5687 27.4757 55.5416 27.4757 55.5172 27.4787L51.4065 27.8333C50.9789 27.8698 50.6334 28.1911 50.5668 28.611C50.5363 28.7929 49.8633 33.0961 51.6246 37.1586C52.0522 38.15 51.7429 39.2625 50.9001 39.746C49.0114 40.8313 45.9436 41.7013 41.9782 39.7777C40.532 37.548 29.4882 19.4343 43.9003 7.96138C46.8167 5.64072 50.7093 4.90858 54.3047 5.99233C57.6637 7.00639 62.8538 8.11452 68.5411 7.6157C69.7201 7.51412 70.7602 7.69149 71.6787 8.13422C73.6098 9.06779 74.8558 11.0581 74.8558 13.2045V15.0068C74.8558 15.786 74.7042 16.5333 74.4041 17.2243C72.7609 21.0275 67.6498 29.6463 55.7629 27.4893C55.7084 27.4802 55.6505 27.4757 55.596 27.4757Z" fill="#FF2B85"/>
<path d="M58.0336 38.4166C58.3336 38.4166 58.6276 38.2728 58.8065 38.0043C59.0945 37.5769 58.9793 36.9979 58.5519 36.713C57.703 36.1445 57.215 35.4927 57.0937 34.7726C56.9028 33.6449 57.6393 32.6354 57.6485 32.6249C57.9576 32.2156 57.8789 31.6305 57.4697 31.3197C57.0573 31.012 56.4783 31.0864 56.163 31.5001C56.1144 31.5668 54.9322 33.1509 55.2566 35.0803C55.4658 36.3264 56.2236 37.395 57.515 38.2589C57.6757 38.3667 57.8548 38.4166 58.0336 38.4166Z" fill="#FF2B85"/>
<path d="M64.4302 7.7551C65.1517 7.7551 65.6004 7.73853 65.6793 7.73541C66.1946 7.71415 66.5948 7.28237 66.5737 6.76839C66.5524 6.253 66.1794 5.84075 65.6067 5.87403C65.5185 5.88011 56.7786 6.19096 51.1549 3.72028C50.6789 3.50649 50.1332 3.72621 49.9271 4.19769C49.7179 4.6676 49.9332 5.21784 50.4031 5.4238C55.1655 7.51881 61.7109 7.7551 64.4302 7.7551Z" fill="#F8C1D9"/>
<path d="M43.6153 37.5208C43.8154 37.5208 44.0185 37.4572 44.1884 37.3251C44.5945 37.0085 44.6672 36.4234 44.3491 36.0171C40.608 31.2181 42.1239 22.6994 42.139 22.6129C42.2328 22.1066 41.8965 21.6217 41.3933 21.5292C40.8777 21.4307 40.4019 21.7733 40.3078 22.2765C40.2381 22.6584 38.6313 31.7109 42.8816 37.1629C43.0635 37.3981 43.3395 37.5208 43.6153 37.5208Z" fill="#F8C1D9"/>
<path d="M51.4853 29.6918C51.7765 29.6918 52.0613 29.5568 52.2432 29.3007C52.5403 28.8825 52.4434 28.3033 52.0279 28.0047C51.919 27.9228 49.6997 26.2615 50.2758 23.3952C50.3789 22.8905 50.0513 22.3993 49.5452 22.2993C49.057 22.1855 48.5508 22.5237 48.4507 23.0283C47.6322 27.1088 50.8094 29.4235 50.9457 29.5205C51.1095 29.6356 51.2973 29.6918 51.4853 29.6918Z" fill="#F8C1D9"/>
<path d="M69.9802 60.6813C69.9802 60.6813 70.1988 56.5801 61.6741 56.7988C53.1494 57.0174 43.6227 57.6912 41.5022 49.1225L42.0229 47.6182C42.0229 47.6182 34.8185 46.7439 35.022 53.0828C35.2255 59.4219 40.0342 64.4492 50.3077 64.6678C60.5811 64.8865 69.9802 60.6813 69.9802 60.6813Z" fill="white"/>
<path d="M51.1033 65.6069C61.1346 65.6069 69.9808 61.7007 70.3599 61.5311C70.6812 61.3886 70.8934 61.0793 70.9116 60.7305C70.9177 60.5881 70.951 59.3012 69.7475 58.0643C68.2348 56.5093 65.5367 55.7559 61.6502 55.8679L60.4861 55.8998C52.5735 56.1197 44.4429 56.3455 42.4753 49.1607L42.9028 47.9238C42.9969 47.6584 42.9635 47.3643 42.815 47.1263C42.6633 46.8869 42.4147 46.7278 42.1359 46.6945C41.9752 46.6733 38.2007 46.2396 35.8515 48.3876C34.6177 49.5152 34.0264 51.1055 34.0901 53.1136C34.3386 60.7216 40.3926 65.3887 50.2877 65.598C50.5607 65.6037 50.8334 65.6069 51.1033 65.6069ZM68.9199 60.1137C66.6037 61.0413 58.6671 63.8713 50.3302 63.7366C41.5387 63.55 36.1636 59.5558 35.9515 53.0531C35.906 51.5934 36.2819 50.5173 37.1095 49.7623C38.1312 48.824 39.665 48.574 40.7231 48.5238L40.6231 48.8181C40.5625 48.9877 40.5564 49.1711 40.5989 49.3469C42.7997 58.2583 52.2402 58.0007 60.5375 57.7612L61.6988 57.7293C65.7186 57.655 67.5648 58.5328 68.362 59.3119C68.6562 59.5983 68.823 59.8818 68.9199 60.1137Z" fill="#FF2B85"/>
<path d="M26.2624 152.362C26.5231 152.362 26.7809 152.254 26.966 152.042C27.3024 151.654 27.263 151.066 26.8748 150.728L23.3309 147.645C22.9369 147.311 22.3548 147.349 22.0152 147.737C21.6787 148.125 21.7183 148.713 22.1063 149.051L25.6503 152.134C25.8291 152.287 26.0442 152.362 26.2624 152.362Z" fill="#FF2B85"/>
<path d="M54.2492 134.738C54.2203 134.758 44.9103 140.998 44.1425 141.512C44.0625 141.565 43.9636 141.554 43.8907 141.492L30.5736 100.553C30.5598 100.541 30.5445 100.531 30.5281 100.523L10.841 120.709C10.7717 120.675 10.7259 120.607 10.7209 120.53L7.70612 75.1022C7.70237 75.0448 7.67564 74.9912 7.63188 74.9539L4.13715 71.9542C4.02932 71.8617 4.03495 71.6951 4.15309 71.6165C5.09714 70.9883 13.9753 65.0523 14.0863 64.9916L14.1207 64.9743C14.7823 64.625 15.594 64.5502 16.3616 64.9249L48.6563 81.1755C50.7263 82.1862 52.0967 84.2278 52.2481 86.5263L55.302 132.545C55.3625 133.462 54.9299 134.237 54.28 134.711L54.2492 134.738Z" fill="white"/>
<path d="M44.0306 142.477C44.243 142.477 44.458 142.416 44.6491 142.294C45.4281 141.771 54.7534 135.521 54.7836 135.5C54.808 135.483 54.8322 135.467 54.8535 135.447L54.8836 135.421C55.7842 134.765 56.3087 133.652 56.2329 132.484L53.1799 86.4642C53.0041 83.8402 51.4307 81.4924 49.0662 80.3388L16.7798 64.0926C15.7885 63.6091 14.6666 63.6319 13.6846 64.1518C13.5693 64.2124 13.5177 64.2412 4.97177 69.9497L3.63485 70.8423C3.39529 71.0031 3.14978 71.4291 3.1315 71.7186C3.1104 72.0749 3.25901 72.4263 3.5317 72.6615L6.79673 75.4655L9.78889 120.592C9.81327 120.927 10.1346 121.403 10.4377 121.549C10.8045 121.725 11.229 121.644 11.5077 121.359L30.1458 102.25L43.0059 141.78C43.0576 141.944 43.1547 142.089 43.2848 142.2C43.5002 142.383 43.7671 142.477 44.0306 142.477ZM53.7256 133.968C53.6044 134.049 46.8835 138.553 44.446 140.187L31.4589 100.265C31.404 100.093 31.298 99.9397 31.1557 99.826C31.104 99.7851 31.0039 99.7198 30.9433 99.6894C30.5915 99.5121 30.143 99.5835 29.8611 99.8728L11.529 118.669L8.63685 75.0397C8.61872 74.7867 8.42181 74.4016 8.22757 74.2378L5.4598 71.8641L6.00552 71.4988C8.69139 69.7056 14.2908 65.9646 14.5729 65.7856C14.8215 65.66 15.346 65.4659 15.9522 65.7616L48.2386 82.0078C50.0151 82.8748 51.1913 84.6269 51.3185 86.587L54.3715 132.608C54.4078 133.143 54.1743 133.636 53.7317 133.96L54.2502 134.738L53.7256 133.968Z" fill="#FF2B85"/>
<path d="M43.8983 141.486L30.5812 100.548C30.5674 100.536 30.5521 100.526 30.5357 100.518L36.0345 93.2879L51.0669 83.2169C51.749 84.1729 52.1758 85.3086 52.2557 86.5211L55.3096 132.54C55.37 133.457 54.9375 134.232 54.2875 134.706L54.2567 134.733C54.2278 134.753 44.9178 140.993 44.1501 141.507C44.0701 141.56 43.9711 141.549 43.8983 141.486Z" fill="#F8C1D9"/>
<path d="M44.0397 142.471C44.2579 142.471 44.4792 142.408 44.6703 142.28C44.7611 142.218 54.726 135.542 54.8018 135.488C55.7871 134.766 56.3147 133.654 56.2417 132.48L53.186 86.4597C53.0981 85.1076 52.6252 83.7979 51.8247 82.6763C51.5307 82.267 50.9608 82.1608 50.5484 82.4442L35.5149 92.5153C35.4299 92.5714 35.3542 92.6425 35.2905 92.7244L29.7943 99.9547C29.6276 100.176 29.567 100.459 29.6306 100.729C29.6549 100.839 29.7003 100.941 29.7609 101.032L43.0121 141.774C43.0635 141.933 43.1576 142.075 43.2848 142.186C43.5001 142.376 43.7699 142.471 44.0397 142.471ZM50.7728 84.5345C51.0913 85.1773 51.2791 85.8715 51.3246 86.5825L54.3804 132.602C54.4168 133.139 54.1803 133.631 53.7409 133.953C53.5923 134.057 46.8863 138.553 44.4521 140.182L31.5982 100.661L36.6821 93.975L50.7728 84.5345Z" fill="#FF2B85"/>
<path d="M12.7288 74.8129C12.7288 74.8129 8.03888 73.7598 7.27361 74.7923L4.04156 72.0181C3.93389 71.9256 3.93935 71.759 4.05765 71.6803C5.0017 71.0522 13.8799 65.1162 13.991 65.0555L14.0251 65.0382C14.6871 64.6889 15.4984 64.6141 16.266 64.9888L22.8192 68.05L17.4651 71.6428L12.7288 74.8129Z" fill="#F8C1D9"/>
<path d="M12.7297 75.7429C12.9116 75.7429 13.0935 75.6899 13.2479 75.5868L23.3372 68.8233C23.616 68.6369 23.7737 68.314 23.7465 67.9791C23.7221 67.644 23.516 67.3485 23.2128 67.206L16.6617 64.1441C15.6886 63.676 14.5637 63.7014 13.5904 64.2154C13.4692 64.2776 13.4329 64.2989 6.15728 69.1585L3.54097 70.9045C3.29843 71.0668 3.05276 71.4882 3.03463 71.7792C3.01338 72.1339 3.15903 72.4856 3.4286 72.7206L6.66627 75.4988C6.86349 75.6657 7.12729 75.734 7.37576 75.7188C7.63361 75.6899 7.86693 75.5551 8.02148 75.3474C8.38825 75.1306 10.5651 75.2807 12.5265 75.7217C12.5932 75.7354 12.6628 75.7429 12.7297 75.7429ZM20.9301 68.1959L12.5417 73.8178C10.7197 73.4343 8.6339 73.1813 7.36981 73.6498L5.36296 71.9278L7.19104 70.7059C10.0649 68.7886 14.2333 66.0026 14.4759 65.8494C14.7212 65.725 15.2488 65.5326 15.8612 65.8266L20.9301 68.1959Z" fill="#FF2B85"/>
<path d="M38.6778 87.9929L6.27119 71.6876C4.55235 70.8484 2.56846 72.1802 2.69426 74.0888L5.75629 120.232C5.90271 122.454 7.22728 124.427 9.22836 125.404L41.6346 141.709C43.3536 142.548 45.3375 141.217 45.2117 139.308L42.1497 93.1652C42.0033 90.9433 40.6785 88.9697 38.6778 87.9929Z" fill="#FF2B85"/>
<path d="M42.736 142.897C43.4002 142.897 44.0548 142.7 44.634 142.313C45.6587 141.625 46.2225 140.479 46.1437 139.247L43.0817 93.1035C42.909 90.557 41.381 88.2801 39.0922 87.1599L6.69064 70.8561C5.56907 70.309 4.29872 70.3967 3.27107 71.085C2.24638 71.7745 1.68254 72.9206 1.76443 74.1514L4.82614 120.293C4.99601 122.842 6.52389 125.12 8.81877 126.24L41.2172 142.541C41.7054 142.779 42.2239 142.897 42.736 142.897ZM5.17791 72.3643C5.40842 72.3643 5.64486 72.4174 5.86302 72.5249L38.2586 88.8258L38.2675 88.8303C39.9653 89.658 41.0959 91.3421 41.2203 93.2277L44.2823 139.37C44.3217 139.931 44.064 140.452 43.5941 140.766C43.1334 141.081 42.5452 141.121 42.0451 140.872L9.64639 124.571C7.93973 123.739 6.80878 122.055 6.68751 120.171L3.6258 74.027C3.58643 73.4663 3.84412 72.945 4.31091 72.6326C4.5747 72.4538 4.87474 72.3643 5.17791 72.3643Z" fill="#FF2B85"/>
<path d="M41.0627 103.596C41.4082 103.596 41.7388 103.403 41.8994 103.071C42.1238 102.609 41.9327 102.053 41.472 101.827L4.98669 84.0221C4.51084 83.7993 3.9653 83.9888 3.74089 84.4512C3.51648 84.9135 3.7076 85.4698 4.16829 85.6958L40.6533 103.5C40.7869 103.564 40.9263 103.596 41.0627 103.596Z" fill="#F8C1D9"/>
<path d="M38.8147 139.834C38.7933 139.85 31.8856 144.479 31.3158 144.86C31.2564 144.9 31.1831 144.892 31.129 144.845L22.3862 134.111C22.3758 134.102 22.3646 134.094 22.3526 134.088L6.60693 129.425C6.55567 129.4 6.52177 129.349 6.51786 129.292L4.65617 101.497C4.65335 101.455 4.63367 101.415 4.60133 101.387L2.00813 99.1614C1.92827 99.093 1.93217 98.9692 2.02 98.9108C2.72057 98.4449 9.30796 94.0402 9.39016 93.9953L9.41564 93.9825C9.90681 93.7233 10.5089 93.6676 11.0785 93.946L35.0402 106.003C36.5763 106.753 37.5931 108.268 37.7053 109.974L39.5959 138.207C39.6408 138.887 39.3199 139.463 38.8377 139.814L38.8147 139.834Z" fill="white"/>
<path d="M31.2706 145.786C31.4738 145.786 31.6709 145.739 31.8224 145.641L39.3287 140.611C39.3711 140.584 39.4136 140.551 39.45 140.516L39.4711 140.496C40.1624 140 40.5869 139.095 40.5262 138.145L38.6374 109.912C38.5011 107.879 37.2792 106.06 35.4481 105.166L11.4956 93.114C10.6863 92.72 9.77368 92.7381 8.98247 93.1594C8.87933 93.2124 8.8551 93.2262 3.52571 96.7853L1.50369 98.1342C1.261 98.2949 1.03972 98.6768 1.02144 98.9664C0.997372 99.3074 1.1338 99.6318 1.38837 99.8592L3.75012 101.883L5.58711 129.355C5.61149 129.693 5.90232 130.124 6.20862 130.268L21.8606 134.915L30.4068 145.433C30.5915 145.662 30.9401 145.786 31.2706 145.786ZM38.2919 139.065C38.0706 139.212 36.7366 140.105 35.2511 141.102L31.3769 143.697L23.1066 133.522C23.0247 133.419 22.8853 133.314 22.767 133.255L7.41223 128.693L5.58711 101.436C5.56898 101.193 5.40522 100.857 5.22644 100.694L3.386 99.1181L4.55946 98.3343C6.67853 96.9202 9.67991 94.9147 9.87994 94.7873C10.0375 94.7056 10.3375 94.6176 10.668 94.783L34.6205 106.835C35.8635 107.443 36.688 108.666 36.776 110.035L38.6649 138.269C38.695 138.698 38.4434 138.95 38.2887 139.062L38.2919 139.065Z" fill="#FF2B85"/>
<path d="M31.1349 144.842L22.392 134.107C22.3817 134.098 22.3703 134.09 22.3583 134.084L25.6755 114.991L36.829 107.518C37.3354 108.227 37.6518 109.07 37.7112 109.97L39.602 138.203C39.6465 138.883 39.3257 139.459 38.8434 139.811L38.8204 139.831C38.799 139.846 31.8916 144.475 31.3215 144.857C31.2623 144.896 31.189 144.888 31.1349 144.842Z" fill="#F8C1D9"/>
<path d="M31.2645 145.782C31.4738 145.782 31.6801 145.735 31.8284 145.638C32.4135 145.248 39.3407 140.604 39.362 140.589C40.1684 139.997 40.5926 139.093 40.532 138.142L38.6405 109.907C38.5738 108.866 38.2099 107.852 37.5916 106.98C37.2975 106.567 36.7336 106.464 36.3122 106.746L25.156 114.217C24.9436 114.358 24.8012 114.579 24.7559 114.831L21.4393 133.925C21.3815 134.257 21.5089 134.588 21.7576 134.797L30.4127 145.43C30.4461 145.472 30.4855 145.512 30.528 145.548C30.7038 145.701 30.9887 145.782 31.2645 145.782ZM36.5092 108.854C36.6638 109.231 36.7549 109.627 36.7791 110.029L38.6706 138.266C38.7011 138.71 38.4192 138.968 38.2948 139.059C38.1826 139.136 33.1836 142.488 31.395 143.687L23.3491 133.81L26.523 115.542L36.5092 108.854Z" fill="#FF2B85"/>
<path d="M27.6366 111.062L3.59164 98.9637C2.31629 98.3411 0.844349 99.3291 0.937645 100.745L2.83418 129.071C2.94279 130.72 3.92575 132.184 5.41035 132.909L29.4552 145.007C30.7305 145.629 32.2025 144.641 32.1092 143.225L30.2127 114.899C30.104 113.251 29.1211 111.787 27.6366 111.062Z" fill="#FF2B85"/>
<path d="M30.2733 146.129C30.8099 146.129 31.3433 145.97 31.8134 145.656C32.644 145.098 33.1047 144.166 33.0411 143.165L31.1433 114.837C31.01 112.863 29.8276 111.097 28.0511 110.229L4.01078 98.1311C3.10721 97.6885 2.07033 97.7553 1.2338 98.3146C0.403053 98.8725 -0.0576401 99.8048 0.00580597 100.805L1.90374 129.134C2.03704 131.11 3.22254 132.876 5.00202 133.745L29.0364 145.839C29.4336 146.033 29.855 146.129 30.2733 146.129ZM2.78278 99.7048C2.90405 99.7048 3.04064 99.7302 3.18316 99.8001L27.2174 111.895L27.2235 111.898C28.4088 112.475 29.197 113.648 29.2819 114.961L31.1797 143.287C31.2131 143.763 30.907 144.02 30.7765 144.108C30.6462 144.196 30.2883 144.375 29.8639 144.17L5.82964 132.076C4.63837 131.495 3.85013 130.322 3.76511 129.009L1.86749 100.684C1.83389 100.208 2.14018 99.9501 2.27067 99.8623C2.35834 99.8032 2.54337 99.7048 2.78278 99.7048Z" fill="#FF2B85"/>
<path d="M30.1671 136.608C30.5127 136.608 30.8433 136.416 31.0039 136.084C31.2283 135.623 31.0372 135.065 30.5765 134.839L3.5076 121.629C3.03144 121.408 2.48589 121.597 2.26148 122.058C2.03707 122.519 2.2282 123.077 2.68889 123.303L29.7581 136.513C29.8914 136.576 30.0308 136.608 30.1671 136.608Z" fill="#F8C1D9"/>
<path d="M19.2622 121.242C20.9721 124.204 23.7444 125.804 25.4544 124.817C27.1643 123.83 27.1643 120.628 25.4544 117.667C23.7444 114.705 20.9721 113.105 19.2622 114.092C17.5522 115.079 17.5522 118.28 19.2622 121.242Z" fill="white"/>
<path d="M24.3255 126.037C24.8923 126.037 25.4319 125.904 25.9199 125.623C27.0448 124.973 27.6663 123.68 27.6663 121.982C27.6663 120.471 27.166 118.773 26.2595 117.201C24.2648 113.742 20.9996 112.02 18.7957 113.285C16.6099 114.549 16.4585 118.249 18.4563 121.708C20.0084 124.398 22.3397 126.037 24.3255 126.037ZM20.4025 114.734C21.5939 114.734 23.3705 115.92 24.6467 118.132C25.3834 119.407 25.8049 120.811 25.8049 121.982C25.8049 122.972 25.5078 123.71 24.9862 124.01C23.9223 124.632 21.6182 123.462 20.069 120.777C18.5199 118.091 18.6473 115.523 19.7294 114.897C19.9206 114.787 20.1478 114.734 20.4025 114.734Z" fill="#FF2B85"/>
<path d="M14.2456 117.562C15.5639 119.846 17.7014 121.08 19.0201 120.319C20.3385 119.558 20.3385 117.089 19.0201 114.806C17.7014 112.522 15.5639 111.288 14.2456 112.049C12.927 112.81 12.927 115.279 14.2456 117.562Z" fill="#F8C1D9"/>
<path d="M18.1591 121.471C18.6289 121.471 19.0807 121.361 19.4868 121.126C21.2755 120.09 21.4271 117.109 19.8264 114.34C18.2287 111.567 15.5761 110.202 13.7785 111.243C12.8416 111.784 12.3264 112.846 12.3264 114.235C12.3264 115.437 12.7204 116.783 13.4389 118.027C14.6758 120.171 16.5462 121.471 18.1591 121.471ZM15.1367 112.753C15.9762 112.753 17.289 113.673 18.2137 115.27C19.3142 117.176 19.2988 119.081 18.5531 119.513C17.8105 119.954 16.1523 119.004 15.0516 117.097C14.503 116.145 14.1878 115.102 14.1878 114.235C14.1878 113.55 14.3786 113.048 14.7122 112.856C14.8304 112.786 14.9729 112.753 15.1367 112.753Z" fill="#FF2B85"/>
<path d="M10.5762 129.223C11.9617 131.506 14.2082 132.74 15.5937 131.979C16.9792 131.218 16.9792 128.75 15.5937 126.466C14.2082 124.182 11.9617 122.948 10.5762 123.709C9.19068 124.471 9.19068 126.939 10.5762 129.223Z" fill="#F8C1D9"/>
<path d="M14.6879 133.131C15.1698 133.131 15.6279 133.022 16.0431 132.796C16.7191 132.423 17.1981 131.783 17.4224 130.945C17.8013 129.528 17.4163 127.673 16.3918 125.982C14.7243 123.239 11.9808 121.881 10.1283 122.892C9.44946 123.266 8.97329 123.906 8.7492 124.744C8.37008 126.161 8.75515 128.017 9.77999 129.707C11.0744 131.836 13.0177 133.131 14.6879 133.131ZM11.5018 124.415C12.4141 124.415 13.8209 125.337 14.7971 126.949C15.5429 128.176 15.8642 129.555 15.6216 130.463C15.5308 130.804 15.37 131.039 15.1458 131.162C14.3393 131.607 12.5446 130.671 11.3744 128.74C10.6287 127.513 10.3074 126.134 10.5499 125.226C10.6407 124.885 10.8014 124.649 11.0258 124.524C11.1591 124.451 11.3229 124.415 11.5018 124.415Z" fill="#FF2B85"/>
<path d="M14.0148 86.2368C15.4003 88.5206 17.6468 89.7547 19.0323 88.9935C20.4178 88.2324 20.4178 85.7641 19.0323 83.4805C17.6468 81.1965 15.4003 79.9626 14.0148 80.7238C12.6293 81.4849 12.6293 83.9532 14.0148 86.2368Z" fill="#F8C1D9"/>
<path d="M18.1258 90.1462C18.6077 90.1462 19.0656 90.0369 19.4808 89.811C20.16 89.4367 20.6358 88.7969 20.8602 87.9588C21.2392 86.5416 20.8541 84.6863 19.8295 82.996C18.162 80.2525 15.4216 78.9003 13.5663 79.907C12.8903 80.2797 12.4113 80.9195 12.1869 81.7576C11.808 83.1764 12.1929 85.0304 13.2177 86.7203C14.5123 88.85 16.4554 90.1462 18.1258 90.1462ZM14.9397 81.4302C15.8521 81.4302 17.2588 82.3519 18.235 83.9631C18.9807 85.1895 19.302 86.5689 19.0595 87.4769C18.9687 87.8179 18.8081 88.0543 18.5836 88.1785C17.7773 88.6181 15.9825 87.6828 14.8123 85.7533C14.0666 84.5285 13.7453 83.149 13.9878 82.2395C14.0786 81.8985 14.2392 81.6636 14.4636 81.541C14.5971 81.4667 14.7578 81.4302 14.9397 81.4302Z" fill="#FF2B85"/>
<path d="M18.7985 91.6744C19.8906 93.474 21.661 94.4467 22.7529 93.8467C23.8447 93.2468 23.8447 91.3017 22.7529 89.5019C21.661 87.7021 19.8906 86.7296 18.7985 87.3293C17.7066 87.9293 17.7066 89.8747 18.7985 91.6744Z" fill="white"/>
<path d="M22.0425 94.9495C22.4548 94.9495 22.8459 94.8572 23.2007 94.6617C23.7826 94.3432 24.1921 93.7975 24.3829 93.0838C24.6953 91.9149 24.3829 90.396 23.5492 89.0183C22.179 86.7613 19.8932 85.6638 18.35 86.5142C17.768 86.8339 17.3587 87.3797 17.1679 88.0937C16.8555 89.2623 17.1679 90.7811 18.0013 92.1558C19.0563 93.8963 20.657 94.9495 22.0425 94.9495ZM19.5294 88.083C20.1296 88.083 21.1755 88.6984 21.9546 89.9854C22.6367 91.1055 22.7184 92.0952 22.5822 92.6015C22.5245 92.8153 22.4307 92.9594 22.3032 93.0289C21.8059 93.3065 20.5176 92.7108 19.5961 91.1919V91.1904C18.9138 90.0704 18.8321 89.0819 18.9686 88.5756C19.0262 88.3604 19.1201 88.2163 19.2474 88.1452C19.3232 88.1043 19.4201 88.083 19.5294 88.083Z" fill="#FF2B85"/>
<path d="M54.4867 50.0988H59.2705C59.7858 50.0988 60.2013 49.682 60.2013 49.168C60.2013 48.6543 59.7858 48.2374 59.2705 48.2374H54.4867C53.9711 48.2374 53.5559 48.6543 53.5559 49.168C53.5559 49.682 53.9711 50.0988 54.4867 50.0988Z" fill="#FF2B85"/>
<path d="M74.7085 151.479L81.1734 147.213L84.7785 151.312L86.1191 173.751L73.379 182.157L72.0383 159.719L74.7085 151.479Z" fill="white"/>
<path d="M73.3795 183.088C73.5583 183.088 73.7372 183.037 73.8918 182.935L86.6305 174.529C86.9093 174.345 87.067 174.027 87.0487 173.695L85.7088 151.255C85.6968 151.049 85.6149 150.852 85.4785 150.696L81.8739 146.599C81.5617 146.25 81.0463 146.183 80.6614 146.436L74.1949 150.702C74.0191 150.819 73.8858 150.992 73.8221 151.193L71.1542 159.431C71.1178 159.542 71.1028 159.657 71.1089 159.774L72.4486 182.214C72.4698 182.546 72.6639 182.841 72.9641 182.99C73.0946 183.057 73.237 183.088 73.3795 183.088ZM85.1572 173.27L74.2131 180.492L72.9791 159.838L75.4925 152.077L81.01 148.437L83.8686 151.686L85.1572 173.27Z" fill="#FF2B85"/>
<path d="M78.628 160.843C79.5469 160.237 80.2386 158.855 80.1729 157.756L80.096 156.47C80.0304 155.371 79.2322 154.972 78.3133 155.578C77.3944 156.184 76.7027 157.567 76.7684 158.666L76.8453 159.951C76.9109 161.05 77.709 161.45 78.628 160.843Z" fill="#FF2B85"/>
<path d="M78.0358 150.214C78.1148 150.214 78.1967 150.203 78.2783 150.182C78.7726 150.049 79.0667 149.539 78.9362 149.044C78.8423 148.688 76.496 140.287 66.4643 137.68C65.9519 137.554 65.4609 137.853 65.3304 138.347C65.2003 138.845 65.5003 139.353 65.9974 139.484C74.9436 141.807 77.0506 149.21 77.1355 149.526C77.2507 149.939 77.6267 150.214 78.0358 150.214Z" fill="#FF2B85"/>
<path d="M61.5087 138.314C61.5087 140.206 63.0428 141.74 64.9355 141.74C66.8279 141.74 68.3621 140.206 68.3621 138.314C68.3621 136.421 66.8279 134.887 64.9355 134.887C63.0428 134.887 61.5087 136.421 61.5087 138.314Z" fill="#F8C1D9"/>
<path d="M64.9364 142.671C67.3374 142.671 69.2927 140.717 69.2927 138.313C69.2927 135.909 67.3374 133.955 64.9364 133.955C62.5322 133.955 60.577 135.909 60.577 138.313C60.577 140.717 62.5322 142.671 64.9364 142.671ZM64.9364 135.817C66.3127 135.817 67.4314 136.937 67.4314 138.313C67.4314 139.69 66.3127 140.81 64.9364 140.81C63.5601 140.81 62.4384 139.69 62.4384 138.313C62.4384 136.937 63.5601 135.817 64.9364 135.817Z" fill="#FF2B85"/>
<path d="M47.1561 196.062C47.2288 196.062 47.3079 196.053 47.3835 196.033C47.8806 195.907 48.1838 195.403 48.0596 194.904C48.0383 194.813 45.7919 185.821 45.1129 179.955C45.0554 179.446 44.6278 179.073 44.0821 179.138C43.5698 179.197 43.2029 179.66 43.2635 180.17C43.9579 186.158 46.1586 194.983 46.2529 195.356C46.3588 195.779 46.7378 196.062 47.1561 196.062Z" fill="#F8C1D9"/>
<path d="M62.6506 225.321C63.0477 225.321 63.4145 225.065 63.5389 224.668C63.6935 224.177 63.4208 223.656 62.9296 223.501C62.9022 223.492 60.2223 222.626 58.9307 220.656C58.6488 220.222 58.0699 220.107 57.6424 220.386C57.2118 220.668 57.0906 221.244 57.3725 221.674C59.0338 224.215 62.2382 225.237 62.3747 225.279C62.4658 225.308 62.5597 225.321 62.6506 225.321Z" fill="#F8C1D9"/>
<path d="M32.1135 215.144C32.3682 215.144 32.6198 215.041 32.8046 214.838C33.1503 214.456 33.12 213.868 32.7379 213.522C32.6926 213.481 28.2301 209.422 26.1716 205.146C25.9472 204.682 25.3893 204.49 24.9286 204.713C24.4648 204.936 24.2709 205.492 24.4921 205.956C26.7142 210.564 31.295 214.73 31.489 214.905C31.6678 215.065 31.8922 215.144 32.1135 215.144Z" fill="#F8C1D9"/>
<path d="M68.362 97.1611C68.6229 97.1611 68.8805 97.0536 69.0655 96.8412C73.7704 91.4239 85.0024 85.7472 85.1146 85.6911C85.5723 85.4606 85.7603 84.8999 85.5298 84.4406C85.2965 83.9827 84.7266 83.8008 84.2779 84.0268C83.8049 84.2647 72.6032 89.9278 67.6587 95.6195C67.3223 96.0075 67.3617 96.5957 67.7527 96.9336C67.9286 97.0869 68.1438 97.1611 68.362 97.1611Z" fill="#FF2B85"/>
<path d="M42.2534 51.2219C42.2534 51.2219 33.1364 59.3045 32.8165 73.205L22.8193 68.05C22.8193 68.05 28.4335 50.962 32.1135 47.5775C35.7935 44.1926 42.1168 44.7698 42.2534 51.2219Z" fill="white"/>
<path d="M32.8167 74.1363C32.9805 74.1363 33.1472 74.0939 33.2929 74.0058C33.5685 73.8422 33.7415 73.5482 33.7476 73.2269C34.0536 59.8863 42.7846 51.9967 42.8726 51.9192C43.0758 51.7373 43.1909 51.4751 43.1848 51.2024C43.0998 47.1854 40.899 45.6531 39.5955 45.0966C37.0853 44.0296 33.8172 44.7466 31.4829 46.893C27.6692 50.4019 22.167 67.053 21.9334 67.7594C21.791 68.1943 21.9851 68.6689 22.3912 68.8781L32.3895 74.0333C32.5228 74.1028 32.6714 74.1363 32.8167 74.1363ZM41.3052 50.8356C39.6713 52.4165 32.7472 59.7818 31.9528 71.7111L23.9554 67.588C25.6986 62.4147 30.0157 50.7734 32.744 48.2632C34.5206 46.6292 37.0337 46.0274 38.865 46.8111C40.3291 47.4342 41.1689 48.8209 41.3052 50.8356Z" fill="#FF2B85"/>
<path d="M61.7561 57.1492C57.9302 61.0613 47.0713 71.8078 38.9807 76.3068L49.2485 81.515C49.2485 81.515 65.2348 70.2382 69.9808 62.3667C73.2438 56.9553 70.6528 54.8017 67.439 54.6913C65.2932 54.6176 63.2571 55.6141 61.7561 57.1492Z" fill="white"/>
<path d="M49.2481 82.4458C49.4359 82.4458 49.6239 82.3897 49.7845 82.2761C50.4456 81.8109 65.9854 70.7939 70.7783 62.8468C72.4698 60.0424 72.8578 57.7582 71.9365 56.059C71.1724 54.6493 69.5869 53.8339 67.4708 53.7609C65.0729 53.7095 62.8659 54.681 61.0894 56.4969C56.9331 60.7472 46.4136 71.1077 38.5283 75.4929C38.2252 75.6595 38.0433 75.9795 38.0494 76.3252C38.0555 76.6693 38.2525 76.9814 38.5586 77.1373L48.8267 82.3458C48.96 82.4125 49.1055 82.4458 49.2481 82.4458ZM67.2162 55.6194C67.2798 55.6194 67.3436 55.6207 67.4042 55.6223C68.8138 55.6709 69.8688 56.1528 70.2993 56.9457C70.8694 57.9945 70.472 59.7485 69.1837 61.8857C65.0335 68.7689 51.7916 78.5321 49.1662 80.4283L40.9202 76.2463C48.7931 71.376 58.4612 61.8493 62.4233 57.8005C63.7846 56.4077 65.5216 55.6194 67.2162 55.6194Z" fill="#FF2B85"/>
<path d="M79.0788 96.6587C79.0788 96.6587 71.7754 118.003 54.7087 123.484L54.99 127.844C54.99 127.844 68.362 127.087 79.0788 107.518C79.0788 107.518 83.3474 97.8828 79.0788 96.6587Z" fill="white"/>
<path d="M54.9898 128.774C55.008 128.774 55.0231 128.774 55.0412 128.773C55.6082 128.741 69.0563 127.76 79.8943 107.966C80.2458 107.184 82.9714 100.84 81.4433 97.5719C81.0159 96.6624 80.2883 96.038 79.3364 95.7636C78.8482 95.624 78.3602 95.8878 78.1967 96.3577C78.1269 96.567 70.8389 117.326 54.4229 122.598C54.0165 122.728 53.7498 123.119 53.7771 123.545L54.0591 127.904C54.0923 128.397 54.5016 128.774 54.9898 128.774ZM79.5607 98.0373C79.6337 98.1327 79.6971 98.2403 79.7549 98.3601C80.749 100.484 78.9876 105.419 78.2269 107.141C69.5443 122.989 58.9914 126.167 55.8537 126.777L55.6842 124.139C70.5084 118.949 77.8298 102.469 79.5607 98.0373Z" fill="#FF2B85"/>
</g>
<defs>
<clipPath id="clip0_245_1437">
<rect width="201.17" height="320.924" fill="white" transform="matrix(-1 0 0 1 201.17 0)"/>
</clipPath>
</defs>
</svg>
