<svg width="184" height="123" viewBox="0 0 184 123" fill="none" xmlns="http://www.w3.org/2000/svg">
<g clip-path="url(#clip0_245_3594)">
<path d="M64.0834 86.8331L62.174 87.9356C61.9784 88.0484 61.6365 88.0343 61.4105 87.9038L59.611 86.8646C59.385 86.7342 59.3604 86.537 59.5562 86.4239L61.4653 85.3217C61.6613 85.2086 62.003 85.2228 62.229 85.3533L64.0286 86.3923C64.2546 86.5228 64.279 86.7203 64.0834 86.8331Z" fill="#FF2B85"/>
<path d="M55.4151 91.8375L53.506 92.94C53.3104 93.0528 52.9683 93.0387 52.7424 92.9082L50.9427 91.869C50.7167 91.7386 50.6923 91.5414 50.8881 91.4283L52.7973 90.3261C52.9929 90.2129 53.3348 90.2272 53.5608 90.3577L55.3604 91.3967C55.5864 91.5272 55.611 91.7247 55.4151 91.8375Z" fill="#FF2B85"/>
<path d="M72.3104 91.583L70.4011 92.6855C70.2053 92.7983 69.8636 92.7842 69.6376 92.6537L67.8378 91.6146C67.6119 91.4841 67.5873 91.2869 67.783 91.1738L69.6923 90.0716C69.8881 89.9585 70.2298 89.9727 70.4558 90.1032L72.2554 91.1422C72.4814 91.2727 72.5062 91.4702 72.3104 91.583Z" fill="#FF2B85"/>
<path d="M63.6426 96.5874L61.7332 97.6899C61.5376 97.8027 61.1957 97.7886 60.9697 97.6581L59.1701 96.6189C58.9441 96.4885 58.9195 96.2913 59.1153 96.1782L61.0246 95.076C61.2203 94.9629 61.562 94.9771 61.7882 95.1076L63.5878 96.1466C63.8138 96.2771 63.8383 96.4746 63.6426 96.5874Z" fill="#FF2B85"/>
<path d="M80.5375 96.3329L78.6283 97.4354C78.4325 97.5482 78.0908 97.5341 77.8648 97.4037L76.0652 96.3645C75.8392 96.234 75.8146 96.0368 76.0102 95.9237L77.9196 94.8215C78.1152 94.7084 78.4573 94.7226 78.6833 94.8531L80.4825 95.8921C80.7085 96.0226 80.7333 96.2201 80.5375 96.3329Z" fill="#FF2B85"/>
<path d="M71.8695 101.337L69.9605 102.44C69.7647 102.553 69.4226 102.539 69.1966 102.408L67.3972 101.369C67.1712 101.239 67.1466 101.041 67.3424 100.928L69.2516 99.8259C69.4474 99.7128 69.7891 99.727 70.0151 99.8575L71.8147 100.897C72.0407 101.027 72.0651 101.224 71.8695 101.337Z" fill="#FF2B85"/>
<path d="M89.2436 101.359L87.3343 102.462C87.1385 102.575 86.7968 102.56 86.5709 102.43L84.7712 101.391C84.5452 101.261 84.5206 101.063 84.7163 100.95L86.6257 99.848C86.8213 99.735 87.1633 99.7492 87.3893 99.8797L89.1889 100.919C89.4149 101.049 89.4394 101.246 89.2436 101.359Z" fill="#FF2B85"/>
<path d="M80.5756 106.364L78.6665 107.466C78.4705 107.579 78.1288 107.565 77.9029 107.435L76.1032 106.395C75.8772 106.265 75.8526 106.068 76.0484 105.955L77.9575 104.853C78.1534 104.739 78.4951 104.754 78.7211 104.884L80.5208 105.923C80.7468 106.053 80.7715 106.251 80.5756 106.364Z" fill="#FF2B85"/>
<path d="M97.4705 106.109L95.5613 107.212C95.3658 107.325 95.0238 107.31 94.7978 107.18L92.9982 106.141C92.7722 106.011 92.7477 105.813 92.9435 105.7L94.8528 104.598C95.0482 104.485 95.3902 104.499 95.6162 104.63L97.4159 105.668C97.6419 105.799 97.6663 105.996 97.4705 106.109Z" fill="#FF2B85"/>
<path d="M88.8029 111.114L86.8937 112.216C86.6979 112.329 86.3562 112.315 86.1302 112.184L84.3306 111.145C84.1046 111.015 84.08 110.818 84.2756 110.705L86.185 109.602C86.3806 109.489 86.7225 109.504 86.9485 109.634L88.7479 110.673C88.9739 110.803 88.9987 111.001 88.8029 111.114Z" fill="#FF2B85"/>
<path d="M105.698 110.859L103.789 111.962C103.593 112.074 103.251 112.06 103.025 111.93L101.226 110.891C101 110.76 100.975 110.563 101.171 110.45L103.08 109.348C103.276 109.235 103.617 109.249 103.843 109.38L105.643 110.418C105.869 110.549 105.894 110.746 105.698 110.859Z" fill="#FF2B85"/>
<path d="M97.0298 115.864L95.1206 116.966C94.925 117.079 94.5831 117.065 94.3571 116.934L92.5575 115.895C92.3315 115.765 92.3071 115.568 92.5028 115.455L94.4119 114.352C94.6075 114.239 94.9496 114.253 95.1756 114.384L96.9752 115.423C97.2012 115.553 97.2256 115.751 97.0298 115.864Z" fill="#FF2B85"/>
<path d="M114.404 115.886L112.495 116.988C112.299 117.101 111.957 117.087 111.731 116.956L109.932 115.917C109.706 115.787 109.681 115.589 109.877 115.477L111.786 114.374C111.982 114.261 112.323 114.276 112.549 114.406L114.349 115.445C114.575 115.575 114.599 115.773 114.404 115.886Z" fill="#FF2B85"/>
<path d="M105.736 120.89L103.827 121.992C103.631 122.106 103.289 122.091 103.063 121.961L101.264 120.922C101.038 120.791 101.013 120.594 101.209 120.481L103.118 119.379C103.314 119.266 103.656 119.28 103.882 119.41L105.681 120.449C105.907 120.58 105.932 120.777 105.736 120.89Z" fill="#FF2B85"/>
<path d="M123.072 110.881L121.163 111.984C120.967 112.097 120.625 112.082 120.399 111.952L118.599 110.913C118.374 110.782 118.349 110.585 118.545 110.472L120.454 109.37C120.65 109.257 120.992 109.271 121.218 109.402L123.017 110.441C123.243 110.571 123.268 110.768 123.072 110.881Z" fill="#FF2B85"/>
<path d="M131.74 105.877L129.831 106.979C129.635 107.092 129.293 107.078 129.067 106.948L127.268 105.909C127.042 105.778 127.017 105.581 127.213 105.468L129.122 104.365C129.318 104.252 129.659 104.267 129.885 104.397L131.685 105.436C131.911 105.567 131.936 105.764 131.74 105.877Z" fill="#FF2B85"/>
<path d="M140.408 100.873L138.498 101.975C138.303 102.088 137.961 102.073 137.735 101.943L135.936 100.904C135.71 100.774 135.685 100.576 135.881 100.463L137.79 99.3609C137.986 99.2481 138.327 99.262 138.553 99.3924L140.353 100.432C140.579 100.562 140.603 100.759 140.408 100.873Z" fill="#FF2B85"/>
<path d="M149.076 95.868L147.167 96.9703C146.971 97.0833 146.629 97.0691 146.403 96.9386L144.603 95.8997C144.377 95.7693 144.353 95.5718 144.548 95.4588L146.458 94.3565C146.653 94.2436 146.996 94.2576 147.222 94.388L149.021 95.4272C149.247 95.5577 149.272 95.755 149.076 95.868Z" fill="#FF2B85"/>
<path d="M122.631 120.636L120.722 121.738C120.526 121.851 120.184 121.837 119.958 121.706L118.159 120.667C117.933 120.537 117.908 120.339 118.104 120.226L120.013 119.124C120.209 119.011 120.551 119.025 120.777 119.156L122.576 120.195C122.802 120.325 122.827 120.523 122.631 120.636Z" fill="#FF2B85"/>
<path d="M131.299 115.631L129.39 116.733C129.194 116.847 128.852 116.832 128.626 116.702L126.827 115.663C126.601 115.532 126.576 115.335 126.772 115.222L128.681 114.12C128.877 114.007 129.219 114.021 129.445 114.151L131.244 115.191C131.47 115.321 131.495 115.518 131.299 115.631Z" fill="#FF2B85"/>
<path d="M139.967 110.627L138.058 111.729C137.862 111.842 137.52 111.828 137.294 111.697L135.494 110.658C135.269 110.528 135.244 110.33 135.44 110.218L137.349 109.115C137.545 109.002 137.887 109.016 138.113 109.147L139.912 110.186C140.138 110.317 140.163 110.514 139.967 110.627Z" fill="#FF2B85"/>
<path d="M157.271 100.959L155.362 102.062C155.166 102.175 154.824 102.161 154.598 102.03L152.798 100.991C152.572 100.861 152.548 100.663 152.744 100.55L154.653 99.4479C154.849 99.3349 155.191 99.349 155.417 99.4795L157.216 100.519C157.442 100.649 157.467 100.846 157.271 100.959Z" fill="#FF2B85"/>
<path d="M148.603 105.964L146.694 107.066C146.498 107.179 146.156 107.165 145.93 107.034L144.131 105.996C143.905 105.865 143.88 105.668 144.076 105.555L145.985 104.452C146.181 104.339 146.523 104.353 146.749 104.484L148.548 105.523C148.774 105.654 148.799 105.851 148.603 105.964Z" fill="#FF2B85"/>
<path d="M165.977 105.986L164.068 107.088C163.872 107.201 163.53 107.187 163.304 107.056L161.505 106.018C161.279 105.887 161.254 105.69 161.45 105.577L163.359 104.474C163.555 104.361 163.897 104.375 164.123 104.506L165.922 105.545C166.148 105.675 166.173 105.873 165.977 105.986Z" fill="#FF2B85"/>
<path d="M157.309 110.99L155.4 112.093C155.204 112.206 154.862 112.192 154.636 112.061L152.837 111.022C152.611 110.892 152.586 110.694 152.782 110.581L154.691 109.479C154.887 109.366 155.228 109.38 155.454 109.511L157.254 110.549C157.48 110.68 157.505 110.877 157.309 110.99Z" fill="#FF2B85"/>
<path d="M174.645 100.981L172.736 102.084C172.54 102.197 172.198 102.183 171.972 102.052L170.173 101.013C169.947 100.883 169.922 100.685 170.118 100.572L172.027 99.47C172.223 99.3568 172.565 99.3711 172.791 99.5015L174.59 100.541C174.816 100.671 174.841 100.869 174.645 100.981Z" fill="#FF2B85"/>
<path d="M183.313 95.9769L181.404 97.0793C181.208 97.1922 180.866 97.1782 180.64 97.0477L178.84 96.0088C178.615 95.8784 178.59 95.6809 178.786 95.5677L180.695 94.4656C180.891 94.3524 181.232 94.3667 181.458 94.4971L183.258 95.5362C183.484 95.6666 183.509 95.8641 183.313 95.9769Z" fill="#FF2B85"/>
<path d="M174.204 110.736L172.295 111.838C172.099 111.951 171.757 111.937 171.531 111.807L169.732 110.768C169.506 110.637 169.481 110.44 169.677 110.327L171.586 109.224C171.782 109.111 172.124 109.125 172.35 109.256L174.149 110.295C174.375 110.425 174.4 110.623 174.204 110.736Z" fill="#FF2B85"/>
<path d="M182.872 105.731L180.963 106.834C180.767 106.947 180.425 106.932 180.199 106.802L178.4 105.763C178.174 105.633 178.149 105.435 178.345 105.322L180.254 104.22C180.45 104.107 180.792 104.121 181.018 104.251L182.817 105.29C183.043 105.421 183.068 105.618 182.872 105.731Z" fill="#FF2B85"/>
<path d="M181.614 76.5272L179.705 77.6295C179.509 77.7425 179.167 77.7284 178.941 77.598L177.142 76.5591C176.916 76.4286 176.891 76.2311 177.087 76.1181L178.996 75.0158C179.192 74.9027 179.534 74.9169 179.76 75.0474L181.56 76.0864C181.786 76.2169 181.81 76.4144 181.614 76.5272Z" fill="#FF2B85"/>
<path d="M181.173 86.2815L179.264 87.384C179.068 87.4968 178.726 87.4827 178.5 87.3523L176.701 86.3134C176.475 86.1829 176.45 85.9854 176.646 85.8723L178.555 84.7701C178.751 84.657 179.093 84.6712 179.319 84.8017L181.119 85.8407C181.345 85.9712 181.369 86.1687 181.173 86.2815Z" fill="#FF2B85"/>
<path d="M5.10013 63.8131L3.1909 64.9153C2.99545 65.0284 2.65341 65.014 2.42741 64.8837L0.62779 63.8447C0.401798 63.7142 0.377367 63.5167 0.573159 63.4039L2.48238 62.3014C2.67784 62.1886 3.01988 62.2025 3.24587 62.333L5.0455 63.372C5.27149 63.5025 5.29592 63.6999 5.10013 63.8131Z" fill="#FF2B85"/>
<path d="M13.3273 68.563L11.4179 69.6651C11.2223 69.7783 10.8802 69.764 10.6542 69.6336L8.8546 68.5946C8.6286 68.4641 8.60417 68.2666 8.79997 68.1538L10.7092 67.0513C10.905 66.9385 11.2467 66.9526 11.4727 67.0829L13.2723 68.1219C13.4983 68.2523 13.5229 68.4498 13.3273 68.563Z" fill="#FF2B85"/>
<path d="M4.65926 73.5674L2.75004 74.6695C2.55425 74.7827 2.21254 74.7685 1.98655 74.638L0.186928 73.599C-0.0390642 73.4685 -0.0634958 73.271 0.131957 73.1582L2.04152 72.0557C2.23697 71.9429 2.57902 71.957 2.80501 72.0874L4.60463 73.1263C4.83062 73.2568 4.85506 73.4542 4.65926 73.5674Z" fill="#FF2B85"/>
<path d="M21.5544 73.3129L19.6452 74.4151C19.4494 74.5282 19.1075 74.514 18.8815 74.3835L17.0821 73.3445C16.8561 73.214 16.8313 73.0165 17.0273 72.9037L18.9363 71.8012C19.1321 71.6884 19.474 71.7025 19.7 71.8329L21.4996 72.8718C21.7256 73.0023 21.75 73.1998 21.5544 73.3129Z" fill="#FF2B85"/>
<path d="M12.8866 78.3173L10.9772 79.4194C10.7816 79.5326 10.4395 79.5184 10.2135 79.3879L8.41392 78.3489C8.18793 78.2184 8.1635 78.0209 8.35929 77.9081L10.2685 76.8056C10.4641 76.6928 10.806 76.7069 11.032 76.8373L12.8316 77.8762C13.0576 78.0067 13.0821 78.2041 12.8866 78.3173Z" fill="#FF2B85"/>
<path d="M30.2604 78.3392L28.3512 79.4415C28.1554 79.5545 27.8137 79.5404 27.5877 79.41L25.7881 78.3709C25.5621 78.2405 25.5373 78.0432 25.7333 77.9302L27.6424 76.8279C27.8382 76.7147 28.18 76.7289 28.406 76.8594L30.2056 77.8984C30.4316 78.0289 30.4562 78.2262 30.2604 78.3392Z" fill="#FF2B85"/>
<path d="M21.5927 83.3436L19.6833 84.4459C19.4876 84.5589 19.1456 84.5448 18.9196 84.4144L17.12 83.3755C16.894 83.245 16.8696 83.0476 17.0653 82.9346L18.9746 81.8323C19.1704 81.7191 19.5121 81.7333 19.7381 81.8638L21.5377 82.9028C21.7637 83.0333 21.7881 83.2308 21.5927 83.3436Z" fill="#FF2B85"/>
<path d="M38.4876 83.0891L36.5785 84.1914C36.3828 84.3044 36.0409 84.2903 35.8149 84.1599L34.0153 83.1208C33.7893 82.9905 33.7648 82.793 33.9605 82.6799L35.8697 81.5777C36.0655 81.4646 36.4074 81.4788 36.6333 81.6093L38.4328 82.6483C38.6588 82.7788 38.6836 82.9763 38.4876 83.0891Z" fill="#FF2B85"/>
<path d="M29.8198 88.0935L27.9106 89.196C27.7148 89.3088 27.3729 89.2947 27.1469 89.1643L25.3475 88.1254C25.1215 87.9949 25.0967 87.7975 25.2925 87.6845L27.2017 86.5822C27.3975 86.469 27.7392 86.4832 27.9652 86.6137L29.7648 87.6527C29.9908 87.7832 30.0154 87.9807 29.8198 88.0935Z" fill="#FF2B85"/>
<path d="M46.7148 87.839L44.8055 88.9413C44.6099 89.0543 44.268 89.0403 44.042 88.9098L42.2424 87.8709C42.0164 87.7405 41.9918 87.543 42.1874 87.4298L44.0968 86.3277C44.2925 86.2145 44.6343 86.2288 44.8603 86.3592L46.6601 87.3982C46.8861 87.5287 46.9105 87.7262 46.7148 87.839Z" fill="#FF2B85"/>
<path d="M38.0467 92.8434L36.1375 93.9459C35.9417 94.0587 35.6 94.0446 35.374 93.9142L33.5743 92.8753C33.3484 92.7449 33.3239 92.5474 33.5196 92.4345L35.4286 91.3321C35.6244 91.2189 35.9664 91.2332 36.1924 91.3636L37.9919 92.4026C38.2179 92.5331 38.2425 92.7306 38.0467 92.8434Z" fill="#FF2B85"/>
<path d="M46.7527 97.8699L44.8435 98.9724C44.6477 99.0852 44.306 99.0713 44.08 98.9408L42.2804 97.9016C42.0544 97.7711 42.03 97.5738 42.2256 97.4608L44.135 96.3585C44.3305 96.2455 44.6725 96.2598 44.8985 96.3902L46.6979 97.4291C46.9239 97.5596 46.9485 97.757 46.7527 97.8699Z" fill="#FF2B85"/>
<path d="M109.795 106.779L48.3633 71.0537C47.7369 70.6948 47.4551 70.206 47.4839 69.6979C47.4855 69.6668 47.4805 69.6363 47.4846 69.6052L47.5973 57.4577C47.6002 57.1684 47.8341 56.9344 48.1234 56.9321L89.5756 44.3934C89.6678 44.3927 89.7584 44.3681 89.8381 44.3215L109.301 33.321C110.815 32.4396 113.11 32.3364 114.427 33.0907L156.191 57.5525C156.272 57.5993 156.365 57.6233 156.459 57.6226L176.288 57.4578C176.584 57.4555 176.825 57.696 176.823 57.9921L176.74 70.1965C176.698 70.7493 176.284 71.3226 175.502 71.7781L114.922 106.549C113.408 107.431 111.112 107.534 109.795 106.779Z" fill="#F8C1D9"/>
<path d="M112.008 108.291C111.004 108.291 110.036 108.082 109.292 107.656L109.289 107.653L47.8564 71.9285C46.9248 71.3935 46.4212 70.5574 46.474 69.6392L46.586 57.4482C46.5924 56.6764 47.1817 56.0311 47.9319 55.9324L89.2813 43.4253C89.3307 43.4105 89.3769 43.399 89.4261 43.3924L108.802 32.4404C110.612 31.3873 113.308 31.2818 114.931 32.2132L156.586 56.6105L176.278 56.4475C176.769 56.4427 177.088 56.6038 177.381 56.8968C177.674 57.1881 177.835 57.5781 177.835 57.9928L177.749 70.2037C177.677 71.1977 177.058 72.042 176.011 72.6524L115.424 107.426C114.44 107.998 113.199 108.291 112.008 108.291ZM110.303 105.905C111.307 106.473 113.226 106.371 114.411 105.674L174.998 70.9015C175.518 70.6002 175.719 70.2909 175.732 70.118L175.811 58.4733L156.467 58.6329C156.082 58.5953 155.924 58.5656 155.684 58.4256L113.917 33.9626C112.923 33.3965 110.998 33.5018 109.806 34.1947L90.3344 45.2027C90.1634 45.3013 89.9659 45.3671 89.7618 45.3919L48.6034 57.8415L48.4948 69.6146C48.4816 69.937 48.7515 70.1114 48.8668 70.1789L110.303 105.905Z" fill="#FF2B85"/>
<path d="M158.731 57.4594C158.775 57.4441 176.125 57.4594 176.125 57.4594C176.511 57.456 176.824 57.7692 176.822 58.1548L176.74 70.1965C176.698 70.7493 176.284 71.3226 175.502 71.7781L115.165 106.408C115.058 106.47 114.924 106.391 114.925 106.267L115.035 93.6631C115.04 93.6541 115.045 93.6469 115.05 93.6378C113.523 89.6429 158.731 57.4594 158.731 57.4594Z" fill="#FF2B85"/>
<path d="M115.086 107.419C114.872 107.419 114.658 107.375 114.5 107.284C114.138 107.075 113.914 106.685 113.914 106.267L114.026 93.6544C114.026 93.5623 114.039 93.4717 114.065 93.3831C114.941 88.1088 141.752 68.3046 158.146 56.6352C158.225 56.5807 158.311 56.5364 158.403 56.5035C158.537 56.4563 164.445 56.4382 176.127 56.449C176.601 56.421 177.006 56.6202 177.335 56.9463C177.661 57.2704 177.835 57.7032 177.832 58.1623L177.749 70.2037C177.677 71.1977 177.058 72.042 176.012 72.6524L115.668 107.286C115.513 107.375 115.299 107.419 115.086 107.419ZM116.047 93.857L115.948 104.792L174.998 70.9015C175.515 70.6002 175.719 70.2909 175.732 70.118L175.807 58.4701C171.295 58.465 160.951 58.4585 159.061 58.4684C138.105 73.3979 116.34 90.5078 116.024 93.4272C116.089 93.6068 116.089 93.7136 116.047 93.857Z" fill="#FF2B85"/>
<path d="M175.972 55.9215L114.54 20.1958C113.223 19.4415 110.927 19.5448 109.413 20.4262L48.8335 55.1969C47.3187 56.0787 47.1586 57.4046 48.4755 58.1589L109.908 93.8848C111.225 94.639 113.52 94.5357 115.035 93.6543L175.614 58.8835C177.129 58.0018 177.289 56.6759 175.972 55.9215Z" fill="white"/>
<path d="M112.12 95.3957C111.116 95.3957 110.148 95.1865 109.405 94.7622L47.9682 59.033C47.0862 58.5294 46.576 57.7442 46.5728 56.882C46.5694 55.9061 47.2078 54.9745 48.3239 54.323L108.908 19.5499C110.724 18.4917 113.417 18.3897 115.043 19.3179L176.479 55.0471C177.364 55.5556 177.871 56.3404 177.874 57.2013C177.878 58.1772 177.239 59.1085 176.12 59.757L115.54 94.5316C114.552 95.1027 113.311 95.3957 112.12 95.3957ZM112.35 20.7036C111.508 20.7036 110.596 20.9077 109.918 21.301L49.3376 56.0739C48.7516 56.4163 48.5936 56.7471 48.5936 56.8737C48.5969 56.9908 48.7419 57.1469 48.9788 57.2817L110.415 93.0109C111.409 93.582 113.334 93.4717 114.529 92.7806L175.11 58.0059C175.696 57.6653 175.853 57.3345 175.853 57.2079C175.85 57.091 175.705 56.9329 175.469 56.798L175.465 56.7946L114.032 21.0689C113.601 20.8218 112.995 20.7036 112.35 20.7036Z" fill="#FF2B85"/>
<path d="M55.657 76.2449H55.6273C55.0679 76.2284 54.6301 75.7627 54.6464 75.2033L55.0251 62.6618C55.0414 62.1054 55.5122 61.6395 56.065 61.6823C56.6245 61.6988 57.0623 62.1645 57.046 62.7242L56.6673 75.2657C56.651 75.8121 56.2033 76.2449 55.657 76.2449Z" fill="#FF2B85"/>
<path d="M165.601 77.7047H165.585C165.028 77.6964 164.58 77.2373 164.59 76.6796L164.755 65.734C164.762 65.1811 165.213 64.7385 165.765 64.7385H165.782C166.338 64.7468 166.786 65.2059 166.776 65.7636L166.611 76.7089C166.605 77.262 166.154 77.7047 165.601 77.7047Z" fill="#F8C1D9"/>
<path d="M171.303 77.7106L162.541 72.5779C162.17 72.3635 161.837 72.3718 161.585 72.5394L150.935 79.1744C150.739 79.2964 150.677 79.5525 150.795 79.7508L161.071 90.7667C161.11 90.8322 161.131 90.9072 161.131 90.9834V94.5392C161.131 95.5779 165.295 92.583 166.074 93.0328C166.136 93.0692 166.189 93.1208 166.226 93.1831L160.981 96.4515C161.102 96.6554 161.367 96.7197 161.569 96.5943L172.25 89.9366C172.25 89.9366 172.713 89.3699 172.713 88.8188V80.4059C172.713 79.367 172.082 78.1604 171.303 77.7106Z" fill="white"/>
<path d="M161.342 97.6699C161.23 97.6699 161.118 97.6568 161.01 97.6305C160.638 97.5416 160.309 97.2997 160.111 96.9705C159.828 96.4966 159.979 95.8862 160.447 95.5949L160.585 95.5077C160.332 95.2837 160.121 94.8511 160.121 94.5399V91.1828L150.056 80.4398C149.529 79.6053 149.74 78.7298 150.398 78.3168L161.052 71.6814C161.618 71.2995 162.362 71.3046 163.047 71.7028L171.808 76.8374C172.901 77.4694 173.724 79.0014 173.724 80.4052V88.8178C173.724 89.6851 173.148 90.4357 173.033 90.5771C172.964 90.6626 172.878 90.7367 172.783 90.7942L162.102 97.451C161.878 97.5944 161.612 97.6699 161.342 97.6699ZM152.067 79.6597L161.813 90.0769C161.987 90.2644 162.142 90.7267 162.142 90.9838V93.4473C162.448 93.3073 162.78 93.1425 163.047 93.0095C164.765 92.1553 165.785 91.6962 166.578 92.157C166.608 92.1719 166.638 92.195 166.674 92.2211L171.545 89.185C171.628 89.0501 171.7 88.8887 171.703 88.8178V80.4052C171.703 79.6745 171.216 78.8287 170.798 78.5868L170.792 78.5835L162.03 73.4507L152.067 79.6597Z" fill="#FF2B85"/>
<path d="M153.521 89.213C153.521 89.213 153.493 89.4742 153.447 89.915L160.904 96.1982C161.109 96.5412 161.555 96.6495 161.893 96.4384L172.324 89.9366C172.324 89.9366 172.788 89.3699 172.788 88.8188V80.9261C172.788 80.6994 172.539 80.5611 172.347 80.6811L161.805 87.2518C161.765 87.2773 161.731 87.3122 161.707 87.3538L153.521 89.213Z" fill="#FF2B85"/>
<path d="M161.523 97.5582C161.385 97.5582 161.247 97.5416 161.108 97.5087C160.723 97.4149 160.388 97.196 160.151 96.8867L152.795 90.689C152.538 90.4734 152.406 90.1444 152.439 89.8102L152.518 89.0991C152.564 88.6714 152.88 88.3226 153.298 88.2271L161.224 86.4268C161.24 86.412 161.26 86.4003 161.276 86.3906L171.809 79.8245C172.217 79.5742 172.72 79.5594 173.132 79.7914C173.546 80.0202 173.8 80.4563 173.8 80.9268V88.8178C173.8 89.6851 173.224 90.4357 173.109 90.5771C173.039 90.6626 172.954 90.7367 172.862 90.7942L162.432 97.2963C162.152 97.4693 161.839 97.5582 161.523 97.5582ZM155.01 89.9121L161.556 95.4254C161.563 95.4318 161.573 95.4384 161.579 95.4451L171.621 89.185C171.703 89.0501 171.776 88.8887 171.779 88.8178V82.2269L162.445 88.0443C162.31 88.1909 162.132 88.2946 161.931 88.339L155.01 89.9121Z" fill="#FF2B85"/>
<path d="M160.258 96.77L151.496 91.6371C150.717 91.1873 150.086 89.9805 150.086 88.9418V80.5291C150.086 79.4902 150.717 79.0129 151.496 79.4627L160.258 84.5954C161.037 85.0452 161.669 86.2518 161.669 87.2905V95.7034C161.669 96.7421 161.037 97.2196 160.258 96.77Z" fill="#FFE7B3"/>
<path d="M160.822 97.9498C160.47 97.9498 160.105 97.8477 159.752 97.6454L159.749 97.642L150.987 92.509C149.898 91.8838 149.075 90.3485 149.075 88.9413V80.5285C149.075 79.612 149.437 78.8781 150.066 78.5126C150.635 78.1802 151.346 78.2065 152.001 78.5867L160.769 83.7228C161.855 84.3514 162.678 85.8853 162.678 87.2908V95.7034C162.678 96.62 162.316 97.3556 161.684 97.7192C161.418 97.874 161.125 97.9498 160.822 97.9498ZM151.103 80.4018C151.099 80.4398 151.096 80.481 151.096 80.5285V88.9413C151.096 89.6719 151.583 90.5195 152.001 90.7615L160.651 95.8268C160.654 95.7907 160.657 95.7494 160.657 95.7034V87.2908C160.657 86.5601 160.17 85.7126 159.752 85.4707L151.103 80.4018Z" fill="#FF2B85"/>
<path d="M162.606 92.7065C162.264 92.7065 161.931 92.5338 161.74 92.218C161.451 91.7389 161.605 91.1186 162.086 90.8307L171.463 85.1826C171.934 84.8913 172.556 85.046 172.849 85.5265C173.138 86.0055 172.984 86.6259 172.507 86.9138L163.126 92.5618C162.965 92.6605 162.784 92.7065 162.606 92.7065Z" fill="#FFE7B3"/>
<path d="M44.909 81.9897L5.403 59.0503C4.77661 58.6917 4.49479 58.2027 4.52347 57.6945C4.52533 57.6637 4.52024 57.633 4.52415 57.6019L4.6368 45.4543C4.63969 45.165 4.87382 44.9312 5.16293 44.9289L25.0799 44.7633C25.1722 44.7626 25.2627 44.7378 25.3422 44.6915L44.8047 33.6907C46.3193 32.8093 48.6147 32.7061 49.9318 33.4605L69.769 45.1359C69.8506 45.1827 69.9433 45.2066 70.0371 45.2059L89.8662 45.0414C90.1624 45.039 90.4032 45.2794 90.401 45.5755L90.3183 57.7799C90.2758 58.3326 89.8626 58.9061 89.08 59.3617L50.0359 81.7595C48.5214 82.6409 46.226 82.744 44.909 81.9897Z" fill="#FFE7B3"/>
<path d="M47.1224 83.5007C46.1187 83.5007 45.1509 83.2934 44.4071 82.8687L44.4005 82.8638L4.89461 59.9248C3.96961 59.3949 3.46604 58.5622 3.51219 57.6423L3.62739 45.4445C3.63723 44.6068 4.32522 43.9239 5.15793 43.9188L25.0705 43.7527L44.3083 32.8108C46.112 31.7558 48.8141 31.6539 50.4368 32.5836L70.1653 44.1939L89.8575 44.0308H89.8671C90.2852 44.0308 90.6737 44.1922 90.9632 44.4852C91.2562 44.7795 91.4175 45.1713 91.4109 45.5877L91.3286 57.787C91.2562 58.781 90.6374 59.6253 89.5908 60.2359L50.5389 82.6368C49.5549 83.2094 48.3139 83.5007 47.1224 83.5007ZM45.4076 81.1112C46.4149 81.6857 48.337 81.5786 49.5252 80.8857L88.577 58.485C89.0936 58.1837 89.2977 57.8742 89.3111 57.7015L89.3866 46.0568L70.0467 46.2164C69.6651 46.2261 69.4903 46.1455 69.247 46.0008L49.42 34.333C48.4325 33.7619 46.5102 33.869 45.3156 34.5649L25.8408 45.5712C25.6168 45.7029 25.3503 45.7736 25.0804 45.7736L5.64504 45.9367L5.53645 57.6109C5.52305 57.927 5.76024 58.0914 5.90496 58.1738L45.4076 81.1112Z" fill="#FF2B85"/>
<path d="M72.3097 45.0427C72.3534 45.0274 89.7036 45.0427 89.7036 45.0427C90.0891 45.0393 90.4028 45.3525 90.4002 45.7383L90.3184 57.7799C90.2762 58.3326 89.8627 58.9061 89.0801 59.3616L50.2788 81.6181C50.1713 81.6799 50.0376 81.6017 50.0386 81.4778L50.1484 68.8735C50.154 68.8643 50.1582 68.8572 50.164 68.8481C48.6361 64.8532 72.3097 45.0427 72.3097 45.0427Z" fill="#FF2B85"/>
<path d="M50.2 82.6302C49.9827 82.6302 49.7689 82.584 49.6142 82.4936C49.2519 82.2848 49.0283 81.8962 49.0283 81.4782L49.1369 68.8954C48.3899 64.3138 64.547 50.2203 71.663 44.268C71.755 44.1888 71.8635 44.1281 71.9821 44.087C72.1159 44.0408 78.0228 44.0227 89.7028 44.0325C90.1372 44.0212 90.588 44.2036 90.9141 44.5313C91.2398 44.8554 91.4142 45.2882 91.411 45.7456L91.3287 57.787C91.2563 58.7811 90.6375 59.6253 89.5909 60.2359L50.7826 82.4953C50.6245 82.584 50.4141 82.6302 50.2 82.6302ZM51.1545 68.8822H51.1579L51.0622 80.0036L88.5771 58.485C89.0971 58.1837 89.2978 57.8742 89.3112 57.7015L89.3867 46.0534C84.9139 46.0534 74.691 46.05 72.6832 46.05C61.7231 55.2512 50.5029 66.3957 51.1084 68.4889C51.1445 68.609 51.1612 68.7458 51.1545 68.8822Z" fill="#FF2B85"/>
<path d="M89.5503 43.5049L50.0441 20.5655C48.7273 19.8111 46.4317 19.9146 44.9172 20.796L5.87329 43.1939C4.35853 44.0753 4.19837 45.4014 5.5153 46.1555L45.0215 69.0951C46.3383 69.8492 48.6338 69.7461 50.1484 68.8645L89.1923 46.4668C90.707 45.5853 90.8672 44.2592 89.5503 43.5049Z" fill="white"/>
<path d="M47.2345 70.607C46.2307 70.607 45.263 70.3978 44.5192 69.9717L5.0099 47.0293C4.12782 46.5257 3.61425 45.7407 3.61085 44.8785C3.60763 43.9026 4.24607 42.9713 5.36212 42.3194L44.414 19.9186C46.2307 18.8572 48.9262 18.7582 50.5488 19.6882L90.0583 42.6287C90.9402 43.1374 91.4503 43.924 91.4537 44.7847C91.457 45.7606 90.8185 46.6918 89.6994 47.3405L50.651 69.7412C49.6669 70.314 48.426 70.607 47.2345 70.607ZM47.8532 21.0721C47.0107 21.0721 46.1023 21.2762 45.4243 21.6695L6.37586 44.0705C5.78984 44.4128 5.63172 44.7419 5.63511 44.8685C5.63511 44.9854 5.78323 45.1418 6.01702 45.2769L45.5297 68.2208C46.5203 68.7885 48.4423 68.6864 49.6372 67.9902L88.6891 45.5892C89.2747 45.2487 89.4329 44.918 89.4329 44.7913C89.4295 44.6744 89.2848 44.5164 89.0476 44.3814L89.0445 44.378L49.5383 21.4391C49.1072 21.1924 48.4984 21.0721 47.8532 21.0721Z" fill="#FF2B85"/>
<path d="M12.6983 64.2415H12.6686C12.1092 64.2249 11.6715 63.7593 11.6879 63.2013L12.0631 50.6598C12.0795 50.1002 12.4942 49.6805 13.1031 49.6788C13.6627 49.6954 14.1004 50.161 14.0841 50.719L13.7088 63.2605C13.6924 63.8085 13.2446 64.2415 12.6983 64.2415Z" fill="#FF2B85"/>
<path d="M79.1804 65.288H79.1637C78.6076 65.2797 78.1598 64.8206 78.1698 64.2629L78.331 53.3175C78.3376 52.7646 78.7884 52.3218 79.3414 52.3218H79.3578C79.9142 52.3301 80.3619 52.7892 80.3519 53.3469L80.1907 64.2924C80.1841 64.8453 79.7331 65.288 79.1804 65.288Z" fill="#F8C1D9"/>
<path d="M127.886 7.60062L117.563 1.28998C116.938 0.928934 116.374 0.931309 115.949 1.21193C115.923 1.2289 115.895 1.23993 115.87 1.25927L105.427 7.4671C105.179 7.61487 105.095 7.93503 105.238 8.18613L115.114 25.4828C115.159 25.5629 115.183 25.6539 115.183 25.746V27.6398C115.183 29.3921 116.249 31.4279 117.563 32.1868L108.257 27.1647C108.339 27.2117 108.406 27.2794 108.453 27.3612L118.285 44.5817C118.432 44.8388 118.761 44.926 119.016 44.7751L129.522 38.5644C129.978 38.2499 130.266 37.604 130.266 36.6985V12.1478C130.266 10.3953 129.201 8.35936 127.886 7.60062Z" fill="white"/>
<path d="M118.749 45.8608C118.62 45.8608 118.489 45.8445 118.357 45.8097C117.955 45.7063 117.616 45.4496 117.409 45.0873L107.63 27.9577C107.245 27.6549 107.127 27.1101 107.374 26.6707C107.644 26.1836 108.256 26.0158 108.736 26.274L114.424 29.3434C114.262 28.777 114.174 28.1997 114.174 27.6399V25.7458L104.359 8.68851C103.944 7.96439 104.191 7.02462 104.912 6.5969L115.352 0.390936C116.152 -0.140621 117.132 -0.127387 118.067 0.41401L128.402 6.73178C130.015 7.66985 131.275 10.0445 131.275 12.1476V36.6978C131.275 37.9141 130.857 38.8734 130.094 39.3966L119.529 45.6453C119.292 45.7867 119.022 45.8608 118.749 45.8608ZM111.007 29.7991L118.92 43.6555L129.008 37.6935C129.09 37.6342 129.255 37.305 129.255 36.6978V12.1476C129.255 10.7669 128.379 9.0521 127.382 8.47609C127.372 8.4727 127.365 8.46795 127.359 8.46303L117.037 2.15188C116.968 2.11234 116.662 1.94132 116.507 2.05466L106.35 8.09604L115.994 24.9805C116.132 25.2389 116.195 25.494 116.195 25.7458V27.6399C116.195 29.019 117.07 30.7338 118.071 31.3115C118.548 31.588 118.716 32.1969 118.446 32.6808C118.176 33.1645 117.56 33.3357 117.083 33.0773L111.007 29.7991Z" fill="#FF2B85"/>
<path d="M107.85 23.5562C107.85 23.5562 111.662 1.14289 115.423 20.2026L108.219 27.143C108.306 27.2299 108.388 27.312 108.474 27.399L118.204 44.4402C118.395 44.7751 118.824 44.8887 119.156 44.6924L129.522 38.5644C129.978 38.2499 130.266 37.6041 130.266 36.6985V12.4294C130.266 12.3052 130.131 12.2282 130.024 12.2917L119.186 18.7268C119.181 18.7302 119.176 18.7335 119.176 18.7335L107.85 23.5562Z" fill="#FF2B85"/>
<path d="M118.808 45.8001C118.66 45.8001 118.515 45.7819 118.367 45.7424C117.926 45.624 117.554 45.341 117.327 44.9426L107.499 27.8507C107.308 27.6581 107.206 27.398 107.209 27.1281C107.213 26.8583 107.325 26.6014 107.519 26.414L110.534 23.5093L108.246 24.4854C107.914 24.6284 107.515 24.5775 107.226 24.3486C106.933 24.1198 106.791 23.7513 106.854 23.386C107.604 18.9674 109.289 11.5485 112.123 11.5107H112.15C113.874 11.5107 115.069 13.6749 116.191 18.9065L118.775 17.8073L129.508 11.4218C129.828 11.236 130.371 11.236 130.683 11.4104C131.049 11.6193 131.276 12.0093 131.276 12.4289V36.6978C131.276 37.9156 130.858 38.8734 130.094 39.3966L119.67 45.5631C119.404 45.7193 119.108 45.8001 118.808 45.8001ZM109.556 27.2584L118.923 43.6572L129.008 37.6936C129.09 37.6342 129.255 37.305 129.255 36.6978V13.9248L119.703 19.5959L115.77 21.2762L109.556 27.2584ZM112.084 13.5219C111.376 13.841 110.083 17.5519 109.194 21.8851L114.292 19.7145C113.108 14.0417 112.127 13.5416 112.084 13.5219Z" fill="#FF2B85"/>
<path d="M116.798 45.0812L106.475 38.7702C105.161 38.0115 104.095 35.9759 104.095 34.2232V9.67256C104.095 7.92011 105.161 7.11471 106.475 7.87345L116.798 14.1841C118.112 14.9432 119.178 16.9788 119.178 18.7314V43.2821C119.178 45.0344 118.112 45.84 116.798 45.0812Z" fill="#F8C1D9"/>
<path d="M117.748 46.3761C117.274 46.3761 116.774 46.2361 116.293 45.9563C116.283 45.9531 116.277 45.948 116.27 45.9431L105.948 39.632C104.352 38.7103 103.085 36.3293 103.085 34.2227V9.67256C103.085 8.38074 103.569 7.36038 104.411 6.87327C105.162 6.43707 106.094 6.48661 106.982 6.99815L117.324 13.3227C118.92 14.2409 120.187 16.6237 120.187 18.7321V43.2821C120.187 44.5741 119.703 45.5943 118.861 46.0814C118.522 46.2772 118.143 46.3761 117.748 46.3761ZM117.31 44.2103C117.544 44.3403 117.745 44.3963 117.85 44.3304C117.959 44.268 118.166 43.9667 118.166 43.2821V18.7321C118.166 17.3512 117.29 15.6364 116.293 15.0606L105.948 8.73601C105.738 8.61606 105.524 8.56669 105.425 8.6242C105.313 8.68681 105.106 8.98796 105.106 9.67256V34.2227C105.106 35.6018 105.982 37.3165 106.982 37.8943L117.31 44.2103Z" fill="#FF2B85"/>
<path d="M114.197 13.1366C113.861 13.1366 113.532 12.969 113.338 12.6612C113.045 12.187 113.19 11.5635 113.663 11.2688L124.311 4.63354C124.775 4.34206 125.4 4.48051 125.703 4.9559C125.996 5.43011 125.852 6.05363 125.377 6.34833L114.73 12.9835C114.565 13.0872 114.381 13.1366 114.197 13.1366Z" fill="#FF2B85"/>
<path d="M120.158 32.3252C119.815 32.3252 119.48 32.1508 119.292 31.8364C119.002 31.3576 119.157 30.7372 119.637 30.4491L129.014 24.8028C129.482 24.5148 130.114 24.6695 130.4 25.1469C130.69 25.6257 130.535 26.2462 130.054 26.5341L120.677 32.1805C120.516 32.2791 120.335 32.3252 120.158 32.3252Z" fill="#F8C1D9"/>
</g>
<defs>
<clipPath id="clip0_245_3594">
<rect width="183.445" height="122.069" fill="white"/>
</clipPath>
</defs>
</svg>
