<svg width="180" height="271" viewBox="0 0 180 271" fill="none" xmlns="http://www.w3.org/2000/svg">
<g clip-path="url(#clip0_245_3453)">
<path d="M84.3746 252.653L85.9864 253.584C86.1517 253.679 86.4401 253.667 86.6309 253.557L88.1502 252.68C88.341 252.57 88.3616 252.403 88.1966 252.308L86.5845 251.377C86.4195 251.282 86.1308 251.294 85.94 251.404L84.4207 252.281C84.2299 252.391 84.2093 252.558 84.3746 252.653Z" fill="#FF2B85"/>
<path d="M91.692 256.878L93.3038 257.809C93.4691 257.904 93.7576 257.892 93.9484 257.782L95.4678 256.905C95.6586 256.795 95.6793 256.628 95.514 256.533L93.9022 255.602C93.737 255.507 93.4485 255.519 93.2577 255.629L91.7384 256.506C91.5477 256.616 91.5267 256.783 91.692 256.878Z" fill="#FF2B85"/>
<path d="M77.4293 256.663L79.041 257.594C79.2061 257.689 79.4949 257.677 79.6856 257.567L81.2049 256.69C81.3957 256.58 81.4163 256.413 81.251 256.318L79.6392 255.387C79.4741 255.292 79.1855 255.304 78.9947 255.414L77.4754 256.291C77.2847 256.401 77.264 256.568 77.4293 256.663Z" fill="#FF2B85"/>
<path d="M84.7467 260.888L86.3585 261.819C86.5238 261.914 86.8123 261.902 87.003 261.792L88.5223 260.915C88.7131 260.805 88.7339 260.638 88.5687 260.542L86.9569 259.612C86.7916 259.517 86.5029 259.529 86.3121 259.639L84.7931 260.516C84.6023 260.626 84.5814 260.793 84.7467 260.888Z" fill="#FF2B85"/>
<path d="M70.4837 260.673L72.0957 261.604C72.2608 261.699 72.5494 261.687 72.7402 261.577L74.2596 260.7C74.4504 260.59 74.471 260.423 74.3057 260.328L72.6939 259.397C72.5286 259.302 72.2402 259.314 72.0494 259.424L70.5301 260.301C70.3393 260.411 70.3186 260.578 70.4837 260.673Z" fill="#FF2B85"/>
<path d="M77.8015 264.898L79.4133 265.829C79.5783 265.924 79.867 265.912 80.0578 265.802L81.5771 264.925C81.7678 264.814 81.7885 264.648 81.6235 264.552L80.0114 263.622C79.8464 263.526 79.5576 263.539 79.3669 263.649L77.8476 264.526C77.6568 264.636 77.6362 264.803 77.8015 264.898Z" fill="#FF2B85"/>
<path d="M126.615 228.053L128.227 228.983C128.392 229.079 128.681 229.067 128.872 228.957L130.391 228.08C130.582 227.97 130.602 227.803 130.437 227.708L128.825 226.777C128.66 226.682 128.371 226.694 128.181 226.804L126.661 227.681C126.471 227.791 126.45 227.957 126.615 228.053Z" fill="#FF2B85"/>
<path d="M119.67 232.063L121.281 232.993C121.447 233.089 121.735 233.077 121.926 232.967L123.445 232.09C123.636 231.979 123.657 231.813 123.492 231.717L121.88 230.787C121.715 230.691 121.426 230.704 121.235 230.814L119.716 231.691C119.525 231.801 119.505 231.967 119.67 232.063Z" fill="#FF2B85"/>
<path d="M126.987 236.288L128.599 237.218C128.764 237.314 129.053 237.302 129.244 237.191L130.763 236.314C130.954 236.204 130.974 236.038 130.809 235.942L129.197 235.012C129.032 234.916 128.744 234.928 128.553 235.038L127.033 235.916C126.843 236.026 126.822 236.192 126.987 236.288Z" fill="#FF2B85"/>
<path d="M120.042 240.298L121.654 241.228C121.819 241.324 122.108 241.312 122.298 241.201L123.818 240.324C124.008 240.214 124.029 240.048 123.864 239.952L122.252 239.022C122.087 238.926 121.798 238.938 121.607 239.048L120.088 239.925C119.897 240.036 119.877 240.202 120.042 240.298Z" fill="#FF2B85"/>
<path d="M63.1339 264.917L64.7458 265.847C64.9109 265.943 65.1997 265.931 65.3905 265.82L66.9095 264.943C67.1002 264.833 67.1212 264.667 66.9559 264.571L65.3441 263.641C65.1788 263.545 64.8903 263.557 64.6995 263.667L63.1803 264.544C62.9895 264.654 62.9687 264.821 63.1339 264.917Z" fill="#FF2B85"/>
<path d="M70.4517 269.141L72.0634 270.072C72.2285 270.167 72.5172 270.155 72.708 270.045L74.2273 269.168C74.418 269.058 74.4387 268.891 74.2734 268.796L72.6616 267.865C72.4966 267.77 72.2078 267.782 72.017 267.892L70.4978 268.769C70.307 268.879 70.2864 269.046 70.4517 269.141Z" fill="#FF2B85"/>
<path d="M55.8165 260.692L57.4282 261.622C57.5936 261.718 57.8821 261.706 58.0728 261.595L59.5921 260.718C59.7829 260.608 59.8035 260.442 59.6384 260.346L58.0267 259.416C57.8613 259.32 57.5727 259.332 57.3819 259.443L55.8628 260.32C55.672 260.43 55.6511 260.596 55.8165 260.692Z" fill="#FF2B85"/>
<path d="M48.4989 256.467L50.1107 257.398C50.2758 257.493 50.5645 257.481 50.7553 257.371L52.2745 256.494C52.4653 256.384 52.4861 256.217 52.3209 256.121L50.709 255.191C50.5438 255.096 50.2551 255.108 50.0643 255.218L48.545 256.095C48.3543 256.205 48.3336 256.372 48.4989 256.467Z" fill="#FF2B85"/>
<path d="M41.1812 252.242L42.7932 253.173C42.9583 253.268 43.2471 253.256 43.4378 253.146L44.9571 252.269C45.1479 252.159 45.1685 251.992 45.0032 251.897L43.3914 250.966C43.2262 250.871 42.9377 250.883 42.7469 250.993L41.2276 251.87C41.0369 251.98 41.0162 252.147 41.1812 252.242Z" fill="#FF2B85"/>
<path d="M33.8639 248.017L35.4757 248.948C35.6409 249.043 35.9294 249.031 36.1202 248.921L37.6395 248.044C37.8302 247.934 37.8512 247.767 37.6857 247.672L36.0741 246.741C35.9088 246.646 35.6202 246.658 35.4294 246.768L33.9101 247.645C33.7194 247.755 33.6986 247.922 33.8639 248.017Z" fill="#FF2B85"/>
<path d="M26.5463 243.793L28.1581 244.723C28.3234 244.819 28.6118 244.807 28.8026 244.696L30.3219 243.819C30.5127 243.709 30.5334 243.543 30.3683 243.447L28.7564 242.517C28.5912 242.421 28.3026 242.433 28.1118 242.543L26.5925 243.42C26.4016 243.531 26.381 243.697 26.5463 243.793Z" fill="#FF2B85"/>
<path d="M19.2285 239.568L20.8405 240.498C21.0055 240.594 21.2943 240.582 21.4851 240.472L23.0043 239.594C23.1951 239.484 23.2158 239.318 23.0505 239.222L21.4387 238.292C21.2734 238.196 20.9849 238.208 20.7941 238.319L19.2749 239.196C19.0841 239.306 19.0635 239.472 19.2285 239.568Z" fill="#FF2B85"/>
<path d="M11.9111 235.343L13.5229 236.274C13.6882 236.369 13.9768 236.357 14.1676 236.247L15.6867 235.37C15.8775 235.26 15.8984 235.093 15.7331 234.998L14.1213 234.067C13.956 233.972 13.6675 233.984 13.4768 234.094L11.9575 234.971C11.7667 235.081 11.7459 235.248 11.9111 235.343Z" fill="#FF2B85"/>
<path d="M56.1886 268.926L57.8004 269.857C57.9657 269.952 58.2541 269.94 58.4449 269.83L59.9642 268.953C60.155 268.843 60.1759 268.677 60.0104 268.581L58.3988 267.651C58.2335 267.555 57.9449 267.567 57.7541 267.677L56.2348 268.554C56.0441 268.664 56.0233 268.831 56.1886 268.926Z" fill="#FF2B85"/>
<path d="M48.8711 264.702L50.4829 265.632C50.6482 265.728 50.9367 265.716 51.1274 265.605L52.6467 264.728C52.8375 264.618 52.8583 264.452 52.6931 264.356L51.0812 263.426C50.916 263.33 50.6274 263.342 50.4366 263.452L48.9172 264.329C48.7265 264.44 48.7058 264.606 48.8711 264.702Z" fill="#FF2B85"/>
<path d="M41.5533 260.477L43.1654 261.408C43.3304 261.503 43.6191 261.491 43.8099 261.381L45.3292 260.504C45.52 260.393 45.5406 260.227 45.3753 260.131L43.7635 259.201C43.5985 259.106 43.3098 259.118 43.119 259.228L41.5997 260.105C41.4089 260.215 41.3883 260.382 41.5533 260.477Z" fill="#FF2B85"/>
<path d="M120.622 257.074L122.234 258.005C122.399 258.1 122.688 258.088 122.879 257.978L124.398 257.101C124.589 256.991 124.609 256.824 124.444 256.729L122.832 255.798C122.667 255.703 122.379 255.715 122.188 255.825L120.669 256.702C120.478 256.812 120.457 256.979 120.622 257.074Z" fill="#FF2B85"/>
<path d="M113.677 261.084L115.289 262.015C115.454 262.11 115.743 262.098 115.933 261.988L117.453 261.111C117.643 261.001 117.664 260.834 117.499 260.739L115.887 259.808C115.722 259.713 115.433 259.725 115.243 259.835L113.723 260.712C113.532 260.822 113.512 260.989 113.677 261.084Z" fill="#FF2B85"/>
<path d="M120.995 265.309L122.606 266.24C122.772 266.335 123.06 266.323 123.251 266.213L124.77 265.336C124.961 265.226 124.982 265.059 124.817 264.964L123.205 264.033C123.039 263.938 122.751 263.95 122.56 264.06L121.041 264.937C120.85 265.047 120.829 265.214 120.995 265.309Z" fill="#FF2B85"/>
<path d="M106.327 265.328L107.939 266.258C108.104 266.353 108.393 266.342 108.584 266.232L110.103 265.354C110.294 265.244 110.314 265.078 110.149 264.982L108.537 264.052C108.372 263.956 108.083 263.968 107.893 264.078L106.373 264.955C106.183 265.066 106.162 265.232 106.327 265.328Z" fill="#FF2B85"/>
<path d="M113.645 269.552L115.257 270.483C115.422 270.578 115.71 270.566 115.901 270.456L117.42 269.579C117.611 269.469 117.632 269.302 117.467 269.207L115.855 268.276C115.69 268.181 115.401 268.193 115.21 268.303L113.691 269.18C113.5 269.29 113.48 269.457 113.645 269.552Z" fill="#FF2B85"/>
<path d="M99.0096 261.103L100.621 262.033C100.787 262.129 101.075 262.117 101.266 262.007L102.785 261.13C102.976 261.019 102.997 260.853 102.832 260.757L101.22 259.827C101.055 259.731 100.766 259.743 100.575 259.854L99.0559 260.731C98.8651 260.841 98.8445 261.007 99.0096 261.103Z" fill="#FF2B85"/>
<path d="M99.3817 269.338L100.994 270.268C101.159 270.364 101.448 270.352 101.638 270.241L103.157 269.364C103.348 269.254 103.369 269.087 103.204 268.992L101.592 268.062C101.427 267.966 101.138 267.978 100.947 268.088L99.4281 268.965C99.2373 269.075 99.2165 269.242 99.3817 269.338Z" fill="#FF2B85"/>
<path d="M92.0643 265.113L93.676 266.043C93.8414 266.139 94.1299 266.127 94.3206 266.017L95.8399 265.139C96.0307 265.029 96.0513 264.863 95.8862 264.767L94.2745 263.837C94.1091 263.741 93.8205 263.753 93.6297 263.864L92.1106 264.741C91.9198 264.851 91.899 265.017 92.0643 265.113Z" fill="#FF2B85"/>
<path d="M34.2359 256.252L35.8477 257.183C36.013 257.278 36.3016 257.266 36.4924 257.156L38.0115 256.279C38.2023 256.169 38.2232 256.002 38.0579 255.907L36.4461 254.976C36.2808 254.881 35.9924 254.893 35.8016 255.003L34.2823 255.88C34.0915 255.99 34.0708 256.157 34.2359 256.252Z" fill="#FF2B85"/>
<path d="M26.9184 252.027L28.5301 252.958C28.6954 253.053 28.984 253.041 29.1748 252.931L30.694 252.054C30.8848 251.944 30.9054 251.777 30.7403 251.682L29.1284 250.751C28.9632 250.656 28.6746 250.668 28.4838 250.778L26.9647 251.655C26.7739 251.765 26.753 251.932 26.9184 252.027Z" fill="#FF2B85"/>
<path d="M19.6009 247.803L21.2127 248.733C21.3779 248.828 21.6665 248.816 21.8573 248.706L23.3765 247.829C23.5673 247.719 23.588 247.553 23.4227 247.457L21.811 246.526C21.6459 246.431 21.3571 246.443 21.1663 246.553L19.6471 247.43C19.4563 247.541 19.4357 247.707 19.6009 247.803Z" fill="#FF2B85"/>
<path d="M12.2833 243.578L13.8952 244.508C14.0604 244.604 14.3491 244.592 14.5399 244.482L16.0589 243.604C16.2497 243.494 16.2706 243.328 16.1053 243.232L14.4935 242.302C14.3282 242.206 14.0397 242.218 13.8489 242.328L12.3297 243.206C12.1389 243.316 12.1181 243.482 12.2833 243.578Z" fill="#FF2B85"/>
<path d="M4.59373 231.226L6.20538 232.156C6.37052 232.252 6.65928 232.24 6.85006 232.13L8.36932 231.253C8.5601 231.142 8.58073 230.976 8.41558 230.88L6.80364 229.95C6.63851 229.854 6.34989 229.866 6.1591 229.976L4.63985 230.853C4.44907 230.964 4.42829 231.13 4.59373 231.226Z" fill="#FF2B85"/>
<path d="M4.9658 239.46L6.57758 240.391C6.74287 240.486 7.03134 240.474 7.22213 240.364L8.74139 239.487C8.93217 239.377 8.9528 239.21 8.78765 239.115L7.17573 238.184C7.01073 238.089 6.72196 238.101 6.53118 238.211L5.01192 239.088C4.82114 239.198 4.80051 239.365 4.9658 239.46Z" fill="#FF2B85"/>
<path d="M22.064 152.219L23.676 153.149C23.8411 153.245 24.1299 153.233 24.3207 153.123L25.8396 152.245C26.0304 152.135 26.0513 151.969 25.886 151.873L24.2743 150.943C24.109 150.847 23.8205 150.859 23.6297 150.97L22.1105 151.847C21.9197 151.957 21.8989 152.123 22.064 152.219Z" fill="#FF2B85"/>
<path d="M14.7467 147.994L16.3583 148.925C16.5238 149.02 16.8122 149.008 17.003 148.898L18.5223 148.021C18.7131 147.911 18.7337 147.744 18.5685 147.648L16.9569 146.718C16.7915 146.623 16.5029 146.635 16.3121 146.745L14.7929 147.622C14.6022 147.732 14.5814 147.899 14.7467 147.994Z" fill="#FF2B85"/>
<path d="M7.4291 143.769L9.04087 144.7C9.20617 144.795 9.49464 144.783 9.68542 144.673L11.2047 143.796C11.3955 143.686 11.4162 143.519 11.2511 143.424L9.63917 142.493C9.47402 142.398 9.18527 142.41 8.99448 142.52L7.47523 143.397C7.28444 143.507 7.26381 143.674 7.4291 143.769Z" fill="#FF2B85"/>
<path d="M0.111417 139.544L1.72348 140.475C1.88848 140.57 2.17723 140.558 2.36802 140.448L3.88728 139.571C4.07807 139.461 4.0987 139.294 3.93341 139.199L2.32162 138.268C2.15633 138.173 1.86785 138.185 1.67708 138.295L0.157819 139.172C-0.0329657 139.282 -0.053586 139.449 0.111417 139.544Z" fill="#FF2B85"/>
<path d="M29.7539 164.678L31.3657 165.609C31.531 165.704 31.8195 165.692 32.0103 165.582L33.5295 164.705C33.7203 164.595 33.7411 164.428 33.5759 164.333L31.964 163.402C31.7988 163.307 31.5101 163.319 31.3193 163.429L29.8001 164.306C29.6093 164.416 29.5886 164.583 29.7539 164.678Z" fill="#FF2B85"/>
<path d="M22.4362 160.454L24.0483 161.384C24.2133 161.479 24.5021 161.468 24.6929 161.357L26.2121 160.48C26.4029 160.37 26.4235 160.203 26.2582 160.108L24.6465 159.178C24.4812 159.082 24.1927 159.094 24.0019 159.204L22.4827 160.081C22.2919 160.191 22.2712 160.358 22.4362 160.454Z" fill="#FF2B85"/>
<path d="M15.1187 156.229L16.7305 157.159C16.8958 157.255 17.1843 157.243 17.3751 157.133L18.8943 156.255C19.0851 156.145 19.106 155.979 18.9407 155.883L17.3289 154.953C17.1637 154.857 16.8752 154.869 16.6844 154.979L15.165 155.856C14.9742 155.967 14.9536 156.133 15.1187 156.229Z" fill="#FF2B85"/>
<path d="M7.80123 152.004L9.41302 152.935C9.57831 153.03 9.86678 153.018 10.0576 152.908L11.577 152.031C11.7677 151.92 11.7884 151.754 11.6232 151.658L10.0113 150.728C9.84615 150.633 9.55754 150.645 9.36675 150.755L7.8475 151.632C7.65671 151.742 7.63594 151.909 7.80123 152.004Z" fill="#FF2B85"/>
<path d="M0.483625 147.779L2.09555 148.71C2.26056 148.805 2.54932 148.793 2.74009 148.683L4.25935 147.806C4.45014 147.696 4.47077 147.529 4.30548 147.434L2.69369 146.503C2.52869 146.408 2.23993 146.42 2.04915 146.53L0.529889 147.407C0.339105 147.517 0.318479 147.684 0.483625 147.779Z" fill="#FF2B85"/>
<path d="M30.1261 172.913L31.7378 173.844C31.9031 173.939 32.1916 173.927 32.3824 173.817L33.9018 172.94C34.0926 172.829 34.1132 172.663 33.948 172.567L32.3361 171.637C32.171 171.542 31.8824 171.554 31.6916 171.664L30.1723 172.541C29.9815 172.651 29.9608 172.818 30.1261 172.913Z" fill="#FF2B85"/>
<path d="M22.8085 168.688L24.4204 169.619C24.5854 169.714 24.8741 169.702 25.0649 169.592L26.5842 168.715C26.775 168.605 26.7956 168.438 26.6303 168.343L25.0185 167.412C24.8535 167.317 24.5648 167.329 24.374 167.439L22.8547 168.316C22.6639 168.426 22.6433 168.593 22.8085 168.688Z" fill="#FF2B85"/>
<path d="M15.4909 164.463L17.1027 165.394C17.268 165.489 17.5568 165.478 17.7476 165.367L19.2665 164.49C19.4573 164.38 19.4782 164.213 19.3129 164.118L17.7011 163.188C17.5358 163.092 17.2474 163.104 17.0566 163.214L15.5373 164.091C15.3466 164.201 15.3258 164.368 15.4909 164.463Z" fill="#FF2B85"/>
<path d="M37.4113 185.606L39.0233 186.537C39.1883 186.632 39.4771 186.62 39.6679 186.51L41.1871 185.633C41.3778 185.522 41.3985 185.356 41.2333 185.261L39.6215 184.33C39.4562 184.235 39.1677 184.247 38.9769 184.357L37.4577 185.234C37.2669 185.344 37.2463 185.511 37.4113 185.606Z" fill="#FF2B85"/>
<path d="M30.0938 181.381L31.7056 182.312C31.8709 182.407 32.1594 182.395 32.3502 182.285L33.8694 181.408C34.0602 181.298 34.0808 181.131 33.9158 181.036L32.304 180.105C32.1387 180.01 31.85 180.022 31.6592 180.132L30.1401 181.009C29.9493 181.119 29.9285 181.286 30.0938 181.381Z" fill="#FF2B85"/>
<path d="M22.7762 177.156L24.388 178.087C24.5533 178.182 24.8418 178.171 25.0327 178.06L26.5519 177.183C26.7427 177.073 26.7633 176.906 26.5982 176.811L24.9863 175.88C24.8211 175.785 24.5325 175.797 24.3417 175.907L22.8225 176.784C22.6317 176.894 22.6109 177.061 22.7762 177.156Z" fill="#FF2B85"/>
<path d="M15.4587 172.932L17.0707 173.862C17.2358 173.958 17.5244 173.946 17.7152 173.835L19.2345 172.958C19.4252 172.848 19.4459 172.682 19.2806 172.586L17.6688 171.656C17.5035 171.56 17.215 171.572 17.0243 171.682L15.505 172.559C15.3142 172.67 15.2936 172.836 15.4587 172.932Z" fill="#FF2B85"/>
<path d="M30.4659 189.616L32.0777 190.546C32.243 190.642 32.5317 190.63 32.7225 190.52L34.2415 189.643C34.4323 189.532 34.4532 189.366 34.2879 189.27L32.6761 188.34C32.5108 188.244 32.2224 188.256 32.0316 188.367L30.5123 189.244C30.3215 189.354 30.3007 189.521 30.4659 189.616Z" fill="#FF2B85"/>
<path d="M23.1485 185.391L24.7602 186.322C24.9256 186.417 25.2141 186.405 25.4049 186.295L26.9241 185.418C27.1149 185.308 27.1355 185.141 26.9704 185.046L25.3585 184.115C25.1933 184.02 24.9047 184.032 24.7139 184.142L23.1948 185.019C23.004 185.129 22.9832 185.296 23.1485 185.391Z" fill="#FF2B85"/>
<path d="M151.205 183.104L152.817 184.035C152.982 184.13 153.271 184.118 153.462 184.008L154.981 183.131C155.172 183.021 155.192 182.855 155.027 182.759L153.415 181.829C153.25 181.733 152.961 181.745 152.771 181.855L151.251 182.732C151.061 182.842 151.04 183.009 151.205 183.104Z" fill="#FF2B85"/>
<path d="M151.173 191.573L152.785 192.503C152.95 192.599 153.238 192.587 153.429 192.477L154.948 191.599C155.139 191.489 155.16 191.323 154.995 191.227L153.383 190.297C153.218 190.201 152.929 190.213 152.738 190.323L151.219 191.2C151.028 191.311 151.008 191.477 151.173 191.573Z" fill="#FF2B85"/>
<path d="M143.855 187.348L145.467 188.278C145.632 188.374 145.921 188.362 146.112 188.252L147.631 187.375C147.822 187.264 147.842 187.098 147.677 187.003L146.065 186.072C145.9 185.977 145.612 185.989 145.421 186.099L143.902 186.976C143.711 187.086 143.69 187.252 143.855 187.348Z" fill="#FF2B85"/>
<path d="M144.227 195.583L145.839 196.513C146.004 196.609 146.293 196.597 146.484 196.486L148.003 195.609C148.194 195.499 148.215 195.332 148.049 195.237L146.437 194.306C146.272 194.211 145.984 194.223 145.793 194.333L144.274 195.211C144.083 195.321 144.062 195.487 144.227 195.583Z" fill="#FF2B85"/>
<path d="M136.91 191.358L138.522 192.288C138.687 192.384 138.976 192.372 139.166 192.262L140.685 191.385C140.876 191.274 140.897 191.108 140.732 191.012L139.12 190.082C138.955 189.986 138.666 189.998 138.476 190.109L136.956 190.986C136.765 191.096 136.745 191.262 136.91 191.358Z" fill="#FF2B85"/>
<path d="M144.6 203.817L146.211 204.748C146.377 204.843 146.665 204.831 146.856 204.721L148.375 203.844C148.566 203.734 148.587 203.567 148.421 203.472L146.81 202.541C146.645 202.446 146.356 202.458 146.165 202.568L144.646 203.445C144.455 203.555 144.434 203.722 144.6 203.817Z" fill="#FF2B85"/>
<path d="M137.282 199.593L138.894 200.523C139.059 200.619 139.348 200.607 139.539 200.496L141.058 199.619C141.248 199.509 141.269 199.342 141.104 199.247L139.492 198.316C139.327 198.221 139.039 198.233 138.848 198.343L137.328 199.22C137.138 199.331 137.117 199.497 137.282 199.593Z" fill="#FF2B85"/>
<path d="M137.25 208.061L138.862 208.991C139.027 209.087 139.315 209.075 139.506 208.965L141.026 208.088C141.216 207.977 141.237 207.811 141.072 207.715L139.46 206.785C139.295 206.689 139.006 206.701 138.815 206.811L137.296 207.689C137.105 207.799 137.085 207.965 137.25 208.061Z" fill="#FF2B85"/>
<path d="M129.932 203.836L131.544 204.766C131.709 204.862 131.998 204.85 132.189 204.74L133.708 203.863C133.899 203.753 133.919 203.586 133.754 203.491L132.142 202.56C131.977 202.465 131.689 202.476 131.498 202.587L129.979 203.464C129.788 203.574 129.767 203.74 129.932 203.836Z" fill="#FF2B85"/>
<path d="M122.615 199.611L124.227 200.542C124.392 200.637 124.68 200.625 124.871 200.515L126.39 199.638C126.581 199.528 126.602 199.361 126.437 199.266L124.825 198.335C124.66 198.24 124.371 198.252 124.18 198.362L122.661 199.239C122.47 199.349 122.449 199.516 122.615 199.611Z" fill="#FF2B85"/>
<path d="M115.297 195.386L116.909 196.317C117.074 196.412 117.363 196.4 117.553 196.29L119.073 195.413C119.264 195.303 119.284 195.136 119.119 195.041L117.507 194.11C117.342 194.015 117.053 194.027 116.863 194.137L115.343 195.014C115.152 195.124 115.132 195.291 115.297 195.386Z" fill="#FF2B85"/>
<path d="M130.304 212.071L131.916 213.001C132.081 213.097 132.37 213.085 132.561 212.974L134.08 212.097C134.271 211.987 134.292 211.821 134.126 211.725L132.515 210.795C132.349 210.699 132.061 210.711 131.87 210.821L130.351 211.699C130.16 211.809 130.139 211.975 130.304 212.071Z" fill="#FF2B85"/>
<path d="M122.987 207.846L124.599 208.776C124.764 208.872 125.052 208.86 125.243 208.75L126.762 207.873C126.953 207.762 126.974 207.596 126.809 207.5L125.197 206.57C125.032 206.474 124.743 206.486 124.552 206.596L123.033 207.474C122.843 207.584 122.822 207.75 122.987 207.846Z" fill="#FF2B85"/>
<path d="M115.67 203.621L117.281 204.552C117.446 204.647 117.735 204.635 117.926 204.525L119.445 203.648C119.636 203.538 119.657 203.371 119.491 203.276L117.879 202.345C117.714 202.25 117.426 202.262 117.235 202.372L115.716 203.249C115.525 203.359 115.504 203.526 115.67 203.621Z" fill="#FF2B85"/>
<path d="M108.352 199.396L109.964 200.327C110.129 200.422 110.417 200.41 110.608 200.3L112.128 199.423C112.318 199.313 112.339 199.146 112.174 199.051L110.562 198.12C110.397 198.025 110.108 198.037 109.917 198.147L108.398 199.024C108.207 199.134 108.187 199.301 108.352 199.396Z" fill="#FF2B85"/>
<path d="M101.034 195.172L102.646 196.102C102.811 196.198 103.1 196.186 103.291 196.075L104.81 195.198C105.001 195.088 105.022 194.921 104.856 194.826L103.244 193.895C103.079 193.8 102.791 193.812 102.6 193.922L101.081 194.799C100.89 194.91 100.869 195.076 101.034 195.172Z" fill="#FF2B85"/>
<path d="M123.359 216.081L124.971 217.011C125.136 217.107 125.425 217.094 125.615 216.984L127.135 216.107C127.325 215.997 127.346 215.83 127.181 215.735L125.569 214.804C125.404 214.709 125.115 214.721 124.925 214.831L123.405 215.708C123.215 215.819 123.194 215.985 123.359 216.081Z" fill="#FF2B85"/>
<path d="M116.042 211.856L117.653 212.786C117.819 212.882 118.107 212.87 118.298 212.76L119.817 211.883C120.008 211.772 120.029 211.606 119.863 211.51L118.252 210.58C118.087 210.485 117.798 210.496 117.607 210.606L116.088 211.484C115.897 211.594 115.876 211.76 116.042 211.856Z" fill="#FF2B85"/>
<path d="M6.24124 130.785C5.82902 130.26 5.79407 129.516 6.21016 128.994C6.94279 128.076 8.48468 126.75 11.5494 126.059C16.529 124.935 24.9166 131.556 30.5732 130.426L31.0629 130.724L30.8333 131.2L28.0732 135.373L17.2082 136.471L8.45589 133.604L6.24124 130.785Z" fill="#F8C1D9"/>
<path d="M17.2083 137.323C17.2359 137.323 17.2666 137.322 17.2942 137.319L28.1587 136.222C28.4143 136.197 28.6422 136.058 28.7839 135.844L31.832 131.092C32.021 130.698 31.882 130.224 31.5068 129.996L31.0178 129.697C30.8371 129.584 30.6148 129.546 30.4067 129.589C27.7613 130.114 24.2798 128.717 20.9065 127.365C17.386 125.952 14.0602 124.618 11.3593 125.227C8.10291 125.96 6.3996 127.391 5.54379 128.463C4.88793 129.282 4.89895 130.455 5.56871 131.312V131.313L7.78321 134.132C7.88878 134.264 8.03058 134.363 8.18885 134.416L16.9415 137.282C17.0277 137.31 17.1193 137.323 17.2083 137.323ZM27.5863 134.564L17.3027 135.604L8.96688 132.874L6.91366 130.259C6.73562 130.032 6.71901 129.724 6.87742 129.528C7.56092 128.67 8.96144 127.516 11.7373 126.891C13.9211 126.405 17.0055 127.64 20.2703 128.949C23.4823 130.237 26.8305 131.569 29.6896 131.395L27.5863 134.564Z" fill="#FF2B85"/>
<path d="M68.3645 131.944C68.3645 131.944 80.9647 138.281 89.3399 145.299C97.7151 152.316 91.1441 135.373 91.1441 135.373C91.1441 135.373 76.4376 116.778 75.7586 116.552C75.0796 116.325 66.3163 116.552 66.3163 116.552L65.0444 121.043L68.3645 131.944Z" fill="white"/>
<path d="M92.4522 147.856C92.8302 147.856 93.1886 147.757 93.5137 147.522C95.8145 145.875 93.1803 138.261 91.9383 135.064C91.9077 134.985 91.8661 134.91 91.8133 134.844C76.9478 116.049 76.3282 115.842 76.028 115.742C75.3501 115.517 70.3626 115.593 66.2947 115.699C65.9224 115.709 65.5974 115.96 65.4944 116.319L64.222 120.809C64.1774 120.967 64.1801 121.134 64.2276 121.291L67.548 132.193C67.6174 132.416 67.7728 132.601 67.9812 132.707C68.1063 132.769 80.5932 139.082 88.7928 145.952C89.8348 146.828 91.2353 147.856 92.4522 147.856ZM90.3934 135.801C92.4441 141.129 93.2108 145.641 92.5217 146.134C92.5078 146.141 91.9271 146.354 89.8877 144.644C82.2882 138.276 71.124 132.404 69.0761 131.349L65.9336 121.034L66.9671 117.39C70.6266 117.302 74.4887 117.269 75.3946 117.356C76.7171 118.651 85.1557 129.179 90.3934 135.801Z" fill="#FF2B85"/>
<path d="M49.1973 186.493C48.8473 187.38 47.6652 187.537 47.1059 186.766C44.4103 183.045 38.1128 173.886 34.1093 164.312C28.9031 151.863 21.2071 145.525 21.2071 145.525L31.8458 142.356C31.8458 142.356 33.204 145.072 36.373 148.241C39.5418 151.41 48.4007 158.201 48.4007 158.201L53.5758 175.404L49.1973 186.493Z" fill="white"/>
<path d="M48.0644 188.116C48.1505 188.116 48.2394 188.11 48.3285 188.099C49.0758 188.005 49.7149 187.51 49.9927 186.807L54.3719 175.718C54.4412 175.539 54.4497 175.341 54.3941 175.158L49.2176 157.954C49.1674 157.782 49.0619 157.632 48.9204 157.522C48.8313 157.456 40.0705 150.731 36.975 147.637C33.9575 144.619 32.621 141.998 32.61 141.973C32.4209 141.604 32.0041 141.418 31.6012 141.537L20.9621 144.706C20.662 144.796 20.4341 145.045 20.3704 145.355C20.3064 145.663 20.4203 145.983 20.6649 146.183C20.7399 146.245 28.2671 152.554 33.324 164.641C37.3835 174.355 43.8299 183.699 46.4139 187.266C46.8084 187.809 47.4114 188.116 48.0644 188.116ZM48.4033 186.179C48.3338 186.36 48.1784 186.397 48.1173 186.406C48.0422 186.415 47.9031 186.408 47.7977 186.265C45.247 182.746 38.8894 173.531 34.8968 163.982C30.8123 154.212 25.2772 148.197 22.9015 145.911L31.4345 143.368C32.0321 144.381 33.4128 146.489 35.7691 148.845C38.7005 151.776 46.2472 157.62 47.6614 158.71L52.674 175.366L48.4033 186.179Z" fill="#FF2B85"/>
<path d="M43.9316 161.183C43.1196 145.201 42.9463 127.426 42.9463 127.426C42.9463 127.426 65.1955 125.966 65.0444 126.578C64.8936 127.19 66.3163 131.395 66.3163 131.395C66.3163 131.395 65.3463 153.674 63.7619 175.63C62.1775 197.587 48.9732 194.644 46.1815 183.779C45.3106 180.389 44.6682 173.629 44.1964 165.931L43.9316 161.183Z" fill="white"/>
<path d="M54.4858 192.945C54.6802 192.945 54.8748 192.937 55.0692 192.919C60.3013 192.448 63.869 186.008 64.611 175.692C66.1808 153.974 67.1588 131.655 67.17 131.433C67.1755 131.327 67.1588 131.222 67.1254 131.122C66.5254 129.345 65.8806 127.147 65.8863 126.695C65.9529 126.431 65.8668 126.215 65.6918 126.006C65.3443 125.589 64.9471 125.124 42.8908 126.574C42.4379 126.604 42.0876 126.982 42.0934 127.434C42.0934 127.612 42.2738 145.41 43.0795 161.226C43.1075 161.696 43.4214 162.033 43.9772 162.036C44.4468 162.011 44.8079 161.611 44.7856 161.14C44.08 147.275 43.855 131.88 43.8104 128.225C50.9875 127.764 61.6712 127.172 64.2525 127.291C64.3748 127.993 64.6913 129.242 65.4583 131.518C65.3667 133.564 64.4082 154.842 62.9102 175.569C62.2296 184.979 59.2427 190.829 54.9163 191.218C51.4904 191.552 48.2256 188.299 47.0087 183.566C46.2445 180.597 45.5858 174.647 45.0495 165.879C45.0219 165.409 44.6801 165.013 44.1439 165.08C43.6742 165.109 43.3159 165.514 43.3435 165.984C43.8882 174.859 44.5661 180.918 45.3525 183.991C46.7142 189.284 50.4929 192.945 54.4858 192.945Z" fill="#FF2B85"/>
<path d="M83.4102 131.22C83.4102 131.22 83.2148 142.13 91.144 153.221C99.0732 164.312 100.108 169.518 106.268 172.687C112.428 175.856 116.427 174.498 117.71 170.198C118.351 168.047 116.576 158.484 114.641 149.458C112.243 138.277 108.145 127.53 102.571 117.545L100.627 114.062L83.5973 127.869L83.4102 131.22Z" fill="white"/>
<path d="M112.264 175.276C113.244 175.276 114.145 175.105 114.951 174.762C116.665 174.033 117.901 172.538 118.527 170.443C118.741 169.727 119.391 167.549 115.476 149.278C113.08 138.108 108.99 127.291 103.317 117.13L101.372 113.646C101.249 113.425 101.035 113.271 100.788 113.223C100.538 113.175 100.285 113.24 100.091 113.398L83.0607 127.206C82.8719 127.358 82.7579 127.582 82.7439 127.822L82.5577 131.173V131.205C82.5495 131.662 82.4494 142.525 90.449 153.717C93.1247 157.46 95.042 160.577 96.5815 163.082C99.7101 168.173 101.597 171.246 105.876 173.446C108.237 174.662 110.399 175.276 112.264 175.276ZM100.377 115.363L101.827 117.961C107.418 127.975 111.447 138.632 113.809 149.637C117.135 165.161 117.168 169.03 116.893 169.954C116.409 171.569 115.531 172.66 114.281 173.192C112.442 173.977 109.799 173.546 106.659 171.929C102.802 169.945 101.108 167.19 98.0344 162.189C96.4813 159.66 94.5473 156.515 91.8382 152.725C84.3055 142.186 84.2611 131.687 84.2637 131.248L84.4278 128.294L100.377 115.363Z" fill="#FF2B85"/>
<path d="M47.5285 97.9599C47.5285 97.9599 40.2964 106.139 41.2017 127.417C41.2017 127.417 50.256 126.964 68.3645 131.944C68.3645 131.944 69.2939 126.258 71.0545 122.456C71.9437 120.536 74.6947 120.534 75.7015 122.395L80.8665 131.944C80.8665 131.944 94.1687 129.228 104.128 116.552C104.128 116.552 100.832 107.906 96.6702 101.515C92.5088 95.1232 81.6432 93.6919 81.6432 93.6919L47.5285 97.9599Z" fill="#FF2B85"/>
<path d="M80.8656 132.797C80.9212 132.797 80.9796 132.791 81.0352 132.78C81.591 132.666 94.7614 129.855 104.8 117.08C104.984 116.844 105.031 116.528 104.925 116.248C104.789 115.892 101.549 107.444 97.3843 101.049C93.0579 94.4055 82.216 92.9049 81.7548 92.8453C81.6826 92.8341 81.6104 92.8354 81.538 92.8438L47.4225 97.1131C47.2169 97.1395 47.0253 97.2396 46.889 97.395C46.5835 97.7398 39.4397 106.077 40.3484 127.452C40.3594 127.68 40.4595 127.893 40.6262 128.047C40.7957 128.199 41.0263 128.254 41.2429 128.269C41.343 128.257 50.4178 127.893 68.1398 132.767C68.3675 132.829 68.6232 132.791 68.8261 132.662C69.029 132.532 69.1677 132.321 69.2067 132.082C69.215 132.026 70.1376 126.463 71.8297 122.815C72.0963 122.238 72.6466 121.881 73.2994 121.862C73.8385 121.812 74.5637 122.086 74.9502 122.801L80.1154 132.35C80.2655 132.629 80.5571 132.797 80.8656 132.797ZM103.153 116.406C94.7363 126.873 83.9554 130.259 81.3018 130.959L76.4505 121.99C75.8197 120.817 74.6138 120.078 73.2467 120.156C71.9519 120.195 70.8153 120.939 70.2791 122.098C68.901 125.071 68.0341 129.079 67.6896 130.876C53.1271 126.948 44.6383 126.56 42.0238 126.551C41.4209 108.384 46.8809 100.215 47.9782 98.765L81.6352 94.5527C82.7357 94.7195 92.2689 96.3198 95.9561 101.98C99.4849 107.401 102.419 114.557 103.153 116.406Z" fill="#FF2B85"/>
<path d="M128.646 97.0749C131.063 79.8614 127.82 71.7333 127.82 71.7333C126.441 68.3622 124.711 65.1487 122.631 62.1591C115.644 52.1196 106.611 39.9069 106.611 39.9069L100.966 39.048C100.966 39.048 95.2948 39.9668 93.2688 43.3732L60.9908 36.7428L50.7086 45.3254L51.3125 50.9239C51.3125 50.9239 55.2358 69.0171 53.5759 79.2786C51.9161 89.5399 46.1815 96.0289 46.1815 96.0289C55.5377 109.61 65.1954 120.475 79.7748 114.892C94.3538 109.308 98.0692 98.745 98.0692 98.745C98.0692 98.745 92.0564 85.9183 95.7874 82.7493C99.5184 79.5803 103.072 75.8713 99.4614 64.8553C98.1595 60.8835 97.812 57.7225 97.8766 55.2647C100.006 57.6864 102.421 60.3168 104.155 62.83C109.749 70.9348 116.05 77.8449 116.05 77.8449C116.05 77.8449 119.672 98.443 118.335 103.649C116.998 108.855 114.692 113.609 114.692 113.609C114.692 113.609 108.128 124.474 110.61 127.417C113.092 130.359 115.604 126.578 115.604 126.578C115.604 126.578 115.819 126.477 115.832 126.804C115.912 128.89 116.773 136.912 123.52 135.113C128.612 133.755 127.669 118.563 127.669 118.563C127.669 118.563 126.462 112.628 128.646 97.0749Z" fill="#F8C1D9"/>
<path d="M121.669 136.229C122.322 136.229 123.011 136.131 123.739 135.938C129.346 134.442 128.621 120.136 128.521 118.511C128.493 118.337 127.362 112.349 129.491 97.1922C131.914 79.954 128.749 71.7571 128.613 71.4168C127.187 67.9365 125.412 64.6605 123.331 61.6709C116.415 51.736 107.39 39.5228 107.298 39.4005C107.165 39.2184 106.965 39.0977 106.74 39.0643L101.094 38.2044C101.005 38.1905 100.913 38.1905 100.83 38.2058C100.594 38.2433 95.2892 39.1379 92.8773 42.4222L61.1627 35.9065C60.907 35.8591 60.6459 35.9204 60.4429 36.087L50.1623 44.67C49.9426 44.8536 49.8315 45.134 49.8623 45.4175L50.465 51.015C50.5178 51.2831 54.3496 69.1606 52.7352 79.1426C51.1347 89.0191 45.5971 95.4015 45.5415 95.4652C45.2831 95.7586 45.2552 96.192 45.4775 96.5143C54.4218 109.496 64.4609 121.667 80.0793 115.689C94.8559 110.029 98.7153 99.4749 98.8736 99.0288C98.9486 98.8179 98.9347 98.5857 98.8403 98.3829C96.6228 93.6509 93.9859 85.3986 96.3397 83.3994C100.502 79.865 103.936 75.7653 100.274 64.5898C99.4654 62.1279 98.971 59.7857 98.7958 57.5933C100.474 59.4939 102.158 61.4388 103.453 63.3145C108.507 70.6388 114.209 77.0697 115.251 78.234C115.648 80.5485 118.707 98.7623 117.507 103.437C116.209 108.494 113.947 113.19 113.925 113.237C112.811 115.07 107.218 124.721 109.957 127.966C111.008 129.213 112.075 129.417 112.816 129.386C113.731 129.334 114.517 128.876 115.112 128.378C115.381 130.415 116.151 133.54 118.368 135.176C119.318 135.877 120.424 136.229 121.669 136.229ZM106.134 40.698C107.532 42.5917 115.615 53.5741 121.93 62.6461C123.939 65.5331 125.656 68.6992 127.032 72.0572C127.06 72.1281 130.149 80.2277 127.802 96.9562C125.62 112.477 126.782 118.486 126.832 118.733C127.162 124.221 126.515 133.431 123.3 134.288C121.691 134.719 120.41 134.56 119.382 133.802C117.004 132.047 116.718 127.637 116.684 126.77C116.665 126.226 116.368 125.963 116.19 125.855C115.948 125.703 115.501 125.681 115.242 125.806C115.1 125.871 114.981 125.976 114.895 126.105C114.612 126.526 113.667 127.63 112.716 127.682C112.233 127.718 111.75 127.441 111.263 126.866C109.821 125.159 112.828 118.344 115.423 114.051C115.556 113.785 117.818 109.09 119.163 103.862C120.527 98.5371 117.04 78.5451 116.893 77.6978C116.862 77.5379 116.79 77.3893 116.682 77.2698C116.618 77.2018 110.352 70.3053 104.859 62.3446C103.361 60.1718 101.399 57.96 99.5072 55.8206L98.5179 54.7008C98.2846 54.4395 97.9232 54.3437 97.5842 54.4619C97.2565 54.5813 97.0313 54.8911 97.0232 55.2426C96.9452 58.2642 97.4925 61.5875 98.6513 65.1219C102.261 76.132 98.3651 79.4399 95.2336 82.099C91.3604 85.3889 96.0478 96.3685 97.1398 98.7676C96.3897 100.514 92.0938 109.26 79.468 114.094C65.211 119.559 55.7166 108.297 47.2504 96.0754C48.6451 94.3178 52.9851 88.2716 54.419 79.4148C56.0861 69.1133 52.3074 51.4874 52.1462 50.7427L51.6071 45.6885L61.2211 37.6611L93.0969 44.2102C93.4692 44.2757 93.8192 44.1213 94.0028 43.8101C95.6477 41.0426 100.168 40.0672 100.977 39.9133L106.134 40.698Z" fill="#FF2B85"/>
<path d="M69.3807 55.6089C69.3807 55.6089 74.2227 52.4987 72.5897 50.2894C70.9566 48.08 66.6434 46.2388 66.6434 46.2388L66.3163 51.4032L69.3807 55.6089Z" fill="#FF2B85"/>
<path d="M69.3817 56.4624C69.5399 56.4624 69.7011 56.4193 69.8429 56.3276C70.1987 56.0997 73.3217 54.0353 73.7329 51.793C73.8662 51.0636 73.7106 50.3676 73.2773 49.7828C71.5267 47.4126 67.1614 45.5328 66.9781 45.4536C66.7253 45.3425 66.4308 45.3634 66.1945 45.512C65.9584 45.6578 65.8083 45.9081 65.7888 46.1845L65.4638 51.3484C65.4527 51.5471 65.511 51.7443 65.6277 51.9055L68.6926 56.1123C68.8593 56.3401 69.1177 56.4624 69.3817 56.4624ZM67.4145 47.5487C68.7426 48.2197 70.9127 49.4548 71.9047 50.7969C72.0574 51.0038 72.1046 51.2151 72.0547 51.4832C71.8823 52.421 70.6292 53.631 69.5762 54.4285L67.1894 51.1484L67.4145 47.5487Z" fill="#FF2B85"/>
<path d="M92.3904 53.8779C92.3904 53.8779 99.2195 51.3588 103.645 46.2388C108.071 41.1188 100.205 32.6872 100.035 32.5741C99.8654 32.4606 93.8104 34.9507 93.8104 34.9507C93.8104 34.9507 91.2639 41.1754 91.1506 41.5149C91.0374 41.8546 92.3904 53.8779 92.3904 53.8779Z" fill="#FF2B85"/>
<path d="M92.3911 54.7313C92.4912 54.7313 92.5913 54.7147 92.6858 54.6786C92.9747 54.573 99.7738 52.0222 104.289 46.7971C105.556 45.3329 106.053 43.5197 105.77 41.408C105.145 36.7387 100.796 32.058 100.51 31.8651C100.057 31.5593 99.9822 31.4914 93.4859 34.1615C93.2748 34.2476 93.1081 34.4157 93.0218 34.627C92.5939 35.6716 90.4546 40.8982 90.3405 41.2497C90.2684 41.4622 90.1682 41.7608 91.5437 53.9742C91.5716 54.234 91.7189 54.4673 91.9439 54.605C92.0799 54.6883 92.2356 54.7313 92.3911 54.7313ZM99.7738 33.5224C100.949 34.8686 106.523 41.6025 103 45.68C99.7628 49.4243 95.1391 51.7541 93.1135 52.653C92.6274 48.2851 91.98 42.204 91.9995 41.5998C92.0633 41.4914 93.4639 38.0515 94.4669 35.605C96.5925 34.7324 98.868 33.8336 99.7738 33.5224Z" fill="#FF2B85"/>
<path d="M66.0255 45.0147C66.0255 45.0147 71.9724 58.1952 82.2738 59.852C85.8659 60.4296 89.47 58.7812 91.3866 55.6889C93.3378 52.5413 95.4698 47.1589 95.7758 38.4612C96.3569 21.9354 74.8532 28.7178 74.8532 28.7178L63.7619 35.7031L66.0255 45.0147Z" fill="white"/>
<path d="M83.722 60.8221C87.1062 60.8221 90.2849 59.0854 92.1105 56.1373C93.9943 53.1017 96.3088 47.5766 96.6285 38.4918C96.7813 34.1795 95.5031 30.9633 92.833 28.9322C86.6033 24.1933 75.0833 27.7486 74.5972 27.9041C74.5276 27.9263 74.461 27.9568 74.3969 27.9958L63.3048 34.9812C62.9965 35.177 62.8436 35.5494 62.9297 35.9051L65.197 45.2161C65.2083 45.2674 65.2249 45.3174 65.2471 45.3661C65.4972 45.9204 71.5045 58.984 82.1382 60.6956C82.6687 60.7802 83.1968 60.8221 83.722 60.8221ZM83.9942 28.1943C86.7922 28.1943 89.6988 28.6919 91.802 30.2937C94.0028 31.9692 95.0529 34.7074 94.9225 38.4308C94.6167 47.1402 92.4355 52.3779 90.6602 55.2385C88.9179 58.056 85.6836 59.5397 82.4103 59.0089C73.0579 57.5057 67.3115 45.7385 66.8337 44.7311L64.7358 36.0981L75.2111 29.5017C75.8835 29.3018 79.8208 28.1943 83.9942 28.1943Z" fill="#FF2B85"/>
<path d="M72.5897 38.5884C72.5897 38.5884 77.9017 46.8928 87.2214 50.1264C88.2478 50.4825 89.389 50.237 90.2453 49.5682C92.8156 47.5611 97.5525 42.1701 99.2995 30.9896C101.675 15.7846 77.1036 23.6211 77.1036 23.6211L72.5897 38.5884Z" fill="white"/>
<path d="M88.2067 51.1456C89.1068 51.1456 90.01 50.8358 90.7714 50.2411C92.9581 48.5337 98.2485 43.2517 100.143 31.1218C100.694 27.5985 99.9212 24.9103 97.8483 23.1346C91.9383 18.0721 77.4536 22.6121 76.845 22.8082C76.5756 22.8929 76.367 23.1056 76.2864 23.375L71.7741 38.342C71.7019 38.5795 71.738 38.8379 71.8712 39.0476C72.0963 39.3963 77.4508 47.6403 86.9395 50.9316C87.3509 51.0747 87.7787 51.1456 88.2067 51.1456ZM89.4015 22.4456C92.2717 22.4456 95.0003 22.943 96.7369 24.4308C98.3541 25.8161 98.9154 27.9179 98.4542 30.8577C96.6562 42.3862 91.7465 47.3125 89.7209 48.8965C89.0681 49.4075 88.2151 49.5658 87.5008 49.3201C79.5986 46.5777 74.5972 39.9674 73.5246 38.4433L77.787 24.3059C79.2957 23.8669 84.5473 22.4456 89.4015 22.4456Z" fill="#FF2B85"/>
<path d="M95.2251 25.7833C95.2251 25.7833 94.8311 36.4221 83.5973 38.0066C72.3633 39.591 78.9277 35.8535 78.9277 35.8535C78.9277 35.8535 66.0255 41.628 66.0255 49.0978C66.0255 49.0978 66.2516 55.4357 69.4206 56.5675C69.4206 56.5675 61.5737 54.304 57.9519 42.76C57.9519 42.76 55.2358 44.5707 55.0094 38.6856C54.7831 32.8004 55.1112 28.4084 61.4491 22.3424C67.7871 16.2763 67.308 10.3158 71.8351 5.33596C76.3622 0.356227 84.209 -0.624767 89.1891 3.22315C89.1891 3.22315 94.0999 0.205117 97.9447 8.354C101.789 16.5029 103.374 22.3424 103.374 22.3424C103.374 22.3424 108.354 25.5568 105.637 31.895C105.637 31.895 109.938 41.628 101.789 47.9662C101.789 47.9662 103.148 38.4539 100.205 35.8535C97.2622 33.2531 97.7728 30.7484 97.7728 30.7484L95.2251 25.7833Z" fill="#FFE7B3"/>
<path d="M69.4206 57.4223C69.7817 57.4223 70.1152 57.1904 70.2319 56.8305C70.3736 56.3915 70.1431 55.9191 69.7067 55.7636C67.5618 54.9981 66.9392 50.6691 66.8783 49.0672C66.8783 44.4159 72.6077 40.3425 76.2781 38.2099C76.7004 39.1962 78.1841 39.6325 83.7163 38.8518C91.9327 37.693 94.6973 31.886 95.6226 28.4251L96.8979 30.9106C96.8398 31.7678 96.9675 34.1323 99.6405 36.4927C101.766 38.3738 101.302 45.3258 100.944 47.8446C100.894 48.1892 101.06 48.5295 101.36 48.7032C101.661 48.881 102.033 48.8519 102.314 48.6392C109.988 42.6695 107.248 33.7781 106.556 31.904C108.854 26.1063 105.189 22.6776 104.117 21.8328C103.747 20.5506 102.116 15.199 98.7178 7.99005C97.1758 4.72236 95.2586 2.72872 93.0163 2.06183C91.3879 1.57155 90.0128 1.94108 89.2847 2.23414C83.9386 -1.52541 75.9391 -0.445873 71.2043 4.76275C69.0926 7.08266 68.048 9.54468 66.942 12.1495C65.6194 15.2616 64.2524 18.4778 60.8597 21.7258C54.2745 28.0276 53.9273 32.7429 54.1549 38.717C54.2607 41.4261 54.8858 43.0361 56.0694 43.6406C56.5306 43.8768 57.0088 43.9061 57.4115 43.8477C61.2321 54.9745 68.8537 57.2931 69.1843 57.3877C69.2622 57.4113 69.3429 57.4223 69.4206 57.4223ZM78.9289 34.9993C78.8121 34.9993 78.6928 35.0242 78.5816 35.0743C78.0313 35.3201 65.1722 41.1648 65.1722 49.0978C65.186 49.5091 65.2944 51.6332 66.0112 53.6561C63.6245 51.7874 60.618 48.403 58.7675 42.5042C58.6869 42.2485 58.4896 42.0444 58.2367 41.9554C57.9812 41.8638 57.7033 41.9039 57.481 42.05C57.481 42.05 57.1086 42.2555 56.8363 42.1166C56.6364 42.0082 55.9695 41.4427 55.861 38.6517C55.6443 32.9528 55.9554 28.7821 62.0379 22.9596C65.6861 19.4684 67.1865 15.9353 68.5121 12.8177C69.5594 10.3489 70.5515 8.01769 72.4658 5.91032C76.6756 1.28666 84.0916 0.35866 88.6678 3.89849C88.9484 4.11663 89.3347 4.13468 89.6375 3.94991C89.6819 3.92355 90.9267 3.20654 92.5633 3.70669C94.2807 4.23337 95.8755 5.96719 97.1731 8.71795C100.935 16.6938 102.536 22.5094 102.552 22.5665C102.605 22.7678 102.736 22.943 102.908 23.0582C103.086 23.1749 107.24 25.9881 104.853 31.5593C104.759 31.776 104.761 32.0233 104.856 32.24C105.006 32.5832 108.193 40.0798 102.869 45.826C103.1 42.6861 103.111 37.2834 100.769 35.2145C98.2761 33.0098 98.5957 30.9926 98.6124 30.9077C98.6429 30.7244 98.618 30.5243 98.5318 30.3577L95.9838 25.3924C95.8059 25.0505 95.4142 24.8699 95.0419 24.9504C94.6641 25.0339 94.3889 25.3616 94.3723 25.7492C94.3557 26.1548 93.8471 35.6981 83.4774 37.1623C80.1599 37.6291 78.726 37.5721 78.123 37.4792C78.412 37.2083 78.89 36.8594 79.3512 36.5956C79.7458 36.3691 79.8959 35.8731 79.6902 35.4673C79.5401 35.1714 79.24 34.9993 78.9289 34.9993Z" fill="#FF2B85"/>
<path d="M95.7865 27.7331C95.8781 27.7331 95.9698 27.7179 96.0618 27.6874C96.5064 27.5359 96.7453 27.051 96.5952 26.605L93.7693 18.2666C93.6192 17.8179 93.133 17.5775 92.6858 17.7317C92.2411 17.8831 92.002 18.3679 92.1521 18.8139L94.9781 27.1526C95.0975 27.5081 95.431 27.7331 95.7865 27.7331Z" fill="#FF2B85"/>
<path d="M103.7 22.1627C103.7 22.1627 104.686 21.3246 103.756 18.2191C103.159 16.2251 101.533 15.1519 99.4586 14.9898C95.0783 14.6477 89.2486 14.6927 80.4042 18.2277C77.9352 19.2144 74.8947 20.4249 68.7015 24.7397C65.7305 26.8096 66.3552 29.705 68.5688 32.5702C68.5688 32.5702 69.9168 31.6397 75.0578 28.5608C88.2361 20.5541 99.2475 21.3526 103.699 22.1678L103.7 22.1627Z" fill="white"/>
<path d="M68.5677 33.4239C68.7343 33.4239 68.9037 33.3752 69.051 33.2737C69.065 33.264 70.4625 32.3082 75.4974 29.2933C88.5401 21.3688 99.4543 22.2579 103.547 23.0069C103.797 23.0542 104.05 22.9874 104.247 22.8234C104.292 22.7859 104.334 22.7442 104.367 22.6985C104.723 22.3039 105.489 21.03 104.572 17.9747C103.903 15.7353 102.063 14.3376 99.5265 14.1376C94.8946 13.7819 88.9652 13.889 80.0877 17.4343C77.5786 18.4374 74.4747 19.6768 68.2119 24.039C66.8754 24.9713 66.0918 26.1216 65.8863 27.4581C65.6277 29.1379 66.3031 31.034 67.8924 33.0918C68.0591 33.3098 68.3119 33.4239 68.5677 33.4239ZM98.0372 20.8325C92.3605 20.8325 83.997 22.1316 74.6138 27.8318C71.3656 29.7782 69.6289 30.8675 68.7815 31.4106C67.8312 30.0129 67.4173 28.746 67.5728 27.7179C67.7062 26.8497 68.2368 26.1036 69.1899 25.4395C75.2888 21.1897 78.2926 19.9907 80.7043 19.0266C89.2734 15.6018 94.9501 15.495 99.3932 15.8409C100.449 15.9228 102.311 16.3744 102.939 18.4639C103.389 19.9685 103.333 20.8077 103.23 21.2215C101.944 21.0173 100.182 20.8325 98.0372 20.8325Z" fill="#FF2B85"/>
<path d="M57.9534 43.6128C58.3758 43.6128 58.7424 43.2988 58.8009 42.8694C58.8065 42.8266 59.3983 38.6322 63.0964 36.0343C63.48 35.7633 63.5745 35.2299 63.3021 34.845C63.0354 34.4588 62.4991 34.3699 62.1128 34.6366C57.7811 37.6806 57.1309 42.4513 57.1059 42.6528C57.0476 43.1196 57.3783 43.5448 57.8451 43.6059C57.8812 43.6102 57.9173 43.6128 57.9534 43.6128Z" fill="#FF2B85"/>
<path d="M91.1436 9.96278C91.2075 9.96278 91.2742 9.95446 91.3408 9.939C91.7992 9.83072 92.0828 9.37095 91.9743 8.91246C90.7016 3.53998 88.0787 1.5409 87.9677 1.45897C87.5924 1.17694 87.059 1.25343 86.7727 1.63529C86.4949 2.01184 86.5699 2.54395 86.945 2.82597C86.9979 2.86636 89.2041 4.62511 90.3127 9.30434C90.4044 9.69751 90.7572 9.96278 91.1436 9.96278Z" fill="#FF2B85"/>
<path d="M52.6788 43.681C52.6788 43.681 44.2197 49.2167 44.8234 60.0223C45.4271 70.828 57.3483 103.423 57.3483 103.423C57.3483 103.423 61.8414 112.478 70.7787 117.344C79.7162 122.21 88.4345 129.076 88.4345 129.076C88.4345 129.076 94.1456 137.527 98.0691 141.149C101.993 144.77 109.863 145.374 109.561 137.376C109.561 137.376 111.915 133.755 109.569 130.472C107.222 127.19 96.4699 121.758 96.4699 121.758C96.4699 121.758 86.284 116.276 80.2856 109.987C74.5833 104.009 68.5152 96.6323 68.5152 96.6323C68.5152 96.6323 66.4779 80.7876 61.6115 64.1505L52.6788 43.681Z" fill="#F8C1D9"/>
<path d="M104.356 144.546C105.348 144.546 106.29 144.366 107.109 143.989C108.387 143.399 110.494 141.79 110.422 137.6C110.947 136.661 112.58 133.215 110.263 129.975C107.824 126.562 97.3011 121.221 96.8565 120.996C96.773 120.952 86.7367 115.513 80.9017 109.399C75.7891 104.036 70.3099 97.4619 69.329 96.2768C69.0456 94.1942 66.9311 79.2983 62.4324 63.9117C62.3018 63.4603 61.8324 63.2004 61.3738 63.3311C60.9211 63.4644 60.6627 63.9382 60.7931 64.3897C65.5834 80.7667 67.6479 96.5837 67.6673 96.7409C67.6896 96.9006 67.7533 97.0505 67.8563 97.1741C67.9175 97.2492 74.008 104.643 79.6681 110.577C85.692 116.891 95.6449 122.283 96.0644 122.509C99.0237 124.004 107.051 128.417 108.874 130.969C110.861 133.745 108.865 136.879 108.843 136.911C108.749 137.058 108.701 137.232 108.707 137.408C108.804 139.957 108.004 141.697 106.395 142.439C104.27 143.418 100.866 142.572 98.6457 140.52C94.839 137.008 89.1984 128.682 89.1429 128.599C89.093 128.525 89.0318 128.461 88.9624 128.406C88.8734 128.337 80.0849 121.438 71.1877 116.594C62.602 111.92 58.1562 103.131 58.1117 103.044C58.0311 102.805 46.2667 70.5303 45.6776 59.9746C45.108 49.8133 53.0687 44.4477 53.1493 44.395C53.5412 44.1351 53.6522 43.6059 53.3937 43.2127C53.1353 42.8167 52.6046 42.7098 52.2128 42.9668C51.8489 43.2043 43.3464 48.9018 43.9714 60.069C44.5746 70.8777 56.0585 102.381 56.5448 103.717C56.7725 104.182 61.2988 113.155 70.3708 118.094C78.6261 122.588 86.7979 128.885 87.8038 129.667C88.5234 130.727 93.7389 138.315 97.49 141.776C99.4099 143.549 102.022 144.546 104.356 144.546Z" fill="#FF2B85"/>
<path d="M127.669 118.563C127.669 118.563 127.148 115.569 127.216 109.029C121.832 105.401 117.238 107.292 117.238 107.292L117.237 107.293C116.014 110.879 114.692 113.609 114.692 113.609C114.692 113.609 108.128 124.474 110.61 127.417C113.092 130.359 115.604 126.578 115.604 126.578C115.604 126.578 115.819 126.477 115.832 126.804C115.912 128.89 116.682 136.526 123.52 135.113C129.541 133.868 127.669 118.563 127.669 118.563Z" fill="white"/>
<path d="M121.922 136.141C122.483 136.141 123.075 136.077 123.692 135.949C130.294 134.584 128.715 120.106 128.515 118.46C128.513 118.447 128.513 118.432 128.51 118.419C128.504 118.389 128.004 115.396 128.068 109.037C128.071 108.751 127.929 108.482 127.693 108.32C121.994 104.483 117.112 106.42 116.912 106.503C116.684 106.596 116.509 106.784 116.429 107.017C115.239 110.506 113.936 113.211 113.922 113.237C112.811 115.07 107.218 124.721 109.957 127.966C111.008 129.213 112.074 129.417 112.816 129.386C113.728 129.334 114.514 128.876 115.109 128.379C115.376 130.406 116.123 133.281 118.21 134.916C119.252 135.731 120.496 136.141 121.922 136.141ZM126.823 118.686C127.315 122.741 127.643 133.389 123.347 134.277C121.647 134.631 120.319 134.395 119.263 133.571C117.045 131.836 116.729 127.928 116.684 126.77C116.665 126.226 116.368 125.962 116.19 125.855C115.948 125.703 115.501 125.681 115.242 125.806C115.1 125.871 114.981 125.976 114.895 126.105C114.612 126.526 113.667 127.63 112.716 127.682C112.233 127.718 111.749 127.441 111.263 126.866C109.821 125.159 112.828 118.344 115.423 114.051C115.512 113.875 116.723 111.363 117.907 107.972C118.971 107.67 122.411 107.013 126.357 109.489C126.321 115.488 126.773 118.38 126.823 118.686Z" fill="#FF2B85"/>
<path d="M76.7533 89.2331C78.8345 89.2331 81.7577 88.7537 84.8307 86.7323C87.2287 85.1554 88.8207 85.0179 90.5073 84.8734C92.5078 84.7011 94.5752 84.5219 97.7538 82.1282C98.1289 81.8433 98.204 81.3085 97.9205 80.932C97.6398 80.5556 97.0982 80.4832 96.7258 80.7639C93.9417 82.8632 92.2023 83.0131 90.36 83.1715C88.5373 83.3285 86.6535 83.4911 83.8915 85.307C78.8401 88.6301 74.2498 87.2297 74.2054 87.2171C73.7525 87.081 73.2774 87.3241 73.1327 87.7729C72.991 88.223 73.2384 88.7023 73.6886 88.8454C73.7913 88.8773 74.9583 89.2331 76.7533 89.2331Z" fill="#FF2B85"/>
<path d="M86.6755 71.489C86.9896 71.489 87.3008 71.464 87.6063 71.4098C95.7949 69.9719 96.5785 48.6838 96.6395 46.2608C96.6507 45.7899 96.2812 45.398 95.8088 45.3856C95.3113 45.3369 94.9447 45.7441 94.9335 46.2163C94.7724 52.4126 93.0914 68.7131 87.3118 69.7288C81.4242 70.7609 71.5296 57.6877 68.2148 52.5626C67.9564 52.1694 67.4311 52.0514 67.0337 52.3098C66.6391 52.5655 66.5253 53.0947 66.7809 53.4908C67.2726 54.252 78.5231 71.489 86.6755 71.489Z" fill="#FF2B85"/>
<path d="M88.1173 76.5588C86.2825 76.9093 84.511 75.7061 84.1603 73.8713L83.4708 70.2626C83.1203 68.4278 84.3235 66.6562 86.1583 66.3057C87.9931 65.9551 89.7647 67.1584 90.1152 68.9932L90.8047 72.6017C91.1555 74.4365 89.9522 76.2082 88.1173 76.5588Z" fill="white"/>
<path d="M87.473 77.4741C87.7397 77.4741 88.0094 77.4477 88.2789 77.3963C90.5711 76.9586 92.0799 74.7358 91.6438 72.442L90.9547 68.834C90.7406 67.7226 90.1099 66.7599 89.1736 66.1235C88.2372 65.4886 87.1175 65.2511 85.9976 65.4678C84.8863 65.6789 83.9249 66.3124 83.2885 67.2503C82.6521 68.1866 82.4188 69.3133 82.6327 70.4233L83.3218 74.0313C83.5359 75.1428 84.1667 76.1042 85.1028 76.7406C85.8143 77.2225 86.634 77.4741 87.473 77.4741ZM86.7978 67.0988C87.3009 67.0988 87.7897 67.2475 88.2151 67.5365C88.7734 67.9158 89.1513 68.4909 89.2763 69.1536L89.9654 72.7616C90.2267 74.1315 89.3265 75.4582 87.9564 75.7193V75.7208C87.309 75.8431 86.6228 75.7083 86.0616 75.329C85.5032 74.9483 85.1252 74.3745 85.0001 73.7119L84.311 70.1025C84.1833 69.4398 84.3221 68.7674 84.7001 68.2088C85.0806 67.6489 85.6559 67.2711 86.32 67.1433C86.4783 67.1141 86.6394 67.0988 86.7978 67.0988Z" fill="#FF2B85"/>
<path d="M69.6206 98.8136C69.8486 98.8136 70.0762 98.7233 70.2458 98.5427C70.5653 98.1981 70.5487 97.6577 70.2041 97.3369L65.6277 93.0675C65.2777 92.7451 64.7414 92.7646 64.4191 93.1091C64.0994 93.4537 64.1162 93.9942 64.4608 94.315L69.0371 98.5843C69.2038 98.7385 69.4122 98.8136 69.6206 98.8136Z" fill="#FF2B85"/>
<path d="M116.451 81.0945C116.923 81.0945 117.304 80.7125 117.304 80.2416V73.6952C117.304 73.2242 116.923 72.8421 116.451 72.8421C115.979 72.8421 115.598 73.2242 115.598 73.6952V80.2416C115.598 80.7125 115.979 81.0945 116.451 81.0945Z" fill="#FF2B85"/>
<path d="M115.603 127.432C115.901 127.432 116.192 127.275 116.348 126.995C116.398 126.905 117.596 124.756 118.515 122.113C118.671 121.669 118.435 121.181 117.99 121.027C117.54 120.87 117.057 121.109 116.904 121.552C116.034 124.047 114.87 126.141 114.859 126.162C114.628 126.573 114.775 127.093 115.187 127.323C115.317 127.397 115.462 127.432 115.603 127.432Z" fill="#FF2B85"/>
<path d="M56.9669 186.111C59.3288 186.111 61.9683 185.324 63.5189 182.659C63.7579 182.252 63.6188 181.729 63.2131 181.492C62.8075 181.254 62.2851 181.392 62.0462 181.8C59.6399 185.924 53.9244 183.901 53.8689 183.883C53.4215 183.72 52.938 183.948 52.7741 184.393C52.613 184.836 52.8435 185.325 53.2853 185.486C54.2079 185.822 55.5361 186.111 56.9669 186.111Z" fill="#FF2B85"/>
<path d="M110.663 168.109C110.707 168.109 110.755 168.106 110.802 168.098C110.91 168.079 113.536 167.625 115.37 165.059C116.984 162.805 117.473 159.692 116.82 155.809C116.743 155.345 116.293 155.027 115.837 155.109C115.373 155.187 115.059 155.627 115.136 156.093C115.712 159.512 115.323 162.193 113.983 164.066C112.555 166.061 110.546 166.41 110.524 166.414C110.06 166.489 109.743 166.928 109.821 167.393C109.888 167.811 110.252 168.109 110.663 168.109Z" fill="#FF2B85"/>
<path d="M66.317 126.073C66.6475 126.073 66.9615 125.88 67.1006 125.556C67.2866 125.124 67.0865 124.621 66.656 124.435C56.2612 119.953 44.3356 120.175 43.8241 120.189C43.3519 120.2 42.9796 120.591 42.9907 121.062C43.0018 121.534 43.388 121.945 43.8631 121.895C43.9827 121.898 55.9222 121.666 65.9779 126.002C66.0891 126.049 66.2029 126.073 66.317 126.073Z" fill="#F8C1D9"/>
<path d="M95.0754 119.417C95.2643 119.417 95.4559 119.354 95.6144 119.227C95.7394 119.124 98.7514 116.662 101.305 113.337C101.591 112.963 101.522 112.427 101.146 112.141C100.771 111.854 100.238 111.924 99.949 112.298C97.5234 115.457 94.5668 117.877 94.5363 117.901C94.1722 118.198 94.1166 118.736 94.4139 119.103C94.5807 119.31 94.828 119.417 95.0754 119.417Z" fill="#F8C1D9"/>
<path d="M6.1427 129.67C6.1427 129.67 5.85767 129.614 5.77718 129.8C5.29148 130.925 3.94552 135.046 9.05933 137.376C14.1084 139.677 19.0189 143.261 21.2071 146.279C23.3951 149.298 25.055 151.863 25.055 151.863C25.055 151.863 30.1049 151.646 35.2007 147.001C35.2007 147.001 32.9023 143.865 33.0531 138.583C33.1542 135.042 32.4413 132.383 31.9605 131.015C31.7618 130.45 31.1205 130.183 30.5732 130.426C27.6488 131.727 18.8711 135.353 14.7561 133.981C9.77606 132.321 6.1427 129.67 6.1427 129.67Z" fill="#FF2B85"/>
<path d="M25.055 152.715H25.0911C25.3105 152.706 30.5121 152.431 35.7747 147.632C36.0943 147.339 36.1443 146.851 35.8887 146.498C35.8693 146.469 33.7658 143.502 33.9048 138.607C34.0131 134.887 33.2379 132.076 32.7654 130.731C32.5961 130.244 32.2239 129.843 31.7457 129.638C31.2651 129.427 30.7122 129.43 30.2259 129.646C24.8883 132.02 18.0836 134.192 15.0243 133.171C10.2397 131.576 6.68292 129.006 6.64683 128.981C6.54685 128.907 6.43012 128.856 6.30794 128.832C5.73 128.717 5.19919 128.981 4.99351 129.461C3.77102 132.289 4.10432 136.056 8.70577 138.153C13.6712 140.416 18.4169 143.882 20.5148 146.78C22.6683 149.746 24.3215 152.3 24.3381 152.326C24.4965 152.569 24.7661 152.715 25.055 152.715ZM34.0938 146.839C30.3454 150.03 26.7388 150.787 25.4829 150.961C24.9133 150.095 23.5489 148.054 21.8984 145.779C19.6395 142.662 14.6241 138.974 9.41149 136.6C5.77713 134.942 5.86336 132.35 6.31339 130.82C7.60548 131.67 10.6368 133.508 14.4853 134.791C18.8032 136.231 27.4196 132.765 30.9206 131.205L31.1539 131.298C31.5875 132.53 32.2988 135.112 32.1986 138.559C32.0819 142.708 33.3936 145.602 34.0938 146.839Z" fill="#FF2B85"/>
<path d="M96.5246 121.758C96.5246 121.758 94.2356 120.522 91.1986 118.563C85.9856 121.933 85.4753 126.806 85.4753 126.806C85.4753 126.806 89.2815 130.285 90.9494 132.585C92.9487 135.341 95.799 139.053 98.0692 141.149C101.993 144.77 109.917 145.374 109.615 137.376C109.615 137.376 111.97 133.754 109.623 130.472C107.276 127.19 96.5246 121.758 96.5246 121.758Z" fill="white"/>
<path d="M104.372 144.548C105.375 144.548 106.328 144.366 107.154 143.984C108.437 143.393 110.549 141.782 110.477 137.598C111.002 136.661 112.633 133.215 110.319 129.977C107.893 126.585 97.5038 121.297 96.9201 121.002C96.7534 120.91 94.5335 119.696 91.6604 117.847C91.3825 117.664 91.0184 117.664 90.7351 117.847C85.2447 121.397 84.65 126.502 84.625 126.718C84.5973 126.987 84.7 127.254 84.9 127.437C84.9361 127.471 88.6622 130.884 90.2571 133.086C92.2798 135.871 95.1751 139.641 97.4899 141.776C99.4127 143.55 102.03 144.548 104.372 144.548ZM91.2102 119.585C93.9999 121.361 96.0311 122.461 96.1199 122.509C96.1255 122.512 96.1339 122.516 96.1394 122.519C99.0792 124.004 107.104 128.418 108.929 130.969C110.913 133.745 108.921 136.88 108.899 136.911C108.804 137.059 108.757 137.233 108.763 137.408C108.86 139.952 108.057 141.69 106.44 142.433C104.3 143.418 100.877 142.579 98.6456 140.52C96.4367 138.482 93.6163 134.807 91.6409 132.083C90.221 130.125 87.3786 127.415 86.3922 126.493C86.6284 125.363 87.5924 122.126 91.2102 119.585Z" fill="#FF2B85"/>
<path d="M109.616 138.229C109.774 138.229 109.935 138.186 110.08 138.093C110.474 137.837 110.588 137.308 110.332 136.912C108.482 134.049 103.541 131.312 103.333 131.197C102.916 130.971 102.4 131.119 102.174 131.533C101.947 131.945 102.097 132.465 102.511 132.691C102.558 132.718 107.282 135.338 108.899 137.84C109.063 138.092 109.338 138.229 109.616 138.229Z" fill="#FF2B85"/>
<path d="M52.4162 194.689C52.7312 194.5 56.1972 194.022 60.6738 193.468C60.6738 193.468 60.6798 193.467 60.6824 193.465L65.0352 190.952C65.0422 190.948 65.0508 190.948 65.0578 190.952L67.9119 192.6C67.916 192.602 67.921 192.603 67.9259 192.603C75.3672 191.739 82.6862 190.947 82.6995 190.946H87.7155C87.7281 190.946 87.7381 190.956 87.7381 190.968L87.8098 211.694C87.8098 211.709 87.8238 211.72 87.8381 211.716L104.367 207.466C104.369 207.465 104.373 207.465 104.376 207.466L122.889 210.244C122.9 210.246 122.908 210.255 122.908 210.267V224.339C122.908 224.347 122.904 224.354 122.897 224.359L107.548 233.22C107.529 233.231 107.536 233.26 107.558 233.262L116.061 233.959C116.073 233.96 116.082 233.97 116.082 233.982L116.066 247.875C116.069 247.958 116.069 248.04 116.066 248.122L116.066 248.25H116.045C115.841 250.969 112.475 253.626 105.474 254.051L105.47 254.051C99.5664 253.349 96.4415 251.095 95.9849 248.641C93.4822 243.033 87.2043 244.973 87.1752 244.982C87.1734 244.983 87.1742 244.983 87.1742 244.983L65.0581 257.752C65.0511 257.756 65.0424 257.756 65.0353 257.752L7.19664 224.359C7.18962 224.354 7.18533 224.347 7.18533 224.339V210.263C7.18533 210.253 7.17902 210.249 7.18819 210.246C7.6027 210.106 51.4743 195.254 52.4162 194.689Z" fill="#F8C1D9"/>
<path d="M65.0471 258.604C65.1833 258.604 65.3195 258.575 65.4388 258.515L87.6009 245.723C87.6731 245.72 93.0469 244.137 95.2031 248.988C95.7283 251.925 99.546 254.205 105.359 254.898C105.423 254.906 105.481 254.91 105.542 254.901C113.411 254.421 116.543 251.319 116.879 248.504C116.904 248.424 116.918 248.339 116.918 248.25C116.92 248.04 116.923 247.931 116.918 247.818L116.934 233.983C116.934 233.757 116.834 233.528 116.676 233.368C116.515 233.207 116.29 233.107 116.062 233.107L110.277 232.63L123.325 225.098C123.589 224.945 123.761 224.645 123.761 224.339V210.267C123.761 209.836 123.422 209.451 122.995 209.397L104.503 206.621V206.623C104.317 206.593 104.145 206.623 103.986 206.702L88.6596 210.624L88.59 190.965C88.59 190.494 88.1843 190.093 87.7147 190.093H82.6996C82.6022 190.098 75.4529 190.871 68.1008 191.724L65.4863 190.214C65.186 190.043 64.7943 190.068 64.5246 190.269L60.3873 192.649C52.7575 193.591 52.2545 193.794 51.999 193.943C50.6345 194.585 23.0987 203.957 6.99957 209.41C6.58018 209.55 6.25233 210.024 6.35503 210.453L6.33282 224.339C6.33282 224.663 6.52734 224.977 6.81624 225.122L64.6081 258.491C64.7414 258.567 64.8944 258.604 65.0471 258.604ZM89.5877 243.822C88.0537 243.822 86.9229 244.167 86.8952 244.177L65.0417 256.776L8.03886 223.86V210.859C21.4677 206.311 50.7542 196.366 52.7657 195.464V195.465C52.9741 195.392 54.1718 195.133 60.7791 194.315C60.8736 194.302 60.9766 194.272 61.0625 194.229L65.0471 191.931L67.4839 193.338C67.6145 193.413 67.7757 193.456 67.9256 193.456C75.428 192.591 82.7133 191.803 82.7884 191.795L86.8868 191.799L86.9561 211.696C86.9561 211.966 87.0925 212.237 87.309 212.398C87.5259 212.556 87.8314 212.615 88.0816 212.533L104.414 208.336L122.055 210.982V223.867L107.12 232.48C106.795 232.668 106.62 233.072 106.706 233.439C106.79 233.805 107.126 234.09 107.504 234.114L115.226 234.748L115.212 247.874V248.071C115.203 248.108 115.198 248.147 115.195 248.186C115.031 250.388 111.966 252.786 105.495 253.193C99.6182 252.479 97.1619 250.295 96.8231 248.483C95.1086 244.603 91.8937 243.822 89.5877 243.822Z" fill="#FF2B85"/>
<path d="M65.0352 176.847C65.0422 176.843 65.0508 176.843 65.0578 176.847L87.1748 189.616C87.1748 189.616 90.5734 193.254 80.8381 194.703C76.5707 194.967 72.6518 196.785 71.4536 200.219C71.4521 200.223 71.4516 200.23 71.4516 200.23C72.6117 206.429 83.3968 207.886 89.0821 204.603C90.7751 203.626 91.7326 202.405 91.9698 201.13C94.4725 195.522 100.75 197.462 100.779 197.471L100.782 197.473L122.874 210.227C122.889 210.236 122.889 210.258 122.874 210.267L100.78 223.023C100.78 223.023 97.3812 226.661 107.116 228.109C111.384 228.374 115.303 230.191 116.501 233.625C116.503 233.629 116.503 233.636 116.502 233.64C115.343 239.835 104.558 241.292 98.8726 238.01C97.1796 237.032 96.2221 235.811 95.9849 234.536C93.482 228.928 87.2043 230.868 87.1752 230.877C87.1752 230.877 87.1742 230.878 87.1727 230.879L65.0581 243.647C65.0511 243.651 65.0424 243.651 65.0354 243.647L7.21928 210.266C7.20424 210.258 7.20424 210.236 7.21928 210.227L65.0352 176.847Z" fill="#FFE7B3"/>
<path d="M65.0471 244.499C65.1833 244.499 65.3195 244.47 65.4388 244.41L87.6009 231.617C87.6704 231.616 93.0497 230.043 95.2031 234.884C95.442 236.27 96.5814 237.673 98.4457 238.749C102.297 240.972 108.387 241.181 112.633 239.227C115.276 238.011 116.904 236.134 117.34 233.797C117.368 233.647 117.357 233.489 117.307 233.344C116.09 229.85 112.3 227.575 107.171 227.258C102.258 226.523 101.296 225.274 101.113 224.771C100.946 224.307 101.21 223.865 101.344 223.685L123.303 211.006C123.567 210.853 123.739 210.553 123.739 210.247C123.739 209.947 123.572 209.65 123.314 209.496L101.21 196.734C100.982 196.638 93.9916 194.511 91.188 200.782C90.9323 202.043 90.0765 203.044 88.6539 203.865C85.2946 205.804 79.7514 205.979 76.0335 204.269C74.6053 203.612 72.83 202.395 72.3353 200.295C73.5884 197.119 77.5506 195.763 80.8905 195.554C85.3835 194.89 87.8342 193.702 88.4566 191.917C88.8957 190.665 88.2483 189.515 87.801 189.034C87.7426 188.972 87.676 188.919 87.6035 188.877L65.4862 176.108C65.2165 175.954 64.872 175.957 64.6081 176.108L6.79114 209.487C6.519 209.646 6.34396 209.963 6.355 210.278C6.36603 210.567 6.53275 210.85 6.78011 210.999L64.6081 244.385C64.7414 244.462 64.8944 244.499 65.0471 244.499ZM89.6209 229.702C88.1453 229.702 87.0396 230.025 86.9284 230.06L65.0416 242.671L8.88904 210.244L65.0498 177.826L86.6145 190.278C86.7422 190.454 87.0117 190.899 86.8422 191.364C86.6589 191.867 85.6975 193.118 80.7127 193.858C75.6557 194.169 71.8658 196.445 70.6486 199.938C70.6153 200.033 70.5987 200.135 70.5987 200.233C71.0489 202.727 72.677 204.604 75.3196 205.82C79.5511 207.773 85.6531 207.566 89.5098 205.343C91.3741 204.264 92.5162 202.86 92.808 201.285C94.9168 196.631 100.299 198.216 100.527 198.287L121.202 210.247L100.352 222.284C100.279 222.326 100.213 222.379 100.157 222.441C99.7071 222.922 99.0626 224.071 99.4987 225.323C100.121 227.108 102.572 228.296 106.992 228.954C110.402 229.168 114.364 230.523 115.617 233.697C115.125 235.801 113.347 237.019 111.919 237.676C108.198 239.384 102.658 239.206 99.3015 237.271C97.8815 236.451 97.0231 235.452 96.823 234.379C95.103 230.488 91.9161 229.702 89.6209 229.702Z" fill="#FF2B85"/>
<path d="M105.087 239.788V253.848C105.087 253.862 105.074 253.872 105.06 253.87L101.121 253.225L101.114 253.223L96.8937 250.797C96.89 250.795 96.887 250.792 96.887 250.792L95.4558 248.075L95.4535 248.071L93.3423 245.771C93.3394 245.768 93.336 245.766 93.3322 245.765L90.1331 244.755L88.5178 244.77V230.665H90.3746L93.4281 231.724L95.0504 233.165L96.7999 236.591C96.7999 236.591 96.8036 236.597 96.8063 236.599L99.9667 239.029C99.9667 239.029 99.9736 239.033 99.9775 239.034L105.067 239.766C105.078 239.767 105.087 239.777 105.087 239.788Z" fill="#FF2B85"/>
<path d="M65.0466 243.666V257.719C65.0466 257.736 65.0277 257.747 65.0125 257.739L7.19648 224.358C7.18932 224.354 7.18516 224.347 7.18516 224.339L7.18502 210.286C7.18502 210.269 7.20407 210.258 7.21911 210.266L65.0352 243.647C65.0422 243.651 65.0466 243.658 65.0466 243.666Z" fill="#FF2B85"/>
<path d="M79.1039 207.185C79.5762 207.185 79.957 206.803 79.957 206.332V194.78C79.957 194.309 79.5762 193.927 79.1039 193.927C78.6316 193.927 78.251 194.309 78.251 194.78V206.332C78.251 206.803 78.6316 207.185 79.1039 207.185Z" fill="#FF2B85"/>
<path d="M63.3627 165.383L96.261 152.095C96.2716 152.091 96.2775 152.08 96.2746 152.069L92.8466 138.214C92.8446 138.206 92.8472 138.198 92.8531 138.192L98.5265 132.834L98.5318 132.831L115.227 124.312C115.232 124.31 115.237 124.309 115.243 124.311L166.983 138.012L166.986 138.012L171.514 138.603L171.523 138.603L175.652 137.58C175.665 137.577 175.677 137.585 175.68 137.597L179.062 151.253C179.064 151.261 179.061 151.27 179.055 151.275L160.658 168.984L160.656 168.986C160.63 169.002 155.002 172.394 151.225 167.553C150.688 166.372 149.465 165.417 147.587 164.875C147.125 164.742 146.634 164.656 146.137 164.584L149.498 178.178C149.525 178.254 149.538 178.33 149.554 178.405L149.566 178.455C149.703 179.211 149.338 179.881 149.338 179.881L130.939 197.592C130.933 197.597 130.925 197.599 130.917 197.597L106.382 190.519C106.382 190.519 106.381 190.518 106.379 190.518C106.349 190.517 99.7884 190.142 98.7071 196.187C98.8543 198.688 96.3428 201.641 90.7396 203.742L90.736 203.743C83.8157 205.008 79.7699 203.144 79.0593 200.44L79.0554 200.44L79.0498 200.417C79.0458 200.402 79.042 200.386 79.0382 200.37L75.6467 186.674C75.6439 186.663 75.6489 186.652 75.6584 186.648L81.9637 183.516C81.9825 183.507 81.9801 183.48 81.96 183.474L66.7474 179.085C66.7396 179.083 66.7336 179.077 66.7316 179.069L63.3492 165.409C63.3463 165.398 63.3522 165.387 63.3627 165.383Z" fill="#F8C1D9"/>
<path d="M86.5311 205.012C87.8176 205.012 89.2653 204.879 90.8878 204.582C90.9685 204.568 91.0491 204.54 91.1214 204.505C96.5619 202.47 99.7461 199.329 99.5599 196.138C100.477 191.131 106.09 191.353 106.334 191.371L130.68 198.416C130.966 198.505 131.319 198.418 131.541 198.195L149.93 180.496C149.994 180.434 150.047 180.365 150.088 180.289C150.138 180.193 150.591 179.327 150.405 178.303C150.361 178.087 150.336 177.988 150.3 177.887L147.285 165.676C147.307 165.682 147.329 165.688 147.352 165.694C148.927 166.148 149.997 166.914 150.447 167.906C154.77 173.489 161.039 169.752 161.1 169.715L179.647 151.89C179.897 151.648 179.983 151.259 179.853 150.937L176.507 137.391C176.396 136.95 175.932 136.65 175.485 136.744L171.47 137.736L167.096 137.166L115.462 123.485C115.253 123.432 115.028 123.457 114.845 123.549L98.1428 132.07C98.0706 132.107 97.9983 132.158 97.94 132.214L92.2661 137.571C92.0105 137.811 91.9244 138.206 92.055 138.531L95.2753 151.575L63.0437 164.591C62.6492 164.751 62.4185 165.202 62.5213 165.616L65.9029 179.274C65.9722 179.558 66.2002 179.802 66.478 179.895L79.6708 183.702L75.2778 185.883C74.9193 186.061 74.7221 186.492 74.8195 186.881L78.2092 200.577C78.8094 202.842 81.3378 205.011 86.5311 205.012ZM90.4461 202.94C83.9331 204.054 80.4378 202.322 79.8849 200.222L76.6338 187.109L82.3438 184.28C82.6577 184.123 82.8578 183.766 82.8273 183.415C82.7939 183.065 82.5328 182.75 82.1938 182.653L67.4422 178.398L64.3526 165.904L96.5814 152.888C96.9757 152.728 97.2065 152.275 97.1035 151.862L93.7915 138.478L99.0265 133.536L115.331 125.217L166.763 138.836L171.403 139.449C171.473 139.449 171.661 139.448 171.728 139.431L175.051 138.609L178.116 150.993L160.066 168.369C160.005 168.38 155.162 171.222 151.897 167.028C151.339 165.738 149.894 164.651 147.824 164.055C147.327 163.91 146.796 163.817 146.26 163.739C145.976 163.7 145.695 163.801 145.504 164.01C145.315 164.222 145.24 164.513 145.309 164.788L148.669 178.383L149.555 178.405L148.721 178.59C148.78 178.915 148.688 179.225 148.627 179.379L130.691 196.645L106.618 189.7C106.37 189.65 99.0821 189.25 97.8676 196.038C97.965 198.094 96.0757 200.828 90.4461 202.94Z" fill="#FF2B85"/>
<path d="M110.88 143.288C108.891 140.243 104.65 139.421 100.444 140.19C90.6463 141.124 93.0709 136.776 93.0709 136.776L111.47 119.065C111.476 119.059 111.484 119.057 111.492 119.059L175.636 137.564C175.653 137.569 175.659 137.59 175.646 137.602L157.268 155.293L157.267 155.294C157.239 155.311 151.612 158.703 147.835 153.861C146.797 151.578 143.194 150.139 137.249 150.899L137.244 150.901C126.978 154.128 126.024 160.783 132.333 162.603C134.212 163.145 136.398 163.173 138.574 162.775C148.372 161.841 145.948 166.189 145.948 166.189L127.549 183.9C127.543 183.906 127.534 183.908 127.527 183.906L102.991 176.828C102.99 176.827 102.99 176.827 102.99 176.827C102.958 176.825 96.3979 176.451 95.3167 182.496C95.464 184.999 92.9492 187.954 87.3364 190.055C87.3364 190.055 87.3326 190.056 87.3309 190.056C76.7458 191.992 72.7958 186.552 77.5271 181.997C78.9355 180.642 80.8558 179.597 82.9665 178.933C92.0683 175.187 87.8948 172.473 87.8948 172.473L63.3823 165.401C63.3654 165.396 63.3602 165.375 63.3727 165.363L81.7509 147.672L81.7532 147.67C81.7793 147.654 87.4067 144.262 91.184 149.104C91.7205 150.285 92.9437 151.24 94.8219 151.782C101.13 153.601 111.248 149.595 110.885 143.303L110.88 143.288Z" fill="white"/>
<path d="M83.2079 191.316C84.4777 191.316 85.9003 191.186 87.4842 190.896C93.1665 188.783 96.3562 185.64 96.17 182.446C97.0869 177.439 102.697 177.663 102.944 177.68L127.29 184.726C127.582 184.816 127.932 184.725 128.152 184.504L146.54 166.804C146.601 166.746 146.654 166.678 146.693 166.604C147.015 166.029 147.365 164.759 146.64 163.649C145.604 162.067 142.936 161.507 138.493 161.925C136.293 162.324 134.27 162.271 132.57 161.783C130.466 161.176 129.249 159.987 129.23 158.521C129.207 156.591 131.35 153.657 137.463 151.726C143.384 151.027 146.293 152.54 147.057 154.216C151.386 159.795 157.649 156.062 157.71 156.023L176.238 138.218C176.449 138.014 176.549 137.694 176.488 137.407C176.427 137.109 176.196 136.85 175.907 136.754L111.727 118.24C111.488 118.17 111.202 118.215 110.997 118.355L92.4801 136.161C92.4189 136.219 92.3662 136.287 92.3273 136.361C92.0049 136.936 91.6548 138.207 92.38 139.317C93.4108 140.899 96.0784 141.465 100.524 141.04C103.886 140.43 108.06 140.794 110.041 143.571C110.049 145.752 108.629 147.347 107.407 148.321C104.211 150.877 98.7902 152.03 95.0587 150.962C93.4832 150.508 92.4134 149.744 91.9632 148.752C88.5039 144.285 83.4913 145.628 81.313 146.939L62.7799 164.748C62.5547 164.966 62.4603 165.311 62.5435 165.612C62.627 165.909 62.877 166.154 63.1743 166.229L87.5093 173.249C87.676 173.389 88.0426 173.756 87.9925 174.249C87.9369 174.782 87.3036 176.225 82.6411 178.144C80.3903 178.848 78.3954 179.976 76.9366 181.383C74.8082 183.43 74.147 185.842 75.1695 187.835C76.1086 189.669 78.6761 191.316 83.2079 191.316ZM102.775 175.992C101.121 175.992 95.5254 176.477 94.4779 182.346C94.5752 184.404 92.6802 187.142 87.0369 189.257C80.86 190.372 77.5701 188.777 76.6894 187.056C76.0198 185.751 76.5421 184.131 78.1204 182.613C79.3902 181.388 81.1545 180.397 83.2219 179.747C87.423 178.023 89.5152 176.28 89.6931 174.397C89.8153 173.077 88.9124 172.117 88.3623 171.757C88.2899 171.711 88.2122 171.675 88.1316 171.653L64.9998 164.98L82.3437 148.288C82.3993 148.279 87.2339 145.437 90.5128 149.63C91.0714 150.918 92.5162 152.006 94.5862 152.602C98.8541 153.835 104.828 152.568 108.474 149.656C110.746 147.84 111.875 145.627 111.738 143.254C111.73 143.104 111.677 142.946 111.594 142.821C109.568 139.724 105.35 138.425 100.291 139.35C95.3308 139.813 94.114 138.836 93.8166 138.393C93.5415 137.983 93.6914 137.489 93.7778 137.282L111.727 120.002L174.017 137.985L156.676 154.677C156.618 154.687 151.775 157.532 148.507 153.336C147.285 150.595 142.998 149.303 137.14 150.053C137.046 150.064 136.946 150.095 136.862 150.137C129.96 152.296 127.493 155.902 127.524 158.541C127.551 160.78 129.26 162.604 132.097 163.423C134.048 163.985 136.343 164.05 138.727 163.614C143.678 163.146 144.907 164.127 145.204 164.573C145.479 164.983 145.329 165.476 145.243 165.683L127.299 182.957L103.228 176.008C103.194 176.003 103.033 175.992 102.775 175.992Z" fill="#FF2B85"/>
<path d="M127.542 183.922L130.92 197.563C130.924 197.58 130.909 197.595 130.892 197.59L110.049 191.577L105.725 190.528C105.716 190.526 105.71 190.52 105.708 190.512L102.33 176.872C102.326 176.855 102.342 176.84 102.359 176.845L127.527 183.906C127.534 183.908 127.541 183.914 127.542 183.922Z" fill="#FF2B85"/>
<path d="M89.9507 188.857L93.3291 202.5C93.3323 202.513 93.3243 202.526 93.3118 202.528L85.8022 204.108C85.7977 204.108 85.7932 204.108 85.789 204.106L79.6558 201.639C79.6498 201.636 79.6451 201.632 79.6428 201.625L78.5781 198.512L78.5776 198.51L76.1996 188.907C76.1952 188.89 76.2125 188.874 76.2296 188.881L80.9515 190.609L80.9599 190.61L85.795 190.484C85.7976 190.484 85.8002 190.483 85.8026 190.482L89.9202 188.841C89.9331 188.836 89.9473 188.843 89.9507 188.857Z" fill="#FF2B85"/>
<path d="M87.6174 176.305L81.5009 179.474L81.4993 179.475L77.5356 181.992C77.5302 181.995 77.5236 181.996 77.5176 181.995L66.7477 179.085C66.7398 179.083 66.7337 179.077 66.7317 179.069L63.3538 165.429C63.3497 165.411 63.3654 165.396 63.3823 165.401L83.1813 171.113L87.4676 172.349L88.77 173.661L88.5474 175.196L87.6174 176.305Z" fill="#FF2B85"/>
<path d="M138.164 150.367L139.596 150.64L143.542 151.023C143.542 151.023 143.546 151.024 143.548 151.024L146.382 152.08L146.389 152.083L148.539 154.651L149.936 156.175L153.303 156.801C153.303 156.801 153.311 156.802 153.315 156.801L156.008 155.875L159.392 169.54C159.396 169.554 159.386 169.567 159.371 169.568L154.361 169.841C154.355 169.841 154.35 169.839 154.345 169.835L149.861 165.946C149.861 165.946 149.857 165.944 149.855 165.943L146.72 164.68L145.465 163.631L141.237 162.724C141.228 162.722 141.221 162.715 141.219 162.707L138.164 150.367Z" fill="#FF2B85"/>
<path d="M93.3292 140.164L96.2752 152.071C96.2776 152.081 96.2865 152.088 96.2968 152.088L99.6339 152.148L99.6414 152.147L106.602 149.907C106.606 149.906 106.609 149.904 106.609 149.904L110.168 146.362C110.172 146.357 110.175 146.351 110.175 146.345L110.177 142.777C110.177 142.77 110.174 142.763 110.169 142.759L107.399 140.604C107.399 140.604 107.392 140.599 107.388 140.599L102.082 139.977H102.077L96.4294 140.47C96.4253 140.471 96.421 140.47 96.4174 140.468L93.0721 138.81L93.3292 140.164Z" fill="#FF2B85"/>
<path d="M98.4485 198.939C98.5151 198.939 98.5847 198.93 98.6541 198.912C99.1125 198.799 99.3904 198.337 99.2765 197.879L95.8395 183.999C95.7284 183.545 95.2726 183.259 94.8056 183.377C94.3473 183.49 94.0694 183.952 94.1834 184.411L97.6206 198.29C97.7148 198.677 98.0652 198.939 98.4485 198.939Z" fill="#FF2B85"/>
<path d="M34.5069 208.792L52.402 198.791L35.5331 189.052L17.6383 199.053L34.5069 208.792Z" fill="white"/>
<path d="M34.5075 209.644C34.6522 209.644 34.7939 209.608 34.9245 209.536L52.8184 199.536C53.0853 199.386 53.252 199.104 53.2548 198.797C53.2576 198.49 53.0937 198.205 52.8297 198.052L35.9609 188.313C35.6997 188.16 35.3828 188.16 35.1163 188.308L17.222 198.308C16.9555 198.458 16.7888 198.74 16.7859 199.047C16.7832 199.354 16.947 199.639 17.211 199.792L34.0798 209.53C34.213 209.607 34.3603 209.644 34.5075 209.644ZM50.6735 198.779L34.5132 207.809L19.3672 199.065L35.5275 190.035L50.6735 198.779Z" fill="#FF2B85"/>
</g>
<defs>
<clipPath id="clip0_245_3453">
<rect width="179.913" height="270.547" fill="white" transform="matrix(-1 0 0 1 179.913 0)"/>
</clipPath>
</defs>
</svg>
