<?xml version="1.0" encoding="utf-8"?>
<!-- Generator: Adobe Illustrator 28.3.0, SVG Export Plug-In . SVG Version: 6.00 Build 0)  -->
<svg version="1.1" id="圖層_1" xmlns="http://www.w3.org/2000/svg" xmlns:xlink="http://www.w3.org/1999/xlink" x="0px" y="0px"
	 viewBox="0 0 100 100" style="enable-background:new 0 0 100 100;" xml:space="preserve">
<style type="text/css">
	.st0{clip-path:url(#SVGID_00000067931540214207774150000000116273782346021784_);}
	.st1{fill-rule:evenodd;clip-rule:evenodd;fill:#999999;}
	.st2{fill-rule:evenodd;clip-rule:evenodd;fill:#363636;}
	.st3{fill:#FF2B85;}
</style>
<g>
	<defs>
		<rect id="SVGID_1_" x="6.5" width="87" height="100"/>
	</defs>
	<clipPath id="SVGID_00000070078474983600866680000002807288952314883977_">
		<use xlink:href="#SVGID_1_"  style="overflow:visible;"/>
	</clipPath>
	<g style="clip-path:url(#SVGID_00000070078474983600866680000002807288952314883977_);">
		<path class="st1" d="M39.8,41.4c-0.3,0.1-7.8,6.5-7.8,6.5s-6.3,4.9-7,7.2c-0.7,2.3-0.1,3-2.4,4.1c-2.3,1.1-7.7,5.8-7.7,5.8
			s-7.2,7.6-7.1,9c0.1,1.4,2.1,3.5,7.1,1.8c5-1.7,3.2-4.8,5.9-5.5c2.6-0.7,3.8-4.9,7.1-5.6c3.3-0.8,2.8-3.1,2.8-3.1l5.6-5.2
			l10.5-7.2L39.8,41.4z"/>
		<path class="st1" d="M69.3,54.9l0.8,9.3c0,0-0.5,5.8,1.3,8.3c1.8,2.5,2.3,3.3,0.8,6.5c-1.4,3.2-0.1,10.6,0.8,13.4
			c0.9,2.8,1.2,8.6,5.2,6.1c4-2.5,3.4-5.1,3.4-5.1s0.5-5.3-0.4-7.8c-0.8-2.5,0.2-4.7-0.3-5.8c-0.5-1-1-6.1,0.2-8.2
			c1.2-2.1,0-17.7,0-17.7L69.3,54.9z"/>
		<path class="st2" d="M34.6,32.4l1.6,8.5l6.3,5.8l5.3,5.4l5.2,1.3l3.5,0c0,0,3.8-1.9,3.5-2.8c-0.3-0.9-1.5-1.9-1.5-1.9
			s0.2-15.8,0.2-16c0-0.2,4.3-4.6,5.1-4.7c0.8-0.1-0.8-2-0.8-2l-7.2-6l-7.7,2.9L34.6,32.4z"/>
		<path class="st2" d="M70.7,27.7l-8.9,1.3l-2.6,4l-0.3,15.6l1,3.2c0,0,5.6,3.1,5.8,3.4c0.2,0.3,1.4,1.3,1.4,1.3l14,0.2l2.7-0.5
			l5.2-1.7c0,0,3.1-0.1,3.2-0.8c0.1-0.7-0.8-17.4-0.8-17.4s-1.3-4.9-3.3-6.1c-2-1.2-9.2-2.9-9.2-2.9L70.7,27.7z"/>
		<path class="st3" d="M56.6,54.7c-0.5,0.2-1.1,0.2-1.7,0.3c-0.7,0-2.3-0.1-3.2-1.2c-0.2-0.2-1-0.4-1.7-0.5c-1-0.2-2.2-0.4-3.4-1
			c-1.5-0.7-3.5-2.8-5.4-4.8c-1.3-1.3-2.4-2.5-3.2-3.1c-0.8-0.6-1.3-0.8-1.7-0.9c-1-0.3-1.6-0.9-1.3-2.3c0.1-0.5-0.5-2.4-0.8-3.6
			c-0.9-3.3-1.2-4.6-0.5-5.3c0.9-1,10.1-8.1,15.1-11c5.5-3.1,7.8-1.9,9.7-0.5c1.5,1.2,5.3,4.6,5.4,4.7c0.4,0.4,0.5,1.1,0.1,1.5
			c-0.4,0.4-1.1,0.5-1.5,0.1c0,0-3.9-3.5-5.3-4.6c-1.2-0.9-2.7-2-7.3,0.6c-4.8,2.8-13,9.1-14.4,10.3c0,0.6,0.5,2.3,0.8,3.5
			c0.6,2.2,1,3.6,0.9,4.5c0.5,0.2,1.2,0.5,2.1,1.1c1,0.7,2.2,2,3.5,3.4c1.7,1.8,3.6,3.8,4.8,4.4c0.9,0.5,1.9,0.6,2.8,0.8
			c1.2,0.2,2.4,0.4,3.1,1.3c0.1,0.1,0.6,0.4,1.4,0.4c0.9,0,1.4-0.3,1.5-0.4c0.4-0.5,1-0.6,1.5-0.2c0.5,0.4,0.6,1,0.2,1.5
			C57.8,54.1,57.3,54.5,56.6,54.7z"/>
		<path class="st3" d="M8.7,76.9c-0.2,0.1-0.4,0.1-0.5,0c-0.8-0.2-1.3-0.6-1.6-1.3c-0.6-1.7,0.9-3.9,1.8-5.1c0.9-1.1,1.2-1.6,1.4-2
			c0.3-0.4,0.5-0.8,1.3-1.8c1.3-1.5,1.9-1.9,2.9-2.5c0.3-0.2,0.6-0.4,1.1-0.7c1.1-0.8,1.8-1.5,2.5-2.3c0.3-0.3,0.6-0.6,0.8-0.9
			c1-1,2.4-1.5,3.8-2.1c0.4-0.1,0.8-0.3,1.1-0.4c0.3-0.1,0.4-1.1,0.4-1.8c0.1-1,0.2-2.2,0.8-3c1.1-1.4,9.3-8.1,10.3-8.9
			c0.5-0.4,1.2-0.3,1.5,0.2c0.4,0.5,0.3,1.2-0.2,1.5c-3.5,2.8-9.3,7.7-10,8.6c-0.3,0.3-0.3,1.1-0.4,1.8c-0.1,1.3-0.3,2.9-1.7,3.6
			c-0.4,0.2-0.8,0.3-1.2,0.5c-1.2,0.4-2.4,0.9-3,1.5c-0.3,0.3-0.5,0.6-0.8,0.8c-0.7,0.8-1.5,1.7-2.9,2.7c-0.4,0.3-0.8,0.5-1.1,0.7
			c-0.9,0.6-1.3,0.8-2.4,2.1c-0.7,0.9-0.9,1.2-1.1,1.6c-0.3,0.4-0.6,0.9-1.6,2.2c-1.2,1.5-1.5,2.6-1.5,2.9c0.5,0.2,0.9,0.7,0.8,1.3
			C9.4,76.4,9.1,76.7,8.7,76.9z"/>
		<path class="st3" d="M12.3,75.6L10.9,74c0,0,7.7-6.7,12.3-10.7c1.7-1.5,3.3-3.1,4.7-4.5c2.5-2.4,4.4-4.4,6.2-5.2
			c0.5-0.3,1.2,0,1.5,0.5c0.3,0.5,0,1.2-0.5,1.5c-1.5,0.7-3.4,2.6-5.6,4.8c-1.4,1.4-3,3-4.8,4.6C20,68.9,12.3,75.6,12.3,75.6z"/>
		<path class="st3" d="M14.3,76.8c-0.6,0.2-1.2-0.1-1.4-0.7s0.1-1.2,0.7-1.4c1-0.3,2.6-0.8,3.1-1.9c0.3-0.5,0.9-0.7,1.5-0.5
			s0.7,0.9,0.5,1.5C17.7,75.7,15.6,76.4,14.3,76.8z"/>
		<path class="st3" d="M22,71.5c-1.2,0.4-2.3,0.2-2.4,0.2c-0.6-0.1-1-0.6-0.9-1.2c0.1-0.6,0.6-1,1.2-0.9c0,0,1.5,0.2,2.2-0.6
			c0.3-0.4,0.6-0.9,0.9-1.5c0.9-1.6,1.8-3.2,3.4-3.2c0.8,0,3.3-1,3.5-2.7c0.1-0.6,0.6-1,1.2-0.9c0.6,0.1,1,0.6,0.9,1.2
			c-0.4,3-4,4.7-5.8,4.6c-0.3,0.1-1,1.4-1.4,2.1c-0.4,0.7-0.7,1.3-1.1,1.8C23.3,70.9,22.7,71.3,22,71.5z"/>
		<path class="st3" d="M34.3,60.3c-0.4,0.1-0.8,0-1.1-0.2c-0.4-0.4-0.5-1.1-0.1-1.5c0.2-0.2,3.7-4,6.2-5.6c2.1-1.3,2.6-1.8,2.6-1.8
			c0.4-0.4,1.1-0.4,1.5,0c0.4,0.4,0.5,1.1,0.1,1.5c-0.1,0.1-0.7,0.7-3,2.1c-2.2,1.4-5.7,5.2-5.7,5.2C34.6,60.1,34.4,60.2,34.3,60.3z
			"/>
		<path class="st3" d="M83.8,57.5c-1.3,0.4-3.4,0.2-5.9-0.2c-1.6-0.2-3.5-0.5-5.3-0.5c-1.7-0.1-2.8,0.2-3.7,0.4
			c-1.5,0.4-3,0.7-4.2-1.6c-0.5-0.9-1.8-1.6-3.1-2.3c-1.9-1-4-2.1-4-4.2c-0.1-1.6,0-5.1,0.1-8.4c0.1-2.7,0.1-5.4,0.1-7.1
			c0-3.9,3.5-5.9,6.9-6.6c1.9-0.4,6.5-0.4,6.7-0.4c0.6,0,1.1,0.5,1.1,1.1c0,0.6-0.5,1.1-1.1,1.1c0,0-4.6,0-6.3,0.4
			c-0.9,0.2-5.1,1.1-5.1,4.4c0,1.7-0.1,4.5-0.1,7.2c-0.1,3.3-0.2,6.8-0.1,8.3c0,0.9,1.5,1.6,2.9,2.4c1.6,0.8,3.3,1.7,4,3.2
			c0.3,0.5,0.9,0.7,1.7,0.5c1-0.2,2.4-0.6,4.3-0.5c1.9,0.1,3.8,0.3,5.5,0.5c2,0.3,4.3,0.6,5.1,0.2c0.6-0.3,1.2,0,1.4,0.5
			c0.3,0.5,0,1.2-0.5,1.4C84.1,57.4,84,57.4,83.8,57.5z"/>
		<path class="st3" d="M91.5,55.2c-0.4,0.1-0.7,0.2-1.2,0.1c-0.9,0-2.7,0.5-3.4,0.6c-0.6,0.2-1.2-0.1-1.4-0.7
			c-0.2-0.6,0.1-1.2,0.7-1.4c0.3-0.1,2.6-0.8,4.1-0.7c0.4,0,0.5-0.1,0.6-0.1c0.1-0.1,0.5-0.7,0.3-2.9c-0.1-0.8-0.2-1.7-0.3-2.8
			c-0.3-3.6-0.8-9-1.3-10.5c-0.2-0.6,0.1-1.2,0.7-1.4c0.6-0.2,1.2,0.1,1.4,0.7c0.6,1.7,1,6.8,1.4,10.9c0.1,1.1,0.2,2,0.3,2.8
			c0.2,2.3,0,3.8-0.8,4.6C92.3,54.8,91.9,55,91.5,55.2z"/>
		<path class="st3" d="M89.8,33.6c-0.6,0.2-1.2-0.1-1.4-0.7c-1.9-5.4-9.5-4.1-9.8-4.1c-0.6,0.1-1.2-0.3-1.3-0.9
			c-0.1-0.6,0.3-1.2,0.9-1.3c3.3-0.6,10.2-0.3,12.3,5.5C90.7,32.7,90.4,33.4,89.8,33.6C89.8,33.6,89.8,33.6,89.8,33.6z"/>
		<path class="st3" d="M57.3,30.6c-0.3,0.1-0.6,0.1-0.9-0.1c-1.7-1-5.4-3.5-4.8-5.8c0.3-0.9,1-1.6,2-1.8c1.9-0.5,4.5,0.6,6.7,2.9
			c0.4,0.4,0.4,1.1,0,1.5c-0.4,0.4-1.1,0.4-1.5,0c-2.2-2.2-3.9-2.5-4.6-2.3c-0.3,0.1-0.4,0.3-0.4,0.3c0,0.5,1.9,2.1,3.8,3.3
			c0.5,0.3,0.7,1,0.4,1.5C57.8,30.4,57.5,30.5,57.3,30.6z"/>
		<path class="st3" d="M83.4,35.6c-0.1,0-0.1,0-0.2,0c-0.6,0.1-1.5,0-2.6,0c-2-0.1-5-0.2-9.1,0.1c-5,0.5-7-0.8-7.9-2
			c-0.6-0.8-0.7-1.8-0.3-2.7c0.9-2,4-1.7,4.4-1.7c0.6,0.1,1,0.6,1,1.2c-0.1,0.6-0.6,1-1.2,1c-0.9-0.1-2,0.1-2.2,0.4
			c-0.1,0.1,0,0.3,0.1,0.5c0.5,0.7,2.3,1.4,5.9,1.1c4.2-0.4,7.3-0.2,9.4-0.1c1,0,1.8,0.1,2.3,0c0.6-0.1,1.1,0.4,1.2,1
			C84.3,35,83.9,35.5,83.4,35.6z"/>
		<path class="st3" d="M86.3,33.9c-0.1,0-0.3,0.1-0.4,0.1c-0.6,0-1.1-0.5-1-1.2c0-0.2,0-0.3-0.2-0.5c-0.7-0.6-2.5-0.9-3.4-0.8
			c-1.4,0.1-4.8,0.1-5,0.1c-0.6,0-1.1-0.5-1.1-1.1c0-0.6,0.5-1.1,1.1-1.1c0,0,3.4,0,4.8-0.1c0.9-0.1,3.7,0,5.1,1.4
			c0.6,0.6,0.9,1.3,0.9,2.2C87,33.4,86.7,33.8,86.3,33.9z"/>
		<path class="st3" d="M77.4,99.9c-0.2,0.1-0.4,0.1-0.5,0.1c-1.1,0.1-2-0.7-2.6-1.3c-0.1-0.1-0.3-0.3-0.5-0.4c-0.9-0.8-1-1.9-1.1-3
			c-0.1-1-0.2-2-0.8-3.1c-1.3-2.2-1.2-4.5-1.2-6.6c0-0.6,0-1.2,0-1.8c-0.2-2.7,0.8-6.6,1.7-8.3c0.1-0.2-0.6-1-1-1.5
			c-0.8-0.8-1.6-1.7-1.8-2.9c-0.2-1.9-0.7-12.2-0.8-12.7c0-0.6,0.4-1.1,1-1.1c0.6,0,1.1,0.4,1.1,1c0,0.1,0.5,10.7,0.8,12.5
			c0.1,0.5,0.7,1.1,1.2,1.7c0.9,1,2.2,2.4,1.4,4c-0.8,1.5-1.6,5-1.4,7.2c0,0.6,0,1.3,0,2c0,1.9,0,3.8,0.9,5.5c0.9,1.5,1,2.9,1.1,4
			c0.1,0.8,0.1,1.3,0.4,1.5c0.2,0.2,0.4,0.3,0.5,0.5c0.3,0.3,0.8,0.8,1,0.7c0,0,0.3,0,0.8-0.7c0.4-0.5,1.1-0.5,1.5-0.2
			c0.5,0.4,0.5,1.1,0.2,1.5C78.6,99.2,78,99.7,77.4,99.9z"/>
		<path class="st3" d="M79.1,94.7L79.1,94.7c-0.6,0.2-1.2-0.1-1.4-0.7c-0.2-0.5-0.9-3.7-0.8-7.9c0-1.8-0.2-4.8-0.5-7.7
			c-0.4-4-0.7-7.5-0.3-9c0.5-2.2,0-4.9,0-4.9c-0.1-0.6,0.3-1.2,0.9-1.3c0.6-0.1,1.2,0.3,1.3,0.9c0,0.1,0.6,3.1,0,5.7
			c-0.3,1.2,0.1,5,0.4,8.4c0.3,2.9,0.5,6,0.5,7.9c-0.1,4.4,0.7,7.2,0.7,7.2C80,93.9,79.6,94.6,79.1,94.7z"/>
		<path class="st3" d="M80.7,75.4c-0.6,0.2-1.2-0.1-1.4-0.7c-0.2-0.6,0-1.3,0.5-2.5c0.4-1,0.8-2.2,0.8-3.1c0-1.9-0.5-9.6-0.5-9.7
			c0-0.6,0.4-1.1,1-1.2c0.6,0,1.1,0.4,1.2,1c0,0.3,0.5,7.9,0.5,9.8c0,1.3-0.5,2.7-0.9,3.9c-0.2,0.4-0.4,1-0.4,1.3
			C81.5,74.7,81.2,75.2,80.7,75.4z"/>
		<path class="st3" d="M82.1,89.7c-0.2,0.1-0.4,0.1-0.6,0c-0.6-0.2-0.9-0.8-0.7-1.4c0.2-0.5,0.1-0.8-0.2-1.5
			c-0.2-0.7-0.6-1.7-0.5-3.1c0.2-2.2-0.1-2.9-1-4.5c-0.3-0.5-0.1-1.2,0.4-1.5c0.5-0.3,1.2-0.1,1.5,0.4c1.1,2,1.4,3.1,1.2,5.7
			c-0.1,1,0.1,1.6,0.3,2.2c0.3,0.8,0.5,1.6,0.2,2.8C82.7,89.4,82.4,89.6,82.1,89.7z"/>
		<path class="st3" d="M81.3,97.6c-0.1,0-0.2,0-0.2,0.1c-0.6,0.1-1.2-0.3-1.2-0.9c-0.1-0.5,0.2-1,0.7-1.2c0.2-0.4,0.2-1.8-0.2-2.8
			c-0.2-0.6,0.1-1.2,0.7-1.4c0.6-0.2,1.2,0.1,1.4,0.7c0.4,1.2,0.7,3.5-0.1,4.7C82,97.2,81.7,97.5,81.3,97.6z"/>
		<path class="st3" d="M80.9,16.7c4.6,0,8.3-3.7,8.3-8.3c0-4.6-3.7-8.3-8.3-8.3c-4.6,0-8.3,3.7-8.3,8.3
			C72.5,12.9,76.3,16.7,80.9,16.7z"/>
		<path class="st3" d="M71.4,33.1c-0.3,0-0.6-0.1-0.9-0.4c-0.5-0.5-0.5-1.3,0-1.8c10.1-9.9,9.1-22.4,9.1-22.5
			c-0.1-0.7,0.4-1.3,1.1-1.4C81.4,7,82,7.5,82.1,8.2c0.1,0.6,1.2,13.8-9.8,24.6C72,33,71.7,33.1,71.4,33.1z"/>
		<path class="st3" d="M51.1,18.7c-0.1,0-0.1,0-0.2,0c-0.7-0.1-1.1-0.8-1-1.4c0-0.2,0.8-4.6,4.7-7.8c0.5-0.4,1.3-0.4,1.8,0.2
			c0.4,0.5,0.4,1.3-0.2,1.8c-3.1,2.6-3.8,6.2-3.8,6.3C52.3,18.3,51.7,18.7,51.1,18.7z"/>
	</g>
</g>
</svg>
