<svg width="77" height="71" viewBox="0 0 77 71" fill="none" xmlns="http://www.w3.org/2000/svg">
<g clip-path="url(#clip0_159_68147)">
<path fill-rule="evenodd" clip-rule="evenodd" d="M47.0115 54.2136C47.0115 54.2136 44.1786 56.4769 41.4806 56.5144C38.7827 56.5518 35.0954 56.7766 33.3417 59.6095C31.588 62.4424 31.7528 66.5343 34.6157 67.7934C37.4786 69.0524 45.8873 70.8446 48.5403 62.9113C48.5403 62.9113 47.813 60.9193 49.121 59.2302C50.4289 57.5411 65.7624 42.1225 65.7624 42.1225C65.7624 42.1225 66.8866 39.9143 69.5396 39.5096C72.1926 39.1049 75.2503 35.9123 75.2953 34.2036C75.3402 32.4949 75.0381 28.1275 70.8436 27.2788C66.6491 26.4301 60.6721 28.7185 62.7815 35.8592C62.7815 35.8592 63.3342 38.8351 59.647 41.4881C55.9598 44.1411 47.0115 54.2136 47.0115 54.2136Z" fill="#538052"/>
<path fill-rule="evenodd" clip-rule="evenodd" d="M3.97887 33.0794C3.97887 33.0794 1.64063 35.2779 1.32586 37.6635C1.0111 40.0492 0.651367 42.4774 0.651367 42.4774V43.1069C0.651367 43.1069 3.48424 41.9812 4.92316 40.8803C6.36208 39.7794 8.97013 37.6635 8.97013 37.6635L10.2742 38.342L7.89094 41.9151L5.46276 45.4901C5.46276 45.4901 5.46276 47.5226 5.64262 47.4282C5.82249 47.3337 13.8186 45.7599 13.8186 45.7599L17.8843 42.4324L19.713 42.5832L20.4365 42.1225L22.46 36.3317L24.2937 31.5102L51.1804 8.46038L53.9589 5.62751C53.9589 5.62751 56.2522 2.38994 55.3079 1.58054C54.3636 0.771152 51.6997 0.366455 51.6997 0.366455L44.319 6.77407C44.319 6.77407 16.2883 30.0437 15.6307 30.3812C14.9731 30.7187 6.13725 32.1516 6.13725 32.1516L3.97887 33.0794Z" fill="#FFE7B3"/>
<path fill-rule="evenodd" clip-rule="evenodd" d="M26.507 46.8391C26.507 46.8391 22.8853 48.8626 19.7386 48.8626C16.5919 48.8626 11.955 50.4814 11.2045 52.5049C10.454 54.5283 10.1072 60.2821 12.7425 61.5197C15.3778 62.7572 18.5848 63.8364 18.5848 63.8364L23.9439 62.6223L27.114 58.8451L27.5862 54.8656C27.5862 54.8656 28.2607 53.0444 30.3516 51.2233C32.4425 49.4022 50.1143 31.8653 50.1143 31.8653C50.1143 31.8653 52.1934 30.6661 54.419 30.8835C56.6447 31.1009 59.6921 26.7392 59.6921 26.7392C59.6921 26.7392 62.4302 20.264 57.3514 17.9033C52.2727 15.5426 47.5091 18.9825 47.5091 18.9825L44.9881 23.6365L44.9536 26.3262C44.9536 26.3262 45.3928 29.0999 43.7066 30.7187C42.0204 32.3375 33.6566 39.3522 33.6566 39.3522L26.507 46.8391Z" fill="#999999"/>
<path d="M0.876842 44.2394C0.392181 44.2394 0 43.8468 0 43.3625C0 42.889 0.0753536 31.7671 6.60201 31.6904C12.0232 31.6266 16.1223 29.3322 16.1634 29.3091C16.5855 29.0698 17.1198 29.217 17.3587 29.637C17.5985 30.0575 17.4529 30.5918 17.0325 30.832C16.851 30.936 12.5164 33.3743 6.62256 33.4441C1.88641 33.4998 1.75368 43.2641 1.75368 43.3625C1.75368 43.8468 1.3615 44.2394 0.876842 44.2394Z" fill="#FF2B85"/>
<path d="M19.0954 29.598C18.8462 29.598 18.5987 29.4927 18.4258 29.2876C18.1124 28.9181 18.1586 28.3649 18.5277 28.0519L44.5041 6.05682C44.8757 5.74299 45.4281 5.79008 45.7397 6.15957C46.0531 6.52906 46.0069 7.08223 45.6378 7.3952L19.6614 29.3903C19.4961 29.5299 19.2949 29.598 19.0954 29.598Z" fill="#FF2B85"/>
<path d="M19.9705 44.2393C19.8395 44.2393 19.7059 44.2097 19.5809 44.1477C19.2461 43.9811 11.363 40.0601 9.8808 39.2518C9.03736 38.7924 7.98155 39.3417 7.68099 39.5173L5.24827 42.2981C4.92801 42.6616 4.37314 42.6988 4.01093 42.3803C3.64615 42.0613 3.60933 41.5073 3.92787 41.1429L6.44708 38.2645C6.49588 38.2093 6.55154 38.16 6.61234 38.1185C6.69968 38.0581 8.78732 36.6568 10.72 37.7122C11.9136 38.363 17.5968 41.1999 19.634 42.215C20.1657 41.244 21.0623 39.3207 21.1188 37.2879C21.2224 33.62 25.8566 28.9468 27.0923 28.0198C28.0693 27.2868 43.0826 14.3372 50.8843 7.59214C51.2508 7.27574 51.804 7.3147 52.1217 7.68205C52.4385 8.04812 52.3982 8.60214 52.0317 8.91854C51.1087 9.7166 29.4137 28.4707 28.1438 29.4229C26.9433 30.3237 22.9504 34.5529 22.8725 37.3376C22.7757 40.7473 20.7822 43.7289 20.6975 43.8539C20.5296 44.1023 20.2539 44.2393 19.9705 44.2393Z" fill="#FF2B85"/>
<path d="M53.842 7.06303C53.5937 7.06303 53.3471 6.95814 53.1741 6.75391C52.8607 6.38528 52.9052 5.83169 53.2743 5.51828C54.2059 4.72621 54.7051 3.91745 54.6452 3.29963C54.5972 2.80983 54.1828 2.34358 53.4139 1.9133C51.8931 1.06471 48.8618 3.83182 47.6339 5.30763C47.3256 5.67927 46.7733 5.73193 46.3991 5.42109C46.0266 5.11112 45.9761 4.55838 46.2861 4.18589C46.7673 3.60875 51.0685 -1.40312 54.2701 0.382675C55.57 1.11009 56.2833 2.03403 56.3903 3.12923C56.5111 4.36229 55.826 5.65058 54.4097 6.8541C54.2453 6.99453 54.0432 7.06303 53.842 7.06303Z" fill="#FF2B85"/>
<path d="M5.46484 46.5557C5.1249 46.5557 4.81577 46.3592 4.67106 46.0513C4.52635 45.7418 4.57344 45.3766 4.79351 45.115L10.4656 38.358C10.7756 37.9885 11.3287 37.9384 11.7004 38.2501C12.072 38.5618 12.1199 39.1145 11.8083 39.4857L7.50539 44.6119C9.72489 44.2839 13.2888 43.3904 15.8183 40.9607C16.1668 40.6254 16.7225 40.637 17.0573 40.9855C17.393 41.3349 17.3819 41.8898 17.0325 42.2254C12.6106 46.4748 5.75855 46.5544 5.46912 46.5557H5.46484Z" fill="#FF2B85"/>
<path d="M7.12594 48.5291C6.11123 48.5291 5.45018 48.4503 5.35427 48.4383C4.91585 48.3826 4.58789 48.0097 4.58789 47.5683V45.6789C4.58789 45.1947 4.98007 44.8021 5.46473 44.8021C5.94939 44.8021 6.34158 45.1947 6.34158 45.6789V46.7514C8.4609 46.8379 14.4806 46.6474 18.0745 42.2058C18.3776 41.8294 18.9308 41.7708 19.3075 42.0756C19.6843 42.38 19.7425 42.9323 19.4377 43.3087C15.7274 47.895 10.0056 48.5291 7.12594 48.5291Z" fill="#FF2B85"/>
<path d="M13.4044 37.8297C12.9283 37.8297 12.5378 37.4491 12.5275 36.9713C12.5224 36.7028 12.5138 34.3172 13.9241 33.2241C14.306 32.9261 14.8566 32.9968 15.1538 33.3795C15.4509 33.7623 15.3807 34.3129 14.9979 34.6096C14.4293 35.0515 14.2692 36.3667 14.2812 36.9344C14.2915 37.4187 13.907 37.8194 13.4223 37.8297H13.4044Z" fill="#FF2B85"/>
<path d="M16.1488 39.0665C15.8534 39.0665 15.5648 38.9175 15.3995 38.6469C14.1151 36.5434 16.0828 33.8842 16.1676 33.772C16.4579 33.3854 17.0068 33.3066 17.3955 33.5986C17.7817 33.8893 17.8596 34.4382 17.5694 34.8253C17.22 35.2949 16.3483 36.835 16.8963 37.7324C17.1489 38.146 17.0179 38.6854 16.6052 38.938C16.4622 39.025 16.3046 39.0665 16.1488 39.0665Z" fill="#FF2B85"/>
<path d="M18.4418 40.0114C18.0779 40.0114 17.7371 39.7828 17.613 39.4188C16.6787 36.6993 18.9462 34.4417 19.043 34.3466C19.3898 34.0084 19.9463 34.0156 20.2829 34.3612C20.6211 34.7067 20.6151 35.2598 20.2717 35.5985C20.2555 35.6139 18.6996 37.1861 19.2707 38.8494C19.4283 39.3071 19.1851 39.8063 18.727 39.9634C18.6319 39.996 18.536 40.0114 18.4418 40.0114Z" fill="#FF2B85"/>
<path d="M25.5038 48.5233C25.27 48.5233 25.0371 48.4304 24.865 48.2467C24.5328 47.8939 24.5508 47.339 24.9035 47.0072L44.4707 28.6218C44.8226 28.2913 45.3792 28.3084 45.7097 28.6608C46.042 29.0136 46.024 29.5684 45.6712 29.9002L26.1041 48.2857C25.9354 48.4445 25.7196 48.5233 25.5038 48.5233Z" fill="#FF2B85"/>
<path d="M29.1499 53.528C28.9204 53.528 28.691 53.4381 28.5188 53.2596C28.1823 52.9111 28.1926 52.3558 28.5411 52.0197L49.5896 31.7333C49.939 31.398 50.4939 31.4079 50.8295 31.7564C51.166 32.1049 51.1558 32.6602 50.8073 32.9963L29.7588 53.2827C29.5884 53.4467 29.3691 53.528 29.1499 53.528Z" fill="#FF2B85"/>
<path d="M19.061 65.1175C15.6409 65.118 12.8546 63.4298 11.6917 61.7391C11.4177 61.34 11.5188 60.7941 11.9178 60.5201C12.3168 60.2461 12.8631 60.3472 13.1371 60.7458C14.2794 62.4065 18.3383 64.6179 22.9768 62.4708C27.194 60.518 26.7231 55.3006 26.7008 55.0792C26.6529 54.5984 27.0031 54.1682 27.4843 54.1189C27.9561 54.0757 28.3963 54.4182 28.4451 54.899C28.4742 55.1709 29.0779 61.5781 23.7132 64.0617C22.0991 64.8093 20.5218 65.1175 19.061 65.1175Z" fill="#FF2B85"/>
<path d="M10.4339 59.5091C10.0007 59.5091 9.62388 59.188 9.56651 58.7465C9.54339 58.5697 9.03304 54.379 11.8451 51.3173C13.8497 49.1347 16.9743 48.1225 21.135 48.3113C21.6188 48.3332 21.993 48.7429 21.9716 49.2267C21.9493 49.7109 21.5409 50.0851 21.0562 50.0633C17.4393 49.8972 14.7856 50.7171 13.1475 52.4918C10.8861 54.9407 11.3014 58.4862 11.3056 58.5218C11.3656 59.0013 11.0265 59.4401 10.547 59.5018C10.5093 59.5065 10.4716 59.5091 10.4339 59.5091Z" fill="#FF2B85"/>
<path d="M20.253 61.2822C20.2059 61.2822 20.1588 61.2783 20.1109 61.2706L14.795 60.3998C14.4474 60.3428 14.1674 60.0829 14.0851 59.7404L13.1004 55.6666C13.0174 55.3241 13.1475 54.9653 13.4309 54.7555L17.7629 51.5534C17.953 51.413 18.1885 51.3552 18.4265 51.3933L23.7424 52.2641C24.0901 52.3211 24.3701 52.581 24.4523 52.9235L25.4361 56.9969C25.5192 57.3394 25.3891 57.6982 25.1056 57.908L20.7745 61.1105C20.6221 61.2227 20.4397 61.2822 20.253 61.2822ZM15.653 58.7634L20.0295 59.4801L23.5951 56.8436L22.8844 53.9005L18.5079 53.1838L14.9414 55.8199L15.653 58.7634Z" fill="#FF2B85"/>
<path d="M53.6688 28.1535C53.656 28.1535 53.644 28.1531 53.6312 28.1526L49.7068 27.9848C49.366 27.9703 49.0637 27.7587 48.9336 27.4428L47.6765 24.391C47.5464 24.075 47.6114 23.7123 47.8435 23.4615L50.5108 20.5775C50.6855 20.3882 50.9339 20.2838 51.1925 20.297L55.1168 20.4653C55.4576 20.4798 55.7599 20.6913 55.8901 21.0073L57.1471 24.0591C57.2773 24.3751 57.2122 24.7378 56.9801 24.9886L54.3128 27.8722C54.1458 28.052 53.9129 28.1535 53.6688 28.1535ZM50.3422 26.2568L53.3006 26.3831L55.3121 24.209L54.4815 22.1933L51.523 22.0666L49.5115 24.2411L50.3422 26.2568Z" fill="#FF2B85"/>
<path d="M45.5291 56.6804C45.3022 56.6804 45.0753 56.5926 44.9031 56.4179C44.564 56.0724 44.5692 55.5171 44.9143 55.178L61.1847 39.1975C61.5306 38.8575 62.0846 38.8627 62.4254 39.2086C62.7645 39.5541 62.7594 40.1094 62.4143 40.4485L46.1439 56.4291C45.9726 56.5969 45.7509 56.6804 45.5291 56.6804Z" fill="#FF2B85"/>
<path d="M48.7186 60.8617C48.4952 60.8617 48.2717 60.7769 48.1013 60.6069C47.757 60.2661 47.7553 59.7108 48.0961 59.367L65.5902 41.7446C65.9318 41.4012 66.4884 41.3995 66.8301 41.7403C67.1743 42.0811 67.176 42.6364 66.8352 42.9802L49.3412 60.6027C49.1699 60.7752 48.9439 60.8617 48.7186 60.8617Z" fill="#FF2B85"/>
<path d="M41.6398 67.5095C41.627 67.5095 41.615 67.509 41.6021 67.5086L37.0304 67.3117C36.6785 67.2967 36.3694 67.0719 36.246 66.7418L35.0036 63.4057C34.8811 63.0752 34.9676 62.7035 35.2245 62.4616L38.5538 59.3225C38.7259 59.1598 38.9562 59.0771 39.1925 59.0844L43.7643 59.2814C44.1162 59.2964 44.4253 59.5211 44.5486 59.8517L45.7903 63.1878C45.9127 63.5179 45.8262 63.8895 45.5702 64.1314L42.2418 67.2706C42.0782 67.4243 41.8633 67.5095 41.6398 67.5095ZM37.6872 65.5845L41.3076 65.7408L43.9432 63.2546L43.1075 61.0085L39.4871 60.8522L36.8506 63.3385L37.6872 65.5845Z" fill="#FF2B85"/>
<path d="M69.3836 37.7398C69.3587 37.7398 69.3339 37.7389 69.3091 37.7368L65.9558 37.4495C65.6176 37.4204 65.3273 37.1995 65.2083 36.8818L64.203 34.1836C64.0848 33.8659 64.1602 33.5084 64.3974 33.2657L66.7462 30.8552C66.9294 30.6668 67.1889 30.5692 67.4484 30.5932L70.8016 30.8805C71.1398 30.9096 71.4301 31.1305 71.5491 31.4482L72.5544 34.1464C72.6726 34.464 72.5972 34.8215 72.36 35.0643L70.0112 37.4748C69.846 37.6452 69.619 37.7398 69.3836 37.7398ZM66.658 35.7493L69.0453 35.954L70.7168 34.2384L70.0994 32.5806L67.7121 32.376L66.0406 34.0916L66.658 35.7493Z" fill="#FF2B85"/>
<path d="M32.2188 65.6535C31.7582 65.6535 31.372 65.2943 31.3446 64.8284C31.1673 61.8396 31.9525 59.525 33.6788 57.949C36.8051 55.0954 41.8299 55.8173 42.0405 55.8489C42.5192 55.9213 42.848 56.367 42.7761 56.8457C42.7041 57.3243 42.2614 57.6579 41.7793 57.5829C41.7348 57.5769 37.3574 56.9583 34.8554 59.2493C33.5435 60.4511 32.951 62.2934 33.0948 64.7248C33.1239 65.2082 32.7549 65.6235 32.2719 65.6518C32.2539 65.6531 32.236 65.6535 32.2188 65.6535Z" fill="#FF2B85"/>
<path d="M39.8106 70.733C35.9034 70.733 33.5349 68.4527 33.4227 68.3418C33.0776 68.0023 33.0725 67.447 33.4124 67.1019C33.7507 66.7568 34.3047 66.7513 34.6506 67.0895C34.7637 67.1991 37.2546 69.5518 41.3126 68.8466C44.1957 68.3418 46.3056 66.4023 47.2355 64.8948C47.7853 64.0047 47.8289 63.4319 47.775 63.2533C47.6363 62.7896 47.8992 62.3007 48.3624 62.1616C48.8325 62.0203 49.3163 62.2853 49.455 62.749C49.7008 63.5684 49.4431 64.6576 48.7281 65.8158C47.6072 67.6328 45.0708 69.9692 41.614 70.5738C40.982 70.6846 40.3801 70.733 39.8106 70.733Z" fill="#FF2B85"/>
<path d="M62.6934 37.142C62.3637 37.142 62.0486 36.9549 61.8996 36.636C61.1195 34.9572 60.6255 31.0585 64.3426 28.3205C68.8955 24.966 73.26 27.6693 73.4433 27.7853C73.8517 28.0452 73.9733 28.5873 73.713 28.9957C73.4536 29.4046 72.9107 29.5245 72.5031 29.2659C72.3618 29.1781 68.9486 27.1033 65.3822 29.7325C61.9099 32.2903 63.4255 35.7544 63.4923 35.9008C63.691 36.3401 63.4983 36.8603 63.0599 37.0615C62.9409 37.1159 62.8159 37.142 62.6934 37.142Z" fill="#FF2B85"/>
<path d="M68.3304 40.9217C68.2173 40.9217 68.1471 40.9183 68.1291 40.9174C67.6453 40.8909 67.2746 40.4773 67.302 39.9935C67.3285 39.5101 67.7464 39.1359 68.2251 39.1663C68.2542 39.1654 71.2323 39.2832 73.338 37.0161C75.3143 34.8878 74.1549 32.3429 74.1043 32.2355C73.8997 31.7988 74.0855 31.2764 74.5214 31.0692C74.9555 30.8641 75.4778 31.0439 75.6868 31.4789C75.7587 31.6288 77.425 35.1918 74.6224 38.2098C72.2685 40.7449 69.1524 40.9217 68.3304 40.9217Z" fill="#FF2B85"/>
<path d="M45.0691 26.4931C44.6384 26.4931 44.2633 26.1767 44.2025 25.7378C44.1828 25.5983 43.753 22.2887 45.9605 19.6543C47.5524 17.7551 50.0562 16.7275 53.4034 16.5999C53.8675 16.5794 54.2948 16.9587 54.3128 17.4429C54.3316 17.9267 53.954 18.3339 53.4702 18.3527C50.6479 18.4598 48.5782 19.272 47.3169 20.7662C45.606 22.7935 45.9365 25.4732 45.94 25.5002C46.0025 25.9789 45.6668 26.4203 45.1881 26.4849C45.1479 26.4905 45.1085 26.4931 45.0691 26.4931Z" fill="#FF2B85"/>
<path d="M52.9085 32.3177C52.4443 32.3177 52.0573 31.9538 52.0333 31.4849C52.0093 31.0016 52.3818 30.5897 52.8648 30.5653C54.8959 30.4625 56.9373 29.3977 58.3245 27.7164C59.5139 26.2757 60.073 24.576 59.8581 23.053C59.4009 19.8201 56.7369 19.2348 56.623 19.2117C56.1512 19.1145 55.843 18.6538 55.9372 18.1812C56.0313 17.7081 56.486 17.3985 56.9596 17.4906C57.1223 17.5218 60.9584 18.3075 61.5947 22.8077C61.8781 24.817 61.1794 27.013 59.6774 28.833C57.9563 30.9181 55.5056 32.1875 52.9538 32.3164C52.9384 32.3173 52.9239 32.3177 52.9085 32.3177Z" fill="#FF2B85"/>
</g>
<defs>
<clipPath id="clip0_159_68147">
<rect width="76.2436" height="70.733" fill="white"/>
</clipPath>
</defs>
</svg>
