<svg width="58" height="83" viewBox="0 0 58 83" fill="none" xmlns="http://www.w3.org/2000/svg">
<g clip-path="url(#clip0_159_68095)">
<path fill-rule="evenodd" clip-rule="evenodd" d="M51.0813 2.48633C51.0813 2.48633 56.7274 4.13297 56.9621 5.48196C57.1967 6.83095 29.604 80.3749 29.604 80.3749C29.604 80.3749 27.3258 83.6292 19.4634 80.1689L51.0813 2.48633Z" fill="#999999"/>
<path fill-rule="evenodd" clip-rule="evenodd" d="M31.8139 0.891643C31.8139 0.891643 26.8509 -0.341182 23.6243 8.16164C20.3978 16.6645 2.36653 64.1822 2.36653 64.1822C2.36653 64.1822 -0.685085 71.1491 2.36653 73.3892C5.41814 75.6293 14.8038 78.3677 14.8038 78.3677C14.8038 78.3677 21.1743 82.512 25.0661 78.2275C28.958 73.943 40.9369 37.0207 40.9369 37.0207L50.0224 12.4791C50.0224 12.4791 53.4903 6.56106 52.5557 3.79564C51.621 1.03021 31.8139 0.891643 31.8139 0.891643Z" fill="#FF2B85"/>
<path fill-rule="evenodd" clip-rule="evenodd" d="M32.3755 0.895264C32.3755 0.895264 34.2191 2.68886 34.0617 4.8048C33.9043 6.92074 37.7265 6.46855 37.7265 6.46855C37.7265 6.46855 40.9785 7.06471 41.947 5.73951C42.9155 4.41431 46.0452 1.4836 47.4842 1.54916C48.9231 1.61472 32.3755 0.895264 32.3755 0.895264Z" fill="#363636"/>
<path d="M1.70841 66.7932C1.6048 66.7932 1.4999 66.7752 1.39715 66.7358C0.944597 66.5645 0.716824 66.0576 0.88851 65.6055L23.8213 5.17102C23.9934 4.71804 24.5003 4.48855 24.9524 4.66238C25.405 4.83364 25.6328 5.34056 25.4611 5.79269L2.52831 66.2272C2.39515 66.5774 2.06206 66.7932 1.70841 66.7932Z" fill="#F287B7"/>
<path d="M4.31676 75.3372C4.23541 75.3372 4.15278 75.3261 4.07057 75.3021C0.0434327 74.1273 -0.268257 70.1233 0.12949 68.1701C0.226251 67.6948 0.689933 67.3908 1.16389 67.4859C1.63785 67.5818 1.94397 68.0442 1.84807 68.5186C1.81125 68.7078 1.09624 72.6074 4.56208 73.6187C5.02662 73.7539 5.29378 74.2412 5.15806 74.7061C5.04632 75.0889 4.69652 75.3372 4.31676 75.3372Z" fill="#F287B7"/>
<path d="M20.9142 81.2518C19.3806 81.2518 18.1998 80.6524 17.8778 80.4709L6.79357 76.2699C6.34059 76.0978 6.11281 75.5917 6.2845 75.1387C6.45619 74.6858 6.96354 74.4588 7.41523 74.6292L18.5667 78.8559C18.6194 78.8764 18.6703 78.9013 18.7183 78.9312C18.7298 78.9381 20.3247 79.8826 22.1101 79.314C23.6253 78.8311 24.902 77.413 25.9051 75.1011C26.0978 74.6558 26.6129 74.4511 27.0586 74.6455C27.503 74.8382 27.7068 75.3545 27.5141 75.7981C26.2943 78.6101 24.6455 80.3587 22.6127 80.9941C22.0184 81.1799 21.4451 81.2518 20.9142 81.2518Z" fill="#F287B7"/>
<path d="M27.6091 73.898C27.508 73.898 27.4048 73.8809 27.3046 73.8432C26.8504 73.6753 26.6188 73.171 26.7866 72.7163L50.2588 9.31391C50.4271 8.86008 50.9331 8.62631 51.3857 8.79671C51.84 8.96454 52.0716 9.4689 51.9038 9.92359L28.4315 73.326C28.3005 73.6796 27.9653 73.898 27.6091 73.898Z" fill="#F287B7"/>
<path d="M52.3413 8.24772C52.2741 8.24772 52.2061 8.24001 52.138 8.22374C51.667 8.11242 51.3755 7.63975 51.4872 7.16879C51.8284 5.73108 51.7137 4.59563 51.1468 3.79329C50.3492 2.66555 48.8584 2.49001 48.8344 2.48744C48.8049 2.48744 38.9669 2.04046 33.3231 1.77158C28.274 1.53011 26.6291 3.63231 26.6136 3.65286C26.3319 4.04761 25.7839 4.13837 25.3904 3.85665C24.9965 3.57493 24.9053 3.02776 25.1871 2.63387C25.2718 2.51485 27.3355 -0.258683 33.4062 0.0196119C39.0714 0.289344 48.9628 0.738897 48.9628 0.738897C49.0994 0.750885 51.2907 0.980371 52.5644 2.76146C53.4468 3.99452 53.6588 5.61376 53.1938 7.57296C53.0979 7.97627 52.7382 8.24772 52.3413 8.24772Z" fill="#F287B7"/>
<path d="M56.7253 9.3267C56.6336 9.3267 56.5399 9.31214 56.4478 9.28131C55.9884 9.12889 55.7401 8.63225 55.8934 8.17242C56.6204 5.99144 55.0345 4.99129 54.8517 4.88426C54.436 4.64193 54.29 4.1076 54.5284 3.68973C54.7669 3.27186 55.2944 3.12287 55.7144 3.35749C56.7732 3.95004 58.5213 5.8356 57.5571 8.72729C57.4347 9.09464 57.0926 9.3267 56.7253 9.3267Z" fill="#F287B7"/>
<path d="M31.814 75.6969C31.7116 75.6969 31.608 75.6789 31.507 75.6412C31.0532 75.4717 30.8232 74.9665 30.9928 74.5126L54.465 11.7396C54.6346 11.2866 55.1411 11.0589 55.5932 11.2258C56.047 11.3954 56.2769 11.9006 56.1074 12.3544L32.6352 75.1274C32.5037 75.4794 32.1693 75.6969 31.814 75.6969Z" fill="#F287B7"/>
<path d="M25.1136 82.8308C24.8486 82.8308 24.6067 82.8111 24.3952 82.7786C23.9165 82.7041 23.589 82.2562 23.663 81.7776C23.7367 81.2997 24.1832 80.9786 24.6598 81.0446C24.8135 81.0651 28.1933 81.4933 29.7397 77.5894C29.9178 77.1399 30.429 76.919 30.8777 77.0971C31.3281 77.2752 31.5486 77.7847 31.3701 78.2351C29.9178 81.9017 26.9606 82.8308 25.1136 82.8308Z" fill="#F287B7"/>
<path d="M44.6961 33.6984C44.5951 33.6984 44.4927 33.6812 44.3926 33.6444C43.9383 33.4766 43.7058 32.9722 43.8736 32.5175L46.6617 24.9633C46.8296 24.5095 47.3335 24.2783 47.7877 24.4444C48.242 24.6123 48.4745 25.1166 48.3067 25.5713L45.5186 33.1255C45.388 33.4792 45.0528 33.6984 44.6961 33.6984Z" fill="#F287B7"/>
<path d="M33.8135 6.35879C33.6817 6.35879 33.5481 6.32881 33.4222 6.26631C32.9889 6.04966 32.8134 5.52305 33.03 5.08976C33.4552 4.24032 32.8716 3.53816 32.8035 3.4611C32.4867 3.1006 32.515 2.54743 32.8716 2.22632C33.2287 1.90693 33.7733 1.92577 34.0991 2.27941C34.6527 2.87882 35.3806 4.31139 34.5988 5.87412C34.4451 6.18153 34.1351 6.35879 33.8135 6.35879Z" fill="#F287B7"/>
<path d="M39.3459 7.52758C39.3181 7.52758 39.2902 7.52672 39.2616 7.5233L35.4395 7.15852C34.9574 7.11314 34.6042 6.68499 34.65 6.2029C34.6958 5.72081 35.1132 5.35089 35.6065 5.4134L39.4285 5.77818C39.9106 5.82356 40.2638 6.25171 40.218 6.7338C40.1748 7.18763 39.7929 7.52758 39.3459 7.52758Z" fill="#F287B7"/>
<path d="M41.6378 7.16284C41.5055 7.16284 41.3715 7.13286 41.2452 7.0695C40.8128 6.852 40.6381 6.32624 40.8547 5.89381C41.133 5.33808 42.6234 2.56027 44.6472 2.44809C45.1465 2.42754 45.5446 2.79147 45.5716 3.27442C45.5986 3.75822 45.2282 4.17181 44.7449 4.19835C43.9913 4.24031 42.9137 5.70372 42.4222 6.67989C42.268 6.98558 41.9589 7.16284 41.6378 7.16284Z" fill="#F287B7"/>
<path d="M23.2416 28.0189C22.4441 29.043 21.7648 30.2236 21.2728 31.5018C19.5315 36.0246 20.7294 40.4631 24.0544 41.9816C27.7283 43.6594 32.4944 41.1742 34.5317 35.7405C35.1044 34.213 35.3714 32.6553 35.363 31.1938C35.3638 31.1869 35.3645 31.1796 35.3644 31.1717C35.3643 30.792 35.6533 30.5845 35.6533 30.5845C35.7256 30.5272 35.795 30.4669 35.8637 30.4037C36.6627 29.6781 37.2307 28.5692 37.3314 27.4925C37.356 27.2314 36.8336 27.2416 36.8056 26.9937C36.7937 26.8875 36.8715 26.7337 36.958 26.5752C36.9828 26.533 37.0064 26.4894 37.0283 26.4459C37.1185 26.2777 37.1929 26.1171 37.1536 26.0156C37.1148 25.9161 37.0697 25.8199 37.0189 25.7274L36.9891 25.6717C36.6505 25.0848 36.0825 24.741 35.4276 24.666C34.864 24.6014 34.2016 24.722 33.6176 25.1104L33.6174 25.1092C33.6174 25.1092 33.2113 25.3531 32.8884 25.117C32.8797 25.1105 32.8706 25.1047 32.8618 25.0994C32.5274 24.8413 32.1739 24.6196 31.7911 24.4587C31.4826 24.3295 31.1607 24.2338 30.8287 24.1726C30.0722 24.0331 29.2921 24.0765 28.518 24.2682C28.5071 24.2696 28.4961 24.2717 28.4847 24.274C28.0791 24.3619 27.9614 24.0435 27.9614 24.0435C27.6147 23.1191 26.406 22.6996 25.2163 23.5308C23.9433 24.4205 23.1875 26.2505 23.3943 27.4947C23.3943 27.4947 23.4496 27.7479 23.2422 28.0179C23.2422 28.0179 23.242 28.0186 23.2416 28.0189ZM34.0752 26.1915C34.1566 26.1313 34.2419 26.0822 34.3284 26.0473C34.5401 25.9622 34.7537 25.9239 34.9563 25.9297C35.7378 25.9511 36.3182 26.6479 36.1909 27.6285C36.1266 28.1255 35.8821 28.6446 35.5303 29.0325C35.5116 29.0531 35.4928 29.0738 35.4728 29.0933C35.4278 29.1376 35.3795 29.1772 35.3277 29.2021C35.1495 29.2885 35.0996 29.1495 35.0606 29.0036C34.8203 28.1024 34.5306 27.2291 34.0372 26.5658C34.0095 26.5289 33.981 26.4915 33.9674 26.4427C33.9539 26.394 33.9577 26.3302 33.99 26.2772C34.0119 26.2415 34.0435 26.2148 34.0752 26.1915ZM30.6485 29.5534C31.0253 29.3536 31.4019 29.3734 31.6968 29.451C32.0306 29.5388 32.2583 29.7 32.2583 29.7C32.7807 30.0986 33.0891 30.5779 33.2502 31.0813C33.7442 32.6246 32.8578 34.3325 32.622 34.6895C32.0896 35.4965 31.23 36.1837 30.5912 36.0706C29.9622 35.9593 29.8216 35.501 29.9789 34.4888C30.1354 33.4833 29.79 32.1058 29.6373 31.5147C29.4859 30.9296 29.8571 29.9732 30.6485 29.5534ZM28.2068 35.4824C28.5354 35.4814 28.5803 35.7132 28.4391 36.0859C28.0302 37.1649 26.757 37.9088 25.711 37.5172C25.7082 37.5166 25.7062 37.5158 25.7036 37.5148L25.6959 37.5118C24.6863 37.1143 24.2779 35.7876 24.6686 34.7643C24.8037 34.4104 24.9792 34.2654 25.208 34.4525C25.3411 34.5612 25.8938 35.0171 26.486 35.2282L26.5609 35.2543L26.563 35.255L26.5651 35.2558C26.5768 35.2599 26.6132 35.2729 26.6402 35.2819C27.2482 35.4885 28.018 35.483 28.2068 35.4824ZM27.4357 32.962C27.9615 33.1265 28.3319 33.423 28.2227 33.7105C28.1135 33.9982 27.4381 34.5038 26.9155 34.3294C26.4003 34.1574 26.2289 33.3878 26.3357 33.1076C26.4425 32.8275 26.9173 32.7999 27.4357 32.962ZM26.5284 28.168C26.7896 28.2299 27.0782 28.3728 27.2292 28.6921C27.5536 29.3778 27.2065 30.3083 26.7113 30.6935C26.22 31.0756 25.1151 31.9454 24.606 32.768C24.0989 33.5871 23.7344 33.8418 23.2728 33.5902C22.8177 33.3421 22.6929 32.4388 22.8288 31.6245C22.8886 31.2663 23.3142 29.6754 24.497 28.7634C24.8951 28.4565 25.3828 28.2216 25.9794 28.1302C25.9794 28.1302 26.2376 28.099 26.5284 28.168ZM24.7077 25.166C25.1835 24.3962 25.9611 24.0437 26.4991 24.2661C26.6416 24.3248 26.7664 24.4221 26.8623 24.5563C26.9016 24.6116 26.9317 24.6778 26.9521 24.7516C26.9601 24.7804 26.9661 24.8118 26.9596 24.8471C26.9497 24.8994 26.9134 24.9509 26.8736 24.9846C26.8342 25.0184 26.7913 25.0382 26.7492 25.0578C26.0106 25.4064 25.305 25.9716 24.6332 26.5594C24.5259 26.6535 24.4163 26.7377 24.3551 26.6117C24.3373 26.5755 24.3298 26.5293 24.327 26.4813C24.3258 26.4605 24.3255 26.4388 24.3256 26.4172C24.3277 26.0141 24.4683 25.5529 24.7077 25.166ZM25.6134 30.1279C25.7068 29.8838 25.9332 29.7274 26.1201 29.7786C26.308 29.8302 26.3848 30.0719 26.2907 30.3182C26.1966 30.5647 25.9679 30.7207 25.7807 30.6668C25.5946 30.6132 25.5201 30.372 25.6134 30.1279ZM30.379 31.4675C30.4778 31.2067 30.7294 31.0428 30.9421 31.1012C31.1561 31.1599 31.2496 31.4208 31.15 31.6842C31.0503 31.9477 30.7962 32.111 30.583 32.0497C30.3709 31.9886 30.2802 31.7283 30.379 31.4675Z" fill="white"/>
</g>
<defs>
<clipPath id="clip0_159_68095">
<rect width="57.8374" height="82.8307" fill="white"/>
</clipPath>
</defs>
</svg>
