<svg width="122" height="130" viewBox="0 0 122 130" fill="none" xmlns="http://www.w3.org/2000/svg">
<g clip-path="url(#clip0_159_68387)">
<path fill-rule="evenodd" clip-rule="evenodd" d="M78.223 12.7715L77.685 15.8228L78.8833 19.1262L81.3774 18.9644L83.0431 16.7685L82.1099 12.9979L78.223 12.7715Z" fill="#363636"/>
<path fill-rule="evenodd" clip-rule="evenodd" d="M24.9315 34.2372L18.8961 33.495L14.6364 36.7171L15.0111 43.7636L15.2299 50.6152L17.7056 52.7986L11.4586 90.2842L8.23659 103.224L8.43887 105.353C8.43887 105.353 15.349 108.664 19.7246 109.245C24.1002 109.826 45.6672 114.295 52.4241 118.055C59.1811 121.815 72.1888 123.062 80.6657 122.179C89.1427 121.295 95.4216 121.832 95.4216 121.832L97.749 116.725L104.069 86.278L106.637 69.0158L110.343 68.2736L112.971 61.1459L112.151 52.8512L104.253 48.5458C104.253 48.5458 53.3555 37.5103 49.9021 37.5402C46.4488 37.5701 24.9315 34.2372 24.9315 34.2372Z" fill="#FF2B85"/>
<path fill-rule="evenodd" clip-rule="evenodd" d="M73.6051 67.5255L65.6423 107.02L63.5059 115.134C63.5059 115.134 61.9563 119.887 63.3385 121.524C64.7207 123.16 90.6513 121.775 90.6513 121.775L95.4215 121.831L100.661 107.844L105.779 71.9953L101.365 70.7259L82.5687 68.4818L73.6051 67.5255Z" fill="#D70F64"/>
<path fill-rule="evenodd" clip-rule="evenodd" d="M27.4546 35.5052C27.4546 35.5052 40.6808 23.2115 40.9006 23.1789C41.1204 23.1464 47.4104 18.7436 47.4104 18.7436L53.594 13.5025C53.594 13.5025 58.5252 13.5288 58.3735 13.1388C58.2217 12.7488 59.4259 8.75179 59.4259 8.75179C59.4259 8.75179 68.4477 9.77181 68.6908 9.81467C68.9339 9.85754 77.4378 11.4655 77.4378 11.4655L77.0447 16.8746L75.3935 18.9159L67.6437 17.9836L60.4526 16.2814L57.9524 15.5266L54.7871 16.852L49.8218 19.1157L47.1562 21.2855L41.1912 28.005L31.7648 36.5518L26.5552 36.5595L27.4546 35.5052Z" fill="#FF2B85"/>
<path fill-rule="evenodd" clip-rule="evenodd" d="M60.4404 17.5634C60.6602 17.5309 61.6485 22.4462 61.6485 22.4462L63.0221 29.2224L61.3477 32.8486L55.6042 39.3272L63.3101 40.3292L70.6148 41.1903L69.4168 34.3428L65.8731 24.5857L63.7795 17.6436L60.4404 17.5634Z" fill="#FF2B85"/>
<path fill-rule="evenodd" clip-rule="evenodd" d="M75.2233 17.8871L72.9234 22.7611L66.409 28.8897L67.8871 34.8579L70.2243 33.6385L77.2716 24.8834L78.6214 17.2278L76.0566 15.1544L75.2233 17.8871Z" fill="#FF2B85"/>
<path fill-rule="evenodd" clip-rule="evenodd" d="M82.635 17.1247C82.635 17.1247 85.9622 19.2952 86.6616 20.5886C86.9311 21.087 89.8593 24.233 92.4414 28.3025C96.5602 34.7938 100.949 43.1446 100.949 43.1446C100.949 43.1446 104.268 48.1932 107.248 49.5033C110.227 50.8135 98.1585 46.8305 98.1585 46.8305L94.0637 39.7588L84.9097 27.2872L81.0064 21.9102L78.8583 20.3023C78.8583 20.3023 80.2026 19.0502 80.7345 19.0013C81.2663 18.9525 82.635 17.1247 82.635 17.1247Z" fill="#FF2B85"/>
<path fill-rule="evenodd" clip-rule="evenodd" d="M17.1584 55.9018C17.1584 55.9018 49.5495 62.9508 50.112 63.0946C50.6745 63.2385 67.0035 66.4972 67.0035 66.4972L80.7482 68.0176L106.269 71.1003L104.961 78.5184L75.678 77.3502L67.9466 75.987C67.9466 75.987 31.8015 68.308 31.5026 68.3849C31.2037 68.4618 15.6455 64.4818 15.6455 64.4818L17.1584 55.9018Z" fill="#F287B7"/>
<path fill-rule="evenodd" clip-rule="evenodd" d="M15.011 43.7637L112.971 61.146L111.164 64.9607L15.6693 48.1223L15.011 43.7637Z" fill="#999999"/>
<path d="M57.4496 120.238C57.4416 120.237 57.4336 120.236 57.4252 120.234C55.7393 119.888 52.7754 118.881 49.0227 117.606C41.8458 115.168 32.0159 111.833 23.163 110.356C12.2457 108.545 8.03484 107.147 7.08573 105.029C6.72031 104.214 6.83651 103.324 7.43142 102.381C8.67806 100.405 10.5692 88.9052 11.821 81.2956C12.2058 78.9558 12.5614 76.7935 12.8707 75.0395L16.8542 52.4479C16.9383 51.971 17.3931 51.6526 17.87 51.7367C18.3468 51.8208 18.6653 52.2756 18.5812 52.7524L14.5977 75.344C14.2894 77.0925 13.935 79.2481 13.5511 81.5803C11.7379 92.6058 10.2451 101.208 8.91455 103.317C8.51999 103.942 8.64044 104.21 8.68602 104.312C9.5873 106.321 19.6577 107.996 23.4507 108.626C32.4246 110.099 42.3521 113.487 49.5871 115.946C53.2813 117.201 56.1993 118.192 57.7777 118.516C58.2518 118.613 58.5579 119.077 58.4603 119.551C58.3646 120.017 57.9155 120.321 57.4496 120.238Z" fill="#F287B7"/>
<path d="M65.3645 123.034C63.1724 122.648 61.6728 122.227 61.535 122.187C61.0693 122.055 60.7996 121.57 60.9322 121.104C61.0647 120.638 61.5498 120.365 62.0154 120.501C62.09 120.522 69.4857 122.595 75.6844 121.717C78.3816 121.335 83.7777 120.933 94.167 121.186L94.4407 121.192C95.2679 120.273 98.0959 114.632 99.9924 103.154C100.541 99.8352 101.068 96.4235 101.59 93.0363C103.047 83.5947 104.423 74.6767 106.18 68.1205C106.305 67.6526 106.788 67.3731 107.254 67.5008C107.721 67.6263 107.999 68.107 107.873 68.5748C106.141 75.0389 104.772 83.9107 103.323 93.3036C102.8 96.6971 102.272 100.115 101.723 103.44C100.002 113.853 96.7022 122.97 94.6614 122.951L94.124 122.939C83.8545 122.689 78.562 123.08 75.9303 123.453C72.2183 123.979 68.2089 123.536 65.3645 123.034Z" fill="#F287B7"/>
<path d="M63.0605 117.94C62.6777 117.872 62.373 117.554 62.3393 117.148C62.2115 115.607 63.4288 111.11 65.4252 103.9C66.7396 99.1529 68.2292 93.7724 69.0424 89.8505C70.8526 81.1156 73.1595 66.5161 73.1823 66.3696C73.258 65.8913 73.7068 65.5648 74.1853 65.64C74.6199 65.7193 74.9901 66.1645 74.9149 66.643C74.8916 66.7897 72.5783 81.4303 70.7596 90.2063C69.935 94.185 68.4368 99.5947 67.1152 104.368C65.5733 109.937 63.9784 115.695 64.0873 117.003C64.1269 117.486 63.7683 117.91 63.2857 117.95C63.2089 117.956 63.133 117.952 63.0605 117.94Z" fill="#F287B7"/>
<path d="M63.5524 67.022C61.7609 66.7061 59.3836 66.1074 56.5993 65.4056C52.1345 64.2805 46.5771 62.8798 41.4359 62.1937C31.8792 60.919 20.1258 57.8957 20.0085 57.8655C19.5395 57.7441 19.2578 57.2662 19.3787 56.7971C19.5 56.329 19.976 56.0503 20.4471 56.1673C20.5639 56.1979 32.2181 59.1945 41.668 60.4556C46.909 61.1554 52.5198 62.569 57.0278 63.7052C60.7695 64.648 64.001 65.4617 65.5991 65.5061C69.2806 65.607 70.9065 65.805 70.9741 65.8135C71.4523 65.873 71.7951 66.3104 71.736 66.7912C71.6765 67.2716 71.239 67.6126 70.7582 67.5535C70.7424 67.5516 69.1315 67.3576 65.5509 67.2592C65.0066 67.2441 64.3354 67.1601 63.5524 67.022Z" fill="#F287B7"/>
<path d="M68.4515 76.6996C65.9077 76.251 58.7444 74.6406 52.8703 73.3201C49.6965 72.6061 46.962 71.9913 45.6953 71.7267C41.9431 70.942 33.2587 69.3825 28.4734 68.6778C23.757 67.9931 18.6926 66.0233 18.4796 65.9396C18.0285 65.7636 17.8054 65.2556 17.9815 64.8045C18.1572 64.3529 18.6657 64.1317 19.1167 64.306C19.1676 64.3254 24.2085 66.2807 28.7284 66.9429C33.5424 67.6505 42.2786 69.2217 46.0541 70.0101C47.3254 70.276 50.0698 70.8929 53.2551 71.6089C59.4161 72.9939 67.8523 74.8858 69.336 75.0639C69.8105 75.1119 70.1611 75.5546 70.1053 76.036C70.0497 76.517 69.6142 76.8615 69.1332 76.8054C68.9721 76.787 68.742 76.7508 68.4515 76.6996Z" fill="#F287B7"/>
<path d="M76.2945 68.5308C75.8316 68.4492 75.513 68.0148 75.5787 67.5456C75.6464 67.0658 76.0896 66.7318 76.569 66.7989C76.6598 66.8119 85.6888 68.0761 90.0692 68.4442C91.742 68.5853 93.5788 68.7926 95.3546 68.9936C98.3477 69.3322 101.175 69.652 102.929 69.6279C103.412 69.626 103.811 70.0086 103.817 70.4928C103.824 70.9769 103.437 71.3747 102.952 71.3815C101.088 71.407 98.2071 71.0812 95.1577 70.7361C93.3939 70.5369 91.5704 70.3305 89.9219 70.192C85.4931 69.8198 76.4166 68.5484 76.3254 68.5358C76.3148 68.5344 76.3046 68.5326 76.2945 68.5308Z" fill="#F287B7"/>
<path d="M75.755 77.9938C75.4826 77.9458 75.3233 77.912 75.294 77.906C74.8206 77.8043 74.5198 77.3382 74.6211 76.8648C74.7224 76.3914 75.1895 76.0847 75.662 76.191C75.6962 76.2018 79.174 76.9277 83.5604 76.6429C85.9779 76.4862 90.1695 76.8697 93.8678 77.2083C97.1015 77.5042 100.446 77.81 101.355 77.6199C101.831 77.5224 102.294 77.8254 102.393 78.299C102.492 78.7734 102.188 79.238 101.714 79.337C100.604 79.5686 97.9485 79.3425 93.7077 78.9547C90.0735 78.6222 85.9547 78.245 83.6735 78.3932C79.935 78.6352 76.8812 78.1924 75.755 77.9938Z" fill="#F287B7"/>
<path d="M23.1432 58.4225C23.0479 58.4057 22.9548 58.3741 22.8671 58.3264C22.4683 58.1105 20.5138 56.682 21.1752 49.7183C21.8387 42.7354 25.3669 35.3694 29.7551 31.8052C31.0343 30.7661 32.8243 29.2414 34.7193 27.627C39.1839 23.8241 44.2436 19.5141 46.9604 17.7759C48.1228 17.0318 49.1427 16.2008 50.1287 15.3974C52.3911 13.553 54.5282 11.8108 57.7638 11.657C58.2478 11.6363 58.6584 12.0074 58.6814 12.4914C58.7043 12.975 58.3306 13.386 57.847 13.409C55.1884 13.5354 53.3571 15.028 51.2363 16.7565C50.2122 17.5915 49.153 18.4551 47.9059 19.2529C45.2896 20.9267 40.0591 25.3823 35.8564 28.9622C33.9533 30.5834 32.1556 32.1146 30.8611 33.1662C26.8728 36.4053 23.5336 43.4364 22.9206 49.8843C22.3714 55.6688 23.7471 56.8096 23.7612 56.8208C24.1871 57.0511 24.3156 57.565 24.0853 57.9909C23.9022 58.329 23.51 58.4872 23.1432 58.4225Z" fill="#F287B7"/>
<path d="M29.4161 60.0477C29.226 60.0141 29.0455 59.918 28.9089 59.7608C28.7712 59.6027 25.5542 55.8339 26.7524 50.7182C27.0604 49.4026 27.2309 47.9919 27.4112 46.4986C27.8725 42.6815 28.3493 38.7346 31.227 35.9605C32.0216 35.1946 33.2053 34.1004 34.5754 32.8342C38.4087 29.2909 46.3581 21.9437 46.7827 20.3687C46.7433 19.8326 46.9988 19.2986 47.5431 18.7807C49.5127 16.9082 56.2151 14.6507 58.0598 14.9759C58.5367 15.06 58.8551 15.5148 58.7711 15.9917C58.687 16.4686 58.2321 16.787 57.7553 16.703C56.3069 16.4476 49.097 19.0516 48.5369 20.2976C48.626 21.7988 45.8098 24.8385 35.7657 34.1219C34.4068 35.3782 33.2321 36.4636 32.4443 37.2229C30.0156 39.564 29.5768 43.1964 29.1522 46.7091C28.9743 48.1837 28.7898 49.7084 28.4599 51.1184C27.4708 55.3398 30.2051 58.5786 30.2329 58.6109C30.5483 58.9774 30.5086 59.5303 30.1432 59.8468C29.9355 60.0266 29.667 60.0919 29.4161 60.0477Z" fill="#F287B7"/>
<path d="M55.7959 65.2008C55.5779 65.1624 55.3743 65.0421 55.2352 64.8476C55.0873 64.6411 51.6173 59.7335 52.2529 55.2928C52.3891 54.343 52.3017 53.2507 52.2009 51.9856C51.8914 48.1022 51.4667 42.7834 57.1887 35.6981C60.4983 31.6012 62.6039 30.2052 64.6401 28.8552C67.2094 27.1519 69.636 25.543 74.5963 18.4086C74.8728 18.0113 75.4213 17.9137 75.8167 18.1891C76.2144 18.4657 76.3128 19.0121 76.0362 19.4094C70.8843 26.8195 68.2027 28.5974 65.6092 30.3169C63.5952 31.6521 61.6925 32.9134 58.553 36.8004C53.2704 43.341 53.647 48.057 53.9493 51.8461C54.0539 53.1588 54.1527 54.3983 53.9889 55.5416C53.4518 59.2927 56.6291 63.7817 56.6611 63.8269C56.943 64.2205 56.8525 64.7684 56.4585 65.0503C56.259 65.1929 56.0198 65.2403 55.7959 65.2008Z" fill="#F287B7"/>
<path d="M62.4842 66.8144C62.2477 66.7727 62.0295 66.6346 61.8926 66.4148C61.7065 66.1164 57.3446 59.0525 58.1436 54.5216C58.2769 53.7656 58.3576 52.8468 58.4434 51.8746C58.826 47.5277 59.4039 40.9583 65.9443 35.5859C74.2556 28.7599 76.4101 24.2215 76.8724 22.9926C77.6514 20.9223 78.4 18.3211 77.2679 16.5707C77.0053 16.164 77.1215 15.621 77.5283 15.358C77.9355 15.095 78.4774 15.2119 78.7409 15.6183C80.2982 18.0271 79.4377 21.1547 78.5138 23.6103C77.8716 25.3174 75.4694 30.0325 67.0574 36.9413C61.0864 41.8458 60.5687 47.731 60.19 52.0283C60.1013 53.0395 60.0172 53.9951 59.8706 54.8261C59.1882 58.6964 63.3388 65.4199 63.3808 65.4874C63.6366 65.8981 63.5112 66.439 63.1 66.6951C62.909 66.8141 62.69 66.8507 62.4842 66.8144Z" fill="#F287B7"/>
<path d="M18.0592 53.6728C17.0688 53.4982 15.8318 53.097 15.048 52.1793C14.4184 51.4427 14.1862 50.484 14.376 49.4075C14.9483 46.1617 13.1173 37.6843 13.0988 37.5993C13.0309 37.2869 13.1381 36.9623 13.3791 36.7518C14.08 36.1398 17.6567 33.0651 19.2104 32.6343C20.7476 32.208 26.5292 33.4914 28.2644 33.8947C28.7363 34.0045 29.0297 34.4757 28.9201 34.9472C28.8103 35.4191 28.3414 35.719 27.8676 35.6029C24.5182 34.824 20.4362 34.1147 19.6789 34.3242C18.8849 34.5446 16.5484 36.3503 14.9202 37.7387C15.3224 39.6908 16.6543 46.586 16.103 49.7121C15.972 50.4554 16.1981 50.8248 16.3796 51.0381C17.1092 51.8958 18.9266 52.0602 19.5646 52.0514C20.0412 52.0411 20.4461 52.4299 20.4541 52.9143C20.4619 53.3978 20.0773 53.7965 19.5937 53.8047C19.4541 53.8075 18.8317 53.809 18.0592 53.6728Z" fill="#F287B7"/>
<path d="M38.3163 36.3188C35.883 35.8897 33.8067 35.475 33.7757 35.4686C33.3008 35.3736 32.9927 34.9114 33.0881 34.437C33.1828 33.9616 33.652 33.633 34.1197 33.7494C34.1664 33.7585 38.7965 34.6827 42.3071 35.1931C45.8605 35.7075 52.8733 37.0792 52.9431 37.0928C53.4183 37.1862 53.7284 37.6469 53.6355 38.1218C53.5425 38.5975 53.1084 38.9166 52.6065 38.8142C52.536 38.8 45.5658 37.438 42.055 36.9285C40.863 36.7557 39.5441 36.5353 38.3163 36.3188Z" fill="#F287B7"/>
<path d="M51.4847 59.7527C50.9344 59.6557 50.369 59.4942 49.9314 59.2266C49.2809 58.8846 44.7648 58.2213 42.0655 57.824C40.5398 57.6002 39.2225 57.4053 38.4358 57.2614C35.9456 56.8027 30.215 55.694 30.215 55.694L30.5482 53.972C30.5486 53.9721 36.2678 55.0788 38.7538 55.5367C39.5116 55.6773 40.8123 55.8675 42.3205 56.0891C47.7449 56.8856 50.1264 57.2903 50.8465 57.7307C51.4242 58.0834 52.8153 58.1583 53.3983 58.1385C53.8834 58.1219 54.2877 58.5014 54.3041 58.9856C54.32 59.4696 53.9412 59.875 53.457 59.8913C53.3083 59.8964 52.4177 59.9172 51.4847 59.7527Z" fill="#F287B7"/>
<path d="M82.4951 65.2214C82.073 65.147 81.7583 64.772 81.7722 64.331C81.7871 63.8467 82.1919 63.4668 82.6758 63.4817C83.912 63.5201 86.5733 64.022 89.653 64.6015C93.2656 65.2807 97.3587 66.0529 99.7592 66.1822C102.384 66.3241 105.285 67.017 107.205 67.4756C107.776 67.6119 108.399 67.7604 108.815 67.842C108.934 67.6117 109.095 67.3323 109.302 66.972C110.139 65.5196 111.539 63.0892 112.232 60.17C113.108 56.4843 111.845 54.0396 111.01 52.4219C110.903 52.2167 110.804 52.0249 110.717 51.8465C109.8 50.6817 98.4679 47.545 92.9077 46.9472C89.4385 46.5768 84.0797 45.1297 79.7734 43.9691C77.8315 43.4454 76.1544 42.9932 75.0481 42.7486C71.5583 41.9772 65.4657 41.1042 65.4042 41.0955C64.9148 41.0331 64.5916 40.5827 64.6601 40.1035C64.7285 39.6243 65.1725 39.2908 65.6521 39.3593C65.9043 39.396 71.8759 40.252 75.4265 41.0363C76.5722 41.2896 78.2671 41.7467 80.2302 42.2759C84.4763 43.4207 89.7623 44.844 93.0947 45.2038C97.1325 45.6384 111.165 48.7675 112.293 51.077C112.375 51.2445 112.468 51.4244 112.568 51.6171C113.464 53.3525 114.965 56.2574 113.938 60.5751C113.186 63.7431 111.706 66.312 110.822 67.8469C110.605 68.2234 110.362 68.6465 110.293 68.8117C110.262 69.0368 110.149 69.2629 109.985 69.407C109.505 69.8279 108.983 69.7025 106.798 69.181C104.94 68.7374 102.131 68.0664 99.6643 67.9332C97.1489 67.7975 92.9936 67.0156 89.3287 66.3247C86.4455 65.7823 83.7218 65.2691 82.6215 65.2346C82.5787 65.2331 82.5364 65.2287 82.4951 65.2214Z" fill="#F287B7"/>
<path d="M79.0409 64.6126C78.9718 64.6004 78.9033 64.5796 78.8363 64.55C78.7562 64.5141 76.8603 63.6407 75.5662 60.691C74.3499 57.9189 74.5596 47.9892 74.5877 46.866C74.5995 46.382 75.0017 45.9995 75.4861 46.0114C75.9643 46.0192 76.3526 46.4255 76.3407 46.9099C76.2677 49.8533 76.2746 57.9409 77.1721 59.9864C78.1741 62.2699 79.5048 62.9262 79.5609 62.9531C79.994 63.1599 80.1855 63.6788 79.9844 64.1142C79.8141 64.4833 79.423 64.6799 79.0409 64.6126Z" fill="#F287B7"/>
<path d="M66.8166 62.6248C65.8076 62.4469 64.3105 62.0664 62.0009 61.4288C60.9948 61.1505 60.0442 60.8881 59.6538 60.8193C59.1769 60.7352 58.8584 60.2804 58.9425 59.8035C59.0266 59.3266 59.4814 59.0081 59.9583 59.0922C60.431 59.1756 61.3297 59.424 62.4677 59.7382C64.014 60.1652 67.1777 61.0378 67.9698 60.9987C68.2139 60.7757 68.5819 59.9485 68.8821 59.2741C69.1912 58.5786 69.5419 57.7905 70.0126 56.9432C70.907 55.3323 71.5664 49.1221 71.7449 46.865C71.7831 46.3822 72.2057 46.022 72.6885 46.0602C73.1686 46.0962 73.5312 46.5205 73.4933 47.0038C73.4244 47.8729 72.7851 55.5618 71.5459 57.7944C71.1128 58.574 70.7787 59.3246 70.4841 59.987C69.9209 61.2528 69.5141 62.1671 68.7506 62.5815C68.3934 62.7755 67.8724 62.811 66.8166 62.6248Z" fill="#F287B7"/>
<path d="M91.3298 58.3562C85.8472 57.3894 79.3131 56.0077 78.8994 55.92C78.4255 55.8195 78.1228 55.354 78.2232 54.8804C78.3233 54.4064 78.7957 54.0993 79.2628 54.2042C79.4157 54.2373 94.5925 57.4468 98.0993 57.5352C101.782 57.6277 110.404 59.7913 110.77 59.8832C111.239 60.0016 111.524 60.4783 111.406 60.9479C111.288 61.4175 110.804 61.6965 110.341 61.584C110.254 61.5621 101.546 59.3771 98.055 59.2881C96.7929 59.256 94.2058 58.8633 91.3298 58.3562Z" fill="#F287B7"/>
<path d="M89.5842 62.3259L78.4212 60.3575C77.9444 60.2734 77.6259 59.8186 77.71 59.3417C77.7941 58.8649 78.2489 58.5464 78.7258 58.6305L89.8887 60.5988C92.1652 61.0002 95.8753 61.4492 99.4628 61.8831C104.297 62.4677 107.3 62.8425 108.105 63.1404C108.559 63.3092 108.79 63.8139 108.622 64.2676C108.454 64.7214 107.949 64.9519 107.495 64.7849C106.843 64.5416 102.81 64.0549 99.2524 63.6241C95.6414 63.1874 91.9074 62.7355 89.5842 62.3259Z" fill="#F287B7"/>
<path d="M65.1162 53.5675C63.7328 53.3236 62.5317 53.0592 62.2765 53.0024C61.8038 52.8969 61.506 52.4284 61.6115 51.9557C61.717 51.4835 62.2026 51.2 62.6583 51.2908C64.0493 51.6 67.9362 52.3779 69.1935 52.247C69.6747 52.1958 70.1059 52.5466 70.1561 53.0285C70.2064 53.5099 69.8565 53.9412 69.3747 53.991C68.4419 54.0883 66.6649 53.8406 65.1162 53.5675Z" fill="#F287B7"/>
<path d="M65.3799 57.7717C64.0475 57.5368 62.463 57.2079 61.5771 57.0199C61.1036 56.919 60.8009 56.4535 60.9014 55.98C61.0023 55.5065 61.4676 55.2047 61.9413 55.3043C64.2277 55.79 66.9681 56.3067 67.4127 56.2951C67.884 56.2852 68.3043 56.6484 68.3297 57.1228C68.3558 57.5965 68.0192 58.0037 67.5466 58.0434C67.2285 58.0699 66.3745 57.9471 65.3799 57.7717Z" fill="#F287B7"/>
<path d="M40.2186 49.1854C37.2334 48.659 31.8997 47.4295 31.6507 47.3721C31.1786 47.2632 30.8848 46.7923 30.9936 46.3206C31.1025 45.8486 31.5712 45.5495 32.045 45.6635C32.1115 45.6783 38.7584 47.2046 41.342 47.5928C42.3118 47.7364 43.5252 47.8743 44.7082 48.0094C47.5829 48.3367 48.8994 48.5067 49.4511 48.7605C49.891 48.9628 50.0835 49.4837 49.8812 49.9236C49.6793 50.3632 49.1596 50.5589 48.718 50.3537C48.3192 50.1847 46.1163 49.9354 44.5097 49.7516C43.3057 49.6146 42.0716 49.4735 41.0856 49.3274C40.8293 49.2896 40.5373 49.2416 40.2186 49.1854Z" fill="#F287B7"/>
<path d="M44.6298 54.46C43.5516 54.2699 42.4576 54.0613 41.567 53.8578C38.9912 53.2706 30.9805 51.9911 30.8997 51.9782C30.3971 51.8822 30.0952 51.452 30.1716 50.9742C30.2481 50.496 30.6973 50.17 31.1756 50.2461C31.5065 50.2996 39.3258 51.548 41.9576 52.1485C44.0534 52.6276 47.3585 53.1417 48.7706 53.3612C49.1307 53.4173 49.3841 53.4567 49.4896 53.4753C49.9664 53.5594 50.2849 54.0142 50.2008 54.4911C50.1167 54.968 49.6619 55.2864 49.185 55.2024C49.0851 55.1847 48.8435 55.1473 48.5012 55.0939C47.6621 54.9634 46.1616 54.7301 44.6298 54.46Z" fill="#F287B7"/>
<path d="M19.2147 49.5509L17.3996 49.2309C16.9227 49.1468 16.6042 48.692 16.6883 48.2151C16.7724 47.7382 17.2272 47.4197 17.7041 47.5038L19.5193 47.8239C19.9961 47.908 20.3146 48.3628 20.2305 48.8397C20.1464 49.3165 19.6916 49.635 19.2147 49.5509Z" fill="#F287B7"/>
<path d="M20.4787 45.3435L17.6508 44.8449C17.1739 44.7608 16.8554 44.306 16.9395 43.8291C17.0236 43.3522 17.4784 43.0338 17.9553 43.1178L20.7833 43.6165C21.2601 43.7006 21.5786 44.1554 21.4945 44.6323C21.4104 45.1091 20.9556 45.4276 20.4787 45.3435Z" fill="#F287B7"/>
<path d="M59.1571 17.6353C58.5525 17.5287 58.0592 17.21 57.7307 16.7134C56.8316 15.3549 57.3721 13.0121 57.8062 11.1293C57.8974 10.7358 57.9789 10.3846 58.028 10.1059C58.4485 7.72105 61.9338 7.6574 62.3298 7.65808C62.3676 7.65781 62.405 7.66048 62.4424 7.66534C62.5027 7.67336 68.5836 8.47431 72.9816 9.52455C73.5774 9.66656 74.1108 9.78236 74.586 9.88571C77.8189 10.5879 79.1042 11.0237 78.4382 14.8007C78.147 16.4523 77.3623 17.7364 76.1695 18.5147C74.9572 19.3048 73.3028 19.5452 71.7632 19.1712C70.6882 18.9068 67.4052 18.5649 64.5116 18.2634C62.2601 18.0289 60.1328 17.8073 59.1571 17.6353ZM62.2744 9.4121C61.4246 9.42616 59.8762 9.72352 59.755 10.4104C59.7016 10.7135 59.6137 11.0958 59.5153 11.5237C59.2336 12.7439 58.7096 15.0153 59.193 15.7456C59.2465 15.8264 59.3099 15.8815 59.4617 15.9082C60.3766 16.0696 62.4732 16.288 64.6935 16.5195C67.7877 16.842 70.9878 17.178 72.181 17.4676C73.2644 17.7312 74.3982 17.5759 75.2112 17.0459C75.9987 16.5322 76.5034 15.6743 76.7111 14.4962C76.9776 12.9848 76.1452 12.0192 74.2139 11.5995C73.7282 11.4939 73.1835 11.3752 72.5748 11.2301C68.4976 10.259 62.9134 9.4987 62.2744 9.4121Z" fill="#F287B7"/>
<path d="M62.5782 32.1428C62.1549 32.0682 61.8401 31.691 61.8555 31.2489C61.9196 29.406 61.8073 24.1427 60.5343 21.9462C58.5831 18.5806 60.0751 16.5395 60.1397 16.4544C60.4316 16.0685 60.9802 15.99 61.3679 16.284C61.7496 16.5726 61.8286 17.113 61.5485 17.4984C61.4959 17.5774 60.7343 18.7947 62.0514 21.0668C63.8385 24.1496 63.6184 31.0194 63.6079 31.3106C63.5909 31.7945 63.185 32.1729 62.7011 32.1558C62.6593 32.1541 62.6183 32.1499 62.5782 32.1428Z" fill="#F287B7"/>
<path d="M66.4735 29.4258C66.1282 29.3649 65.8387 29.0983 65.7661 28.7337C65.4269 27.0354 64.4152 22.3238 63.8129 20.9338C62.9646 18.977 63.079 17.3268 63.0843 17.2573C63.1212 16.7747 63.5423 16.4129 64.0254 16.4499C64.5028 16.4862 64.868 16.9054 64.8331 17.387C64.8316 17.4154 64.759 18.7073 65.4218 20.2367C66.2213 22.081 67.4344 28.1336 67.4857 28.39C67.5806 28.865 67.2722 29.3271 66.7977 29.4217C66.6873 29.4435 66.5781 29.4443 66.4735 29.4258Z" fill="#F287B7"/>
<path d="M66.9897 41.2683C66.929 41.2576 66.8685 41.2404 66.8094 41.216C66.3835 41.0423 66.1683 40.5713 66.3051 40.1407C66.348 39.7004 66.005 37.9075 65.6498 36.475C65.5332 36.0049 65.82 35.5294 66.2897 35.4127C66.7578 35.2952 67.2351 35.5815 67.352 36.0525C68.3018 39.8828 68.0389 40.5251 67.9526 40.7364C67.7936 41.1252 67.3873 41.3384 66.9897 41.2683Z" fill="#F287B7"/>
<path d="M71.2223 42.1219C70.7736 42.0428 70.4561 41.6294 70.5029 41.169C70.6246 39.9836 69.2556 36.3416 68.3643 34.325C68.1686 33.8818 68.369 33.3642 68.8117 33.1683C69.2555 32.9718 69.7717 33.1729 69.9684 33.6158C70.3849 34.5578 72.4515 39.3567 72.2478 41.348C72.1981 41.8296 71.7676 42.1802 71.2859 42.1309C71.2646 42.1285 71.2433 42.1256 71.2223 42.1219Z" fill="#F287B7"/>
<path d="M78.5697 19.8267C78.0932 19.7427 77.7746 19.2888 77.8583 18.8118C77.9419 18.3349 78.3964 18.0159 78.8733 18.0996C78.8835 18.1013 80.1471 18.3094 81.2185 17.9388C81.3509 17.893 81.6447 17.5705 81.8688 16.9009C82.2469 15.7724 82.1947 14.419 81.7474 13.7532C81.2333 12.9874 79.1159 13.0157 77.8466 13.2758C77.3741 13.372 76.9095 13.068 76.8113 12.5937C76.7141 12.1197 77.0184 11.6564 77.4922 11.5582C77.9321 11.4671 81.8273 10.7284 83.2032 12.7752C84.0775 14.0771 83.9982 16.0652 83.5318 17.458C83.1564 18.5783 82.5387 19.3375 81.7918 19.5963C80.2834 20.118 78.6388 19.8389 78.5697 19.8267Z" fill="#F287B7"/>
<path d="M98.3791 47.9148C98.0405 47.8551 97.7554 47.5983 97.6757 47.2438C97.6585 47.1765 97.0315 44.8717 92.6044 39.6323C88.1989 34.4184 81.3042 24.1864 81.0773 22.5265C81.0197 22.1086 80.0387 22.1151 80.0286 22.1155C79.5471 22.1341 79.136 21.7634 79.1131 21.2816C79.0903 20.7997 79.4581 20.3903 79.9396 20.3643C81.1881 20.2984 82.6205 20.871 82.8148 22.2886C83.0946 23.4905 89.2086 32.8962 93.9438 38.5008C98.7105 44.1418 99.3335 46.6071 99.3889 46.8699C99.4889 47.3436 99.186 47.8088 98.7119 47.9087C98.599 47.9327 98.4862 47.9337 98.3791 47.9148Z" fill="#F287B7"/>
<path d="M102.496 45.5173C102.002 45.4301 100.671 44.9733 99.7078 42.5906C98.813 40.3773 92.9646 30.0198 90.8334 26.6273C88.8894 23.5321 84.5099 19.5341 84.4658 19.4937C84.1076 19.1679 84.0814 18.6138 84.4072 18.2552C84.7325 17.8973 85.2866 17.8711 85.6458 18.1962C85.8323 18.366 90.2459 22.3949 92.3187 25.6945C94.3127 28.869 100.335 39.4632 101.334 41.9335C102.021 43.6341 102.778 43.7876 102.786 43.789C103.274 43.8064 103.622 44.2063 103.607 44.6906C103.591 45.1744 103.158 45.5523 102.674 45.5375C102.646 45.5364 102.585 45.533 102.496 45.5173Z" fill="#F287B7"/>
<path d="M24.551 74.849C24.5509 74.8459 24.5509 74.8426 24.5504 74.8391C24.5287 74.6686 24.6226 74.5698 24.6226 74.5698C24.6458 74.5427 24.6677 74.5144 24.6891 74.4847C24.9379 74.1462 25.0813 73.6411 25.0589 73.1534C25.0535 73.0346 24.865 73.041 24.841 72.9276C24.8307 72.8789 24.8505 72.8081 24.8731 72.7352C24.8798 72.7159 24.886 72.6958 24.8915 72.6758C24.915 72.5985 24.9332 72.5247 24.9132 72.4778C24.8935 72.4319 24.8717 72.3873 24.848 72.3444L24.8339 72.3185C24.6761 72.0438 24.4448 71.8784 24.1932 71.8375C23.9738 71.8018 23.7251 71.8538 23.5213 72.0362C23.5213 72.0362 23.3767 72.1507 23.2329 72.0345C23.229 72.0313 23.225 72.0284 23.2211 72.0258C23.0698 71.8976 22.9118 71.7859 22.7445 71.7029C22.6086 71.6356 22.4683 71.5844 22.3253 71.5499C21.9952 71.4703 21.6631 71.4822 21.3398 71.5704C21.3351 71.5709 21.3304 71.5719 21.3255 71.573C21.1531 71.6133 21.0752 71.4476 21.0752 71.4476C20.8441 70.961 20.2534 70.7146 19.7659 71.1351C19.2343 71.5941 19.0372 72.5701 19.2538 73.2284C19.2538 73.2284 19.3038 73.3609 19.2288 73.5042C18.9378 74.0501 18.7175 74.6797 18.5982 75.3559C18.178 77.7394 19.1698 79.8294 20.7875 80.2721C22.4241 80.72 24.0772 79.3152 24.5064 76.8811C24.6276 76.1936 24.6367 75.4998 24.551 74.849ZM21.5406 75.8826C21.7751 75.9429 21.9517 76.0701 21.9271 76.2094C21.9026 76.3486 21.6569 76.613 21.4225 76.5521C21.1885 76.4913 21.0543 76.1292 21.0788 75.9904C21.1032 75.8516 21.3065 75.8223 21.5406 75.8826ZM19.6332 72.7615C19.6215 72.7424 19.6137 72.7182 19.6081 72.6929C19.6057 72.682 19.6035 72.6706 19.6017 72.6593C19.5662 72.4469 19.5916 72.2037 19.6708 72.0002C19.8278 71.5964 20.1623 71.4199 20.4307 71.5442C20.5012 71.5767 20.5665 71.629 20.6215 71.7001C20.6441 71.7293 20.6632 71.764 20.6786 71.8026C20.6847 71.8176 20.69 71.8339 20.6899 71.8521C20.6898 71.8792 20.6776 71.9055 20.6623 71.9227C20.6472 71.9399 20.6293 71.9498 20.6119 71.9596C20.3027 72.1356 20.0239 72.4273 19.7602 72.7338C19.7179 72.7832 19.6735 72.8274 19.6332 72.7615ZM19.7441 76.3418C19.5102 76.2365 19.3703 75.7881 19.3611 75.3718C19.357 75.188 19.415 74.3637 19.8909 73.8763C20.0492 73.7141 20.2539 73.5888 20.5183 73.5366C20.5183 73.5366 20.6324 73.5184 20.7687 73.5505C20.8904 73.5792 21.0298 73.648 21.1217 73.8057C21.3172 74.141 21.2387 74.6049 21.0527 74.8047C20.8669 75.0043 20.4452 75.4635 20.284 75.8856C20.123 76.3073 19.9784 76.4472 19.7441 76.3418ZM21.1517 78.1077C21.1505 78.1075 21.1496 78.1073 21.1484 78.107L21.1448 78.106C20.6762 77.977 20.3876 77.3675 20.4777 76.8564C20.5089 76.6794 20.5752 76.6018 20.6916 76.6823C20.759 76.7289 21.0365 76.9223 21.3077 76.9955L21.3417 77.0044L21.3436 77.0049C21.3489 77.0063 21.3654 77.0108 21.3776 77.0138C21.6502 77.0828 21.9705 77.0451 22.0483 77.0363C22.183 77.0211 22.2177 77.1258 22.1864 77.3036C22.0957 77.8179 21.6235 78.2286 21.1517 78.1077ZM23.7379 76.4934C23.5856 76.8744 23.2997 77.2182 23.0446 77.1966C22.7899 77.175 22.7033 76.9732 22.6977 76.5042C22.6922 76.0355 22.458 75.4044 22.3543 75.1299C22.2506 74.8559 22.3358 74.3916 22.6303 74.178C22.7693 74.0772 22.9221 74.0812 23.045 74.1136C23.1832 74.15 23.2834 74.2222 23.2834 74.2222C23.5128 74.3994 23.6619 74.6154 23.7549 74.8434C24.0354 75.5314 23.8052 76.3253 23.7379 76.4934ZM24.4889 73.8692C24.4831 73.8788 24.4773 73.8883 24.4711 73.8974C24.457 73.9181 24.4414 73.9368 24.4237 73.9488C24.3626 73.9905 24.3359 73.9276 24.3128 73.8613C24.1694 73.4484 24.0071 73.0435 23.7769 72.7322C23.7639 72.7148 23.7506 72.6971 23.7423 72.674C23.734 72.6508 23.7314 72.6206 23.7406 72.5955C23.7469 72.5785 23.7574 72.5659 23.7683 72.5549C23.796 72.5264 23.8258 72.5033 23.857 72.4869C23.9331 72.4471 24.0126 72.4295 24.0902 72.4327C24.3866 72.4447 24.6427 72.7692 24.6518 73.2211C24.6564 73.4491 24.5963 73.6885 24.4889 73.8692ZM29.0122 73.2639L29.3778 73.4725L29.1947 74.5114L28.7907 74.2918C28.5598 74.2352 28.4039 74.4371 28.343 74.7824L28.1721 75.7514L28.942 75.9446L28.7588 76.9834L27.9894 76.7874L27.2181 81.1618L26.4549 80.9552L27.2241 76.5925L26.6148 76.4373L26.7966 75.4063L27.4063 75.5592L27.5565 74.7077C27.7387 73.6744 28.2432 73.0781 29.0122 73.2639ZM20.8372 74.6288C20.8154 74.7529 20.7264 74.8353 20.6384 74.8129C20.5505 74.7906 20.4971 74.672 20.5189 74.5481C20.5408 74.4243 20.6297 74.3418 20.7176 74.364C20.8055 74.3862 20.8591 74.5048 20.8372 74.6288ZM30.9787 76.3343C29.9646 76.0803 28.8698 77.0116 28.5746 78.6859C28.2794 80.3602 28.9639 81.7556 29.9745 82.0295C30.9922 82.3053 32.1047 81.381 32.4039 79.6845C32.703 77.9879 31.9999 76.5901 30.9787 76.3343ZM30.1589 80.9834C29.4193 80.7857 29.1744 79.8716 29.3479 78.8876C29.5214 77.9035 30.053 77.1919 30.7943 77.3804C31.5394 77.5698 31.789 78.4867 31.6142 79.4785C31.4393 80.4703 30.9024 81.1821 30.1589 80.9834ZM22.976 75.171C22.9539 75.2961 22.8637 75.3789 22.7744 75.3562C22.6851 75.3334 22.6307 75.214 22.6528 75.0891C22.6748 74.9641 22.765 74.8813 22.8542 74.9038C22.9435 74.9264 22.9981 75.0459 22.976 75.171ZM48.6373 80.7327C47.8433 80.5339 47.1324 81.0072 46.7869 81.9452L47.527 82.3765C47.7591 81.8914 48.0601 81.7016 48.4407 81.7983C48.9137 81.9185 49.1974 82.331 49.0743 83.0291L49.0291 83.2851L48.3067 83.0984C47.2253 82.819 46.385 83.3501 46.1754 84.5388C45.9719 85.6929 46.4043 86.451 47.1359 86.6492C47.7054 86.8035 48.1873 86.6295 48.5785 86.1377L48.5261 86.9283L49.2594 87.1267L49.9034 83.4744C50.1771 81.9225 49.7523 81.012 48.6373 80.7327ZM48.8281 84.4254C48.744 84.9025 48.5723 85.2346 48.301 85.4425C48.0405 85.6407 47.7614 85.6999 47.4723 85.6226C47.1344 85.5323 47.0044 85.1945 47.0778 84.7778C47.1758 84.2222 47.5667 83.9613 48.0955 84.0998L48.8506 84.2974L48.8281 84.4254ZM54.4248 84.7031L53.7816 88.3505L52.8707 88.104L53.512 84.4672C53.6262 83.6576 53.4238 83.1345 52.825 82.9822C52.2917 82.8466 51.7446 83.3327 51.5992 84.051L50.975 87.591L50.0803 87.3489L51.1104 81.5074L51.918 81.71L51.9201 82.2312L51.9541 82.3049L52.0101 82.2539C52.2563 81.9252 52.7519 81.7888 53.114 81.8795C54.2058 82.153 54.6687 83.3196 54.4248 84.7031ZM62.5489 84.2167C61.6819 83.9995 60.9107 84.487 60.5416 85.465L61.3517 85.9252C61.6008 85.4199 61.9274 85.2246 62.3431 85.3302C62.8598 85.4615 63.1724 85.8967 63.0438 86.6265L62.9966 86.8941L62.2074 86.6901C61.0263 86.385 60.1148 86.9312 59.8958 88.1732C59.6832 89.3791 60.1603 90.178 60.9592 90.3945C61.5813 90.563 62.1053 90.3867 62.5279 89.8763L62.4771 90.7037L63.2784 90.9206L63.9516 87.1026C64.2377 85.4802 63.7671 84.5217 62.5489 84.2167ZM62.7864 88.086C62.6985 88.5846 62.514 88.9304 62.2198 89.1449C61.9373 89.3494 61.6336 89.408 61.3178 89.3236C60.9487 89.2249 60.8044 88.8697 60.8811 88.4342C60.9835 87.8536 61.4075 87.585 61.9851 87.7362L62.81 87.9522L62.7864 88.086ZM58.8615 83.9846L58.8033 84.0365L58.7675 83.9609C58.5531 83.5079 58.12 83.1336 57.6621 83.0189C56.4536 82.7162 55.2161 83.7219 54.8939 85.549C54.5717 87.3762 55.3614 88.9105 56.5657 89.2369C57.0313 89.3631 57.5432 89.2352 57.8915 88.9289L57.9496 88.8778L57.9853 88.9541L57.9892 89.4892L58.8358 89.7183L60.4002 80.8467L59.4551 80.6184L58.8615 83.9846ZM56.8135 88.1073C55.9318 87.8716 55.6164 86.861 55.8058 85.7868C55.9952 84.7126 56.6236 83.9481 57.5073 84.1728C58.3022 84.3749 58.7084 85.4105 58.5173 86.4939C58.3263 87.5773 57.6067 88.3193 56.8135 88.1073ZM35.2213 77.3971C34.1774 77.1356 33.0536 78.0772 32.7541 79.7758C32.4546 81.4743 33.1622 82.8935 34.2024 83.1754C35.2501 83.4594 36.3924 82.5251 36.696 80.8037C36.9995 79.0822 36.2726 77.6605 35.2213 77.3971ZM34.3895 82.1141C33.6282 81.9106 33.374 80.9817 33.55 79.9833C33.726 78.9849 34.2711 78.2644 35.0341 78.4584C35.8012 78.6535 36.0604 79.5853 35.8829 80.5917C35.7055 81.598 35.1549 82.3187 34.3895 82.1141ZM44.441 79.7068C44.0131 79.5996 43.5436 79.7352 43.2241 80.0346L43.1709 80.0844L43.1306 80.0109L43.1396 79.5072L42.3767 79.3158L40.9241 87.554L41.7594 87.7875L42.2976 84.735L42.3592 84.6882L42.3909 84.7601C42.5814 85.1924 42.9723 85.5525 43.3903 85.6658C44.5046 85.9678 45.6698 85.0007 45.9828 83.2254C46.2959 81.4499 45.5592 79.9869 44.441 79.7068ZM43.5406 84.5599C42.8161 84.3662 42.4563 83.3824 42.6378 82.3531C42.8193 81.3237 43.4791 80.6058 44.2052 80.7904C45.0208 80.9978 45.3011 81.9621 45.1181 82.9999C44.9351 84.0376 44.3543 84.7774 43.5406 84.5599ZM40.6082 79.3738L40.5558 79.4233L40.5246 79.3526C40.3377 78.9294 39.9551 78.583 39.5481 78.4811C38.4734 78.2118 37.3605 79.1742 37.0566 80.8977C36.7527 82.6212 37.4433 84.0538 38.5143 84.3441C38.9282 84.4563 39.3856 84.3289 39.6988 84.0361L39.751 83.9872L39.7821 84.0585L39.7808 84.5615L40.533 84.7651L42.0074 76.4033L41.1677 76.2005L40.6082 79.3738ZM38.7455 83.2783C37.9614 83.0687 37.6893 82.1224 37.8679 81.1093C38.0466 80.0962 38.6138 79.3687 39.3996 79.5685C40.1062 79.7482 40.4587 80.7166 40.2786 81.7379C40.0986 82.7592 39.4505 83.4667 38.7455 83.2783Z" fill="white"/>
</g>
<defs>
<clipPath id="clip0_159_68387">
<rect width="103.386" height="113.229" fill="white" transform="translate(19.6621) rotate(10)"/>
</clipPath>
</defs>
</svg>
