<svg width="128" height="89" viewBox="0 0 128 89" fill="none" xmlns="http://www.w3.org/2000/svg">
<g clip-path="url(#clip0_159_68551)">
<path fill-rule="evenodd" clip-rule="evenodd" d="M46.1182 9.75439L44.4772 15.8786L45.0237 19.051L39.007 38.8995C39.007 38.8995 41.7062 39.2503 43.3505 40.0633L48.1603 19.3328C48.1603 19.3328 50.0143 16.7571 50.1074 16.4096C50.2005 16.0621 51.0697 11.0811 51.0697 11.0811L46.1182 9.75439Z" fill="#999999"/>
<path fill-rule="evenodd" clip-rule="evenodd" d="M72.2325 15.7975L66.0697 30.0672L65.2232 33.2261L74.5399 35.7224L76.1457 29.7295L77.2468 16.8896L72.2325 15.7975Z" fill="#999999"/>
<path fill-rule="evenodd" clip-rule="evenodd" d="M96.5082 23.4476C96.5082 23.4476 94.0568 24.648 94.1746 27.8567C94.2924 31.0655 94.8883 36.0084 94.8883 36.0084C94.8883 36.0084 95.269 40.8588 94.6624 42.2674C94.0558 43.676 96.8902 44.0737 96.8902 44.0737C96.8902 44.0737 100.112 45.4386 102.758 44.2969C102.758 44.2969 103.585 42.7729 104.544 36.3263C105.503 29.8798 106.379 27.9148 106.342 27.6606C106.306 27.4064 104.643 24.2303 104.643 24.2303L103.497 26.206L101.823 32.4548L101.381 33.1355C101.381 33.1355 99.9162 34.6544 98.5048 32.5195C97.0935 30.3846 97.8588 26.2253 97.8588 26.2253L96.5082 23.4476Z" fill="#999999"/>
<path fill-rule="evenodd" clip-rule="evenodd" d="M15.6274 4.53816C15.6274 4.53816 17.7687 2.62742 18.4741 4.16461C19.1795 5.7018 18.3326 8.17492 20.2412 8.77944C22.1498 9.38396 24.0873 7.53889 24.0873 7.53889L24.5462 3.74148C24.5462 3.74148 26.4334 2.43161 27.2105 4.2226C27.9875 6.01359 29.257 7.70379 28.3237 10.6658C27.3904 13.6279 24.7361 14.4994 24.7361 14.4994C24.7361 14.4994 23.1932 16.0878 22.8844 17.5878C22.5756 19.0879 14.65 48.6665 14.65 48.6665C14.65 48.6665 15.2999 50.2372 16.3344 52.2834C17.3689 54.3296 17.0798 56.1142 17.0798 56.1142L15.8142 58.5682C15.8142 58.5682 13.858 59.4406 13.6495 56.9175C13.4411 54.3944 11.3773 53.2362 11.3773 53.2362C11.3773 53.2362 9.12506 53.9971 9.03375 54.3379C8.94244 54.6786 8.15819 56.9106 8.15819 56.9106C8.15819 56.9106 7.46211 59.6821 5.94587 58.3913C4.42963 57.1005 3.76269 54.03 3.97107 53.5998C4.17945 53.1696 6.94764 49.0931 7.13051 48.7581C7.31338 48.4231 8.79544 45.498 8.79544 45.498L11.0933 37.4434L16.9069 14.3568C16.9069 14.3568 15.176 10.9137 14.734 9.95728C14.292 9.0009 15.6274 4.53816 15.6274 4.53816Z" fill="#999999"/>
<path fill-rule="evenodd" clip-rule="evenodd" d="M92.9244 42.6862L91.7955 46.8993L86.0193 56.9897L82.9955 61.6727L81.0281 67.1043L79.8168 74.9264L81.1535 78.4501L82.594 78.8361C82.594 78.8361 84.2943 78.0216 84.3392 77.854C84.3841 77.6864 85.9103 70.6004 85.9103 70.6004L89.8935 58.1675L94.6903 52.2837L96.0517 43.5242L93.6819 42.1179L92.9244 42.6862Z" fill="#E0B6A6"/>
<path fill-rule="evenodd" clip-rule="evenodd" d="M102.105 44.7271L102.703 50.1478L105.193 58.403L107.35 66.3363L107.979 75.6291L109.592 80.9027L111.643 81.4525L113.516 79.1145L113.972 68.2038C113.972 68.2038 109.736 56.7342 109.653 56.5256C109.569 56.3169 106.379 49.457 106.379 49.457L104.849 43.1813L102.105 44.7271Z" fill="#E0B6A6"/>
<path fill-rule="evenodd" clip-rule="evenodd" d="M65.1865 33.6245L62.5886 38.6543L60.8291 41.7209L59.9531 44.1216L55.049 51.6521L52.0346 56.8215L50.2242 66.5315L50.8482 70.2832L51.9821 71.6112L53.023 71.7039L54.0065 69.6155L58.0932 58.7073C58.0932 58.7073 61.6468 49.0933 61.7031 48.8835C61.7593 48.6736 65.5223 43.4905 65.7551 42.6218L67.9663 34.3693L65.1865 33.6245Z" fill="#538052"/>
<path fill-rule="evenodd" clip-rule="evenodd" d="M72.1077 35.2464L70.6762 40.5887L69.4023 46.9044L70.4698 52.8233L68.4128 62.9326L66.1542 72.3828L66.1766 74.9492L67.3142 75.7195L69.7018 73.932L73.7387 65.9891C73.7387 65.9891 75.261 54.7483 75.2019 54.6214C75.1428 54.4944 74.0929 46.2526 74.0929 46.2526L74.7795 43.69L74.4988 41.2406L74.5399 35.7225L72.1077 35.2464Z" fill="#538052"/>
<path fill-rule="evenodd" clip-rule="evenodd" d="M35.2092 41.3891C35.2092 41.3891 37.6129 39.5851 38.9712 39.0762C40.3296 38.5674 42.5328 39.3733 43.0758 40.1761C43.6188 40.9788 45.051 43.3588 45.051 43.3588L45.3824 46.0313L43.7201 50.02L42.9963 57.5421C42.9963 57.5421 40.1538 66.7977 40.0337 66.7497C39.9136 66.7016 34.6454 68.6418 31.7067 66.3181C28.7681 63.9945 28.9911 60.9469 29.026 60.8166L31.7406 50.6856L34.1221 44.7947L34.0886 41.9228L35.2092 41.3891Z" fill="#382B26"/>
<path d="M20.7887 10.2522C18.0418 9.51617 17.6091 6.35865 17.7893 4.68047C17.8407 4.19913 18.2728 3.85038 18.7544 3.90231C19.2309 3.95198 19.5836 4.38423 19.5331 4.86538C19.5181 5.01073 19.2071 8.35816 21.6377 8.63178C22.2234 8.69917 22.5161 8.48995 22.6848 8.32682C23.587 7.45466 23.6174 5.09807 23.5559 4.34139C23.5177 3.85865 23.8774 3.43599 24.3603 3.39737C24.8402 3.35663 25.2646 3.71813 25.3045 4.2009C25.3348 4.58401 25.5569 7.99004 23.9037 9.58777C23.2565 10.2131 22.4035 10.485 21.4377 10.3742C21.2089 10.3479 20.9921 10.3067 20.7887 10.2522Z" fill="#FF2B85"/>
<path d="M8.85435 47.4793C8.39654 47.3566 8.11764 46.8905 8.22939 46.4271C8.28355 46.2018 9.56465 40.8963 10.0261 39.634C10.1973 39.1656 10.8096 36.7695 11.5186 33.9946C12.5724 29.8715 14.0153 24.2251 15.1992 20.2153C16.7517 14.9573 16.4827 14.6343 15.3511 13.2762C15.0828 12.9543 14.7774 12.587 14.4431 12.126C12.1362 8.94896 14.9611 4.67589 15.0825 4.49567C15.3523 4.09413 15.8952 3.98871 16.2979 4.25751C16.6995 4.52692 16.8067 5.07157 16.5381 5.47344C16.5152 5.50764 14.2767 8.91216 15.8618 11.0957C16.1701 11.52 16.4516 11.8574 16.6984 12.1536C18.371 14.1611 18.5531 15.0481 16.8808 20.712C15.7061 24.6905 14.268 30.3192 13.2177 34.429C12.3353 37.8826 11.8657 39.7098 11.6733 40.2358C11.3184 41.2063 10.2975 45.3306 9.93402 46.8378C9.82068 47.3087 9.3468 47.5984 8.87638 47.4848C8.86882 47.4832 8.86138 47.4812 8.85435 47.4793Z" fill="#FF2B85"/>
<path d="M7.8947 58.3105C7.49851 58.2044 7.21972 57.8305 7.24847 57.4056C7.26835 57.1064 7.48885 54.4506 8.99318 53.2415C9.59852 52.7557 10.3375 52.5619 11.1307 52.6818C13.7931 53.0813 14.3724 56.0539 14.3072 57.5678C14.2857 58.0514 13.8767 58.4267 13.393 58.4057C12.9101 58.3849 12.5337 57.9765 12.5545 57.4918C12.5552 57.4663 12.6544 54.6773 10.8683 54.4155C10.5564 54.3687 10.3181 54.4276 10.0935 54.6073C9.32375 55.2237 9.03743 56.9638 8.99798 57.5246C8.96348 58.0074 8.54577 58.3719 8.06279 58.3383C8.00532 58.3344 7.94929 58.3251 7.8947 58.3105Z" fill="#FF2B85"/>
<path d="M15.6905 59.5209C15.5341 59.479 15.3885 59.3939 15.2712 59.2658C14.9462 58.9106 14.9687 58.3603 15.3206 58.0326C15.377 57.9777 16.4298 56.9336 16.4328 54.7851C16.434 53.7615 15.6968 52.9035 14.983 52.0736C14.1864 51.146 13.2837 50.0948 13.6098 48.7819C14.0536 46.9931 19.246 27.7405 19.4671 26.9221L22.1211 17.017C22.2465 16.5493 22.7269 16.2716 23.1951 16.397C23.6632 16.5224 23.9404 17.0032 23.8151 17.4709L21.1607 27.3773C21.1066 27.5791 15.7514 47.4325 15.312 49.2048C15.2036 49.6389 15.7429 50.2666 16.314 50.9307C17.1485 51.9025 18.1885 53.1129 18.1859 54.7868C18.1824 57.7574 16.5781 59.2587 16.5099 59.3211C16.2808 59.531 15.97 59.5958 15.6905 59.5209Z" fill="#FF2B85"/>
<path d="M24.6697 15.7206C24.3926 15.6464 24.157 15.4374 24.0618 15.1442C23.9127 14.6849 24.1626 14.1925 24.6198 14.0411C24.691 14.0167 26.1549 13.4963 26.9493 11.7988C27.7488 10.092 27.6069 7.80268 26.5288 4.99436C26.3547 4.54216 26.5811 4.035 27.0327 3.86126C27.4851 3.68817 27.992 3.91396 28.1653 4.36553C29.4299 7.65907 29.5487 10.4249 28.5174 12.5864C27.3816 14.9659 25.2564 15.6784 25.1662 15.7074C24.9991 15.7619 24.8277 15.763 24.6697 15.7206Z" fill="#FF2B85"/>
<path d="M5.52496 59.9053C5.34176 59.8562 5.17316 59.7477 5.05035 59.584C3.52746 57.5506 2.92677 55.4814 3.26508 53.4347C3.81663 50.1026 6.67949 48.1096 6.80146 48.0266C7.20144 47.753 7.74744 47.8558 8.01989 48.2551C8.29327 48.6541 8.19168 49.1987 7.79294 49.4726C7.75195 49.5015 5.41252 51.1556 4.99329 53.7342C4.74076 55.2871 5.23236 56.9015 6.45429 58.5329C6.74449 58.9205 6.66556 59.4698 6.27786 59.7605C6.05383 59.9283 5.77558 59.9725 5.52496 59.9053Z" fill="#FF2B85"/>
<path d="M38.8884 40.2065L38.8727 40.2022C38.4069 40.0681 38.139 39.5823 38.2726 39.1168L44.1824 18.6031L43.6671 17.3134C43.5964 17.1376 43.5853 16.944 43.6343 16.7612L45.4703 9.90898C45.5957 9.44124 46.0761 9.16352 46.5442 9.28895L48.0099 9.68167C48.478 9.80711 48.7552 10.2878 48.6299 10.7556C48.5046 11.2233 48.0241 11.501 47.556 11.3756L46.9373 11.2098L45.4037 16.9335L45.922 18.2314C45.9941 18.4121 46.0044 18.6121 45.9506 18.7994L39.9581 39.6022C39.8251 40.0621 39.3491 40.3299 38.8884 40.2065Z" fill="#FF2B85"/>
<path d="M31.9326 67.4292C28.654 66.5507 27.7825 63.6891 27.7452 63.5603C27.7031 63.4161 27.6988 63.2634 27.7328 63.1169C28.7412 58.7578 30.5325 51.3151 31.1949 50.4443C31.8158 49.6289 33.7206 46.0007 33.4157 43.9195C33.0316 41.2936 35.4129 40.1777 36.7262 39.9547C37.2059 39.8749 37.6561 40.1964 37.7377 40.6726C37.8184 41.149 37.4987 41.601 37.0227 41.6835C36.802 41.7232 34.923 42.1089 35.1504 43.6654C35.5691 46.5195 33.2769 50.6046 32.5911 51.5064C32.2181 52.1506 30.7329 57.9484 29.4994 63.2596C29.7346 63.8244 30.5983 65.4547 32.8766 65.8417C33.364 65.9249 33.6759 66.3755 33.595 66.8529C33.5132 67.3301 33.0609 67.6517 32.5835 67.5708C32.3563 67.5321 32.1394 67.4846 31.9326 67.4292Z" fill="#FF2B85"/>
<path d="M42.8693 41.2732C42.4086 41.1497 42.1303 40.6798 42.2451 40.215L47.456 19.2028C47.5031 19.0137 47.612 18.8456 47.7649 18.7248L48.8635 17.8605L50.3971 12.1369L49.7776 11.9709C49.3095 11.8455 49.0322 11.3647 49.1576 10.897C49.2829 10.4293 49.7633 10.1516 50.2315 10.277L51.698 10.6699C52.1661 10.7954 52.4433 11.2761 52.318 11.7438L50.4819 18.5961C50.433 18.7789 50.3256 18.9411 50.1772 19.0583L49.0855 19.9169L43.9474 40.6374C43.8304 41.1074 43.3556 41.3937 42.885 41.2774L42.8693 41.2732Z" fill="#FF2B85"/>
<path d="M35.2808 68.3263C35.0741 68.2708 34.8625 68.2035 34.6464 68.1234C34.1925 67.9548 33.9616 67.4502 34.1293 66.996C34.2979 66.5421 34.8011 66.3086 35.2571 66.4795C37.416 67.2823 38.9806 66.3066 39.4729 65.9315C41.0604 60.7151 42.6723 54.9509 42.669 54.169C42.5302 53.0826 42.5891 48.3964 44.3761 46.1373C45.3829 44.8645 43.816 43.5427 43.7485 43.4869C43.3757 43.1778 43.3235 42.6248 43.6326 42.252C43.9414 41.8804 44.4945 41.8278 44.8675 42.1361C45.8933 42.9859 47.3978 45.1429 45.7513 47.2247C44.4491 48.8722 44.2831 52.969 44.412 53.9866C44.5504 55.0711 42.3804 62.4123 41.0742 66.6916C41.0303 66.8354 40.9502 66.9656 40.8417 67.0695C40.745 67.1624 38.5588 69.2041 35.2808 68.3263Z" fill="#FF2B85"/>
<path d="M39.7798 45.3028C38.4093 44.9356 37.2863 44.3856 37.215 44.3505C36.7813 44.1363 36.6038 43.611 36.8177 43.1767C37.0316 42.7424 37.5589 42.5677 37.9919 42.7781C38.0145 42.7895 40.2965 43.904 42.0213 43.8755C42.502 43.8678 42.9042 44.2526 42.9125 44.738C42.9202 45.2219 42.534 45.621 42.0497 45.6287C41.3035 45.641 40.5069 45.4976 39.7798 45.3028Z" fill="#FF2B85"/>
<path d="M32.5146 64.5761C32.0572 64.4536 31.7786 63.988 31.8894 63.5248L33.7287 55.8565C33.8436 55.358 34.8856 50.8741 35.6504 49.6274C36.1815 48.7635 36.7611 46.9379 36.9389 46.3074C37.0698 45.8456 37.5474 45.5751 38.0098 45.699L38.0213 45.7021C38.4869 45.8339 38.7586 46.3185 38.6267 46.7845C38.5976 46.8862 37.9118 49.2967 37.1446 50.5455C36.6817 51.3004 35.8512 54.4496 35.436 56.2572L33.5953 63.934C33.4824 64.405 33.0085 64.6947 32.5379 64.5819C32.5303 64.5803 32.5229 64.5783 32.5146 64.5761Z" fill="#FF2B85"/>
<path d="M66.6343 35.1299C66.1422 34.998 65.6645 34.8518 65.3524 34.7132C63.8497 34.0451 64.6866 31.9706 65.136 30.8557L65.21 30.6721C65.3651 30.2788 66.78 26.616 68.1342 23.1106C69.3202 20.0406 70.4597 17.0916 70.6667 16.5607C70.8552 16.0788 71.1998 15.7191 71.6627 15.52C72.6116 15.1116 73.7262 15.5241 73.9386 15.6116C74.3871 15.7939 74.6028 16.3055 74.4206 16.754C74.2379 17.2011 73.722 17.4157 73.2822 17.2376C73.0294 17.1388 72.5559 17.0434 72.3541 17.1316C72.0938 17.7289 70.955 20.6755 69.7697 23.7425C68.4134 27.2527 66.996 30.9215 66.841 31.3148L66.7625 31.5118C66.4315 32.3336 66.2583 32.894 66.2465 33.1825C66.8679 33.4079 68.1478 33.7061 68.8832 33.8566C69.3556 33.9531 69.6639 34.4169 69.5661 34.8911C69.4691 35.3655 69.0059 35.6718 68.5311 35.5743C68.3823 35.5442 67.4871 35.3584 66.6343 35.1299Z" fill="#FF2B85"/>
<path d="M51.9696 72.8011C49.2021 72.0595 49.362 68.7762 50.3748 61.625C51.5545 53.2919 58.8129 44.5851 58.8854 44.4995C59.3892 43.9098 59.8534 42.0945 59.8574 41.7091C59.852 40.7103 60.8167 39.5052 62.2579 38.7123C62.806 38.4102 63.8676 35.8046 64.5294 33.1363C64.6465 32.6664 65.1213 32.3796 65.5918 32.4964C66.05 32.6324 66.3479 33.089 66.2318 33.5588C65.8968 34.9082 64.6818 39.3795 63.1034 40.2482C61.9407 40.8883 61.6264 41.5785 61.6102 41.7151C61.6133 42.3653 61.0616 44.6522 60.2195 45.638C60.1507 45.7193 53.2214 54.0285 52.1111 61.8712C51.0396 69.4367 51.4012 70.9157 52.5267 71.1321C53.1129 71.2604 53.875 68.4988 54.4882 66.2798C54.9101 64.7515 55.3887 63.0185 56.0301 61.0912L56.1869 60.6186C58.3875 54.0005 60.2885 48.2854 62.6596 46.3875C64.0995 45.2353 65.9873 38.3685 66.8395 34.3111C66.939 33.8374 67.4034 33.5336 67.8775 33.6332C68.3403 33.7292 68.6547 34.1969 68.5551 34.6711C68.1661 36.5265 66.105 45.8759 63.7555 47.7565C61.7885 49.3305 59.7873 55.3503 57.8514 61.1723L57.6938 61.6447C57.0673 63.5295 56.5952 65.2385 56.1786 66.7469C55.084 70.7097 54.3611 73.328 52.1527 72.8457C52.0898 72.832 52.0291 72.817 51.9696 72.8011Z" fill="#FF2B85"/>
<path d="M72.8262 36.7888C71.9734 36.5603 71.1052 36.2736 70.9613 36.2253C70.5014 36.0724 70.2532 35.5759 70.4064 35.1166C70.5589 34.6566 71.0689 34.4111 71.5152 34.5617C72.2283 34.7985 73.4853 35.1792 74.1357 35.2962C74.2698 35.0405 74.4 34.4686 74.5242 33.5914L74.5547 33.3815C74.614 32.9817 75.1714 29.4161 75.7274 25.8556C76.261 22.4348 76.795 19.0191 76.8845 18.4269C76.7411 18.1651 76.2794 18.009 76.0151 17.9697C75.5342 17.8949 75.2053 17.4553 75.2738 16.9777C75.3424 16.5 75.7818 16.167 76.2596 16.2334C76.4863 16.264 77.6596 16.464 78.2771 17.2926C78.5785 17.6965 78.6962 18.1801 78.6186 18.6912C78.5284 19.2827 77.9943 22.702 77.4598 26.1261C76.9044 29.681 76.3485 33.2412 76.2885 33.6404L76.2608 33.8365C76.0926 35.0267 75.7801 37.2417 74.1447 37.069C73.8051 37.0329 73.3183 36.9207 72.8262 36.7888Z" fill="#FF2B85"/>
<path d="M66.6906 76.7455C66.6311 76.7296 66.571 76.7122 66.5098 76.6926C64.3569 76.0063 65.0387 73.3788 66.0725 69.4015C66.4653 67.8862 66.9122 66.1687 67.3115 64.2217L67.4112 63.7338C68.6457 57.7239 69.9225 51.5099 69.006 49.1633C67.9124 46.3602 70.8013 37.2325 71.392 35.4317C71.5429 34.9712 72.0404 34.7224 72.4979 34.8712C72.9583 35.022 73.2086 35.5173 73.0578 35.9773C71.7672 39.9172 69.9696 46.8081 70.6396 48.5257C71.7441 51.3549 70.5329 57.2549 69.1296 64.0865L69.0292 64.5738C68.6205 66.5657 68.1682 68.3066 67.7691 69.8424C67.1912 72.0686 66.4717 74.8399 67.0426 75.0216C68.129 75.3974 69.1789 74.2976 72.0338 67.2095C74.9932 59.864 73.1464 49.2014 73.1269 49.0956C72.8913 47.8179 73.5584 45.5632 73.8913 44.9925C73.9395 44.8786 74.0125 44.1229 73.3248 42.9874C72.3923 41.4455 73.5758 36.9658 73.9604 35.6296C74.0947 35.1647 74.5926 34.8713 75.0457 35.0299C75.5108 35.1634 75.7795 35.6494 75.6459 36.1149C74.8854 38.7577 74.5021 41.545 74.8251 42.0796C75.8077 43.7028 75.8252 45.156 75.4063 45.8758C75.2161 46.2118 74.711 48.0139 74.8521 48.7777C74.8722 48.8882 76.8051 60.0596 73.6606 67.8644C70.9622 74.5635 69.459 77.4873 66.6906 76.7455Z" fill="#FF2B85"/>
<path d="M71.361 26.9391C69.8879 26.5444 69.0105 25.0248 69.4052 23.5517C69.8 22.0786 71.3196 21.2013 72.7927 21.596C74.2666 21.9909 75.1439 23.5105 74.7492 24.9836C74.3545 26.4567 72.8349 27.3341 71.361 26.9391ZM72.3388 23.2899C71.7995 23.1454 71.2437 23.4663 71.0992 24.0056C70.9547 24.5449 71.2756 25.1007 71.8149 25.2452C72.3541 25.3897 72.9108 25.069 73.0553 24.5297C73.1998 23.9905 72.8781 23.4344 72.3388 23.2899Z" fill="#FF2B85"/>
<path d="M98.7998 43.2099C96.9462 42.7132 95.8424 40.8014 96.3391 38.9478C96.8357 37.0943 98.7476 35.9904 100.601 36.4871C102.455 36.9838 103.559 38.8956 103.062 40.7492C102.565 42.6027 100.653 43.7066 98.7998 43.2099ZM100.147 38.181C99.2275 37.9346 98.2793 38.4824 98.033 39.4017C97.7867 40.321 98.3339 41.2695 99.2537 41.516C100.173 41.7624 101.122 41.2146 101.368 40.2953C101.614 39.376 101.067 38.4275 100.147 38.181Z" fill="#FF2B85"/>
<path d="M81.4721 79.9612C80.2389 79.6308 78.9472 78.5094 78.7834 76.1996C78.508 72.3307 79.4418 67.9127 81.809 61.8738C82.7578 59.4544 84.208 57.6817 85.7437 55.8047C87.8622 53.2151 90.2616 50.2818 91.802 44.8902C91.9028 43.7067 92.1768 42.231 92.9041 41.7167C93.2004 41.5075 93.5528 41.4428 93.8969 41.535C94.6355 41.7329 97.2276 42.9474 97.1696 44.583C97.1346 45.597 96.0634 50.3888 94.9801 52.7974C94.5328 53.7919 93.6945 54.8328 92.8071 55.9345C91.476 57.5871 89.9672 59.4598 89.4387 61.561C89.0563 63.0808 88.4327 65.6397 87.7837 68.3C86.8299 72.2105 85.843 76.254 85.4579 77.6915C85.0497 79.2146 83.5911 80.2085 81.9895 80.0551C81.8209 80.0391 81.6467 80.008 81.4721 79.9612ZM93.8525 43.3812C93.7229 43.7822 93.5937 44.4829 93.5425 45.1173C93.5379 45.1741 93.528 45.2308 93.5124 45.286C91.8738 51.0804 89.3385 54.1802 87.1013 56.9149C85.593 58.7589 84.2904 60.3517 83.4423 62.5145C81.1746 68.2976 80.2774 72.4799 80.5329 76.0753C80.6253 77.3846 81.2291 78.2246 82.1567 78.3096C82.7962 78.371 83.5537 78.0221 83.7639 77.2376C84.1439 75.8195 85.1282 71.7855 86.0796 67.8841C86.7298 65.2193 87.3554 62.6561 87.7378 61.1332C88.36 58.659 89.9975 56.6271 91.4415 54.8341C92.2559 53.8228 93.0261 52.8674 93.3802 52.0784C94.395 49.8229 95.3911 45.2784 95.4165 44.5219C95.3359 44.2703 94.5237 43.6852 93.8525 43.3812Z" fill="#FF2B85"/>
<path d="M101.574 34.2316C101.543 34.2232 101.511 34.2129 101.48 34.2006C101.029 34.0235 100.807 33.5146 100.984 33.0637C101.419 31.9569 102.508 28.6844 102.331 26.8601C102.284 26.3782 102.637 25.9492 103.119 25.9025C103.597 25.8571 104.029 26.208 104.076 26.6904C104.331 29.3085 102.687 33.5271 102.616 33.705C102.452 34.1245 102 34.3456 101.574 34.2316Z" fill="#FF2B85"/>
<path d="M103.877 38.411C103.864 38.4075 103.851 38.4035 103.838 38.3996C103.376 38.2528 103.121 37.7598 103.268 37.2982C103.285 37.2427 105.032 31.7318 105.42 29.2805C105.753 27.1764 104.114 25.3604 104.096 25.342C103.769 24.9853 103.793 24.4305 104.15 24.1033C104.507 23.7757 105.061 23.8004 105.389 24.1566C105.48 24.2559 107.616 26.6238 107.152 29.5547C106.744 32.1367 105.013 37.5982 104.939 37.8294C104.797 38.278 104.327 38.5316 103.877 38.411Z" fill="#FF2B85"/>
<path d="M98.5653 34.0308C98.3098 33.9624 98.0876 33.7792 97.9801 33.5154C96.7408 30.4813 97.0496 26.3545 97.0634 26.1805C97.1015 25.6978 97.5234 25.3374 98.0061 25.3755C98.4881 25.4093 98.8492 25.835 98.812 26.3179C98.8088 26.3565 98.5239 30.2087 99.6028 32.8519C99.7867 33.3005 99.5715 33.8124 99.1227 33.9953C98.9385 34.0706 98.744 34.0787 98.5653 34.0308Z" fill="#FF2B85"/>
<path d="M94.8701 37.6974C94.6534 37.6393 94.4589 37.4986 94.3378 37.2888C93.1309 35.1991 93.5219 28.0129 93.7595 26.4844C94.0631 24.5308 96.1564 22.9317 96.3942 22.7556C96.7824 22.4682 97.3304 22.5504 97.6184 22.9378C97.907 23.3263 97.8265 23.8752 97.4387 24.1644C96.9526 24.5262 95.6566 25.6971 95.4923 26.7536C95.1892 28.702 95.0548 35.0231 95.8563 36.4121C96.0985 36.8316 95.9549 37.3675 95.5354 37.6097C95.3257 37.7308 95.0868 37.7555 94.8701 37.6974Z" fill="#FF2B85"/>
<path d="M110.644 82.5554C109.381 82.2169 108.419 80.8224 107.933 79.5648C107.493 78.4298 107.458 76.7203 107.412 74.5561C107.336 71.0328 107.234 66.2077 105.317 61.1642C102.067 52.6148 101.371 48.7307 101.3 45.234C101.295 44.9524 101.425 44.685 101.65 44.5158C104.203 42.5961 104.867 42.9635 105.188 43.1398C105.738 43.4451 105.839 44.062 106.172 46.1065C106.481 48.0048 106.999 51.1817 107.851 52.1199C109.461 53.8957 116.488 68.5412 115.006 76.6602C114.303 80.5111 113.134 82.4612 111.434 82.6222C111.16 82.6484 110.896 82.623 110.644 82.5554ZM103.067 45.6542C103.187 48.8566 103.94 52.6075 106.956 60.5412C108.981 65.8678 109.087 70.8677 109.164 74.5187C109.205 76.4319 109.24 78.084 109.569 78.9322C110.055 80.1879 110.83 80.9217 111.269 80.8764C111.717 80.834 112.644 79.8321 113.28 76.3449C114.612 69.053 107.965 54.8574 106.551 53.2978C105.442 52.075 104.939 49.4452 104.441 46.3885C104.363 45.9084 104.273 45.3569 104.193 44.9484C103.88 45.116 103.47 45.3718 103.067 45.6542Z" fill="#FF2B85"/>
</g>
<defs>
<clipPath id="clip0_159_68551">
<rect width="115.771" height="60.9528" fill="white" transform="translate(15.7759) rotate(15)"/>
</clipPath>
</defs>
</svg>
