<svg width="86" height="67" viewBox="0 0 86 67" fill="none" xmlns="http://www.w3.org/2000/svg">
<g clip-path="url(#clip0_159_68536)">
<path fill-rule="evenodd" clip-rule="evenodd" d="M62.877 15.102L60.179 13.1684L59.0548 16.5858L55.2327 15.5966V19.1939L51.1857 19.4187L52.2649 23.106L48.4428 25.0395L50.2415 28.2771L47.7683 30.6201L50.5562 33.3956L48.5777 36.5958L51.5904 37.3603L51.2307 40.926L54.2435 41.4046L55.3226 43.9577C55.3226 43.9577 55.0079 45.8169 55.1428 45.7255C55.2777 45.6341 58.9649 44.7347 58.9649 44.7347C58.9649 44.7347 60.134 48.1522 60.2689 48.1522C60.4038 48.1522 63.6864 46.1287 63.6864 46.1287L65.6649 49.2868L67.9582 46.3985L71.3756 48.1971L72.5447 45.1394L74.2534 44.3889L76.6816 45.7246L77.0863 41.9468L80.4138 41.4046L80.6836 39.7435L79.6944 38.2177L83.9212 35.9132L81.493 33.0885L84.4158 30.0665L81.493 28.5918L83.2917 25.246L80.0091 23.369L80.6836 19.3288L77.8957 19.6885L76.5018 17.7999L76.8615 15.3268L73.534 16.2711L71.7803 13.5341L68.5877 15.2818L65.8958 12.2241L64.3785 14.8331L62.877 15.102Z" fill="#FFE7B3"/>
<path fill-rule="evenodd" clip-rule="evenodd" d="M13.1494 5.58233L10.5426 2.22973L8.00839 3.90603L9.06428 8.14762L7.73178 9.00267L3.73575 7.95286L2.51662 10.7975L5.19193 13.2882L5.02261 15.2676L0.891113 15.9111C0.891113 15.9111 0.992707 19.2637 1.0943 19.2637C1.1959 19.2637 4.81942 19.941 4.81942 19.941L5.53058 21.5326L2.44889 24.3434C2.44889 24.3434 3.73575 27.0525 3.83734 27.0525C3.93894 27.0525 7.427 25.9689 7.427 25.9689L9.39115 27.0525L7.86724 31.1545L10.5087 32.6064L12.9469 29.3215L14.9111 30.0294L15.7916 33.7239L19.2458 33.4191L20.0585 29.2199L21.5338 29.1183L23.5127 31.8275L27.0094 30.599C27.0094 30.599 25.8155 27.1203 25.8155 27.0187C25.8155 26.9171 26.6454 25.1223 27.0094 25.3932C27.3733 25.6641 30.9968 27.1203 30.9968 27.1203L32.821 23.8738L28.9311 22.0067L30.0282 19.6023C30.0282 19.6023 33.5367 19.3314 33.6721 19.1282C33.8076 18.925 34.1801 15.7756 34.0446 15.7417C33.9092 15.7079 29.439 15.2676 29.439 15.2676L29.4052 12.8294C29.4052 12.8294 32.6562 11.0345 32.6562 10.8991C32.6562 10.7636 30.7598 8.14762 30.7598 8.14762L27.1701 9.20308L25.2674 7.64808L27.0094 3.99069L24.19 2.43292L22.4629 5.41301L19.4828 4.90504L18.7378 1.07833L15.3317 0.942871L15.5207 4.83731L13.1494 5.58233Z" fill="#DDABC5"/>
<path d="M17.2734 26.297C22.4066 26.297 26.568 22.1357 26.568 17.0024C26.568 11.8691 22.4066 7.70776 17.2734 7.70776C12.1401 7.70776 7.97876 11.8691 7.97876 17.0024C7.97876 22.1357 12.1401 26.297 17.2734 26.297Z" fill="#F6ADCD"/>
<path d="M36.022 47.5933C40.9871 47.5933 45.012 43.5684 45.012 38.6033C45.012 33.6383 40.9871 29.6133 36.022 29.6133C31.057 29.6133 27.032 33.6383 27.032 38.6033C27.032 43.5684 31.057 47.5933 36.022 47.5933Z" fill="#382B26"/>
<path fill-rule="evenodd" clip-rule="evenodd" d="M11.8402 50.2431C11.8402 50.2431 8.46777 50.0869 8.44528 50.1313C8.4228 50.1757 7.8832 52.424 8.153 52.469C8.4228 52.5139 10.8285 53.8854 10.8285 53.8854L10.3563 55.2119L8.07764 56.4934C8.07764 56.4934 8.6926 58.8317 8.8275 58.8317C8.96239 58.8317 11.8402 58.5169 11.8402 58.5169L12.7396 59.7939C12.7396 59.7939 11.4355 62.9911 11.503 62.9911C11.5704 62.9911 12.9644 64.2276 13.2792 63.8904C13.5939 63.5531 15.7748 61.9119 15.7748 61.9119L17.1463 62.2491C17.1463 62.2491 17.8432 65.1494 17.9107 65.1494C17.9781 65.1494 19.3496 65.0595 19.3496 65.0595L20.4962 62.1367L22.1825 61.687L24.2312 63.7105L26.0945 62.429L25.0378 59.5287L25.5774 58.1797L28.5677 58.5169L29.3096 56.1337L26.9012 54.8971V53.3233L29.1073 52.0193L28.5227 50.2881L25.4201 50.1233L24.6331 47.9723L25.5999 45.7255L24.2312 44.7123L22.0391 46.4435L20.3389 45.9039L19.3721 43.3633H17.6184L16.8765 46.3311L14.9429 46.4435L12.9869 44.9146L11.3906 45.8814L12.5597 48.6968L11.8402 50.2431Z" fill="#538052"/>
<path d="M18.765 58.3602C21.0374 58.3602 22.8795 56.5181 22.8795 54.2458C22.8795 51.9734 21.0374 50.1313 18.765 50.1313C16.4927 50.1313 14.6506 51.9734 14.6506 54.2458C14.6506 56.5181 16.4927 58.3602 18.765 58.3602Z" fill="#999999"/>
<path d="M17.2736 21.958C20.0104 21.958 22.229 19.7394 22.229 17.0026C22.229 14.2657 20.0104 12.0471 17.2736 12.0471C14.5367 12.0471 12.3181 14.2657 12.3181 17.0026C12.3181 19.7394 14.5367 21.958 17.2736 21.958Z" fill="#999999"/>
<path d="M35.9074 43.0398C38.5705 43.0398 40.7295 40.8808 40.7295 38.2177C40.7295 35.5545 38.5705 33.3955 35.9074 33.3955C33.2442 33.3955 31.0852 35.5545 31.0852 38.2177C31.0852 40.8808 33.2442 43.0398 35.9074 43.0398Z" fill="#999999"/>
<path d="M65.8959 38.5745C70.2891 38.5745 73.8506 35.013 73.8506 30.6198C73.8506 26.2265 70.2891 22.665 65.8959 22.665C61.5026 22.665 57.9412 26.2265 57.9412 30.6198C57.9412 35.013 61.5026 38.5745 65.8959 38.5745Z" fill="#999999"/>
<path d="M36.4882 49.4533L35.5574 49.4529C34.8972 49.4529 34.35 48.9138 34.2661 48.2181C34.0683 47.7163 33.7421 47.3742 33.3182 47.2252C32.8515 47.06 32.2932 47.137 31.7726 47.4337C31.2957 47.9313 30.5473 48.0374 30.0206 47.6542L29.268 47.1075C28.7362 46.7213 28.6095 45.9678 28.946 45.3568C29.0839 44.8319 29.0222 44.3605 28.7653 43.9885C28.4819 43.5774 27.981 43.3107 27.3798 43.2465C26.6914 43.3544 26.0457 43.0054 25.8471 42.3992L25.5594 41.5133C25.4583 41.2034 25.4866 40.8647 25.6399 40.562C25.7837 40.2794 26.0295 40.0478 26.3283 39.9074C26.7479 39.5644 26.9757 39.147 26.9859 38.6953C26.9979 38.2034 26.7573 37.7003 26.3206 37.2978C26.0363 37.1651 25.7863 36.9313 25.6407 36.6449C25.4866 36.3422 25.4575 36.0031 25.5602 35.691L25.8462 34.8086C26.0543 34.1732 26.753 33.8204 27.4415 33.966C27.9698 33.9283 28.3877 33.7232 28.6566 33.3692C28.9588 32.9701 29.0556 32.4084 28.9272 31.815C28.7816 31.535 28.7268 31.2182 28.7739 30.918C28.827 30.5828 29.0025 30.2916 29.268 30.0986L30.0215 29.5522C30.3298 29.327 30.7271 29.2598 31.1141 29.3711C31.3702 29.4443 31.6048 29.5912 31.7915 29.7924C32.2461 30.0823 32.7085 30.1666 33.1418 30.0386C33.6162 29.8965 34.0221 29.5073 34.2687 28.9623C34.3629 28.2789 34.9049 27.7532 35.5574 27.7532H36.4865C37.1467 27.7532 37.6939 28.2922 37.7778 28.9879C37.9756 29.4902 38.3018 29.8322 38.7257 29.9812C39.1924 30.1448 39.7498 30.0686 40.2705 29.7732C40.4537 29.5818 40.6823 29.4418 40.9298 29.3711C41.3134 29.2602 41.7142 29.327 42.0241 29.5531L42.7751 30.0986C43.0851 30.3225 43.2717 30.6817 43.2854 31.0833C43.2949 31.3457 43.2289 31.6121 43.0979 31.8497C42.9601 32.3746 43.0217 32.846 43.2777 33.218C43.5612 33.6286 44.063 33.8953 44.6641 33.9596C45.3534 33.853 45.999 34.2006 46.1968 34.8069L46.4846 35.6927C46.5865 36.0031 46.5573 36.3422 46.4032 36.6449C46.2594 36.9271 46.0145 37.1582 45.7165 37.2983C45.296 37.6416 45.0682 38.0591 45.0571 38.5112C45.0451 39.0061 45.29 39.5135 45.7327 39.9172C46.0307 40.0624 46.2645 40.288 46.4032 40.5612C46.5573 40.8639 46.5865 41.2029 46.4837 41.5151L46.1977 42.3975C45.9896 43.032 45.2977 43.3835 44.6041 43.2405C44.075 43.2777 43.6562 43.4828 43.3873 43.8373C43.0859 44.2359 42.9883 44.7977 43.1168 45.3906C43.2349 45.6193 43.2949 45.8727 43.2854 46.1228C43.2717 46.5231 43.0859 46.8819 42.7768 47.1071L42.0233 47.6542C41.4907 48.0426 40.7303 47.9278 40.2525 47.4145C39.7978 47.1242 39.3345 47.039 38.9021 47.1679C38.4277 47.31 38.0218 47.6996 37.7752 48.2451C37.6793 48.9267 37.1381 49.452 36.4882 49.4533ZM35.9445 47.6992L36.1003 47.6996C36.5422 46.5989 37.3796 45.7927 38.3995 45.4878C39.3645 45.1997 40.3929 45.3859 41.3057 46.008L41.4324 45.916C41.4239 45.8804 41.417 45.844 41.4127 45.8072C41.1601 44.697 41.3682 43.5988 41.9899 42.7781C42.5979 41.9757 43.5423 41.5159 44.6512 41.4825L44.6966 41.3408C43.7855 40.5804 43.2786 39.5336 43.3043 38.4679C43.3291 37.4704 43.8181 36.5529 44.6846 35.8785C44.6889 35.8747 44.6932 35.8708 44.6975 35.8674L44.6495 35.7184C43.4653 35.6388 42.4403 35.0907 41.8349 34.2139C41.2663 33.3901 41.1233 32.3566 41.4316 31.2982C41.4316 31.2961 41.4324 31.2935 41.4333 31.2914L41.304 31.1976C40.3021 31.8287 39.1513 31.9892 38.1451 31.636C37.1981 31.3038 36.4728 30.5485 36.0995 29.5069H35.9419C35.5018 30.6072 34.6643 31.4134 33.6445 31.7187C32.6811 32.0081 31.6519 31.821 30.7382 31.1985L30.6115 31.2905C30.62 31.3261 30.6269 31.3624 30.6312 31.3993C30.8838 32.5094 30.6757 33.6076 30.054 34.428C29.4461 35.2307 28.5016 35.6906 27.3927 35.724L27.3464 35.8661C28.2575 36.6261 28.7653 37.6729 28.7396 38.7381C28.7148 39.7391 28.2224 40.6588 27.3516 41.334C27.3499 41.3357 27.3482 41.337 27.3464 41.3387L27.3944 41.4877C28.5778 41.5673 29.6036 42.1153 30.209 42.9922C30.7776 43.8163 30.9206 44.8499 30.6123 45.9083C30.6123 45.9104 30.6115 45.913 30.6106 45.9155L30.7391 46.0084C31.7418 45.3782 32.8944 45.2177 33.8988 45.5705C34.8467 45.9031 35.5711 46.6579 35.9445 47.6992ZM36.0215 44.1238C32.9774 44.1238 30.501 41.6474 30.501 38.6032C30.501 35.5591 32.9774 33.0823 36.0215 33.0823C39.0656 33.0823 41.5429 35.5591 41.5429 38.6032C41.5429 41.6474 39.0656 44.1238 36.0215 44.1238ZM36.0215 34.836C33.9442 34.836 32.2547 36.5259 32.2547 38.6032C32.2547 40.6802 33.9442 42.3701 36.0215 42.3701C38.0989 42.3701 39.7892 40.6802 39.7892 38.6032C39.7892 36.5259 38.0989 34.836 36.0215 34.836Z" fill="#FF2B85"/>
<path d="M18.7973 66.4606C18.3272 66.4606 17.8511 66.4323 17.381 66.3762C16.9683 66.3266 16.6463 65.9935 16.6121 65.5786L16.4177 63.264C16.1574 63.1921 15.9005 63.1086 15.647 63.0136L14.1305 64.7728C13.8574 65.0892 13.401 65.168 13.0388 64.9659C12.2116 64.5044 11.4409 63.9435 10.7473 63.2987C10.4425 63.0157 10.3791 62.5576 10.5941 62.2018L11.7989 60.2148C11.631 60.0037 11.4718 59.7854 11.3228 59.5606L9.05872 60.0932C8.65198 60.1865 8.23839 59.9853 8.06285 59.6085C7.66468 58.7514 7.37097 57.8441 7.18772 56.9125C7.10809 56.5045 7.32559 56.096 7.70921 55.935L9.85336 55.0355C9.84736 54.9006 9.84394 54.7658 9.84394 54.6309C9.84394 54.4965 9.84736 54.3612 9.85336 54.2259L7.70921 53.3259C7.32559 53.1654 7.10809 52.7573 7.18772 52.3497C7.3684 51.4211 7.66297 50.5139 8.06285 49.6533C8.23839 49.2761 8.65284 49.0753 9.05872 49.1686L11.3228 49.7012C11.4718 49.476 11.6302 49.2577 11.7989 49.0466L10.5941 47.06C10.3791 46.7042 10.4425 46.2461 10.7473 45.9631C11.4401 45.3183 12.2116 44.7574 13.0388 44.2955C13.401 44.0938 13.8574 44.1722 14.1305 44.4886L15.6479 46.2487C15.9005 46.1536 16.1574 46.0701 16.4177 45.9982L16.6112 43.6832C16.6455 43.2679 16.9674 42.9348 17.381 42.8852C18.3204 42.773 19.2717 42.773 20.2128 42.8852C20.6264 42.9348 20.9483 43.2679 20.9826 43.6832L21.1761 45.9978C21.4364 46.0697 21.6933 46.1532 21.9468 46.2482L23.4633 44.4886C23.7373 44.1722 24.192 44.093 24.555 44.295C25.3805 44.7557 26.1512 45.3166 26.8465 45.9627C27.1513 46.2457 27.2147 46.7038 26.9997 47.0596L25.7949 49.0466C25.9636 49.2577 26.122 49.476 26.271 49.7012L28.5351 49.1686C28.9401 49.0744 29.3554 49.2761 29.5309 49.6533C29.9308 50.5139 30.2254 51.4211 30.4061 52.3497C30.4857 52.7573 30.2682 53.1654 29.8846 53.3259L27.7404 54.2263C27.7464 54.3616 27.7498 54.4965 27.7498 54.6309C27.7498 54.7653 27.7464 54.9002 27.7404 55.0355L29.8846 55.9355C30.2682 56.096 30.4857 56.504 30.4061 56.9116C30.2254 57.8399 29.9308 58.7471 29.5309 59.6085C29.3563 59.9853 28.941 60.187 28.5351 60.0932L26.271 59.5606C26.1229 59.7854 25.9636 60.0037 25.7949 60.2148L26.9997 62.2018C27.2147 62.5576 27.1513 63.0157 26.8465 63.2987C26.152 63.9444 25.3813 64.5052 24.5559 64.9659C24.1937 65.168 23.7373 65.0892 23.465 64.7732L21.9468 63.0131C21.6942 63.1082 21.4364 63.1917 21.1761 63.2636L20.9826 65.5782C20.9483 65.993 20.6264 66.3266 20.2136 66.3762C19.7435 66.4323 19.2674 66.4606 18.7973 66.4606ZM18.2972 64.6945C18.6312 64.7107 18.9626 64.7107 19.2965 64.6945L19.4815 62.4835C19.514 62.0926 19.8018 61.7711 20.1871 61.6957C20.7531 61.5853 21.3037 61.4059 21.8252 61.1636C22.1814 60.9996 22.6027 61.0886 22.8587 61.3858L24.3084 63.0667C24.5876 62.8843 24.8573 62.6878 25.1168 62.4784L23.965 60.58C23.7621 60.2448 23.8058 59.8157 24.0729 59.5289C24.4677 59.1033 24.8085 58.6345 25.0876 58.1348C25.2786 57.7923 25.6751 57.6202 26.0535 57.708L28.2157 58.2166C28.3347 57.9049 28.4375 57.5877 28.5248 57.2661L26.4765 56.4064C26.1152 56.2553 25.8985 55.8832 25.9448 55.4945C25.9782 55.2115 25.9962 54.9229 25.9962 54.6309C25.9962 54.3385 25.9782 54.0503 25.9448 53.7673C25.8985 53.3786 26.1152 53.0065 26.4765 52.8554L28.5248 51.9952C28.4375 51.6741 28.3347 51.3569 28.2157 51.0452L26.0535 51.5538C25.6742 51.6424 25.2786 51.4699 25.0876 51.1278C24.8068 50.6252 24.466 50.1559 24.0729 49.7325C23.8058 49.4456 23.7621 49.0166 23.965 48.6814L25.1168 46.783C24.8564 46.5732 24.5867 46.3771 24.3084 46.1947L22.8596 47.8752C22.6027 48.1732 22.1805 48.2639 21.826 48.0978C21.3028 47.8551 20.7514 47.6761 20.1871 47.5656C19.8018 47.4903 19.514 47.1688 19.4815 46.7779L19.2965 44.5669C18.9626 44.5506 18.6312 44.5506 18.2972 44.5669L18.1123 46.7779C18.0798 47.1683 17.792 47.4903 17.4076 47.5656C16.8424 47.6765 16.291 47.8555 15.7678 48.0983C15.4141 48.2627 14.9911 48.1732 14.7342 47.8752L13.2854 46.1947C13.0071 46.3775 12.7365 46.5736 12.477 46.783L13.6287 48.6814C13.8317 49.0166 13.788 49.4456 13.5209 49.7325C13.1278 50.1559 12.787 50.6252 12.5061 51.1278C12.3152 51.4699 11.9196 51.6429 11.5403 51.5538L9.37812 51.0452C9.25909 51.3569 9.15634 51.6741 9.069 51.9952L11.1172 52.855C11.4786 53.0061 11.6952 53.3782 11.649 53.7669C11.6156 54.0499 11.5976 54.3385 11.5976 54.6309C11.5976 54.922 11.6148 55.2098 11.6499 55.4923C11.697 55.8815 11.4795 56.2549 11.1181 56.4069L9.06985 57.2661C9.15634 57.5881 9.25995 57.9054 9.37812 58.2166L11.5403 57.708C11.9187 57.6194 12.3152 57.7919 12.5061 58.134C12.787 58.6358 13.1287 59.1055 13.5217 59.5293C13.788 59.8166 13.8317 60.2456 13.6287 60.5804L12.4779 62.4784C12.7373 62.6878 13.0071 62.8843 13.2854 63.0667L14.7342 61.3866C14.9911 61.0895 15.4141 60.9996 15.7678 61.164C16.291 61.4067 16.8424 61.5857 17.4067 61.6962C17.792 61.7715 18.0798 62.0931 18.1123 62.4835L18.2972 64.6945ZM18.7973 59.96C15.8585 59.96 13.4678 57.5693 13.4678 54.6309C13.4678 51.6921 15.8585 49.3013 18.7973 49.3013C21.7353 49.3013 24.126 51.6921 24.126 54.6309C24.126 57.5693 21.7353 59.96 18.7973 59.96ZM18.7973 51.055C16.8253 51.055 15.2215 52.6593 15.2215 54.6309C15.2215 56.6025 16.8253 58.2063 18.7973 58.2063C20.7685 58.2063 22.3723 56.6025 22.3723 54.6309C22.3723 52.6593 20.7685 51.055 18.7973 51.055Z" fill="#FF2B85"/>
<path d="M66.0098 50.5288C64.7065 50.5288 64.2424 49.2144 63.8014 47.5969C63.5274 47.5609 63.2542 47.5177 62.9828 47.468C62.064 48.8689 61.2188 49.9748 59.9772 49.5732C58.7364 49.1707 58.7022 47.7776 58.7818 46.1031C58.5335 45.9836 58.2869 45.8582 58.0446 45.7267C56.7361 46.7761 55.5887 47.5656 54.5346 46.7997C53.4788 46.0333 53.8778 44.6958 54.4721 43.1262C54.2734 42.9365 54.0782 42.7421 53.889 42.543C52.3194 43.1377 50.981 43.5368 50.2146 42.4805C49.4482 41.4256 50.2395 40.2777 51.2893 38.9693C51.1583 38.7274 51.0324 38.4817 50.9134 38.2333C49.2393 38.3143 47.8453 38.2796 47.442 37.0388C47.0395 35.7985 48.1467 34.9512 49.5484 34.0315C49.4988 33.7601 49.4551 33.4873 49.4191 33.2146C47.8016 32.7732 46.4863 32.3095 46.4863 31.0054C46.4863 29.7017 47.8007 29.238 49.4183 28.7966C49.4542 28.523 49.4979 28.2503 49.5476 27.9788C48.1458 27.0592 47.0395 26.2127 47.442 24.9728C47.8444 23.7329 49.2359 23.6956 50.9125 23.7774C51.0315 23.5282 51.1574 23.2821 51.2884 23.0397C50.2395 21.7322 49.4482 20.5847 50.2155 19.5294C50.981 18.474 52.3202 18.873 53.8898 19.4673C54.0791 19.2682 54.2734 19.0734 54.4721 18.8846C53.8778 17.315 53.4788 15.9775 54.5346 15.2107C55.5887 14.4434 56.7361 15.2342 58.0454 16.2844C58.2877 16.1534 58.5335 16.0276 58.7818 15.9085C58.7022 14.2336 58.7364 12.8404 59.9772 12.4371C61.2145 12.0347 62.064 13.1414 62.9836 14.5436C63.2551 14.4939 63.5282 14.4511 63.8014 14.4147C64.2424 12.7963 64.7065 11.4819 66.0098 11.4819C67.3139 11.4819 67.778 12.7968 68.219 14.4147C68.4922 14.4507 68.7653 14.4939 69.0359 14.5432C69.9547 13.141 70.7999 12.033 72.0423 12.4371C73.2823 12.84 73.3182 14.2328 73.2386 15.9077C73.4869 16.0267 73.7327 16.1526 73.975 16.2836C75.2834 15.2346 76.4308 14.4447 77.4858 15.2111C78.5416 15.9775 78.1426 17.3146 77.5483 18.8841C77.7478 19.0742 77.9431 19.2686 78.1314 19.4669C79.7036 18.8717 81.0394 18.4748 81.8041 19.5294C82.5704 20.5843 81.7801 21.7322 80.7311 23.0406C80.863 23.2838 80.9889 23.53 81.1079 23.7774C82.7768 23.6956 84.1743 23.732 84.5784 24.9719C84.9809 26.2127 83.8737 27.0596 82.472 27.9788C82.5216 28.2503 82.5653 28.523 82.6013 28.7961C84.2188 29.2376 85.5332 29.7012 85.5332 31.0054C85.5332 32.3091 84.2188 32.7728 82.6013 33.2146C82.5653 33.4886 82.5225 33.7618 82.4728 34.0319C83.8746 34.9516 84.9809 35.798 84.5784 37.038C84.1751 38.2787 82.7837 38.3143 81.1079 38.2333C80.9889 38.4821 80.863 38.7283 80.7311 38.9706C81.7801 40.2786 82.5713 41.426 81.8041 42.481C81.0394 43.5363 79.7019 43.1377 78.1306 42.5435C77.9413 42.7426 77.7461 42.9369 77.5474 43.1262C78.1426 44.6962 78.5416 46.0333 77.4858 46.8001C76.4308 47.5673 75.2834 46.7761 73.975 45.7263C73.7318 45.8577 73.4861 45.9832 73.2386 46.1022C73.3182 47.7767 73.284 49.1703 72.0423 49.5732C70.8024 49.9765 69.9556 48.8698 69.0359 47.4672C68.7645 47.5168 68.4922 47.5596 68.219 47.5956C67.7772 49.2136 67.3148 50.5288 66.0098 50.5288ZM62.5726 45.6141C62.6351 45.6141 62.6985 45.621 62.7619 45.6347C63.3561 45.7661 63.9658 45.8625 64.5763 45.9203C64.9411 45.9549 65.246 46.2131 65.3402 46.5668L65.3701 46.6777C65.5431 47.3267 65.7914 48.2549 66.0106 48.6505C66.2264 48.2639 66.4662 47.3661 66.6494 46.6811L66.6802 46.5655C66.7744 46.2114 67.0793 45.9537 67.4449 45.919C68.0503 45.8616 68.66 45.7657 69.256 45.6338C69.6165 45.5538 69.983 45.7062 70.1816 46.0127L70.2424 46.1069C70.6089 46.6717 71.1321 47.4791 71.4635 47.787C71.55 47.3533 71.5003 46.4242 71.4626 45.7156L71.4558 45.5992C71.4369 45.2339 71.6459 44.8949 71.9815 44.7489C72.539 44.5065 73.0887 44.2257 73.6171 43.914C73.9322 43.7282 74.3304 43.7581 74.6146 43.9885L74.7011 44.0583C75.2235 44.4826 75.9719 45.0897 76.3829 45.2802C76.3298 44.84 75.995 43.9718 75.7398 43.309L75.697 43.1985C75.566 42.8564 75.6602 42.469 75.935 42.2262C76.3897 41.8246 76.8256 41.3888 77.2315 40.9302C77.4755 40.6558 77.8634 40.5607 78.2034 40.693L78.3121 40.735C78.9398 40.9765 79.8372 41.322 80.2859 41.3764C80.1 40.9743 79.5135 40.2508 79.0648 39.6989L78.9937 39.6103C78.7625 39.3255 78.7334 38.9274 78.9201 38.6118C79.2292 38.0882 79.5101 37.538 79.755 36.9763C79.9014 36.6411 80.2336 36.4248 80.6053 36.4514L80.7192 36.4574C81.3888 36.4925 82.3478 36.5434 82.7922 36.457C82.4908 36.1324 81.7107 35.6268 81.1156 35.241L81.0188 35.1781C80.7114 34.979 80.5607 34.6104 80.6395 34.2529C80.7705 33.6625 80.8664 33.0519 80.9255 32.4388C80.9598 32.074 81.2175 31.7696 81.572 31.675L81.6816 31.6459C82.3315 31.4725 83.2598 31.2246 83.6554 31.0045C83.2683 30.7883 82.3692 30.5485 81.6825 30.3653L81.572 30.3358C81.2184 30.2411 80.9598 29.9367 80.9255 29.5719C80.8673 28.964 80.7705 28.3534 80.6387 27.7583C80.5599 27.4008 80.7106 27.0322 81.018 26.8331L81.1148 26.7702C81.6782 26.405 82.484 25.8826 82.7914 25.5517C82.3572 25.4652 81.4264 25.5157 80.7166 25.5534L80.6044 25.5594C80.2336 25.5731 79.8997 25.3688 79.7541 25.0332C79.5135 24.4804 79.2326 23.9303 78.9192 23.3981C78.7334 23.083 78.7625 22.6848 78.9937 22.4005L79.0639 22.314C79.4878 21.7913 80.0941 21.0433 80.285 20.6327C79.8449 20.6854 78.9774 21.0197 78.3147 21.2749L78.2042 21.3173C77.8608 21.4504 77.4747 21.3537 77.2323 21.0801C76.8316 20.6267 76.3949 20.1904 75.935 19.7828C75.661 19.5401 75.5668 19.153 75.6979 18.8118L75.7407 18.7013C75.9821 18.0745 76.3272 17.178 76.3812 16.7293C75.9787 16.9151 75.2552 17.5021 74.7028 17.9499L74.6146 18.0219C74.3304 18.2526 73.9339 18.2822 73.6162 18.0955C73.0913 17.7855 72.5416 17.5047 71.9815 17.261C71.6459 17.115 71.4369 16.776 71.4558 16.4107L71.4618 16.2999C71.4977 15.6281 71.5491 14.6673 71.4618 14.2234C71.1372 14.5243 70.632 15.3036 70.2467 15.8983L70.1825 15.9972C69.9838 16.3041 69.6165 16.4557 69.2577 16.3765C68.6626 16.2451 68.052 16.1492 67.4441 16.0914C67.0793 16.0567 66.7744 15.7985 66.6802 15.4448L66.6503 15.3335C66.4773 14.6845 66.229 13.7554 66.0089 13.3602C65.7931 13.7477 65.5525 14.6489 65.3693 15.337L65.3402 15.4444C65.246 15.7985 64.9411 16.0567 64.5763 16.0914C63.9701 16.1487 63.3604 16.2451 62.7627 16.3769C62.4022 16.4557 62.0366 16.3046 61.8379 15.9976L61.7754 15.9017C61.4098 15.3378 60.8874 14.532 60.5561 14.2238C60.4713 14.6588 60.5201 15.5866 60.5578 16.2951L60.5646 16.4116C60.5835 16.7768 60.3745 17.1159 60.0389 17.2619C59.4788 17.5055 58.9291 17.7864 58.4042 18.0964C58.0874 18.283 57.6909 18.2535 57.4058 18.0227L57.3176 17.9512C56.7952 17.5274 56.0485 16.9211 55.6375 16.7306C55.6906 17.1698 56.0246 18.0373 56.2789 18.6988L56.3225 18.8122C56.4536 19.1539 56.3594 19.5409 56.0854 19.7837C55.6298 20.1866 55.194 20.6228 54.7889 21.0801C54.5466 21.3545 54.1604 21.45 53.817 21.3177L53.7083 21.2753C53.0806 21.0339 52.1832 20.6888 51.7337 20.6344C51.9204 21.0364 52.5069 21.7591 52.9548 22.3106L53.0267 22.4001C53.2579 22.6848 53.287 23.083 53.1003 23.3985C52.7912 23.9226 52.5095 24.4727 52.2654 25.034C52.1182 25.3688 51.7731 25.5731 51.4151 25.5594L51.3064 25.5538C50.6333 25.5174 49.6717 25.4652 49.2282 25.5534C49.5296 25.8783 50.3097 26.384 50.9048 26.7697L51.0016 26.8327C51.309 27.0318 51.4597 27.4004 51.3809 27.7579C51.249 28.3547 51.1523 28.9648 51.0949 29.5711C51.0606 29.9359 50.8029 30.2411 50.4484 30.3358L50.3371 30.3653C49.688 30.5387 48.7598 30.7862 48.3642 31.0062C48.7512 31.222 49.6503 31.4622 50.3362 31.6455L50.4492 31.6754C50.8038 31.7705 51.0615 32.0753 51.0957 32.4401C51.1531 33.0451 51.249 33.6547 51.3817 34.252C51.4605 34.6095 51.3098 34.9781 51.0024 35.1772L50.9074 35.2389C50.3431 35.6045 49.5364 36.1277 49.229 36.4591C49.6615 36.5443 50.5897 36.4951 51.2995 36.4574L51.416 36.4514C51.7731 36.4248 52.1199 36.6411 52.2663 36.9763C52.5095 37.5355 52.7912 38.0856 53.1012 38.6114C53.287 38.9269 53.2579 39.3247 53.0267 39.6094L52.953 39.7002C52.53 40.2216 51.9255 40.9679 51.7354 41.3776C52.1747 41.325 53.0421 40.991 53.7049 40.7363L53.817 40.6926C54.1613 40.5612 54.5466 40.6566 54.7889 40.9302C55.1922 41.3862 55.6281 41.8225 56.0854 42.2266C56.3594 42.4694 56.4536 42.8565 56.3225 43.1981L56.2797 43.3086C56.0383 43.9354 55.6932 44.8323 55.6392 45.2815C56.0408 45.0952 56.7635 44.5091 57.315 44.0617L57.4049 43.9885C57.6892 43.7581 58.0865 43.7282 58.4033 43.9148C58.9274 44.2248 59.478 44.5057 60.0389 44.7506C60.3745 44.8966 60.5835 45.2357 60.5646 45.6004L60.5578 45.7165C60.5227 46.3861 60.4713 47.3434 60.5586 47.787C60.8832 47.486 61.3884 46.7059 61.7746 46.1104L61.8371 46.014C62.0006 45.761 62.2798 45.6141 62.5726 45.6141ZM66.0098 40.2139C60.932 40.2139 56.8012 36.0832 56.8012 31.0054C56.8012 25.9276 60.932 21.7964 66.0098 21.7964C71.0876 21.7964 75.2183 25.9276 75.2183 31.0054C75.2183 36.0832 71.0876 40.2139 66.0098 40.2139ZM66.0098 23.5501C61.8987 23.5501 58.5549 26.8943 58.5549 31.0054C58.5549 35.116 61.8987 38.4602 66.0098 38.4602C70.1208 38.4602 73.4646 35.116 73.4646 31.0054C73.4646 26.8943 70.1208 23.5501 66.0098 23.5501Z" fill="#FF2B85"/>
<path d="M18.8179 34.7757H15.957C15.1589 34.7757 14.5099 34.1262 14.5099 33.3277V30.439C14.1202 30.3534 13.7349 30.2502 13.3547 30.1303L11.911 32.6316C11.7183 32.9655 11.4058 33.2048 11.0316 33.305C10.6531 33.4061 10.2678 33.3538 9.93298 33.1616L7.45487 31.7312C6.76385 31.3321 6.5258 30.445 6.92483 29.7536L8.37025 27.2489C8.0774 26.9809 7.79568 26.6987 7.5268 26.4046L5.02301 27.8505C4.33198 28.2503 3.44572 28.011 3.04497 27.3221L1.61411 24.8432C1.42144 24.5083 1.37007 24.1187 1.47025 23.7454C1.57044 23.3703 1.8102 23.0578 2.14501 22.8647L4.64452 21.4214C4.52464 21.0416 4.42189 20.6559 4.33626 20.2663H1.44799C0.649925 20.2663 0 19.6168 0 18.8183V15.9574C0 15.1589 0.649925 14.5094 1.44799 14.5094H4.3354C4.42189 14.1198 4.52464 13.7341 4.64452 13.3543L2.14415 11.911C1.45313 11.5107 1.21593 10.6236 1.61411 9.93298L3.04497 7.4553C3.44229 6.76513 4.3277 6.52622 5.02215 6.9244L7.5268 8.37025C7.79482 8.07697 8.07654 7.79525 8.37025 7.52637L6.92483 5.02258C6.52665 4.33198 6.76385 3.44486 7.45402 3.0454L9.93298 1.61411C10.6223 1.21722 11.5111 1.4527 11.9102 2.14287L13.3547 4.64538C13.7349 4.52507 14.1202 4.42189 14.5099 4.33626V1.44756C14.5099 0.649497 15.1589 0 15.957 0H18.8179C19.6159 0 20.2658 0.649497 20.2658 1.44756V4.33626C20.6555 4.42189 21.0416 4.52507 21.421 4.64495L22.8647 2.14415C23.2663 1.4527 24.1526 1.21593 24.8436 1.61497L27.3208 3.04454C28.0119 3.44443 28.2491 4.33155 27.8509 5.02215L26.4055 7.52637C26.6983 7.79482 26.98 8.07697 27.2489 8.37068L29.7536 6.92483C30.4429 6.52623 31.33 6.76299 31.7307 7.45359L33.1616 9.93255C33.5606 10.6244 33.3226 11.5116 32.6316 11.9106L30.1312 13.3543C30.2511 13.7341 30.3538 14.1198 30.4394 14.5094H33.3277C34.1258 14.5094 34.7757 15.1589 34.7757 15.9574V18.8183C34.7757 19.6168 34.1258 20.2663 33.3277 20.2663H30.4403C30.3538 20.6559 30.2511 21.0416 30.1312 21.4214L32.6316 22.8651C33.3226 23.2642 33.5606 24.1508 33.1616 24.8427L31.7316 27.3208C31.3308 28.0127 30.4429 28.2486 29.7536 27.8509L27.2489 26.4046C26.98 26.6987 26.6983 26.9805 26.4055 27.2493L27.8509 29.7536C28.2491 30.4446 28.0119 31.3313 27.3217 31.7303L24.8427 33.1616C24.1543 33.5589 23.2663 33.3239 22.8655 32.6333L21.421 30.1303C21.0408 30.2502 20.6555 30.3534 20.2658 30.439V33.3277C20.2658 34.1262 19.6159 34.7757 18.8179 34.7757ZM16.2635 33.022H18.5122V29.7137C18.5122 29.283 18.8247 28.9165 19.2494 28.848C20.0184 28.7243 20.7779 28.5214 21.5075 28.2443C21.9074 28.0928 22.3612 28.2529 22.5778 28.6258L24.2305 31.4897L26.1785 30.3654L24.5242 27.4989C24.3093 27.1269 24.3957 26.6538 24.7288 26.3815C25.3317 25.8891 25.8874 25.333 26.3815 24.7284C26.6538 24.3953 27.1265 24.3075 27.4989 24.5238L30.3658 26.179L31.4901 24.2309L28.6267 22.5778C28.2542 22.3625 28.0924 21.9091 28.2456 21.507C28.5214 20.7809 28.7243 20.0214 28.8493 19.2494C28.9178 18.8247 29.2852 18.5126 29.715 18.5126H33.022V16.2631H29.7142C29.2835 16.2631 28.917 15.9506 28.8485 15.5254C28.7243 14.7552 28.5214 13.9957 28.2456 13.2682C28.0924 12.8662 28.2542 12.4128 28.6267 12.1974L31.4901 10.5448L30.3658 8.59674L27.4989 10.2515C27.1265 10.4665 26.6538 10.3787 26.3815 10.0473C25.8874 9.44275 25.3308 8.88659 24.7288 8.39423C24.3957 8.12192 24.3093 7.64882 24.5242 7.27676L26.1794 4.41033L24.2305 3.28602L22.5778 6.14946C22.3612 6.52152 21.9074 6.68164 21.5075 6.53093C20.7796 6.25478 20.0201 6.05184 19.2494 5.92725C18.8247 5.85875 18.5122 5.49183 18.5122 5.06154V1.75368H16.2635V5.06154C16.2635 5.49183 15.951 5.85875 15.5263 5.92725C14.7573 6.05141 13.9978 6.25435 13.2682 6.53093C12.8649 6.68335 12.4128 6.52152 12.1979 6.14946L10.5452 3.28602L8.59631 4.41033L10.2515 7.27676C10.4665 7.64882 10.38 8.12192 10.0469 8.39423C9.44233 8.88831 8.88659 9.44447 8.39423 10.0469C8.12278 10.3787 7.64925 10.4665 7.27676 10.2515L4.41076 8.59674L3.28559 10.5452L6.14903 12.1979C6.52152 12.4132 6.68335 12.8666 6.53008 13.2687C6.25435 13.9948 6.05141 14.7543 5.92639 15.5263C5.85789 15.951 5.49054 16.2631 5.06068 16.2631H1.75368V18.5126H5.06154C5.49225 18.5126 5.85875 18.8251 5.92725 19.2503C6.05141 20.0201 6.25435 20.7796 6.53008 21.507C6.68335 21.9091 6.52152 22.3625 6.14903 22.5778L3.28559 24.2309L4.4099 26.179L7.27676 24.5238C7.64925 24.3075 8.12107 24.3962 8.39423 24.728C8.88916 25.3338 9.44575 25.89 10.0469 26.3811C10.38 26.6529 10.4665 27.126 10.2515 27.4985L8.59631 30.365L10.5452 31.4897L12.1979 28.6258C12.4137 28.2529 12.8666 28.0928 13.2682 28.2443C13.9978 28.5214 14.7573 28.7243 15.5263 28.848C15.951 28.9165 16.2635 29.283 16.2635 29.7137V33.022ZM17.3879 27.6043C11.7543 27.6043 7.17144 23.0214 7.17144 17.3879C7.17144 11.7543 11.7543 7.17144 17.3879 7.17144C23.0214 7.17144 27.6043 11.7543 27.6043 17.3879C27.6043 23.0214 23.0214 27.6043 17.3879 27.6043ZM17.3879 8.92513C12.7211 8.92513 8.92513 12.7215 8.92513 17.3879C8.92513 22.0542 12.7211 25.8506 17.3879 25.8506C22.0546 25.8506 25.8506 22.0542 25.8506 17.3879C25.8506 12.7215 22.0546 8.92513 17.3879 8.92513Z" fill="#FF2B85"/>
<path d="M17.3878 23.5357C13.9977 23.5357 11.2405 20.7775 11.2405 17.3875C11.2405 13.9974 13.9977 11.2397 17.3878 11.2397C20.7779 11.2397 23.536 13.9974 23.536 17.3875C23.536 20.7775 20.7779 23.5357 17.3878 23.5357ZM17.3878 12.9934C14.9653 12.9934 12.9942 14.9646 12.9942 17.3875C12.9942 19.8108 14.9653 21.782 17.3878 21.782C19.8111 21.782 21.7823 19.8108 21.7823 17.3875C21.7823 14.9646 19.8111 12.9934 17.3878 12.9934Z" fill="#FF2B85"/>
</g>
<defs>
<clipPath id="clip0_159_68536">
<rect width="85.5332" height="66.4606" fill="white"/>
</clipPath>
</defs>
</svg>
