<svg width="103" height="100" viewBox="0 0 103 100" fill="none" xmlns="http://www.w3.org/2000/svg">
<g clip-path="url(#clip0_159_68112)">
<path fill-rule="evenodd" clip-rule="evenodd" d="M8.85136 48.2514L10.6411 47.24L11.4871 50.2655L12.9144 61.1791L10.9031 60.871L8.46119 55.3679L8.85136 48.2514Z" fill="#999999"/>
<path fill-rule="evenodd" clip-rule="evenodd" d="M19.8374 79.3831L19.4477 82.3161L21.2645 85.2858C21.2645 85.2858 22.7626 87.3974 23.314 89.559C23.8653 91.7205 26.6767 95.2144 26.6767 95.2144L30.1102 94.7144L35.3893 92.9487L37.947 88.7614L37.1361 84.9462L29.1315 84.4871L26.691 84.684L25.6271 84.2206L24.3103 84.7303L21.008 79.6859L19.8374 79.3831Z" fill="#999999"/>
<path fill-rule="evenodd" clip-rule="evenodd" d="M75.3633 76.4146L77.2528 81.8438L80.5886 83.4793L86.7871 83.1731L88.8929 83.6184L91.1259 81.1475L93.291 74.6849C93.291 74.6849 93.7337 72.3482 94.4079 70.3742C95.0822 68.4002 93.2944 61.2869 93.2944 61.2869C93.2944 61.2869 91.845 60.3078 90.7389 60.7268C89.6327 61.1458 89.0615 62.7843 88.7647 63.7668C88.4679 64.7493 87.3673 66.7301 87.3673 66.7301L86.5406 71.6868L83.8659 72.9449L75.3633 76.4146Z" fill="#999999"/>
<path fill-rule="evenodd" clip-rule="evenodd" d="M88.6471 34.101C88.6471 34.101 88.67 38.3421 88.6667 38.4347C88.6634 38.5273 90.3385 45.4347 90.3385 45.4347L92.1171 44.8268C92.1171 44.8268 91.7596 37.8462 91.7456 37.7803C91.7316 37.7143 90.2425 34.1692 90.2425 34.1692L88.6471 34.101Z" fill="#999999"/>
<path fill-rule="evenodd" clip-rule="evenodd" d="M38.0985 84.9862L38.3616 87.1337L38.0266 89.1357C38.0266 89.1357 40.8909 89.5268 42.8426 90.1118C44.7943 90.6968 53.5375 90.63 53.7601 90.704C53.9827 90.778 67.6655 85.0769 67.6655 85.0769L72.4082 81.4365L72.963 77.8827L66.3176 79.709C66.3176 79.709 63.6783 85.8577 54.6325 88.1574C54.6325 88.1574 46.1483 88.8386 40.668 84.7472L38.0985 84.9862Z" fill="#363636"/>
<path fill-rule="evenodd" clip-rule="evenodd" d="M11.8691 43.1134C11.8691 43.1134 10.2319 44.8113 10.8352 47.1989C11.4386 49.5864 12.1633 63.5895 15.5647 69.4652C18.9662 75.3409 17.7615 77.2041 19.1953 79.1749C20.6291 81.1457 22.273 80.1205 23.3518 83.5735C24.4305 87.0264 22.5717 83.7965 28.0934 84.4698C33.6151 85.1431 46.3831 84.2221 50.6336 83.4565C54.8841 82.691 82.2049 74.3229 82.6467 74.1303C83.0884 73.9377 86.2948 72.1528 86.6683 71.3149C87.0419 70.477 88.7724 63.8342 90.9784 60.1933C93.1843 56.5524 91.6059 48.5981 91.2629 46.4375C90.9199 44.2768 87.2799 34.2115 87.0634 30.8915C87.0634 30.8915 85.7814 30.791 81.539 28.8452C77.2965 26.8994 60.1253 23.7226 41.0172 28.6806C21.909 33.6386 14.6587 42.3511 14.6587 42.3511C14.6587 42.3511 13.2781 43.1901 11.8691 43.1134Z" fill="#A72054"/>
<path fill-rule="evenodd" clip-rule="evenodd" d="M14.06 51.3736C14.06 51.3736 17.9087 68.3462 21.5418 73.4353C25.1748 78.5243 23.7371 82.1414 42.4513 79.0247C61.1656 75.9081 78.8502 70.2183 81.0389 68.5119C83.2275 66.8055 85.4242 60.2704 84.9742 50.3674C84.5242 40.4644 84.5899 34.9339 81.4683 33.8735C78.3467 32.8131 56.0643 28.441 38.0791 35.0973C20.0939 41.7536 12.6731 45.8193 14.06 51.3736Z" fill="#363636"/>
<path fill-rule="evenodd" clip-rule="evenodd" d="M11.7021 43.922C11.7021 43.922 13.9482 43.7664 15.4523 41.9756C16.9565 40.1848 24.3071 30.6465 46.1195 27.1824C67.9319 23.7183 78.9553 27.6502 81.0256 28.5892C83.096 29.5283 85.6642 31.8786 87.0634 30.8916C87.0634 30.8916 79.4248 16.1496 68.2993 11.3889C57.1738 6.62824 24.5018 6.9071 14.5929 29.93L11.7021 43.922Z" fill="#FF2B85"/>
<path d="M12.0791 45.062C12.0284 45.0727 11.9759 45.0791 11.9219 45.0805C11.4382 45.0949 11.034 44.7151 11.0196 44.231C11.0131 44.0236 10.5942 23.3813 28.3172 14.008C45.799 4.76424 65.1039 7.8043 70.1234 11.9571C70.4967 12.2655 70.5486 12.8187 70.2401 13.1916C69.931 13.5641 69.3783 13.6164 69.0056 13.3082C64.2919 9.40821 45.9496 6.66692 29.137 15.5583C12.3961 24.4121 12.7665 43.9818 12.7724 44.1784C12.785 44.6086 12.4857 44.9755 12.0791 45.062Z" fill="#F287B7"/>
<path d="M87.6295 31.855C87.248 31.9361 86.8459 31.7537 86.6633 31.3889C80.6457 19.3585 71.9598 14.9109 71.8726 14.8673C71.4401 14.6507 71.2639 14.1248 71.4796 13.6915C71.6952 13.2583 72.2188 13.0818 72.6541 13.297C73.0301 13.4841 81.9354 18.0168 88.2317 30.6047C88.4485 31.0375 88.2728 31.5642 87.8396 31.781C87.7716 31.8151 87.7007 31.8398 87.6295 31.855Z" fill="#F287B7"/>
<path d="M83.7915 31.1068C83.5846 31.1508 83.3615 31.1203 83.1649 31.005C69.233 22.8068 45.8435 27.9553 33.1425 31.7527C22.8879 34.8192 15.681 43.0358 15.6093 43.1185C15.2906 43.4847 14.7381 43.5238 14.3724 43.2076C14.0065 42.8905 13.9663 42.3371 14.283 41.9712C14.5882 41.6179 21.8825 33.2895 32.6401 30.0728C45.6165 26.1931 69.5496 20.9585 84.0543 29.4931C84.4716 29.7389 84.6108 30.2765 84.3655 30.6937C84.2356 30.9144 84.0239 31.0574 83.7915 31.1068Z" fill="#F287B7"/>
<path d="M13.3243 63.4675C13.2627 63.4805 13.1985 63.4872 13.1331 63.4866C12.649 63.4823 12.2597 63.0862 12.2644 62.602C12.3161 56.9677 9.96192 46.6707 9.93816 46.5672C9.82953 46.0952 10.1243 45.6246 10.5963 45.516L10.6109 45.5128C11.0779 45.4136 11.5398 45.7067 11.6475 46.1741C11.7463 46.6039 14.0716 56.7758 14.0178 62.618C14.014 63.0368 13.7175 63.3839 13.3243 63.4675Z" fill="#F287B7"/>
<path d="M11.4217 62.3089C11.0678 62.3841 10.6896 62.2338 10.4906 61.9072C5.78771 54.1946 8.41633 48.0546 8.53053 47.797C8.72758 47.3546 9.24538 47.1549 9.6875 47.3506C10.1292 47.5465 10.3292 48.063 10.135 48.5047C10.0372 48.73 7.78446 54.1015 11.9879 60.9945C12.24 61.4079 12.1091 61.9474 11.6956 62.1995C11.6088 62.2525 11.5159 62.2889 11.4217 62.3089Z" fill="#F287B7"/>
<path d="M92.0455 48.2983C91.7285 48.3657 91.3867 48.2545 91.173 47.9826C87.51 43.3213 87.0745 33.7269 87.0577 33.3208C87.038 32.8369 87.4175 32.4289 87.8973 32.4087C88.3811 32.3886 88.7897 32.7644 88.8098 33.2482C88.814 33.3423 89.2397 42.684 92.5517 46.899C92.8511 47.2797 92.7849 47.8312 92.4042 48.1302C92.295 48.2159 92.1724 48.2713 92.0455 48.2983Z" fill="#F287B7"/>
<path d="M92.8603 45.6425C92.7811 45.6593 92.6987 45.665 92.6138 45.659C92.1311 45.6242 91.7678 45.2041 91.803 44.7209C92.2793 38.1463 89.1797 34.8216 89.1485 34.7884C88.8148 34.4395 88.8249 33.8854 89.1721 33.5503C89.5209 33.2144 90.0719 33.2225 90.4076 33.5683C90.5582 33.7227 94.089 37.4408 93.552 44.8481C93.5233 45.2464 93.2322 45.5635 92.8603 45.6425Z" fill="#F287B7"/>
<path d="M18.4472 77.1862C18.1156 77.2567 17.7582 77.13 17.5494 76.8356C14.9755 73.2087 13.5106 65.9665 13.4494 65.66C13.3553 65.1889 13.6584 64.7305 14.1266 64.631L14.1379 64.6286C14.6128 64.5338 15.0745 64.8423 15.1694 65.3172C15.1836 65.3885 16.6229 72.4996 18.9795 75.8208C19.2599 76.2155 19.1667 76.7632 18.7718 77.0432C18.671 77.1146 18.5607 77.1621 18.4472 77.1862Z" fill="#F287B7"/>
<path d="M90.854 62.163C90.5889 62.2194 90.3016 62.1527 90.0846 61.9576C89.7243 61.6337 89.6953 61.0791 90.0188 60.7193C90.9769 59.6542 91.0751 53.9239 90.8392 50.1948C90.8086 49.7111 91.1783 49.2942 91.6586 49.2643C92.142 49.2338 92.5587 49.6004 92.5892 50.0837C92.6924 51.7058 93.1147 59.8993 91.3229 61.8918C91.1941 62.0352 91.0287 62.1259 90.854 62.163Z" fill="#F287B7"/>
<path d="M24.3296 86.6959C23.9091 86.7853 23.4761 86.5538 23.3247 86.1382C21.3908 80.8311 19.2849 80.3612 19.2639 80.3574C18.8022 80.2669 18.4762 79.8249 18.5477 79.3602C18.6196 78.895 19.0251 78.5685 19.4946 78.6192C19.8099 78.6551 22.6454 79.1514 24.9724 85.5377C25.1382 85.9926 24.9038 86.4959 24.4488 86.6618C24.4095 86.6763 24.3698 86.6874 24.3296 86.6959Z" fill="#F287B7"/>
<path d="M22.1309 87.1631C21.9115 87.2097 21.6743 87.1726 21.4711 87.0407C19.412 85.7035 18.6468 82.3447 18.5664 81.9661C18.4658 81.4929 18.7679 81.0278 19.241 80.9268C19.7138 80.8263 20.1801 81.1276 20.2816 81.6007C20.4604 82.4337 21.1947 84.7704 22.4262 85.5701C22.8324 85.8339 22.9478 86.3767 22.6839 86.7829C22.552 86.986 22.3504 87.1164 22.1309 87.1631Z" fill="#F287B7"/>
<path d="M87.3094 74.0448C87.2876 74.0494 87.2657 74.0532 87.2431 74.0563C86.7632 74.1211 86.3217 73.7842 86.2573 73.3042C85.4145 67.0428 88.7626 63.6436 88.9054 63.5017C89.2501 63.1609 89.8044 63.1639 90.1457 63.5072C90.4857 63.8508 90.4839 64.4044 90.1419 64.7454C90.0126 64.8762 87.2756 67.7244 87.9952 73.0704C88.057 73.5278 87.7537 73.9503 87.3094 74.0448Z" fill="#F287B7"/>
<path d="M90.0371 73.4654C89.6992 73.5372 89.3361 73.4043 89.1297 73.1006C88.8569 72.7007 88.9607 72.1552 89.3607 71.8828C90.208 71.3057 90.1672 68.2351 89.8124 66.2406C89.7282 65.7643 90.0522 65.3032 90.522 65.2235C90.999 65.1388 91.4544 65.4565 91.539 65.9331C91.7135 66.9146 92.4767 71.8827 90.348 73.3319C90.2509 73.398 90.1452 73.4424 90.0371 73.4654Z" fill="#F287B7"/>
<path d="M54.6507 84.2164C38.0285 87.7496 26.3166 85.4881 25.8133 85.3876C25.3384 85.2929 25.0305 84.8309 25.1253 84.3564C25.2205 83.8814 25.683 83.5717 26.1565 83.668C26.2803 83.6925 38.6851 86.0737 55.6437 82.2016C72.6929 78.3071 84.3222 72.4907 84.4376 72.4325C84.8692 72.2142 85.3967 72.3875 85.6155 72.8198C85.834 73.2523 85.6606 73.7794 85.2282 73.9978C85.1112 74.0568 73.3059 79.9658 56.0342 83.9114C55.5705 84.0174 55.1076 84.1193 54.6507 84.2164Z" fill="#F287B7"/>
<path d="M87.1595 84.1568C87.1096 84.1674 87.0576 84.1741 87.0046 84.1757C86.7403 84.1842 80.5059 84.3818 78.6364 84.0849C76.3251 83.7174 75.4707 79.4116 75.3231 78.5523C75.241 78.0756 75.5612 77.6297 76.038 77.5398C76.5151 77.4576 76.9683 77.7776 77.0509 78.2546C77.3706 80.1003 78.2344 82.2449 78.9116 82.3527C80.3269 82.5779 85.1926 82.4795 86.948 82.4229C87.4319 82.4071 87.8369 82.7868 87.8527 83.271C87.8668 83.7018 87.5669 84.0702 87.1595 84.1568Z" fill="#F287B7"/>
<path d="M89.208 84.5959C88.507 84.7449 87.7865 84.6293 87.1056 84.2554C83.9555 82.5241 82.0474 75.4045 81.8401 74.5981C81.7194 74.1292 82.0017 73.6516 82.4707 73.5309C82.9578 73.4133 83.4177 73.6925 83.5383 74.1614C84.0501 76.1489 85.8405 81.5596 87.9506 82.7184C88.3089 82.9149 88.628 82.9561 88.9685 82.847C90.5149 82.3445 91.7203 79.2777 92.1931 74.643C92.2423 74.1616 92.6724 73.8088 93.1546 73.8595C93.6365 73.909 93.9871 74.3391 93.938 74.821C93.5404 78.7162 92.4497 83.5598 89.5104 84.515C89.4101 84.5477 89.3094 84.5744 89.208 84.5959Z" fill="#F287B7"/>
<path d="M94.1725 72.586C93.9317 72.6371 93.6712 72.5875 93.4598 72.4267C93.0741 72.134 92.9984 71.5841 93.2915 71.1983C94.202 69.9981 93.407 64.9132 92.5517 61.6861C92.4272 61.218 92.706 60.7381 93.1743 60.614C93.6483 60.4861 94.1227 60.7683 94.2464 61.2366C94.6277 62.6722 96.4391 69.9506 94.6886 72.2583C94.5558 72.4327 94.371 72.5438 94.1725 72.586Z" fill="#F287B7"/>
<path d="M30.7119 95.7647C30.1373 95.8868 29.6953 95.972 29.3532 96.022C29.315 96.0318 29.2555 96.0484 29.2203 96.0598L29.2137 96.0411C28.2292 96.1663 28.1763 95.9504 28.0544 95.4532C27.9598 95.0658 28.0367 94.5544 28.9429 94.3163C29.0441 94.29 29.1483 94.2818 29.2484 94.2912C29.7615 94.1848 30.8546 93.9445 33.1947 93.4117C34.5103 93.1123 35.442 92.4792 36.0429 91.4761C37.4543 89.121 36.5043 85.5643 36.4945 85.5283C36.3665 85.0618 36.6408 84.5794 37.1072 84.4509C37.5658 84.3267 38.0553 84.5951 38.1847 85.0618C38.2331 85.2358 39.3462 89.3649 37.5517 92.37C36.704 93.7894 35.3692 94.7152 33.5844 95.1217C32.3724 95.3977 31.4368 95.6106 30.7119 95.7647Z" fill="#F287B7"/>
<path d="M28.0356 96.7673C25.8721 97.2271 23.6563 92.6487 22.1593 88.6559C21.9893 88.2022 22.219 87.6968 22.6722 87.527C23.12 87.3561 23.6307 87.5863 23.8011 88.0399C25.1034 91.5103 26.8787 94.706 27.67 95.0289C28.2204 94.3359 28.268 89.6935 27.7008 85.0032C27.6428 84.5222 27.9849 84.0932 28.466 84.0273C28.947 83.9692 29.3835 84.312 29.4419 84.7924C30.0495 89.8134 30.3332 95.9563 28.2361 96.7098C28.1694 96.734 28.1026 96.753 28.0356 96.7673Z" fill="#F287B7"/>
<path d="M55.0744 89.818C47.5006 91.4278 40.3483 86.1246 40.0393 85.8918C39.6529 85.6001 39.5756 85.051 39.8668 84.6644C40.1565 84.2771 40.707 84.2004 41.0944 84.4905C41.1653 84.5442 48.3032 89.8229 55.2748 87.9681C62.35 86.0904 67.1466 79.2834 67.1942 79.2147C67.4695 78.8174 68.0167 78.7186 68.4141 78.9943C68.812 79.2704 68.9109 79.8162 68.6353 80.214C68.4266 80.5153 63.4348 87.6172 55.7243 89.6628C55.5077 89.7206 55.2905 89.772 55.0744 89.818Z" fill="#F287B7"/>
<path d="M54.3698 92.003C47.3271 93.5 40.1113 90.598 39.804 90.4725C39.3562 90.2888 39.1416 89.7777 39.3247 89.3295C39.5072 88.8805 40.0192 88.6658 40.4679 88.8492C40.5383 88.8776 47.5018 91.67 54.0094 90.2867C54.0819 90.2713 54.1534 90.2557 54.226 90.239C60.9149 88.7183 70.7312 82.8359 72.0874 80.1455C72.3058 79.713 72.8339 79.5386 73.2651 79.7573C73.6975 79.9753 73.8713 80.5025 73.6533 80.9349C71.9462 84.3224 61.4482 90.3956 54.6149 91.9492C54.5335 91.9678 54.4515 91.9856 54.3698 92.003Z" fill="#F287B7"/>
<path d="M57.5322 77.0796C45.9887 79.5332 34.3691 81.1736 31.572 80.9837C30.9488 80.9411 30.345 80.9688 29.7609 80.9949C24.3981 81.2379 21.2472 80.04 13.6761 51.5973C13.5512 51.1293 13.8299 50.649 14.2976 50.5246C14.7575 50.4023 15.246 50.6784 15.3704 51.1462C22.9312 79.5485 25.7627 79.4207 29.6819 79.2433C30.3144 79.2144 30.9686 79.1848 31.6908 79.2339C37.0153 79.5952 76.3853 72.9094 81.5868 67.2866C84.9575 63.6432 84.8019 49.6104 83.5327 37.6921C83.4813 37.2111 83.8235 36.7724 84.3116 36.7273C84.7932 36.6762 85.2253 37.0246 85.2764 37.5062C86.0912 45.1571 87.4886 63.4899 82.8739 68.4776C80.0891 71.4879 68.8471 74.6745 57.5322 77.0796Z" fill="#F287B7"/>
<path d="M81.8314 35.3303C81.6886 35.3606 81.5357 35.3559 81.3865 35.3089C77.0035 33.9281 64.9421 31.0458 47.6504 34.098C25.291 38.0404 15.3034 48.4295 15.2052 48.534C14.8749 48.8869 14.3187 48.904 13.9659 48.5724C13.6132 48.2412 13.5952 47.6874 13.926 47.3343C14.3412 46.891 24.3652 36.4382 47.3454 32.3708C64.3827 29.3635 76.3163 31.8729 81.9134 33.636C82.3754 33.7816 82.6315 34.2738 82.4864 34.7358C82.3878 35.0483 82.1304 35.2667 81.8314 35.3303Z" fill="#F287B7"/>
<path d="M33.7045 18.8365C33.2122 19.8558 33.0372 20.905 33.2495 21.9038C33.9977 25.4242 39.2655 26.9826 45.0922 25.7441C50.9188 24.5057 55.0973 20.9393 54.3491 17.4189C54.1377 16.4247 53.5545 15.5413 52.6976 14.8121C52.6946 14.8083 52.6911 14.8044 52.6863 14.8004C52.4643 14.6084 52.6847 14.3843 52.6847 14.3843C52.7366 14.3256 52.7832 14.2667 52.8272 14.2067C53.3425 13.5171 53.365 12.7292 52.8601 12.1376C52.7373 11.9935 52.1251 12.1997 51.9457 12.0817C51.8688 12.031 51.871 11.9209 51.8808 11.805C51.8855 11.7735 51.888 11.7417 51.8885 11.7106C51.8969 11.5884 51.8911 11.4761 51.7842 11.4379C51.6788 11.4005 51.5676 11.3671 51.4516 11.3377L51.3826 11.3197C50.6201 11.1382 49.7115 11.1718 48.8453 11.3844C48.089 11.5701 47.3123 11.8983 46.8002 12.345L46.7991 12.3444C46.7991 12.3444 46.4231 12.6433 45.8418 12.6481C45.8259 12.6481 45.8101 12.6487 45.7949 12.6495C45.1771 12.6471 44.5513 12.6726 43.9194 12.7447C43.4053 12.8035 42.8911 12.8874 42.382 12.9956C41.2051 13.2457 40.1012 13.6155 39.0935 14.0742C39.0783 14.0799 39.0633 14.0861 39.048 14.0927C38.5035 14.3292 38.0905 14.201 38.0905 14.201C36.8685 13.8264 34.6424 14.1453 33.3686 15.211C31.9756 16.3771 32.1965 17.8462 33.5378 18.4546C33.5378 18.4546 33.8289 18.5708 33.7045 18.8365ZM48.081 12.7415C48.1473 12.6761 48.2253 12.6152 48.3139 12.5615C48.5299 12.4306 48.7766 12.3244 49.0357 12.2467C50.0236 11.9495 51.1543 12.0901 51.585 12.6515C51.8025 12.9345 51.8167 13.3 51.6244 13.6416C51.6142 13.6599 51.604 13.6781 51.5914 13.6963C51.5636 13.7374 51.5289 13.7774 51.4814 13.8113C51.3177 13.9286 51.1741 13.8775 51.0393 13.8181C50.2006 13.4481 49.3052 13.1076 48.2679 12.957C48.2093 12.9487 48.1494 12.9404 48.1012 12.9199C48.0533 12.8993 48.0179 12.8637 48.0259 12.8221C48.0314 12.7941 48.0551 12.7669 48.081 12.7415ZM45.7595 16.0111C46.131 15.7344 46.6418 15.576 47.0785 15.4857C47.5687 15.3842 47.9649 15.3687 47.9649 15.3687C48.8815 15.3483 49.5663 15.4625 50.0756 15.6516C51.6101 16.2212 51.5583 17.4689 51.4865 17.753C51.3241 18.397 50.6884 19.1385 49.8281 19.3864C48.9677 19.6344 48.5013 19.473 48.0639 18.8858C47.627 18.2987 46.2856 17.7517 45.6948 17.5154C45.1041 17.2793 44.9713 16.5984 45.7595 16.0111ZM46.3859 20.2629C46.8198 20.0973 47.0287 20.1922 47.0837 20.4513C47.2431 21.2008 46.0421 22.2361 44.3616 22.5996C44.3574 22.6008 44.3541 22.6015 44.3499 22.6024L44.3372 22.6051C42.654 22.9562 41.1358 22.4989 40.9765 21.7494C40.9214 21.49 41.0737 21.3187 41.5375 21.2935C41.8055 21.2789 42.9095 21.2211 43.8821 21.0177L44.0104 20.9905C44.0294 20.9864 44.0885 20.9741 44.1318 20.9647C45.103 20.7549 46.1351 20.3586 46.3859 20.2629ZM43.6587 19.3509C44.4957 19.173 45.1982 19.1431 45.2414 19.3463C45.2845 19.5495 44.7037 20.1517 43.8668 20.3296C43.0299 20.5075 42.2542 20.1936 42.2111 19.9904C42.1679 19.7872 42.8219 19.5288 43.6587 19.3509ZM38.9637 17.2183C39.3994 17.1232 39.9309 17.0601 40.3823 17.1618C41.3414 17.3777 41.4969 18.0535 41.0533 18.5097C40.6098 18.9659 39.6067 20.0109 39.4464 20.7253C39.286 21.4395 38.9252 21.7767 38.0384 21.9002C37.1516 22.0236 36.2698 21.6046 35.8591 21.0825C35.6777 20.8518 35.123 19.7331 36.2933 18.5889C36.682 18.2089 37.2606 17.8259 38.1064 17.4719C38.1064 17.4719 38.475 17.3249 38.9637 17.2183ZM33.8351 16.4246C34.0005 15.7363 34.9763 15.1481 35.9997 15.0178C36.268 14.9835 36.5367 14.9801 36.7873 15.0119C36.89 15.0249 36.9864 15.0487 37.0735 15.0814C37.1076 15.0941 37.1404 15.1093 37.1568 15.1327C37.1809 15.1674 37.1635 15.2143 37.1276 15.2527C37.0921 15.291 37.0407 15.3229 36.9905 15.3544C36.1042 15.9135 35.4246 16.5891 34.8089 17.2682C34.71 17.3775 34.5996 17.4824 34.4023 17.4419C34.3451 17.4302 34.2967 17.4076 34.2545 17.3813C34.2362 17.37 34.2187 17.3577 34.2018 17.3452C33.8872 17.1114 33.7514 16.7717 33.8351 16.4246ZM39.0258 18.7629C38.9871 18.581 39.212 18.3791 39.5281 18.3119C39.8443 18.2447 40.1319 18.3377 40.1706 18.5196C40.2093 18.7014 39.9843 18.9033 39.6681 18.9706C39.352 19.0377 39.0644 18.9448 39.0258 18.7629ZM46.6498 17.1424C46.6111 16.9604 46.8362 16.7586 47.1523 16.6914C47.4685 16.6242 47.7559 16.717 47.7946 16.899C47.8333 17.081 47.6085 17.2828 47.2923 17.35C46.9758 17.4173 46.6885 17.3244 46.6498 17.1424Z" fill="white"/>
<path d="M79.8087 60.8323C79.6655 60.8627 79.5121 60.8577 79.3624 60.8103C78.9006 60.6642 78.6453 60.1713 78.7914 59.7095C79.6998 56.842 79.178 43.5389 78.9003 38.6553C78.8731 38.1712 79.2478 37.7572 79.7257 37.73C80.2092 37.7025 80.6234 38.0719 80.6509 38.5554C80.6924 39.2859 81.6543 56.48 80.4631 60.2393C80.3643 60.5509 80.1073 60.7688 79.8087 60.8323Z" fill="#F287B7"/>
<path d="M73.471 68.9228C73.007 69.0214 72.6941 69.0591 72.6446 69.0648C72.1637 69.1193 71.7302 68.7746 71.6749 68.2939C71.6192 67.8138 71.9594 67.3777 72.4445 67.3223C73.5877 67.1901 76.6864 66.4106 77.3108 64.4386C77.4578 63.9771 77.9516 63.722 78.4115 63.8676C78.8733 64.0137 79.1287 64.507 78.9825 64.9683C78.1421 67.6205 74.9933 68.5992 73.471 68.9228Z" fill="#F287B7"/>
</g>
<defs>
<clipPath id="clip0_159_68112">
<rect width="86.7107" height="83.6626" fill="white" transform="translate(0 18.0281) rotate(-12)"/>
</clipPath>
</defs>
</svg>
