<?xml version="1.0" encoding="utf-8"?>
<!-- Generator: Adobe Illustrator 28.3.0, SVG Export Plug-In . SVG Version: 6.00 Build 0)  -->
<svg version="1.1" id="_圖層_2" xmlns="http://www.w3.org/2000/svg" xmlns:xlink="http://www.w3.org/1999/xlink" x="0px" y="0px"
	 viewBox="0 0 300 490" style="enable-background:new 0 0 300 490;" xml:space="preserve">
<style type="text/css">
	.st0{fill-rule:evenodd;clip-rule:evenodd;fill:#EFF2F4;}
	.st1{fill-rule:evenodd;clip-rule:evenodd;fill:#E99D9A;}
	.st2{fill-rule:evenodd;clip-rule:evenodd;fill:#382B26;}
	.st3{fill-rule:evenodd;clip-rule:evenodd;fill:#FF2B85;}
	.st4{fill:#FF2B85;}
	.st5{fill:#FFFFFF;}
</style>
<g id="Layer_1">
	<path class="st0" d="M84.4,243.9c0,0,22-1.4,30.7,0s60.5,6.7,61.1,6.6s45.5,3.1,45.5,3.1s10.6-0.8,13.4,0.7l-2.1,4.5l-4.3,3.3
		l-2.8,8.5l-0.7,9l9.4,17.2l13.6,11.4l2.9,7.5l2.3,66.7l5.3,32.7l9.9,54.5l1.2,13.4l-3.4,3.1l-165.7-6.3l-19.1-3.9l-0.7-20.1
		l5.3-41.8l3.4-41.4l1.2-31.7l-0.2-39.4l-3.9-35.8L84.4,243.9L84.4,243.9z"/>
	<path class="st1" d="M281,235.6l-9.2,5.6l-6.6,16.9l-4.8-3.6l-10.7-8.1l-7.6,3.8l-6,0.9l-3.1,6l-2.2,3.6l-2.5,5.6l-3.1,5.2
		l0.6,14.3l13.4,15.5l8.9,6.7l3.2,13.2l1.1,14.4c0,0,5,15.3,12.8,18.3c7.7,3,21.6,9.8,25.4-2.2s6.6-27.8,6.6-27.8s0.2-8.4-0.6-16.2
		s-1.1-22.2-1.1-22.2l-8.6,1.5l-7.8-1.2l-3.5,0.4l-1.9-1.9l2.8-9.8l3.9-22l3-13.9l0.9-3L281,235.6L281,235.6z"/>
	<path class="st1" d="M95.1,133.1l4.7-4.4h4.9l6.4-3.9l2.2-8.2c0,0,1-3.9,1.2-4.6c0.2-0.7-11.1-10.7-11.1-10.7l-0.5-3.5l-9.9-5
		l-4.8-3.5h-6l-3.2,4L75.4,93l-2.9-18.2L67,76.1v12.1l-2,19.4l-2.7,16.6l-12.6,26.2l-13.3,17.6l-13.5,16l-15,26.3
		c0,0-8.2,33-5.3,49.2s30.2,15.2,30.2,15.2s29.7-15.9,30.2-16.7S74,249.5,74.6,244c0.5-5.5-9.4-18-9.4-18l-10.8-7.4l1.2-5.2
		l15.4-47.9L74,155l4.8-12.3L95.1,133.1L95.1,133.1z"/>
	<path class="st1" d="M151.3,94.3l2.9,24.1l-7,23.1L133,149c0,0,11.2,0.3,15.7,4.9s19.7,16,37.8,16.2s36.9-15.5,36.9-15.5
		s-8.2-0.3-12.2-11.6l1.4-23.5l11.7-14.8c0,0,4.1-9.8,4.1-10.5c0-0.7,1.7-17.7,1.7-18.1c0-0.4-5.7-11.1-5.7-11.1l-1.3-3.2
		c0,0-5-2-5.4-7.8c-0.4-5.8,0.5-16.5,0.5-16.5l-7.7-7.6c0,0-6.1-2-8.5,0.5c0,0-4.6,1.9-8-0.8s-19.7-0.4-19.7-0.4s-5.4,3.4-5.6,8.4
		c-0.2,5-7.4,19.8-8.5,20.6c-1.1,0.8-7.6,6.9-7.6,6.9s-6.2-6.6-6.5-6.9s-8.9,1.3-8.9,1.3l-0.4,6.3l6,16.9l3.9,4.7l3.3,3.4
		L151.3,94.3L151.3,94.3z"/>
	<path class="st2" d="M142.1,57.6c0.3-0.3,3-21,2.8-21.4c-0.2-0.4,2.5-12.6,2.5-12.6l7.2-6.3l-0.6-5.4c0,0,17.4-10.8,31.5,0
		c0,0,20-20,37.2,1.1c0,0-2.5,4.1,1.6,6.8c4.2,2.7,11.2,16.5,11.2,16.5s-4.5,3-3.5,11.1c1,8.2,5,21,5,21s-3.9,3.4-10.4-2.4
		c-6.5-5.8-8.7-5.4-9.1-12.6c-0.4-7.2,0-8.2,0-8.2l-1.7-6.8l-3.1-6.3c0,0-4.9-4.2-10.4-1.4s-11.4-1.2-17-2.3
		c-5.5-1.1-15.1,0.9-19.2,12.9c-4.1,11.9-11.1,21.5-11.1,21.5l-4,1.4L142.1,57.6L142.1,57.6z"/>
	<path class="st3" d="M71.1,167.5l-16.9,45.7l4.4,7.5c0,0,15.2,8,14.5,26.1l11.2-11.7l1.4,9.6c0,0,20.4-3.4,45.2-0.8
		c24.7,2.5,54,7.5,54,7.5l38.1,2.2l12,0.6c0,0,4.3-4,7-3.1c2.7,0.9,0.1-5,6.4-4.8c6.2,0.3,16.1,13.2,16.1,13.2l8.9-19.9l9.6-3.8
		l1.4,2.7l-5.1,11l-1.5,15.9l-5.4,19.7l1.5,2.4L293,286l5.2-4.3l-2.4-49.9l-5.8-32.5l-16.4-19.3l-42.5-23l-6.8-3.9
		c0,0-38.8,41.6-78.6-2.4l-11.9-3.1l-13.5,7.2L71.1,167.5L71.1,167.5z"/>
	<path class="st4" d="M153.1,15.2c-0.7,0-1.3-0.3-1.8-0.9c-0.7-1-0.5-2.4,0.4-3.1C169.2-2,183,9.4,183.2,9.5c0.9,0.8,1,2.2,0.2,3.1
		c-0.8,0.9-2.2,1-3.1,0.3c-0.5-0.4-11.3-9.2-25.9,1.8C154,15,153.6,15.2,153.1,15.2L153.1,15.2z"/>
	<path class="st4" d="M142.7,58.1c0,0-0.1,0-0.2,0c-1.2-0.1-2.1-1.2-2-2.4c0-0.3,0.6-6.5,2.1-14.1c0.5-2.7,0.4-4.5,0.2-6.2
		c-0.3-3-0.5-5.7,2.6-10.8c4.7-7.8,9.9-9.5,11.6-9.5c1.2,0,2.2,1,2.2,2.2s-0.9,2.2-2.1,2.2c-0.3,0.1-4,1-7.9,7.3
		c-2.3,3.8-2.2,5.5-1.9,8.1c0.2,1.9,0.4,4.1-0.3,7.4c-1.4,7.4-2,13.6-2,13.6C144.8,57.3,143.8,58.1,142.7,58.1L142.7,58.1z
		 M156.9,19.6C156.9,19.6,156.9,19.6,156.9,19.6C156.9,19.6,156.9,19.6,156.9,19.6z"/>
	<path class="st4" d="M150,90.7c-0.6,0-1.2-0.1-1.8-0.3c-3-0.9-5.6-3.9-6.9-7.9c-0.3-1-1.2-2.7-2-4.4c-2.7-5.4-6-12.2-4-17.1
		c0.9-2.1,2.6-3.5,5-4.3c2.8-0.9,5.5-0.7,7.8,0.8c5.5,3.4,7.1,12.3,7.2,13.3c0.2,1.2-0.6,2.3-1.9,2.5c-1.2,0.2-2.3-0.6-2.5-1.9l0,0
		c-0.3-2.2-1.9-8.2-5.2-10.2c-1.2-0.7-2.5-0.8-4.1-0.3c-1.6,0.5-2.1,1.3-2.3,1.8c-1.3,3.1,1.8,9.3,3.9,13.4c1,2,1.8,3.7,2.3,5
		c0.9,2.9,2.7,4.6,4,5c0.6,0.2,1.2,0.1,1.7-0.4c0.9-0.8,2.3-0.6,3.1,0.3c0.8,0.9,0.6,2.3-0.3,3.1C152.8,90.2,151.4,90.7,150,90.7
		L150,90.7z"/>
	<path class="st4" d="M145,144.4c-0.6,0-1.3-0.3-1.7-0.8c-0.8-0.9-0.7-2.3,0.3-3.1c14.8-12.4,4.8-51.1,4.7-51.5
		c-0.3-1.2,0.4-2.4,1.6-2.7c1.2-0.3,2.4,0.4,2.7,1.6c0.4,1.7,10.8,41.8-6.2,56.1C146,144.3,145.5,144.4,145,144.4L145,144.4z"/>
	<path class="st4" d="M72,170.7c-0.9,0-1.7-0.6-2.1-1.4c-0.4-1.2,0.2-2.4,1.3-2.8c0.4-0.2,10.9-4,24-6.6
		c19.4-3.8,33.3-8.6,37.1-12.9c0.8-0.9,2.2-1,3.1-0.2c0.9,0.8,1,2.2,0.2,3.1c-6.2,7-27.5,12-39.6,14.3c-12.8,2.5-23.2,6.3-23.3,6.4
		C72.5,170.6,72.3,170.7,72,170.7L72,170.7z"/>
	<path class="st4" d="M222.8,15.2c-0.6,0-1.3-0.3-1.7-0.8c-4.5-5.4-9.4-8.2-14.6-8.4c-8.6-0.4-15.5,6.4-15.6,6.4
		c-0.9,0.9-2.3,0.9-3.1,0c-0.9-0.9-0.9-2.3,0-3.1c0.3-0.3,8.3-8.2,18.9-7.7c6.5,0.3,12.5,3.7,17.8,10c0.8,0.9,0.7,2.3-0.3,3.1
		C223.8,15,223.3,15.2,222.8,15.2L222.8,15.2z"/>
	<path class="st4" d="M235.8,38.8c-0.9,0-1.7-0.5-2.1-1.4c-4.5-11.9-11.8-15.8-11.9-15.8c-1.1-0.6-1.5-1.9-1-3s1.9-1.5,3-1
		c0.4,0.2,8.9,4.5,14,18.2c0.4,1.2-0.1,2.4-1.3,2.9C236.3,38.8,236,38.8,235.8,38.8L235.8,38.8z"/>
	<path class="st4" d="M168.1,35c-0.6,0-1.2-0.2-1.6-0.7c-0.8-0.9-0.8-2.3,0.1-3.1c11.2-10.3,28.1-2.4,28.9-2.1
		c1.1,0.5,1.6,1.9,1.1,3c-0.5,1.1-1.8,1.6-3,1.1c-0.2-0.1-15-6.9-24,1.3C169.2,34.8,168.7,35,168.1,35z"/>
	<path class="st4" d="M153.1,66.5c-0.7,0-1.3-0.3-1.8-0.9c-0.7-1-0.5-2.4,0.4-3.1c9.3-6.9,14.1-24,14.2-24.2
		c0.3-1.2,1.5-1.9,2.7-1.5c1.2,0.3,1.9,1.5,1.5,2.7c-0.2,0.8-5.3,18.7-15.8,26.6C154,66.4,153.6,66.5,153.1,66.5L153.1,66.5z"/>
	<path class="st4" d="M201.4,33.4c-0.2,0-0.5,0-0.7-0.1c-1.2-0.4-1.8-1.6-1.4-2.8c1.4-4.2,6.5-11.8,16.1-10c1.2,0.2,2,1.4,1.8,2.6
		c-0.2,1.2-1.4,2-2.6,1.8c-8.2-1.5-11,6.7-11.1,7C203.1,32.8,202.3,33.4,201.4,33.4L201.4,33.4z"/>
	<path class="st4" d="M213.3,64c-0.4,0-0.7-0.1-1.1-0.3c-1.1-0.6-1.5-1.9-0.8-3c4.7-8.4,6.2-15.5,4.4-21.1c-1.7-5.1-5.8-7.1-5.8-7.1
		c-1.1-0.5-1.6-1.8-1.1-2.9s1.8-1.6,2.9-1.1c0.2,0.1,5.9,2.8,8.1,9.8c2.2,6.8,0.6,15-4.8,24.6C214.8,63.5,214,64,213.3,64L213.3,64z
		"/>
	<path class="st4" d="M190.7,132c-0.1,0-0.2,0-0.3,0c-19.9-0.2-32-21.3-32-32.7c0-1.2,1-2.2,2.2-2.2c1.2,0,2.2,1,2.2,2.2
		c0,9.6,10.8,28.1,27.6,28.3c0.1,0,0.1,0,0.2,0c15.6,0,32-17.7,36.5-39.6c4-19.4-6.6-23.1-6.7-23.1c-1.2-0.4-1.8-1.6-1.4-2.8
		s1.6-1.8,2.8-1.4c0.6,0.2,14.4,5,9.7,28.2C227.2,109.7,210.4,132,190.7,132z"/>
	<path class="st4" d="M237.3,71c-0.6,0-1.1-0.2-1.5-0.6c-7.5-7.3-6-26.4-5.8-28.5c0.1-1.2,1.2-2.1,2.4-2c1.2,0.1,2.1,1.2,2,2.4
		c-0.5,5.3-0.7,20,4.5,25c0.9,0.9,0.9,2.3,0,3.1C238.5,70.8,237.9,71,237.3,71L237.3,71z"/>
	<path class="st4" d="M213.6,152.3c-0.8,0-1.7-0.5-2-1.3c-4.5-10.3-0.3-31.9-0.1-32.8c0.2-1.2,1.4-2,2.6-1.7c1.2,0.2,2,1.4,1.7,2.6
		c0,0.2-4.1,21.2-0.1,30.2c0.5,1.1,0,2.4-1.2,2.9C214.2,152.3,213.9,152.4,213.6,152.3L213.6,152.3z"/>
	<path class="st4" d="M189.2,172.5c-24.6,0-44.9-19-45.7-19.8c-0.9-0.8-0.9-2.3-0.1-3.1c0.8-0.9,2.3-0.9,3.1-0.1
		c0.2,0.2,20.6,19.4,44.1,18.6c11.7-0.4,22.3-5.7,31.5-15.8c0.8-0.9,2.2-1,3.1-0.1c0.9,0.8,1,2.2,0.1,3.1
		c-10.1,11-21.7,16.8-34.7,17.2C190.2,172.5,189.7,172.5,189.2,172.5L189.2,172.5z"/>
	<path class="st4" d="M281,290.4c-2.7,0-4.7-0.2-5.3-0.2c-1.2-0.1-2.1-1.2-2-2.4s1.2-2.1,2.4-2c5.9,0.5,16.4,0.2,19-2.8
		c0.4-0.4,0.7-0.9,0.4-2c-0.8-3.8-0.9-10.7-0.9-19.4c-0.1-14.4-0.3-34-3.9-52.2c-5.5-27.8-60.7-49.9-61.3-50.1
		c-1.1-0.4-1.7-1.7-1.2-2.9c0.4-1.1,1.7-1.7,2.9-1.2c2.4,0.9,58,23.2,64,53.3c3.7,18.6,3.8,38.5,3.9,53c0.1,8.5,0.1,15.2,0.8,18.5
		c0.5,2.2,0,4.2-1.5,5.8C295,289.7,286.6,290.4,281,290.4L281,290.4z"/>
	<path class="st4" d="M292.2,318.8c-1,0-1.8-0.6-2.1-1.6c-1.3-4.2-6.2-7.9-10.5-11.1c-4.2-3.2-8.3-6.2-9.3-9.9c-1.7-6,2-18.9,5-28.2
		l0.3-0.9c0.2-0.7,0.3-2.7,0.4-4.7c0.3-6,0.7-15.1,4.7-21.8c0.6-1.1,0.8-1.7,0.9-2.1c-0.4-0.1-1.4,0-2.7,0.6c-2.2,1-4,2.8-4.5,4.6
		c-1.5,5.3-4.6,11.5-6.2,14.8c-0.4,0.8-0.8,1.7-1,2c-0.2,1-1.1,1.7-2.1,1.7c-1.2,0-2.2-1-2.2-2.2c0-0.7,0.2-1,1.3-3.4
		c1.6-3.2,4.5-9.2,5.9-14.1c1.3-4.6,6.1-7.7,9.9-8.3c2.4-0.4,4.3,0.3,5.4,1.8c1.2,1.7,0.9,4.1-0.8,6.9c-3.4,5.8-3.9,14.2-4.1,19.7
		c-0.1,2.7-0.2,4.6-0.6,5.9l-0.3,0.9c-5.4,16.7-5.7,23.1-5,25.6c0.7,2.3,4.2,5,7.7,7.6c4.9,3.6,10.4,7.8,12,13.4
		c0.4,1.2-0.3,2.4-1.5,2.8C292.7,318.7,292.4,318.8,292.2,318.8L292.2,318.8z M267.3,260L267.3,260L267.3,260z M267.3,260L267.3,260
		L267.3,260z"/>
	<path class="st4" d="M267.7,268.7c-0.7,0-1.4-0.3-1.8-0.9c-4.7-6.6-12.6-16.6-15.6-17.8c-2-0.8-3.8-0.6-4.4,0
		c-0.6,0.7-0.6,3.1,2.6,8.2c0.7,1,0.4,2.4-0.7,3.1c-1,0.7-2.4,0.4-3.1-0.7c-3.9-6.1-4.7-10.6-2.3-13.4c2.2-2.7,6.4-2.6,9.5-1.3
		c5.3,2.2,15.5,16.5,17.5,19.4c0.7,1,0.5,2.4-0.5,3.1C268.6,268.6,268.1,268.7,267.7,268.7L267.7,268.7z"/>
	<path class="st4" d="M238.3,267.9c-0.8,0-1.6-0.5-2-1.3c-3.7-7.7-4.2-12.9-1.6-15.8c3.1-3.4,8.8-1.6,9.4-1.4
		c1.2,0.4,1.8,1.7,1.4,2.8c-0.4,1.2-1.7,1.8-2.8,1.4c-1.1-0.4-3.8-0.8-4.7,0.1c-0.3,0.4-1.7,2.5,2.3,10.9c0.5,1.1,0,2.4-1.1,3
		C239,267.9,238.7,267.9,238.3,267.9L238.3,267.9z"/>
	<path class="st4" d="M231.6,275.4c-0.8,0-1.6-0.5-2-1.3c-3.4-7.2-3.9-12.2-1.5-15.1c2.8-3.3,7.8-2.1,8.3-1.9
		c1.2,0.3,1.9,1.5,1.6,2.7c-0.3,1.2-1.5,1.9-2.7,1.6c-0.9-0.2-3-0.4-3.8,0.5c-0.4,0.5-1.5,2.7,2.1,10.3c0.5,1.1,0,2.4-1.1,3
		C232.3,275.3,232,275.4,231.6,275.4L231.6,275.4z"/>
	<path class="st4" d="M258.3,350.4c-0.6,0-1.2-0.3-1.7-0.8c-7.7-9-7.6-18.9-7.4-26.7c0.1-7.3,0-11.5-3.7-14l-0.3-0.2
		c-10.3-6.9-16-10.7-21.1-25.4c-2.2-6.4-2.2-11.1-0.1-14.2c2.1-2.9,5.2-3.1,5.5-3.1c1.2-0.1,2.2,0.9,2.3,2.2c0,1.2-0.9,2.2-2.1,2.3
		c-0.1,0-1.3,0.1-2.1,1.3c-0.7,1.1-1.5,3.8,0.7,10.2c4.6,13.4,9.2,16.4,19.4,23.2l0.3,0.2c6,4,5.8,10.7,5.7,17.8
		c-0.1,7.5-0.3,16,6.3,23.8c0.8,0.9,0.7,2.3-0.2,3.1C259.4,350.2,258.8,350.4,258.3,350.4L258.3,350.4z"/>
	<path class="st4" d="M297.8,313.9c-1.1,0-2-0.8-2.2-1.9c-1.6-11.4-1.8-19.4-1.9-19.8c0-1.2,0.9-2.3,2.1-2.3c1.3,0,2.3,0.9,2.3,2.1
		c0,0.1,0.3,8.2,1.8,19.3c0.2,1.2-0.7,2.3-1.9,2.5C298,313.9,297.9,313.9,297.8,313.9L297.8,313.9z"/>
	<path class="st4" d="M278.7,361.2c-4.8,0-10.2-2-16.5-6c-1-0.7-1.3-2-0.7-3.1c0.7-1,2-1.3,3.1-0.7c7.3,4.7,13.3,6.3,17.7,4.7
		c6.1-2.1,8.9-9.7,10.9-15.3c0.3-0.8,0.5-1.5,0.8-2.1c3.1-8.2,0.9-16.1,0.9-16.2c-0.3-1.2,0.3-2.4,1.5-2.7c1.2-0.4,2.4,0.3,2.7,1.5
		c0.1,0.4,2.7,9.5-1,19c-0.2,0.6-0.5,1.3-0.8,2c-2.2,6.1-5.5,15.2-13.6,18C282.1,360.9,280.4,361.2,278.7,361.2L278.7,361.2z"/>
	<path class="st4" d="M195.7,96.3c-2.7,0-5.4-0.5-7-0.8c-1.2-0.3-1.9-1.4-1.7-2.6c0.3-1.2,1.4-1.9,2.6-1.7c3.6,0.8,7.6,1,8.9,0.4
		c0-0.1-0.1-0.3-0.2-0.5c-4-7.1-2.1-17.6-2.1-18.1c0.2-1.2,1.4-2,2.6-1.8c1.2,0.2,2,1.4,1.8,2.6c0,0.1-1.6,9.4,1.6,15.1
		c1.4,2.5,0.8,4.2,0.1,5.2C201,95.8,198.4,96.3,195.7,96.3L195.7,96.3z"/>
	<path class="st4" d="M194.3,108.9c-6.3,0-10.4-3.1-10.6-3.3c-1-0.8-1.1-2.2-0.4-3.1c0.8-1,2.1-1.1,3.1-0.4
		c0.3,0.2,6.5,4.9,15.5,0.4c1.1-0.5,2.4-0.1,3,1c0.5,1.1,0.1,2.4-1,3C200.4,108.2,197.1,108.9,194.3,108.9L194.3,108.9z"/>
	<path class="st4" d="M194,62.5c-0.4,0-0.8-0.1-1.2-0.3l0,0c-0.1-0.1-9.6-5.9-17.9-3.7c-1.2,0.3-2.4-0.4-2.7-1.6
		c-0.3-1.2,0.4-2.4,1.6-2.7c10.2-2.7,21,4,21.4,4.2c1,0.7,1.3,2,0.7,3.1C195.5,62.2,194.8,62.5,194,62.5z"/>
	<path class="st4" d="M2.4,246.9c-1.2,0-2.2-0.9-2.2-2.1c-0.1-1.3-1.3-32.3,23.4-64.9c3.6-4.8,7-9.1,10.1-13.1
		c17.6-22.8,26.4-34.3,28.1-48.4c0.9-7.7,1-10.4,1.1-12.3c0.1-2.5,0.2-3.3,1.5-9.5c1.7-7.6,0.8-12.6,0.3-15.5
		c-0.3-1.4-0.4-2.5-0.3-3.4c0.3-1.7,1.7-3,3.8-3.4c2.4-0.4,5.6,0.6,7.4,3.7c2.2,4,2.9,14.7,3,16c0.1,1.2-0.9,2.3-2.1,2.3
		c-1.2,0.1-2.3-0.9-2.3-2.1c-0.3-4.2-1.1-11.7-2.4-14c-0.6-1-1.3-1.3-1.9-1.5c-0.4-0.1-0.8,0-1,0c0,0.4,0.2,1.1,0.3,1.6
		c0.6,3.3,1.6,8.8-0.3,17.3c-1.3,6-1.4,6.6-1.5,8.7c-0.1,1.9-0.2,4.8-1.1,12.6c-1.8,15.4-10.9,27.2-29,50.6
		c-3.1,4-6.5,8.4-10.1,13.1c-23.7,31.2-22.5,61.7-22.5,62c0.1,1.2-0.9,2.3-2.1,2.3C2.5,246.9,2.5,246.9,2.4,246.9L2.4,246.9z"/>
	<path class="st4" d="M73.2,99.9c-0.9,0-1.7-0.5-2.1-1.4c-0.4-1.1,0.1-2.4,1.2-2.9l0,0c1.9-0.7,7.1-3.3,8.6-6.4
		c0.6-1.3,1.6-2.1,2.9-2.4c3.1-0.8,6.8,1.8,9.7,3.9c0.6,0.4,1.3,0.9,1.6,1.1c0.9,0.2,1.6,0.8,1.8,1.7c0.2,1.2-0.5,2.4-1.7,2.6
		c-1.3,0.3-2.3-0.4-4.2-1.8c-3.3-2.3-5.4-3.4-6.1-3.2c0,0,0,0,0,0.1c-2.6,5.2-10.1,8.2-10.9,8.6C73.8,99.9,73.5,99.9,73.2,99.9
		L73.2,99.9z"/>
	<path class="st4" d="M112.9,119.5c-0.7,0-1.4-0.3-1.8-0.9c-0.7-1-0.5-2.4,0.5-3.1c0,0,0.9-0.7,0.9-1.8c0-0.8-0.5-2.6-3.9-5.2
		c-6.9-5.3-11.3-4.5-12.2-4c-0.9,0.8-2.2,0.8-3.1-0.1c-0.9-0.9-0.9-2.3,0-3.1c1.5-1.5,7.9-4,17.9,3.7c3.8,2.9,5.7,5.9,5.7,8.9
		c-0.1,3.3-2.5,5.1-2.8,5.3C113.8,119.4,113.3,119.5,112.9,119.5L112.9,119.5z M96.5,104.4L96.5,104.4L96.5,104.4z"/>
	<path class="st4" d="M103.5,132.1c-1.3,0-2.8-0.4-4.3-1.4c-1-0.7-1.3-2-0.6-3.1c0.7-1,2-1.3,3.1-0.6c2.4,1.6,4.2,0.3,7.4-3.3
		c0.5-0.5,0.9-1,1.3-1.4c0.3-0.9-2.2-5-6.6-7.8c-2.8-1.7-4.4-1.6-4.4-1.6c-1,0.7-2.4,0.5-3.1-0.5c-0.7-1-0.5-2.4,0.5-3.1
		c0.5-0.4,3.5-2.2,9.3,1.4c3.9,2.4,8.3,7,8.7,10.8c0.2,1.9-0.6,3.2-1.3,3.9c-0.3,0.3-0.7,0.8-1.1,1.2
		C110.6,128.6,107.4,132.1,103.5,132.1L103.5,132.1z"/>
	<path class="st4" d="M42.7,259.4c-1.1,0-2.1-0.9-2.2-2c-0.1-1,0.5-1.9,1.3-2.2c2.4-2.7,9.7-23.4,10.7-37.9
		c0.9-12.4,12.8-44.4,19.2-61.6c1.8-4.8,3.2-8.7,3.6-10c1.3-4.4,6.2-6.8,11-9c2.8-1.3,5.7-2.7,6.9-4.2c3.4-4.4,9-12,9.1-12.1
		c0.7-1,2.1-1.2,3.1-0.5c1,0.7,1.2,2.1,0.5,3.1c-0.1,0.1-5.7,7.8-9.1,12.2c-1.8,2.3-5,3.9-8.5,5.5c-3.7,1.8-7.9,3.8-8.7,6.3
		c-0.4,1.5-1.8,5.1-3.7,10.3c-5.9,15.8-18.1,48.6-18.9,60.4c-0.7,10.2-4.2,21.7-5.6,26.2c-4.9,15.3-7.3,15.5-8.5,15.6
		C42.8,259.3,42.7,259.3,42.7,259.4L42.7,259.4z"/>
	<path class="st4" d="M27.1,277.4c-6.9,0-12.9-2.9-17.9-5.3c-0.6-0.3-1.2-0.6-1.8-0.9c-9.1-4.3-7.3-17.2-7.2-17.8
		c0.2-1.2,1.3-2,2.5-1.9c1.2,0.2,2,1.3,1.9,2.5l0,0c0,0.1-1.4,10.2,4.7,13.1c0.6,0.3,1.2,0.6,1.9,0.9c7.4,3.6,16.5,8,27.1,1.5
		c12.4-7.6,28.1-17.6,28.2-17.7c1-0.7,2.4-0.4,3.1,0.7c0.7,1,0.4,2.4-0.7,3.1c-0.2,0.1-15.8,10.1-28.3,17.7
		C35.8,276.3,31.3,277.4,27.1,277.4L27.1,277.4z"/>
	<path class="st4" d="M73.3,249.6c-0.4,0-0.7-0.1-1-0.2c-0.8-0.4-1.2-1.2-1.2-2.1c1-16.2-17.4-27.9-17.6-28c-1-0.6-1.4-2-0.7-3.1
		c0.6-1,2-1.4,3.1-0.7c0.8,0.5,17.4,11,19.5,27.1c2.7-2.6,5.8-6.1,6.6-8.7c0.3-1.2,1.5-1.9,2.7-1.5c1.2,0.3,1.9,1.5,1.5,2.7
		c-1.7,6-10.5,13.3-11.5,14.1C74.3,249.4,73.9,249.6,73.3,249.6L73.3,249.6z"/>
	<path class="st4" d="M262.7,488.5c-5.1,0-14.9-0.4-27.6-1c-12.9-0.6-29-1.3-44.3-1.8l-5.6-0.2c-33.9-0.9-80.3-2.2-94.2-3.9
		c-6.6-0.8-9.2-1.3-10.6-3.1c-1.1-1.5-0.9-3.2-0.6-5.1c0.3-1.8,0.6-4.2,0.2-7.8c-1.4-12.8,1.5-33.9,6-64.7
		c4.7-31.8,3.4-99.9,0.1-124.2c-3.4-25-2.7-53.9-2.7-54.2c0-1.2,1.1-2.2,2.3-2.2c1.2,0,2.2,1,2.2,2.3c0,0.3-0.6,28.8,2.7,53.5
		c3.3,24.5,4.6,93.3-0.1,125.4c-4.4,29.5-7.4,51.3-6,63.5c0.5,4.1,0,7-0.2,8.9c-0.1,0.7-0.2,1.5-0.2,1.8c1,0.6,5.2,1.1,7.6,1.4
		c13.6,1.7,61.8,3,93.7,3.9l5.6,0.2c15.4,0.4,31.5,1.2,44.4,1.8c14.7,0.7,26.3,1.2,29.7,1c1.6-0.1,2.1-0.4,2.2-0.5
		c0.8-1,0.2-5.6-0.6-12.1c-0.3-2.7-0.7-5.8-1.1-9.5c-1-9.1-3.5-20.8-6.2-33.1c-3.5-15.9-7-32.4-7.8-45.6c-1.4-23-2.2-53.3-2.2-53.6
		c0-1.2,0.9-2.2,2.2-2.3c1.2-0.1,2.2,0.9,2.3,2.2c0,0.3,0.8,30.5,2.2,53.4c0.8,12.8,4.3,29.1,7.7,44.9c2.7,12.5,5.3,24.3,6.3,33.6
		c0.4,3.7,0.8,6.8,1.1,9.4c1.1,9.2,1.6,13-0.4,15.4c-1.4,1.6-3.5,2-5.3,2.1C264.6,488.5,263.7,488.5,262.7,488.5L262.7,488.5z
		 M84,476L84,476L84,476z"/>
	<path class="st4" d="M223.8,256c0,0-0.1,0-0.1,0c-2.3-0.1-57.1-2.7-76.8-6.4c-19.3-3.7-49.3-2.7-49.6-2.7c-1.2,0-2.3-0.9-2.3-2.1
		c0-1.2,0.9-2.3,2.1-2.3c1.2,0,30.8-1,50.6,2.8c19.4,3.7,75.6,6.3,76.2,6.3c1.2,0.1,2.2,1.1,2.1,2.3C226,255,225,256,223.8,256
		L223.8,256z"/>
	<path class="st4" d="M187.5,72.2c-0.4,0-0.8-0.1-1.2-0.4c-4.4-2.9-9.6-1.9-9.7-1.9c-1.2,0.3-2.4-0.5-2.6-1.7
		c-0.3-1.2,0.5-2.4,1.7-2.6c0.3-0.1,7-1.5,13.1,2.5c1,0.7,1.3,2,0.6,3.1C188.9,71.9,188.2,72.2,187.5,72.2L187.5,72.2z"/>
	<path class="st4" d="M220,74.7c-0.3,0-0.6,0-0.8-0.2c-6.5-2.6-9.6-0.4-9.7-0.3c-1,0.7-2.3,0.5-3.1-0.4c-0.7-1-0.6-2.3,0.3-3.1
		c0.2-0.2,5-4,14.1-0.3c1.1,0.4,1.7,1.7,1.2,2.9C221.8,74.2,220.9,74.7,220,74.7L220,74.7z"/>
	<path class="st4" d="M207.1,65c-0.6,0-1.1-0.2-1.5-0.6c-0.9-0.8-0.9-2.2-0.1-3.1c0.2-0.2,4.2-4.4,10-4.4c1.2,0,2.2,1,2.2,2.2
		s-1,2.2-2.2,2.2c-3.8,0-6.8,3-6.8,3C208.3,64.8,207.7,65,207.1,65L207.1,65z"/>
	<path class="st5" d="M202.6,214.9c0.2,0,0.4,0.1,0.6,0.1c0,0.4,0,0.7,0,1.1c-0.2,0-0.5-0.1-0.7-0.1c-0.4,0-0.6,0.2-0.6,0.6
		c0,0.3,0,0.7,0,1c0.4,0,0.8,0,1.2,0c0,0.4,0,0.7,0,1.1c-0.4,0-0.8,0-1.2,0c0,1.5,0,3,0,4.5c-0.4,0-0.8,0-1.2,0c0-1.5,0-3,0-4.5
		c-0.3,0-0.7,0-1,0c0-0.4,0-0.7,0-1.1c0.3,0,0.7,0,1,0c0-0.3,0-0.6,0-0.9C200.7,215.6,201.4,214.8,202.6,214.9L202.6,214.9z
		 M209.3,220.5c-0.1,1.7-1.5,2.8-3.1,2.8s-2.9-1.2-2.9-3c0-1.7,1.5-2.9,3.1-2.8C208.1,217.5,209.4,218.8,209.3,220.5L209.3,220.5z
		 M208.1,220.4c0-1-0.5-1.9-1.7-1.9c-1.2,0-1.8,0.8-1.8,1.8c0,1,0.6,1.8,1.7,1.9C207.4,222.2,208.1,221.4,208.1,220.4L208.1,220.4z
		 M215.8,221c-0.2,1.7-1.6,2.7-3.2,2.6c-1.5-0.1-2.9-1.4-2.8-3.1c0.1-1.7,1.6-2.8,3.2-2.7C214.7,217.9,216,219.2,215.8,221z
		 M214.6,220.8c0.1-1-0.5-1.9-1.6-2c-1.2-0.1-1.8,0.7-1.9,1.7c-0.1,1,0.5,1.9,1.6,1.9C213.9,222.6,214.5,221.8,214.6,220.8
		L214.6,220.8z M221.7,216.1c0.4,0,0.8,0.1,1.2,0.2c-0.4,2.7-0.7,5.4-1,8.1c-0.4,0-0.7-0.1-1.1-0.1c0-0.2,0-0.3-0.1-0.5
		c0,0,0,0,0-0.1c0,0,0,0-0.1,0c-0.4,0.3-1,0.5-1.6,0.4c-1.5-0.2-2.7-1.5-2.6-3.2c0.2-1.7,1.6-2.7,3.2-2.6c0.6,0.1,1.2,0.4,1.5,0.8
		c0,0,0,0,0,0.1c0,0,0,0,0.1,0C221.4,218.2,221.5,217.2,221.7,216.1L221.7,216.1z M221.1,221.5c0.1-1-0.5-1.9-1.5-2
		c-1.2-0.1-1.9,0.6-2,1.6c-0.1,1,0.4,1.9,1.6,2C220.2,223.2,221,222.5,221.1,221.5L221.1,221.5z M229.2,222.7
		c-0.3,1.7-1.8,2.6-3.3,2.4c-0.6-0.1-1.2-0.4-1.5-0.8c0,0,0,0,0-0.1c0,0,0,0-0.1,0c-0.1,1-0.3,2-0.4,2.9c-0.4,0-0.8-0.1-1.2-0.2
		c0.4-2.7,0.7-5.3,1.1-8c0.4,0,0.7,0.1,1.1,0.2c0,0.2,0,0.3,0,0.5c0,0,0,0,0.1,0.1c0,0,0,0,0.1,0c0.4-0.3,1.1-0.4,1.7-0.4
		C228.4,219.6,229.5,221,229.2,222.7L229.2,222.7z M228,222.5c0.2-1-0.3-1.9-1.5-2.1c-1-0.2-1.9,0.6-2,1.5c-0.1,1,0.5,1.9,1.5,2.1
		C227.1,224.2,227.9,223.5,228,222.5L228,222.5z M234.6,223c-0.2,1.1-0.5,2.3-0.7,3.4c-0.3-0.1-0.7-0.1-1-0.2c0-0.2,0-0.5,0-0.7
		c-0.5,0.5-1.1,0.6-1.9,0.5c-1-0.2-1.6-0.9-1.4-2c0.2-1.1,1.3-1.6,2.8-1.4c0.3,0.1,0.7,0.1,1,0.2c0-0.1,0-0.2,0-0.2
		c0.1-0.7-0.3-1.1-0.9-1.2c-0.5-0.1-0.9,0.1-1.2,0.5c-0.4-0.1-0.7-0.3-1-0.4c0.4-0.9,1.3-1.3,2.5-1.1
		C234.3,220.7,234.9,221.5,234.6,223L234.6,223z M233.2,223.7c-0.3-0.1-0.7-0.1-1-0.2c-0.7-0.1-1.2,0.1-1.3,0.6
		c-0.1,0.4,0.1,0.7,0.6,0.8c0.4,0.1,0.8,0,1.1-0.2c0.4-0.2,0.6-0.5,0.7-0.9C233.2,223.8,233.2,223.8,233.2,223.7L233.2,223.7z
		 M238.8,221.7c-0.5-0.1-1.2,0-1.5,0.3c0,0,0,0-0.1,0c0,0,0,0,0-0.1c0-0.2,0-0.3,0-0.5c-0.4-0.1-0.7-0.2-1.1-0.2
		c-0.4,1.8-0.8,3.6-1.1,5.4c0.4,0.1,0.8,0.2,1.2,0.3c0.2-1.1,0.5-2.2,0.7-3.3c0.2-0.7,0.9-1.1,1.6-0.9c0.8,0.2,1.1,0.7,0.9,1.4
		c-0.3,1.1-0.5,2.2-0.8,3.3c0.4,0.1,0.8,0.2,1.2,0.3c0.3-1.1,0.5-2.2,0.8-3.3C240.9,223.1,240.3,222,238.8,221.7L238.8,221.7z
		 M247.1,221.1c0.4,0.1,0.8,0.2,1.2,0.3c-0.8,2.6-1.5,5.3-2.2,7.9c-0.4-0.1-0.7-0.2-1-0.3c0-0.2,0-0.3,0-0.5c0,0,0,0,0-0.1
		c0,0,0,0-0.1,0c-0.4,0.2-1.1,0.3-1.7,0.2c-1.5-0.4-2.5-1.9-2.1-3.5c0.4-1.7,2-2.5,3.6-2.1c0.6,0.2,1.1,0.5,1.4,1c0,0,0,0,0,0.1
		c0,0,0,0,0.1,0C246.5,223.1,246.8,222.1,247.1,221.1L247.1,221.1z M245.8,226.4c0.3-1-0.2-2-1.2-2.2c-1.1-0.3-1.9,0.4-2.2,1.3
		c-0.2,1,0.1,1.9,1.3,2.2C244.6,228,245.5,227.4,245.8,226.4L245.8,226.4z M252.5,227.7c-0.4,1.1-0.7,2.2-1.1,3.3
		c-0.3-0.1-0.6-0.2-1-0.3c0-0.2,0.1-0.5,0.1-0.7c-0.5,0.4-1.2,0.5-1.9,0.3c-1-0.3-1.5-1.1-1.2-2.1c0.3-1.1,1.5-1.5,2.9-1
		c0.3,0.1,0.6,0.2,1,0.3c0-0.1,0-0.2,0.1-0.2c0.2-0.6-0.2-1.1-0.8-1.3c-0.5-0.2-0.9,0-1.3,0.4c-0.3-0.2-0.7-0.4-1-0.5
		c0.5-0.8,1.5-1.2,2.6-0.8C252.4,225.3,253,226.3,252.5,227.7L252.5,227.7z M251.1,228.3c-0.3-0.1-0.7-0.2-1-0.3
		c-0.7-0.2-1.2,0-1.4,0.5c-0.1,0.4,0,0.7,0.5,0.9c0.4,0.1,0.8,0.1,1.1,0c0.4-0.2,0.6-0.4,0.8-0.9C251,228.3,251.1,228.3,251.1,228.3
		L251.1,228.3z M235.3,206.4c0.3,0.9,0.4,1.9,0.2,2.8c-0.7,3.3-4.1,5.1-7.8,4.5c-3.7-0.6-6.5-3.3-6.1-6.6c0.1-0.9,0.5-1.8,1-2.6l0,0
		c0.1-0.2,0-0.4,0-0.4l0,0c-0.7-0.9-0.5-2.3,0.7-2.9c1.1-0.6,2.6-0.3,3.2,0.4c0,0,0.2,0.2,0.6,0.2c0,0,0,0,0,0
		c0.8-0.1,1.5-0.1,2.3,0c0.4,0,0.7,0.1,1,0.2c0.4,0.1,0.8,0.3,1.2,0.5c0,0,0,0,0,0c0.4,0.2,0.7,0,0.7,0l0,0c0.4-0.2,1-0.3,1.5-0.2
		c0.6,0.1,1.2,0.3,1.6,0.7l0,0c0.1,0.1,0.1,0.1,0.2,0.2s0,0.2,0,0.3c0,0,0,0,0,0.1c0,0.1-0.1,0.2,0,0.3c0.1,0.2,0.5,0.2,0.5,0.3
		c0.1,0.7-0.1,1.3-0.7,1.8c0,0-0.1,0.1-0.1,0.1l0,0C235.4,206,235.2,206.1,235.3,206.4L235.3,206.4L235.3,206.4L235.3,206.4z
		 M227.5,207.8c0,0.2,0.4,0.7,0.9,0.8s1.1-0.3,1.1-0.5c0-0.2-0.4-0.4-1-0.4C228,207.6,227.5,207.6,227.5,207.8z M223.6,203.3
		c0.6-0.4,1.2-0.8,1.9-1.1c0,0,0.1,0,0.1,0c0,0,0-0.1,0-0.1c0,0,0,0,0-0.1c0,0-0.1-0.1-0.2-0.1c-0.1-0.1-0.3-0.2-0.5-0.2
		c-0.7-0.2-1.4,0.1-1.7,0.7c-0.1,0.3-0.1,0.6,0,0.9c0,0,0,0,0,0c0,0,0,0.1,0.1,0.1l0,0C223.4,203.5,223.5,203.4,223.6,203.3
		L223.6,203.3z M225.6,207.7c0.3-0.6,1.2-1.2,1.6-1.5c0.4-0.3,0.5-0.9,0-1.4c-0.3-0.2-0.6-0.3-0.9-0.4c-0.3,0-0.6,0-0.6,0
		c-0.6,0.1-1.1,0.3-1.4,0.5c-1,0.7-0.9,1.8-0.9,2.1c0.1,0.6,0.6,1.2,1.1,1.3l0,0C225,208.4,225.3,208.2,225.6,207.7L225.6,207.7z
		 M230.3,209.6c0-0.2-0.1-0.4-0.4-0.4c-0.2,0-0.9,0.1-1.5,0c0,0-0.1,0-0.1,0l0,0l0,0c0,0,0,0-0.1,0c-0.6-0.1-1.3-0.4-1.5-0.4
		c-0.3-0.1-0.4,0-0.5,0.2c-0.1,0.7,0.7,1.5,1.8,1.7l0,0l0,0l0,0C229.2,210.9,230.1,210.3,230.3,209.6L230.3,209.6z M233.5,206.3
		c-0.3-0.3-0.6-0.6-1.2-0.9c0,0-0.2-0.1-0.6-0.2c-0.3,0-0.7-0.1-1,0.1c-0.7,0.3-0.8,0.9-0.5,1.3c0.3,0.4,0.9,1.3,1,1.9
		c0.1,0.6,0.3,0.9,0.9,1c0.6,0,1.2-0.4,1.5-0.9l0,0C233.8,208.3,234.2,207.3,233.5,206.3z M235,205c0.2-0.2,0.3-0.6,0.3-0.9
		c-0.1-0.6-0.8-1.1-1.4-1.1c-0.2,0-0.4,0-0.5,0c-0.1,0-0.1,0-0.2,0.1c0,0,0,0-0.1,0c0,0,0,0.1,0,0.1c0,0,0.1,0.1,0.1,0.1
		c0.6,0.4,1,1,1.4,1.6c0.1,0.1,0.1,0.2,0.3,0.1C234.9,205.1,234.9,205.1,235,205L235,205L235,205L235,205z M226.3,205.6
		c-0.2,0-0.4,0.1-0.4,0.3c0,0.2,0.1,0.3,0.3,0.4c0.2,0,0.4-0.1,0.4-0.3C226.6,205.7,226.5,205.6,226.3,205.6z M231.4,206.3
		c-0.2,0-0.4,0.1-0.4,0.2c0,0.2,0.1,0.3,0.3,0.4c0.2,0,0.4-0.1,0.4-0.2C231.8,206.5,231.6,206.4,231.4,206.3z"/>
	<path class="st4" d="M108.3,100.4c-0.2-0.7-1.6-4.4-9-6.9c-7.8-2.6-12.3,0.9-12.5,1.1c-0.9,0.8-1.1,2.1-0.3,3.1
		c0.8,0.9,2.1,1.1,3.1,0.4c0.1-0.1,2.9-2.2,8.3-0.4c5.2,1.8,6.2,4,6.2,4l0,0c0,0,1.9,1.7,3.2,1.1S108.3,100.4,108.3,100.4
		L108.3,100.4z"/>
</g>
</svg>
