<?xml version="1.0" encoding="utf-8"?>
<!-- Generator: Adobe Illustrator 28.3.0, SVG Export Plug-In . SVG Version: 6.00 Build 0)  -->
<svg version="1.1" id="圖層_1" xmlns="http://www.w3.org/2000/svg" xmlns:xlink="http://www.w3.org/1999/xlink" x="0px" y="0px"
	 viewBox="0 0 1500 520" style="enable-background:new 0 0 1500 520;" xml:space="preserve">
<style type="text/css">
	.st0{fill:#FFFFFF;}
	.st1{fill:#F287B7;}
</style>
<g>
	<g>
		<g>
			<path class="st0" d="M402.5,143.9c-1.9-16.1-3.9-32.2-5.8-48.4c-3.9,0.5-7.9,1-11.8,1.4c-0.8-6.2-1.6-12.5-2.3-18.7
				c4-0.5,7.9-1,11.9-1.5c-0.2-1.6-0.4-3.1-0.6-4.7c-2.1-17.2,7.7-29.1,26-31.1c9.2-1,18.7,1.3,25.2,5.7c-1.1,5.9-2.3,11.7-3.4,17.6
				c-3.7-2.9-8.7-4.6-13.3-4.1c-5.6,0.6-8.8,4.5-8.2,10.1c0.1,1.1,0.3,2.3,0.4,3.4c7.5-0.8,15-1.6,22.4-2.4c0.7,6.3,1.3,12.5,2,18.8
				c-7.4,0.8-14.9,1.6-22.3,2.4c1.8,16.1,3.7,32.3,5.5,48.4C419.6,141.8,411.1,142.8,402.5,143.9z"/>
			<path d="M419.9,41c9.2-1,18.7,1.3,25.2,5.7c-1.1,5.9-2.3,11.7-3.4,17.6c-3.7-2.9-8.7-4.6-13.3-4.1c-5.6,0.6-8.8,4.5-8.2,10.1
				c0.1,1.1,0.3,2.3,0.4,3.4c7.5-0.8,15-1.6,22.4-2.4c0.7,6.3,1.3,12.5,2,18.8c-7.4,0.8-14.9,1.6-22.3,2.4
				c1.8,16.1,3.7,32.3,5.5,48.4c-8.5,1-17.1,1.9-25.6,3c-1.9-16.1-3.9-32.2-5.8-48.4c-3.9,0.5-7.9,1-11.8,1.4
				c-0.8-6.2-1.6-12.5-2.3-18.7c4-0.5,7.9-1,11.9-1.5c-0.2-1.6-0.4-3.1-0.6-4.7C391.8,54.9,401.6,43,419.9,41 M419.3,36.1
				c-20.9,2.3-32.9,16.7-30.6,36.4c-2.3,0.3-4.6,0.6-6.8,0.8c-2.8,0.3-4.8,2.8-4.5,5.5c0.8,6.2,1.6,12.5,2.4,18.7
				c0.3,2.7,2.9,4.6,5.6,4.2c2.3-0.3,4.5-0.6,6.8-0.8c1.8,14.5,3.5,29,5.3,43.5c0.3,2.7,2.8,4.6,5.5,4.3c8.5-1,17-2,25.6-3
				c1.3-0.1,2.5-0.8,3.3-1.8s1.2-2.3,1.1-3.6c-1.6-14.5-3.3-29-4.9-43.5c5.7-0.6,11.5-1.2,17.2-1.8c2.8-0.3,4.8-2.7,4.5-5.4
				c-0.6-6.3-1.3-12.5-1.9-18.8c-0.2-1.5-1-2.8-2.2-3.6c0.4-0.6,0.8-1.3,0.9-2c1.1-5.9,2.3-11.7,3.4-17.6c0.4-1.9-0.4-3.8-2-4.9
				C440.4,37.5,429.6,35,419.3,36.1L419.3,36.1z M425.2,68.3c0.2-1.9,1.4-2.9,3.7-3.2c2.5-0.3,5.4,0.5,7.9,1.9
				C432.9,67.4,429,67.9,425.2,68.3L425.2,68.3z"/>
		</g>
		<g>
			<path class="st0" d="M448.4,104.7c-2.3-21.9,11.9-37.9,35.8-40c24-2.2,40.8,11.1,42.5,33c1.6,22-12.6,37.4-36,39.5
				C467.5,139.3,450.7,126.6,448.4,104.7z M501.3,99.7c-0.8-9.8-6.6-15.3-15.2-14.6c-8.5,0.8-13.3,7.3-12.4,17.1s6.8,15.1,15.2,14.4
				C497.4,115.8,502.1,109.5,501.3,99.7z"/>
			<path d="M484.2,64.7c24-2.2,40.8,11.1,42.5,33c1.6,22-12.6,37.4-36,39.5c-23.2,2.1-40-10.6-42.3-32.5
				C446.1,82.8,460.3,66.8,484.2,64.7 M488.9,116.6c8.5-0.8,13.2-7.1,12.4-16.9c-0.8-9.8-6.6-15.3-15.2-14.6
				c-8.5,0.8-13.3,7.3-12.4,17.1C474.6,112,480.5,117.3,488.9,116.6 M483.8,59.8c-26.8,2.4-43,20.9-40.4,45.5s21.8,39.2,47.8,36.9
				c26-2.3,42.3-20.1,40.5-44.8C529.9,72.7,510.7,57.4,483.8,59.8L483.8,59.8z M488.5,111.7c-7.6,0.7-9.4-5.9-9.7-10
				c-0.4-4.1,0.1-11,7.8-11.7c7.3-0.7,9.3,5.1,9.7,10.1S495.7,111,488.5,111.7L488.5,111.7z"/>
		</g>
		<g>
			<path class="st0" d="M531.8,97.3c-1.7-21.9,13-37.5,36.9-39c24.1-1.5,40.5,12.2,41.5,34.2s-13.6,37.1-37,38.5
				C549.9,132.4,533.5,119.2,531.8,97.3z M584.7,93.8c-0.6-9.8-6.2-15.5-14.8-15c-8.5,0.5-13.5,6.9-12.8,16.7s6.4,15.3,14.8,14.8
				C580.4,109.8,585.3,103.6,584.7,93.8z"/>
			<path d="M568.7,58.3c24.1-1.5,40.5,12.2,41.5,34.2s-13.6,37.1-37,38.5c-23.3,1.4-39.7-11.7-41.4-33.7
				C530.1,75.4,544.8,59.8,568.7,58.3 M571.9,110.3c8.5-0.5,13.4-6.7,12.8-16.5c-0.6-9.8-6.2-15.5-14.8-15
				c-8.5,0.5-13.5,6.9-12.8,16.7C557.8,105.3,563.5,110.8,571.9,110.3 M568.4,53.4C541.5,55,524.8,73,526.8,97.7
				c1.9,24.6,20.7,39.8,46.7,38.2c26.1-1.6,42.9-18.9,41.8-43.6C614.1,67.5,595.3,51.7,568.4,53.4L568.4,53.4z M571.6,105.4
				c-7.6,0.5-9.2-6.2-9.4-10.2c-0.3-4.1,0.4-11,8.1-11.5c7.3-0.4,9.2,5.4,9.5,10.4C580,99,578.8,104.9,571.6,105.4L571.6,105.4z"/>
		</g>
		<g>
			<path class="st0" d="M615.3,92.2c-1-21.7,10-36,27.3-36.7c10.3-0.4,18.5,4.6,23.1,14.8h0.1c-0.4-14.7-0.9-29.3-1.3-44
				c8.9-0.3,17.7-0.5,26.6-0.7c0.7,32.6,1.3,65.1,2,97.7c-7.1,0.1-14.2,0.3-21.4,0.5c-1.5-4.5-3-9.1-4.5-13.6h-0.1
				c-4,10.3-11.6,15.7-21.9,16.1C628.4,127,616.3,113.8,615.3,92.2z M667.6,90.2c-0.2-8.1-5.9-14.1-13.6-13.9
				c-7.8,0.3-13.1,6.6-12.8,14.7s6,14.1,13.8,13.8C662.5,104.6,667.8,98.3,667.6,90.2z"/>
			<path d="M691.1,25.7c0.7,32.6,1.3,65.1,2,97.7c-7.1,0.1-14.2,0.3-21.4,0.5c-1.5-4.5-3-9.1-4.5-13.6h-0.1
				c-4,10.3-11.6,15.7-21.9,16.1c-16.8,0.6-28.8-12.5-29.9-34.1c-1-21.7,10-36,27.3-36.7c10.3-0.4,18.5,4.6,23.1,14.8h0.1
				c-0.4-14.7-0.9-29.3-1.3-44C673.4,26.1,682.2,25.9,691.1,25.7 M654.9,104.9c7.6-0.3,12.9-6.6,12.7-14.7s-5.9-14.1-13.6-13.9
				c-7.8,0.3-13.1,6.6-12.8,14.7C641.5,99.2,647.2,105.2,654.9,104.9 M691,20.8c-8.9,0.2-17.8,0.4-26.6,0.7c-2.8,0.1-5.1,2.4-5,5.1
				c0.3,9.7,0.6,19.4,0.9,29.2c-5-3.6-11.1-5.3-17.9-5.1c-20.4,0.8-33.3,17.7-32.1,41.8s15.3,39.5,35.1,38.8
				c8.4-0.3,15.5-3.5,20.5-9.3c0.4,1.2,0.8,2.3,1.2,3.5c0.7,2.1,2.7,3.4,4.9,3.4c7.1-0.2,14.2-0.4,21.3-0.5c2.7-0.1,4.9-2.3,4.9-5
				c-0.6-32.6-1.2-65.1-1.9-97.7C696.2,22.9,693.8,20.7,691,20.8L691,20.8z M654.8,100c-4.8,0.2-8.4-3.6-8.6-9.1
				c-0.2-5.5,3.1-9.5,7.9-9.6c4.8-0.2,8.3,3.6,8.4,9.1C662.7,95.9,659.5,99.8,654.8,100L654.8,100z"/>
		</g>
		<g>
			<path class="st0" d="M702.9,150.7c-0.6-31.7-1.1-63.4-1.7-95.1c7.2-0.1,14.5-0.2,21.7-0.3c1.5,4.5,3,9.1,4.5,13.6h0.1
				c4.2-10.3,12.2-15.4,22.8-15.4c17.1,0,28.8,13.9,28.6,35.6c-0.2,21.6-11.9,35.2-28.5,35.3c-10.1,0-17.9-5-22.4-15.3h-0.1
				c0.1,13.8,0.2,27.6,0.4,41.4C719.8,150.4,711.4,150.5,702.9,150.7z M753,89c0-8.2-5.5-14.3-13.2-14.2c-7.7,0-13.2,6.2-13.1,14.4
				c0.1,8.1,5.6,14.2,13.2,14.2C747.6,103.2,752.9,97.1,753,89z"/>
			<path d="M750.4,53.5c17.1,0,28.8,13.9,28.6,35.6c-0.2,21.6-11.9,35.2-28.5,35.3c-10.1,0-17.9-5-22.4-15.3H728
				c0.1,13.8,0.2,27.6,0.4,41.4c-8.5,0.1-16.9,0.2-25.4,0.3c-0.6-31.7-1.1-63.4-1.7-95.1c7.2-0.1,14.5-0.2,21.7-0.3
				c1.5,4.5,3,9.1,4.5,13.6h0.1C731.8,58.7,739.8,53.5,750.4,53.5 M739.9,103.3c7.7,0,13.1-6.2,13.1-14.3c0-8.2-5.5-14.3-13.2-14.2
				c-7.7,0-13.2,6.2-13.1,14.4C726.7,97.2,732.3,103.3,739.9,103.3 M750.4,48.6c-8.7,0-16.1,3.1-21.4,8.8c-0.4-1.2-0.8-2.3-1.2-3.5
				c-0.7-2.1-2.7-3.4-4.9-3.4c-7.2,0.1-14.5,0.2-21.7,0.3c-2.8,0.1-5.1,2.3-5,5c0.6,31.7,1.2,63.4,1.8,95.1c0.1,2.7,2.3,4.9,5,4.8
				c8.4-0.1,16.9-0.3,25.3-0.3c2.7,0,4.9-2.2,4.9-5c-0.1-8.9-0.1-17.8-0.2-26.7c4.8,3.7,10.7,5.6,17.4,5.6c19.8,0,33.3-16,33.6-40.1
				C784.3,65,770.8,48.5,750.4,48.6L750.4,48.6z M739.8,98.4c-4.8,0-8.1-3.8-8.2-9.3c0-5.5,3.3-9.4,8.1-9.4s8.2,3.8,8.2,9.3
				C747.9,93.6,745.4,98.3,739.8,98.4L739.8,98.4z"/>
		</g>
		<g>
			<path class="st0" d="M783,105.9c0.1-12.2,11.3-20.4,31.1-21.8c3.8-0.3,7.6-0.6,11.5-0.9c3.1-0.2,5.3-2,5.4-4.6
				c0.1-4.6-3.3-7.6-8.3-7.7c-6.1-0.1-10.1,4.4-11.1,10.5c-8.5-1.1-17-2.1-25.5-3.1c1.2-15.4,14.9-25.4,36-24.9
				c22,0.5,35.1,11.8,34.5,29.7c-0.3,7.3-0.5,14.6-0.8,21.9c-0.1,3.1,1.2,5,3.3,5.1c1.6,0.1,3.9-0.8,5.4-2.2
				c1.3,4.3,2.6,8.6,3.9,12.9c-5.1,3.9-12.8,5.4-19.6,5.2c-9.3-0.3-16.7-5.7-17.9-12c-0.1-0.7-0.1-1.3-0.2-2h-0.1
				c-4.3,7.7-13.2,13.2-24.3,13C792.5,124.5,782.9,117.1,783,105.9z M830.1,96.9c0-0.6,0-1.1,0-1.7c-3,0.2-5.9,0.5-8.9,0.7
				c-8.9,0.7-12.1,3.3-12.2,6.8c-0.1,3.4,3.5,6,8.6,6.1C824.7,108.9,829.9,103.8,830.1,96.9z"/>
			<path d="M822,53.3c22,0.5,35.1,11.8,34.5,29.7c-0.3,7.3-0.5,14.6-0.8,21.9c-0.1,3.1,1.2,5,3.3,5.1c1.6,0.1,3.9-0.8,5.4-2.2
				c1.3,4.3,2.6,8.6,3.9,12.9c-5.1,3.9-12.8,5.4-19.6,5.2c-9.3-0.3-16.7-5.7-17.9-12c-0.1-0.7-0.1-1.3-0.2-2h-0.1
				c-4.3,7.7-13.2,13.2-24.3,13c-13.6-0.2-23.3-7.7-23.2-18.9c0.1-12.2,11.3-20.4,31.1-21.8c3.8-0.3,7.6-0.6,11.5-0.9
				c3.1-0.2,5.3-2,5.4-4.6c0.1-4.6-3.3-7.6-8.3-7.7c-6.1-0.1-10.1,4.4-11.1,10.5c-8.5-1.1-17-2.1-25.5-3.1
				C787.2,62.8,800.9,52.9,822,53.3 M817.6,108.8c7.1,0.2,12.3-4.9,12.4-11.9c0-0.6,0-1.1,0-1.7c-3,0.2-5.9,0.5-8.9,0.7
				c-8.9,0.7-12.1,3.3-12.2,6.8C809,106.1,812.6,108.7,817.6,108.8 M822.1,48.4c-23.6-0.5-39.7,11.2-41.1,29.5
				c-0.2,2.6,1.7,4.9,4.4,5.3c2.6,0.3,5.3,0.6,7.9,0.9c-9.7,4.6-15.2,12.2-15.3,21.7c-0.1,13.8,11.5,23.6,28.1,23.9
				c8.8,0.2,17-2.9,23-8.2c4.1,5.3,11.4,9,19.5,9.3c8.8,0.3,17.3-2,22.8-6.2c1.6-1.2,2.3-3.3,1.7-5.3c-1.3-4.3-2.6-8.6-3.9-12.9
				c-0.5-1.6-1.8-2.9-3.5-3.3c-0.4-0.1-0.8-0.2-1.1-0.2c-1.3-0.1-2.6,0.4-3.6,1.3c-0.1,0.1-0.2,0.1-0.3,0.2
				c0.3-7.1,0.5-14.2,0.8-21.2C862.3,62.5,847.2,49,822.1,48.4L822.1,48.4z M817.6,78.9c0.9-1.6,2.4-3.1,4.9-3.1
				c3,0.1,3.3,1.5,3.4,2.3c-0.1,0-0.4,0.1-0.6,0.1C822.7,78.4,820.2,78.6,817.6,78.9L817.6,78.9z M814.1,102.7c0,0,1.2-1.4,7.6-1.9
				c0.8-0.1,1.6-0.1,2.3-0.2c-1.2,2.1-3.5,3.3-6.3,3.3C815.4,103.8,814.2,103,814.1,102.7L814.1,102.7L814.1,102.7z"/>
		</g>
		<g>
			<path class="st0" d="M945.8,80.9c-1,16-2.1,32-3.1,48c-8.6-0.6-17.1-1.1-25.7-1.5c0.7-13.1,1.5-26.1,2.2-39.2
				c0.3-5.5-2.6-9.1-7.7-9.3c-6.5-0.3-11,3.8-11.3,10.8c-0.6,12.3-1.2,24.5-1.8,36.8c-8.5-0.4-17.1-0.8-25.6-1.1
				c0.9-22.5,1.8-45,2.7-67.5c7.3,0.3,14.6,0.6,21.8,1c1.2,4.6,2.5,9.2,3.7,13.8h0.1c4.9-9.5,13.9-14.6,24.5-14
				C939.1,59.1,946.7,67.5,945.8,80.9z"/>
			<path d="M925.6,58.4c13.4,0.8,21.1,9.2,20.2,22.5c-1,16-2.1,32-3.1,48c-8.6-0.6-17.1-1.1-25.7-1.5c0.7-13.1,1.5-26.1,2.2-39.2
				c0.3-5.5-2.6-9.1-7.7-9.3c-6.5-0.3-11,3.8-11.3,10.8c-0.6,12.3-1.2,24.5-1.8,36.8c-8.5-0.4-17.1-0.8-25.6-1.1
				c0.9-22.5,1.8-45,2.7-67.5c7.3,0.3,14.6,0.6,21.8,1c1.2,4.6,2.5,9.2,3.7,13.8h0.1C906.1,63,915,57.8,925.6,58.4 M925.9,53.5
				c-8.7-0.5-16.6,2.4-22.6,7.9c-0.3-1.3-0.7-2.6-1.1-4c-0.6-2.1-2.5-3.6-4.7-3.7c-7.3-0.3-14.6-0.7-21.9-1c-2.8-0.1-5.2,2-5.3,4.7
				c-0.9,22.5-1.7,45-2.6,67.5c-0.1,2.7,2,5,4.8,5.1c8.5,0.3,17,0.7,25.5,1.1c2.7,0.1,5.1-1.9,5.2-4.7c0.6-12.3,1.2-24.5,1.9-36.7
				c0.1-3,1.3-6.4,6-6.2c1,0.1,3.2,0.2,2.9,4.2c-0.7,13.1-1.4,26.2-2.1,39.2c-0.1,2.7,2,5,4.7,5.2c8.6,0.5,17.1,1,25.7,1.5
				c2.7,0.2,5.1-1.9,5.3-4.6c1.1-16,2.1-32,3.2-48C952,65.1,942.4,54.4,925.9,53.5L925.9,53.5z"/>
		</g>
		<g>
			<path class="st0" d="M952,95.6c1.4-21.7,14-34.7,31.2-33.3c10.3,0.8,17.9,6.7,21.3,17.3h0.1c1.2-14.6,2.5-29.2,3.7-43.8
				c8.8,0.7,17.7,1.5,26.5,2.3c-3,32.4-6,64.8-9,97.3c-7.1-0.7-14.2-1.3-21.3-1.9c-1-4.7-2-9.4-2.9-14.1h-0.1
				c-5.1,9.8-13.3,14.3-23.6,13.5C961.1,131.6,950.6,117.1,952,95.6z M1004.2,99.5c0.7-8.1-4.3-14.7-12-15.3
				c-7.8-0.6-13.8,5.1-14.4,13.2c-0.6,8.1,4.4,14.6,12.1,15.3C997.6,113.3,1003.6,107.6,1004.2,99.5z"/>
			<path d="M1034.9,38.1c-3,32.4-6,64.8-9,97.3c-7.1-0.7-14.2-1.3-21.3-1.9c-1-4.7-2-9.4-2.9-14.1h-0.1
				c-5.1,9.8-13.3,14.3-23.6,13.5c-16.8-1.3-27.2-15.7-25.8-37.3c1.4-21.7,14-34.7,31.2-33.3c10.3,0.8,17.9,6.7,21.3,17.3h0.1
				c1.2-14.6,2.5-29.2,3.7-43.8C1017.2,36.5,1026.1,37.3,1034.9,38.1 M990,112.7c7.6,0.6,13.6-5.1,14.3-13.1
				c0.7-8.1-4.3-14.7-12-15.3c-7.8-0.6-13.8,5.1-14.4,13.2C977.3,105.5,982.3,112.1,990,112.7 M1035.4,33.2
				c-8.9-0.8-17.7-1.6-26.6-2.4c-2.8-0.2-5.3,1.8-5.5,4.5c-0.8,9.7-1.6,19.4-2.4,29.1c-4.5-4.1-10.4-6.5-17.2-7.1
				c-20.4-1.6-35.1,13.8-36.6,37.9c-1.5,24,10.7,41,30.5,42.5c8.4,0.6,15.8-1.8,21.5-6.9c0.3,1.2,0.5,2.4,0.8,3.6
				c0.5,2.1,2.3,3.7,4.5,3.9c7.1,0.6,14.2,1.2,21.3,1.9c2.7,0.3,5.2-1.7,5.4-4.4c3.1-32.4,6.1-64.8,9.2-97.3
				C1040.3,35.9,1038.2,33.5,1035.4,33.2L1035.4,33.2z M990.4,107.8c-4.8-0.4-7.9-4.5-7.5-10s4.1-9.1,9-8.7c4.8,0.4,7.8,4.5,7.4,10
				C998.8,104.6,995.1,108.2,990.4,107.8L990.4,107.8z"/>
		</g>
		<g>
			<path class="st0" d="M1033.7,119c1.1-12.1,13-19.3,32.9-19.1c3.8,0,7.7,0,11.5,0.1c3.1,0.1,5.5-1.5,5.7-4.1
				c0.5-4.6-2.7-7.8-7.6-8.4c-6.1-0.7-10.4,3.5-12,9.5c-8.4-1.8-16.8-3.6-25.2-5.3c2.5-15.3,17-24.1,38-21.8
				c21.9,2.4,34,14.7,31.9,32.5c-0.9,7.2-1.7,14.5-2.6,21.7c-0.4,3.1,0.7,5.1,2.9,5.4c1.6,0.2,4-0.4,5.6-1.7
				c0.9,4.4,1.9,8.8,2.8,13.1c-5.4,3.4-13.3,4.3-20,3.5c-9.2-1.1-16.2-7.1-16.8-13.5c0-0.7,0-1.3,0-2h-0.1c-5,7.4-14.3,12-25.4,10.8
				C1041.6,138.4,1032.7,130.2,1033.7,119z M1081.4,114.1c0.1-0.6,0.1-1.1,0.2-1.7c-3,0-5.9,0-8.9-0.1c-8.9,0-12.4,2.2-12.7,5.8
				c-0.4,3.4,3,6.2,8,6.8C1075.1,125.6,1080.7,120.9,1081.4,114.1z"/>
			<path d="M1077,70c21.9,2.4,34,14.7,31.9,32.5c-0.9,7.2-1.7,14.5-2.6,21.7c-0.4,3.1,0.7,5.1,2.9,5.4c1.6,0.2,4-0.4,5.6-1.7
				c0.9,4.4,1.9,8.8,2.8,13.1c-5.4,3.4-13.3,4.3-20,3.5c-9.2-1.1-16.2-7.1-16.8-13.5c0-0.7,0-1.3,0-2h-0.1c-5,7.4-14.3,12-25.4,10.8
				c-13.6-1.4-22.5-9.6-21.5-20.8c1.1-12.1,13-19.3,32.9-19.1c3.8,0,7.7,0,11.5,0.1c3.1,0.1,5.5-1.5,5.7-4.1
				c0.5-4.6-2.7-7.8-7.6-8.4c-6.1-0.7-10.4,3.5-12,9.5c-8.4-1.8-16.8-3.6-25.2-5.3C1041.5,76.5,1056.1,67.7,1077,70 M1068,124.8
				c7,0.8,12.7-3.9,13.4-10.8c0.1-0.6,0.1-1.1,0.2-1.7c-3,0-5.9,0-8.9-0.1c-8.9,0-12.4,2.2-12.7,5.8
				C1059.6,121.5,1063,124.3,1068,124.8 M1077.6,65.1c-23.5-2.5-40.6,7.8-43.6,25.9c-0.4,2.6,1.3,5.1,4,5.6c2.6,0.5,5.2,1.1,7.8,1.6
				c-10.1,3.8-16.2,10.9-17.1,20.4c-1.3,13.8,9.4,24.5,26,26.2c8.8,0.9,17.2-1.4,23.6-6.2c3.6,5.7,10.6,9.9,18.7,10.9
				c8.7,1,17.4-0.6,23.3-4.3c1.7-1.1,2.6-3.1,2.2-5.1c-0.9-4.4-1.9-8.8-2.8-13.2c-0.4-1.7-1.6-3-3.2-3.6c-0.4-0.1-0.7-0.2-1.1-0.3
				c-1.3-0.2-2.6,0.2-3.7,1c-0.1,0.1-0.2,0.1-0.3,0.2c0.9-7,1.7-14.1,2.6-21.1C1116.5,82.5,1102.6,67.8,1077.6,65.1L1077.6,65.1z
				 M1070.5,95c1-1.6,2.7-2.9,5.2-2.6c3,0.3,3.2,1.8,3.2,2.6c-0.1,0-0.4,0.1-0.6,0.1C1075.7,95.1,1073.1,95,1070.5,95L1070.5,95z
				 M1065,118.5c0,0,1.4-1.3,7.8-1.3c0.8,0,1.6,0,2.3,0c-1.4,2-3.8,3-6.5,2.7C1066.2,119.7,1065.1,118.8,1065,118.5L1065,118.5
				L1065,118.5z"/>
		</g>
	</g>
	<g>
		<g>
			<path class="st0" d="M121.8,229.1l-4.2,48.1h-37l-6.8,77.4H54.9l11-125.5H121.8z M83.1,248h18.6l0.4-5.1H83.6L83.1,248z
				 M100.4,264.4l0.4-5.1H82.2l-0.4,5.1H100.4z M153.9,282.2l-1.3,15.3h-9.3l-0.8,9.2H156l-1.3,15.4h-13.5l-1.3,14.9h10.3
				c4.9,0,7.3-2.2,7.8-7.4l4.6-52.3h-36.9l4.2-48.1h55.8l-9,103.3c-1.2,13.9-7.2,20.4-20,21.2c-4.2,0.3-9.9,0.4-18.3,0.4
				c-0.3-2.6-0.6-5.8-0.9-8.6h-16.1l2-23.4h-13c-2.4,10.7-6.5,16.9-17.6,26.7c-3.7-3-9.9-7.6-14.5-10.5c8.5-6.1,12.3-10.5,14.3-16.2
				H80.5l1.3-15.4H95c0.2-2.8,0.7-5.9,0.9-9.2h-9.5l1.3-15.3H153.9z M112.7,306.6h12l0.8-9.2h-11.9
				C113.4,300.8,113,303.9,112.7,306.6z M146.5,248H165l0.4-5.1h-18.5L146.5,248z M145.1,264.4h18.5l0.4-5.1h-18.5L145.1,264.4z"/>
			<path d="M185.6,229.1L185.6,229.1 M185.6,229.1l-9,103.3c-1.2,13.9-7.2,20.4-20,21.2c-4.2,0.3-9.9,0.4-18.3,0.4
				c-0.3-2.6-0.6-5.8-0.9-8.6h-16.1l2-23.4h-13c-2.4,10.7-6.5,16.9-17.6,26.7c-3.7-3-9.9-7.6-14.5-10.5c8.5-6.1,12.3-10.5,14.3-16.2
				h-12l1.3-15.4H95c0.2-2.8,0.7-5.9,0.9-9.2h-9.5l1.3-15.3h66.1l-1.3,15.3h-9.3l-0.8,9.2H156l-1.3,15.4h-13.5l-1.3,14.9h10.3
				c4.9,0,7.3-2.2,7.8-7.4l4.6-52.3h-36.9l4.2-48.1L185.6,229.1 M165.5,242.9H147l-0.4,5.1H165L165.5,242.9 M164,259.2h-18.5
				l-0.4,5.1h18.5L164,259.2 M125.6,297.5h-11.9c-0.3,3.4-0.7,6.5-0.9,9.2h12L125.6,297.5 M121.8,229.1l-4.2,48.1h-37l-6.8,77.4
				H54.9l11-125.5H121.8 M102.2,242.9H83.6l-0.4,5.1h18.6L102.2,242.9 M100.8,259.2H82.2l-0.4,5.1h18.6L100.8,259.2 M156,306.6
				L156,306.6 M185.6,224.2L185.6,224.2h-55.8c-1.6,0-3.1,0.8-4,2c-0.1-0.2-0.2-0.3-0.4-0.4c-0.9-1-2.2-1.6-3.6-1.6H65.9
				c-2.5,0-4.7,1.9-4.9,4.5L50,354.2c-0.1,1.4,0.3,2.7,1.3,3.7c0.9,1,2.2,1.6,3.6,1.6h18.9c2.5,0,4.7-1.9,4.9-4.5l0.9-10
				c3.7,2.6,7.7,5.6,10.1,7.6c0.9,0.7,2,1.1,3.1,1.1c1.2,0,2.3-0.4,3.3-1.2c10.5-9.3,15.3-15.9,18.1-25.5h3.8l-1.6,18
				c-0.1,1.4,0.3,2.7,1.3,3.7c0.9,1,2.2,1.6,3.6,1.6H133c0.1,1.5,0.3,3,0.5,4.3c0.3,2.5,2.4,4.3,4.9,4.3c8.3,0,14.2-0.1,18.6-0.4
				c15.1-1,23.1-9.4,24.5-25.7l9-103c0-0.2,0.1-0.5,0.1-0.7C190.5,226.4,188.3,224.2,185.6,224.2L185.6,224.2z M185.6,234L185.6,234
				L185.6,234L185.6,234z M121.8,234L121.8,234L121.8,234L121.8,234z M83.4,301.7v-0.5c0.2,0.2,0.4,0.3,0.7,0.5H83.4L83.4,301.7z
				 M155,301.7c0.1-0.1,0.3-0.2,0.4-0.3v0.3H155L155,301.7z M145.6,327h7.6l-0.2,2c-0.2,2.8-0.7,2.9-2.9,2.9h-4.9L145.6,327
				L145.6,327z M81.2,327h2.9c-0.9,1-1.9,2-3.2,3.1L81.2,327L81.2,327z"/>
		</g>
		<g>
			<path class="st0" d="M297.1,227.8c-2,5.8-4,11.3-6,16.5h32l-1.8,20.9h-6.6c-3.7,21.7-8.5,38.2-16.9,52.5
				c4.9,6.1,10.9,11.3,18.6,16.2c-4.7,6.9-8.4,12.6-13.3,20.8c-7.5-6.5-13.5-12.7-18.4-19.3c-6.4,6.9-14.2,13.6-23.6,20.7
				c-2.5-4.2-4.9-8.4-7.5-12.6l-0.8,8.8h-17.3l0.5-5.3h-12.8l-0.6,6.6h-17l3.2-37c-3.2,10.5-7.3,20.3-13.3,31.1
				c-2.7-6.2-5.4-12.2-8.5-18.5c7.5-16.6,11.5-31.3,13.5-54.3l3.3-38h19.5c-1-3.8-2-7.6-2.8-10.3l22-1.4c0.7,3.9,1.3,8.1,2,11.6
				h18.1l-2.8,32.3c8.3-14.3,13.8-27.6,18.9-44.2L297.1,227.8z M256.9,285.4h-39.4c-0.6,3.2-1.1,6.3-1.8,9.3h42l-3.6,40.8
				c8.5-5.8,15.3-11.3,20.7-17.2c-3.6-8.4-6.2-17.7-7.6-28.5c-1.2,1.8-2.5,3.8-3.7,5.5L256.9,285.4z M219.4,268.4h22.3l1.3-14.3
				h-22.3L219.4,268.4z M224.5,330.1h12.8l1.6-18.6h-12.8L224.5,330.1z M287.5,299.3c4.3-9.3,7-20.3,9.2-34.2h-14.6
				C282.5,279,284.2,290,287.5,299.3z"/>
			<path d="M278.6,225.1l18.5,2.7c-2,5.8-4,11.3-6,16.5h32l-1.8,20.9h-6.6c-3.7,21.7-8.5,38.2-16.9,52.5
				c4.9,6.1,10.9,11.3,18.6,16.2c-4.7,6.9-8.4,12.6-13.3,20.8c-7.5-6.5-13.5-12.7-18.4-19.3c-6.4,6.9-14.2,13.6-23.6,20.7
				c-2.5-4.2-4.9-8.4-7.5-12.6l-0.8,8.8h-17.3l0.5-5.3h-12.8l-0.6,6.6h-17l3.2-37c-3.2,10.5-7.3,20.3-13.3,31.1
				c-2.7-6.2-5.4-12.2-8.5-18.5c7.5-16.6,11.5-31.3,13.5-54.3l3.3-38h19.5c-1-3.8-2-7.6-2.8-10.3l22-1.4c0.7,3.9,1.3,8.1,2,11.6
				h18.1l-2.8,32.3C268,254.9,273.5,241.7,278.6,225.1 M242.9,254.1h-22.3l-1.3,14.3h22.3L242.9,254.1 M296.7,265.2h-14.6
				c0.4,13.8,2.1,24.9,5.4,34.2C291.8,290,294.5,279.1,296.7,265.2 M215.7,294.8h42l-3.6,40.8c8.5-5.8,15.3-11.3,20.7-17.2
				c-3.6-8.4-6.2-17.7-7.6-28.5c-1.2,1.8-2.5,3.8-3.7,5.5l-6.6-10h-39.4C216.9,288.7,216.4,291.8,215.7,294.8 M239,311.5h-12.8
				l-1.6,18.6h12.8L239,311.5 M262.5,236.9L262.5,236.9 M323.1,244.2L323.1,244.2 M257.7,294.8L257.7,294.8 M278.6,220.1
				c-2.1,0-4.1,1.4-4.7,3.5c-2.2,7.2-4.5,13.7-7,19.8l0.5-5.8c0-0.2,0.1-0.5,0.1-0.7c0-2.7-2.2-4.9-4.9-4.9l0,0h-13.9
				c-0.1-0.3-0.1-0.6-0.2-1c-0.4-2.2-0.7-4.5-1.1-6.7c-0.4-2.3-2.5-4-4.8-4c-0.1,0-0.2,0-0.3,0l-22,1.4c-1.5,0.1-2.8,0.8-3.7,2
				s-1.1,2.7-0.8,4.1c0.3,1.2,0.7,2.6,1.1,4.1h-13c-2.5,0-4.7,1.9-4.9,4.5l-3.3,38c-1.9,21.5-5.4,35.8-13.1,52.7
				c-0.6,1.3-0.6,2.9,0.1,4.2c3,6.1,5.6,11.9,8.4,18.3c0.7,1.7,2.4,2.9,4.3,3c0.1,0,0.2,0,0.2,0c1.8,0,3.4-1,4.3-2.5
				c0.4-0.8,0.9-1.6,1.3-2.4l-0.5,5.6c-0.1,1.4,0.3,2.7,1.3,3.7c0.9,1,2.2,1.6,3.6,1.6h17c2.5,0,4.7-1.9,4.9-4.5l0.2-2.1h3
				c-0.1,1.3,0.4,2.7,1.3,3.7c0.9,1,2.2,1.6,3.6,1.6h17.3c1,0,2-0.3,2.8-0.9c0.4,0.7,0.9,1.5,1.3,2.2c0.7,1.2,1.9,2,3.3,2.3
				c0.3,0.1,0.6,0.1,1,0.1c1.1,0,2.1-0.3,2.9-1c7.9-5.9,14.5-11.5,20.2-17.2c4.4,5.2,9.4,10.3,15.6,15.6c0.9,0.8,2,1.2,3.2,1.2
				c0.3,0,0.5,0,0.8-0.1c1.4-0.2,2.7-1.1,3.4-2.3c4.7-7.8,8.2-13.3,13.2-20.6c0.7-1.1,1-2.5,0.7-3.8s-1.1-2.4-2.2-3.1
				c-6.1-3.8-11.1-8-15.2-12.6c6.8-12.5,11.4-27,15.1-47.1h2.5c2.5,0,4.7-1.9,4.9-4.5l1.8-20.6c0-0.2,0.1-0.5,0.1-0.7
				c0-2.7-2.2-4.9-4.9-4.9l0,0h-24.9c1.3-3.5,2.5-6.9,3.5-10c0.5-1.4,0.3-2.9-0.5-4.2c-0.8-1.2-2-2.1-3.5-2.3l-18.5-2.7
				C279,220.2,278.8,220.1,278.6,220.1L278.6,220.1z M225.1,259h12.4l-0.4,4.5h-12.4L225.1,259L225.1,259z M287.2,270.1h3.7
				c-0.8,4.3-1.6,8.2-2.5,11.7C287.8,278.2,287.5,274.3,287.2,270.1L287.2,270.1z M257.7,299.7L257.7,299.7L257.7,299.7L257.7,299.7
				z M260,325.2l2.2-25.1c0.4,0.1,0.8,0.2,1.2,0.2h0.1c0.2,0,0.4,0,0.6,0c1.3,6,3,11.6,5,17C266.5,319.9,263.5,322.5,260,325.2
				L260,325.2z M230.7,316.4h3l-0.8,8.8h-3L230.7,316.4L230.7,316.4z"/>
		</g>
		<g>
			<path class="st0" d="M334,354.5l4.9-56.1c-3.2,4.2-6.5,8.2-10,12.3c-1-9.2-1.8-17.8-2.8-27.7c12.4-16.9,21.8-35.1,29.9-58.2
				l21.3,5.4c-4.3,10.5-9.1,20.7-14.3,30.5l-8.2,93.7H334V354.5z M377.2,286.1c-5.2-5.1-9.6-9.3-14.7-14.2
				c11.3-13.5,19.5-28,26.1-46.3l21.6,3c-1.7,4.5-3.4,8.4-5.3,12.3h52l-1.6,18.1l-9,22.6l-20-4.5l7.2-15.9h-38.8
				c-4.2,7.3-8.5,14-13.6,20.8l17,5.4c-5.8,13.4-14.1,31.7-20.3,45.4c3.8,0.3,6.9,0.4,11.2,0.4c4.3,0,6.1-1.5,6.5-6.3l5.2-59.4H422
				l-5.6,64.6c-1.2,13.2-6.5,19.7-19.2,20.8c-4.5,0.4-11.8,0.7-19.2,0.7c-0.4-5-0.9-13-1.6-18.6l-18.2-7.8
				C364,315.6,371.6,298.8,377.2,286.1z M451.9,329.5l-21.2,6.2c-2.7-14.2-6.5-32.4-10-48l19.9-5.1
				C444.8,299.5,449.2,317.6,451.9,329.5z"/>
			<path d="M356,224.8l21.3,5.4c-4.3,10.5-9.1,20.7-14.3,30.5l-8.2,93.7H334l4.9-56.1c-3.2,4.2-6.5,8.2-10,12.3
				c-1-9.2-1.8-17.8-2.8-27.7C338.4,266.1,347.9,247.9,356,224.8 M388.6,225.6l21.6,3c-1.7,4.5-3.4,8.4-5.3,12.3h52l-1.6,18.1
				l-9,22.6l-20-4.5l7.2-15.9h-38.8c-4.2,7.3-8.5,14-13.6,20.8l17,5.4c-5.8,13.4-14.1,31.7-20.3,45.4c3.8,0.3,6.9,0.4,11.2,0.4
				c4.3,0,6.1-1.5,6.5-6.3l5.2-59.4H422l-5.6,64.6c-1.2,13.2-6.5,19.7-19.2,20.8c-4.5,0.4-11.8,0.7-19.2,0.7c-0.4-5-0.9-13-1.6-18.6
				l-18.2-7.8c5.9-11.3,13.5-28.1,19.1-40.8c-5.2-5.1-9.6-9.3-14.7-14.2C373.8,258.4,382,244,388.6,225.6 M456.9,240.9L456.9,240.9
				 M422.1,267.3L422.1,267.3 M440.6,282.6c4.2,16.9,8.6,35,11.3,46.9l-21.2,6.2c-2.7-14.2-6.5-32.4-10-48L440.6,282.6 M356,219.9
				c-2,0-3.9,1.3-4.6,3.3c-7.8,22.3-17.1,40.4-29.3,56.9c-0.7,1-1.1,2.2-0.9,3.4c0.6,5.6,1.1,10.9,1.7,16l1.2,11.6
				c0.2,2,1.5,3.6,3.4,4.2c0.5,0.1,1,0.2,1.5,0.2c1.4,0,2.8-0.6,3.7-1.7l-3.5,40.1c-0.1,1.4,0.3,2.7,1.3,3.7c0.9,1,2.2,1.6,3.6,1.6
				h20.8c2.5,0,4.7-1.9,4.9-4.5l1.9-21.2l10.3,4.4c0.4,4.2,0.8,9.1,1.1,12.9l0.2,2.7c0.2,2.6,2.3,4.5,4.9,4.5
				c7.4,0,14.9-0.3,19.7-0.7c14.8-1.2,22.3-9.3,23.7-25.3l1.1-13c1.3,6.1,2.4,12,3.4,17.3c0.3,1.4,1.1,2.6,2.3,3.3
				c0.8,0.5,1.7,0.7,2.6,0.7c0.5,0,0.9-0.1,1.4-0.2l21.2-6.2c2.5-0.7,4-3.3,3.4-5.8c-2.5-10.9-6.3-26.6-10.1-41.9
				c1.9-0.1,3.6-1.3,4.3-3.1l9-22.6c0.2-0.4,0.3-0.9,0.3-1.4l1.6-17.8c0-0.2,0.1-0.5,0.1-0.7c0-2.7-2.2-4.9-4.9-4.9l0,0h-44.4
				c0.8-1.8,1.5-3.7,2.3-5.6c0.5-1.4,0.4-3-0.3-4.3c-0.8-1.3-2.1-2.2-3.6-2.4l-21.6-3c-0.2,0-0.4,0-0.7,0c-2,0-3.9,1.3-4.6,3.2
				c-0.6,1.8-1.3,3.5-1.9,5.2c-0.1-0.4-0.2-0.8-0.4-1.1c-0.6-1.3-1.8-2.2-3.2-2.5l-21.3-5.4C356.8,219.9,356.4,219.9,356,219.9
				L356,219.9z M389.2,279.3c2.2-3.2,4.4-6.5,6.5-9.9l-1,11.7L389.2,279.3L389.2,279.3z M364.2,303.1l1.8-21
				c1.8,1.8,3.6,3.5,5.3,5.2C369.2,292.1,366.7,297.6,364.2,303.1L364.2,303.1z M385.3,328.2c2.1-4.5,4.2-9.3,6.4-14.2l-1.1,12.3
				c-0.1,1-0.2,1.5-0.3,1.8c-0.2,0-0.6,0.1-1.3,0.1C387.7,328.2,386.5,328.2,385.3,328.2L385.3,328.2z"/>
		</g>
		<g>
			<path class="st0" d="M556.5,352.3c-6.5,0.4-14.8,0.5-24.1,0.5c-0.7-8.5-1.5-15.8-2.3-21.9c5.9,0.3,13.2,0.4,18.7,0.4
				c8.6,0,11.6-2.8,12.5-11.3c1.3-11.6,4-37.7,5.7-54.2h-18.5c-2.8,5.7-5.8,11.2-9,16.6c-5-2.8-10.4-5.9-15.7-8.9l-6.9,78.9h-20.4
				l0.7-7.8h-15.5l-0.7,8.5h-20.5l9.4-107.9h15c2.2-6.9,4-13.8,5.5-20l23,3.1c-2.3,6.6-4.2,12-6.1,16.9h19l-2,23
				c7.2-13.2,13.9-27.4,19.8-43.6l20.8,4.9c-2.2,5.5-4.3,10.8-6.5,15.8H591c-3.9,34.8-7,63.5-8.9,79.7
				C580.1,343.1,573.7,351.2,556.5,352.3z M486.9,284.6h15.5l1.7-18.9h-15.5L486.9,284.6z M483.4,324.1H499l1.7-18.9h-15.5
				L483.4,324.1z M561.7,306.8l-19.3,11.9c-4.4-8.2-9.9-18.1-15.7-27.8l17.5-10.7C550.4,289.1,556.2,297.9,561.7,306.8z"/>
			<path d="M544,224.5l20.8,4.9c-2.2,5.5-4.3,10.8-6.5,15.8H591c-3.9,34.8-7,63.5-8.9,79.7c-2,18.2-8.4,26.3-25.6,27.4
				c-6.5,0.4-14.8,0.5-24.1,0.5c-0.7-8.5-1.5-15.8-2.3-21.9c5.9,0.3,13.2,0.4,18.7,0.4c8.6,0,11.6-2.8,12.5-11.3
				c1.3-11.6,4-37.7,5.7-54.2h-18.5c-2.8,5.7-5.8,11.2-9,16.6c-5-2.8-10.4-5.9-15.7-8.9l-6.9,78.9h-20.4l0.7-7.8h-15.5l-0.7,8.5
				h-20.5l9.4-107.9h15c2.2-6.9,4-13.8,5.5-20l23,3.1c-2.3,6.6-4.2,12-6.1,16.9h19l-2,23C531.5,254.9,538.1,240.7,544,224.5
				 M504.1,265.7h-15.5l-1.7,18.9h15.5L504.1,265.7 M500.6,305.2h-15.5l-1.7,18.9H499L500.6,305.2 M526.2,245.2L526.2,245.2
				 M544.3,280.2c6.1,8.9,12,17.7,17.4,26.6l-19.3,11.9c-4.4-8.2-9.9-18.1-15.7-27.8L544.3,280.2 M544,219.6c-2,0-3.9,1.3-4.6,3.2
				c-2.6,7.1-5.4,14-8.4,20.8c-0.6-2-2.5-3.4-4.7-3.4l0,0h-12c0.7-1.9,1.3-3.8,2.1-5.9l1.6-4.5c0.5-1.4,0.3-2.9-0.4-4.2
				c-0.8-1.3-2.1-2.1-3.5-2.3l-23-3.1c-0.2,0-0.4,0-0.7,0c-2.2,0-4.2,1.5-4.8,3.8c-1.4,6-2.9,11.3-4.4,16.2h-11.4
				c-2.5,0-4.7,1.9-4.9,4.5l-9.4,107.9c-0.1,1.4,0.3,2.7,1.3,3.7c0.9,1,2.2,1.6,3.6,1.6h20.5c2.5,0,4.7-1.9,4.9-4.5l0.4-4h5.7
				l-0.2,2.5c-0.1,1.4,0.3,2.7,1.3,3.7c0.9,1,2.2,1.6,3.6,1.6H517c2.5,0,4.7-1.9,4.9-4.5l4.6-52.9c4.8,8.3,8.9,15.8,11.7,21
				c0.6,1.2,1.7,2.1,3.1,2.4c0.4,0.1,0.9,0.2,1.3,0.2c0.9,0,1.8-0.2,2.6-0.7l11.9-7.3c-0.2,1.5-0.3,2.8-0.4,4c-0.6,6.1-1.6,7-7.6,7
				s-13.1-0.2-18.5-0.4c-0.1,0-0.1,0-0.2,0c-1.4,0-2.7,0.6-3.6,1.6c-1,1.1-1.4,2.5-1.2,4c0.7,5.3,1.4,11.8,2.2,21.7
				c0.2,2.5,2.3,4.5,4.9,4.5c10.6,0,18.4-0.2,24.4-0.5c19.1-1.2,27.9-10.4,30.2-31.8c1.8-16.2,5-44.8,8.9-79.7
				c0.2-1.4-0.3-2.8-1.2-3.8s-2.3-1.6-3.7-1.6H566c0.8-2,1.6-4,2.4-6l1.2-3c0.5-1.3,0.5-2.8-0.2-4.1s-1.8-2.2-3.2-2.5l-20.8-4.9
				C544.7,219.6,544.4,219.6,544,219.6L544,219.6z M493,270.6h5.7l-0.8,9.1h-5.7L493,270.6L493,270.6z M551.5,270.8h10l-0.2,1.5
				c-0.7,6.8-1.5,14.2-2.2,21.3c-3.9-6-7.7-11.6-10.9-16.2c-0.1-0.1-0.1-0.2-0.2-0.2C549.3,275,550.5,272.8,551.5,270.8L551.5,270.8
				z M527.7,284.5l0.3-2.9c0.7,0.4,1.4,0.8,2.1,1.2c0.1,0,0.1,0.1,0.2,0.1L527.7,284.5L527.7,284.5z M489.6,310.1h5.7l-0.8,9.1h-5.7
				L489.6,310.1L489.6,310.1z"/>
		</g>
	</g>
	<g>
		<g>
			<g>
				<path class="st1" d="M685.2,320.4l2.2-24.7h-53.9l2.2-25.7h53.9l2-23h-31.9c-3.8,7.4-8.3,14.6-13.2,22.1
					c-5.3-3-15.4-8.4-23.9-12.9c13.3-18.3,23.1-37.6,30-58.9l27,4.5c-2.6,7-5,13.3-7.6,19.3h21.8l2.7-30.5h28.2l-2.7,30.5h51.3
					l-2.3,25.8h-51.3l-2,23H763l-2.2,25.7h-45.3l-2.2,24.7h58.4l-2.3,25.8H617.2l2.3-25.8L685.2,320.4L685.2,320.4z"/>
				<path d="M724.7,190.7L724.7,190.7 M724.7,190.7l-2.7,30.5h51.3L771,247h-51.3l-2,23H763l-2.2,25.7h-45.3l-2.2,24.7h58.4
					l-2.3,25.8H617.2l2.3-25.8h65.8l2.2-24.7h-53.9l2.2-25.7h53.9l2-23h-31.9c-3.8,7.4-8.3,14.6-13.2,22.1
					c-5.3-3-15.4-8.4-23.9-12.9c13.3-18.3,23.1-37.6,30-58.9l27,4.5c-2.6,7-5,13.3-7.6,19.3h21.8l2.7-30.5L724.7,190.7 M773.4,221.2
					L773.4,221.2 M763.1,270.1L763.1,270.1 M771.8,320.4L771.8,320.4 M724.8,185.8L724.8,185.8h-28.2c-2.5,0-4.7,1.9-4.9,4.5
					l-2.3,26.1h-10c1.4-3.6,3-7.7,4.9-12.7c0.5-1.4,0.4-2.9-0.3-4.2s-2-2.1-3.4-2.4l-27-4.5c-0.3,0-0.5-0.1-0.8-0.1
					c-2.1,0-4,1.3-4.7,3.4c-6.8,21-16.4,39.8-29.3,57.5c-0.8,1.1-1.1,2.6-0.8,4s1.2,2.6,2.5,3.2l1.7,0.9c3.2,1.7,6.7,3.6,9.9,5.3
					c-0.7,0.8-1.1,1.7-1.2,2.8l-2.2,25.7c-0.1,1.4,0.3,2.7,1.3,3.7c0.9,1,2.2,1.6,3.6,1.6H682l-1.3,14.8h-61.3
					c-2.5,0-4.7,1.9-4.9,4.5l-2.3,25.8c-0.1,1.4,0.3,2.7,1.3,3.7s2.2,1.6,3.6,1.6h152.4c2.5,0,4.7-1.9,4.9-4.5l2.2-25.5
					c0-0.2,0.1-0.5,0.1-0.7c0-2.7-2.2-4.9-4.9-4.9l0,0h-53l1.3-14.8h40.8c2.5,0,4.7-1.9,4.9-4.5l2.2-25.4c0-0.2,0.1-0.5,0.1-0.7
					c0-2.7-2.2-4.9-4.9-4.9l0,0h-39.9l1.2-13.2h46.8c2.5,0,4.7-1.9,4.9-4.5l2.2-25.5c0-0.2,0.1-0.5,0.1-0.7c0-2.7-2.2-4.9-4.9-4.9
					l0,0h-46l2.2-24.9c0-0.2,0.1-0.5,0.1-0.7C729.7,188,727.5,185.8,724.8,185.8L724.8,185.8z M724.7,195.6L724.7,195.6L724.7,195.6
					L724.7,195.6z M662.7,252h23.6l-1.2,13.2H655C657.6,260.9,660.3,256.5,662.7,252L662.7,252z"/>
			</g>
			<g>
				<path class="st1" d="M829.8,257.3l-21,19.5c-7.3-8.4-16-18.5-23.1-25.7l19.2-18C813.2,240.5,822.8,249.9,829.8,257.3z
					 M837.2,214.7L816.9,234c-7.8-8.6-15.8-17.1-24.1-25.2l18.3-17.8C820.6,199.4,829.8,207.5,837.2,214.7z M827,291
					c-5.9,17.1-13.3,38.9-20.5,60.2l-24.8-8.2c8.2-21,14.8-40.3,21.1-60.7L827,291z M941.8,193.9l0.7,22.5c-13.2,0.8-26,1.5-39,2.2
					l-1.4,16.3h44.3l-2,23.2h-44.3l-1.4,16.4h37.6l-6.7,76h-26.3l0.8-8.7h-48.8l-0.8,8.9H828l6.7-76.2H872l1.4-16.4h-42.5l2-23.2
					h42.5l1.3-14.9c-11.8,0.5-23.7,0.8-35.8,1.2c-0.1-6.7-0.4-14.1-0.9-22.3C873.9,198.1,908.8,196.2,941.8,193.9z M857.2,319.1H906
					l1.9-22h-48.8L857.2,319.1z"/>
				<path d="M811.1,191c9.5,8.4,18.7,16.4,26.1,23.7L816.9,234c-7.8-8.6-15.8-17.1-24.1-25.2L811.1,191 M941.8,193.9l0.7,22.5
					c-13.2,0.8-26,1.5-39,2.2l-1.4,16.3h44.3l-2,23.2h-44.3l-1.4,16.4h37.6l-6.7,76h-26.3l0.8-8.7h-48.8l-0.8,8.9H828l6.7-76.2H872
					l1.4-16.4h-42.5l2-23.2h42.5l1.3-14.9c-11.8,0.5-23.7,0.8-35.8,1.2c-0.1-6.7-0.4-14.1-0.9-22.3
					C873.9,198.1,908.8,196.2,941.8,193.9 M907.9,297.1h-48.8l-1.9,22H906L907.9,297.1 M804.9,233.2c8.2,7.4,17.8,16.8,24.9,24.2
					l-21,19.5c-7.3-8.4-16-18.5-23.1-25.7L804.9,233.2 M946.4,234.8L946.4,234.8 M936.2,274.4L936.2,274.4 M802.8,282.3L827,291
					c-5.9,17.1-13.3,38.9-20.5,60.2l-24.8-8.2C789.9,322.1,796.5,302.8,802.8,282.3 M811.1,186.1c-1.2,0-2.5,0.5-3.4,1.4l-18.3,17.8
					c-1,0.9-1.5,2.2-1.5,3.5s0.5,2.6,1.5,3.5c5.4,5.2,10.6,10.6,15.6,15.9l0,0c-1.2,0-2.4,0.4-3.4,1.3l-19.2,18
					c-1,0.9-1.5,2.2-1.6,3.5s0.5,2.6,1.4,3.5c6.3,6.4,13.9,15.1,20.6,22.9c0,0,0,0-0.1,0c-0.8,0-1.5,0.2-2.2,0.5
					c-1.2,0.6-2.1,1.7-2.5,2.9c-6.9,22.4-13.4,41.1-21,60.4c-0.5,1.3-0.4,2.7,0.1,3.9c0.6,1.2,1.6,2.2,2.9,2.6l24.8,8.2
					c0.5,0.2,1,0.3,1.5,0.3c2,0,4-1.3,4.7-3.3c5.4-15.9,10.9-32.1,15.8-46.5l-3.8,43.8c-0.1,1.4,0.3,2.7,1.3,3.7s2.2,1.6,3.6,1.6
					h26.3c2.5,0,4.7-1.9,4.9-4.5l0.4-4.4h39l-0.3,3.4c-0.1,1.4,0.3,2.7,1.3,3.7c0.9,1,2.2,1.6,3.6,1.6h26.3c2.5,0,4.7-1.9,4.9-4.5
					l6.6-75.7c0-0.2,0.1-0.5,0.1-0.7c0-2.7-2.2-4.9-4.9-4.9l0,0H904l0.6-6.6h39.8c2.5,0,4.7-1.9,4.9-4.5l2-22.8
					c0-0.2,0.1-0.5,0.1-0.7c0-2.7-2.2-4.9-4.9-4.9l0,0h-38.9l0.6-6.7c12.1-0.6,23.2-1.2,34.7-2c2.6-0.2,4.7-2.4,4.6-5.1l-0.7-22.5
					c0-1.3-0.6-2.6-1.6-3.5c-0.9-0.8-2.1-1.3-3.3-1.3c-0.1,0-0.2,0-0.3,0c-36.6,2.6-70.8,4.2-101.5,4.9c-1.3,0-2.6,0.6-3.5,1.6
					s-1.4,2.3-1.3,3.6c0.1,2.5,0.3,4.9,0.4,7.2c-5.7-5.3-12.1-11-18.8-16.9l-2.3-2C813.5,186.5,812.3,186.1,811.1,186.1L811.1,186.1
					z M818.2,238.8c0.8-0.2,1.5-0.6,2.2-1.2l15.9-15.1c0.2,0.8,0.7,1.5,1.3,2.1c0.9,0.9,2.1,1.4,3.4,1.4h0.1c9.4-0.3,20-0.6,30.3-1
					l-0.4,4.9h-38c-2.5,0-4.7,1.9-4.9,4.5l-1.1,12.9C824.1,244.5,821.1,241.5,818.2,238.8L818.2,238.8z M831,262.9h37l-0.6,6.6
					h-32.8c-2.5,0-4.7,1.9-4.9,4.5l-1.1,12.4l0,0l-16.6-6c0,0,0,0,0.1-0.1L831,262.9L831,262.9z M863.6,302h39l-1.1,12.2h-39
					L863.6,302L863.6,302z"/>
			</g>
			<g>
				<path class="st1" d="M962.5,296.3l18.4,6.5c-4.3,8.7-8.2,16.6-12.2,24.2h5.9c5.4,0,6.9-2.2,7.3-6.9l2.2-25.7h-29.2l1.9-21.3H986
					l0.7-8.6h-32.2l1.8-21.1h16.9c-2.5-4.2-5.4-8.9-8.1-13.1l11-5.4h-14.8l1.9-21.3h25.7c-0.8-4.4-1.4-8.4-2-11.7l28.2-1.7
					c0.5,3.7,1,8.2,1.5,13.4h24.7l-1.9,21.3h-16.6l12.9,4.5c-3.4,4.7-6.9,9.4-10.1,13.9h14.9l-1.8,21.1H1011l-0.7,8.6h25.3
					l-1.9,21.3h-25.3l-2.8,32.4c-1.2,14.3-6.9,21.8-21.8,22.8c-5.1,0.3-9.3,0.5-16.3,0.5c-0.6-5.2-1.2-11.4-2-17.1
					c-0.8,1.5-1.8,3.4-2.6,5l-17.2-8.7C951.8,318.4,957.1,308,962.5,296.3z M986.8,243.4h14.6c4.1-6.4,8-12.6,11.7-18.5h-25.3
					c3,4.2,5.9,8.7,9.1,13.3L986.8,243.4z M1116,217.9c-14.4,2-28.8,3.7-45.8,5.2l-1.8,21h46l-2.1,23.8h-12.2l-7,80.5h-23.8l7-80.5
					h-9.9c-3.6,40.6-8.4,57.4-22.8,84.6c-6.3-5-13.4-10.2-20.3-14.9c2.8-5.4,5.2-9.9,7.3-14.4l-12.9,5.9c-2.8-7.9-6.1-16.6-9.7-25.3
					l18.6-7.9c2.9,6.5,5.3,11.7,7.7,17.5c3.9-11.9,5.9-25.3,7.9-47.7l5.6-64.1c25.3-1.5,44-3.9,62.4-7L1116,217.9z"/>
				<path d="M1015.2,190.2c0.5,3.7,1,8.2,1.5,13.4h24.7l-1.9,21.3h-16.6l12.9,4.5c-3.4,4.7-6.9,9.4-10.1,13.9h14.9l-1.8,21.1h-27.7
					l-0.7,8.6h25.3l-1.9,21.3h-25.3l-2.8,32.4c-1.2,14.3-6.9,21.8-21.8,22.8c-5.1,0.3-9.3,0.5-16.3,0.5c-0.6-5.2-1.2-11.4-2-17.1
					c-0.8,1.5-1.8,3.4-2.6,5l-17.2-8.7c6.2-10.9,11.4-21.3,16.8-33.1l18.4,6.5c-4.3,8.7-8.2,16.6-12.2,24.2h5.9
					c5.4,0,6.9-2.2,7.3-6.9l2.2-25.7H955l1.9-21.3H986l0.7-8.6h-32.2l1.8-21.1h16.9c-2.5-4.2-5.4-8.9-8.1-13.1l11-5.4h-14.8
					l1.9-21.3h25.7c-0.8-4.4-1.4-8.4-2-11.7L1015.2,190.2 M1013,224.9h-25.3c3,4.2,5.9,8.7,9.1,13.3l-10,5.2h14.6
					C1005.4,237,1009.3,230.8,1013,224.9 M1110,194.4l6,23.5c-14.4,2-28.8,3.7-45.8,5.2l-1.8,21h46l-2.1,23.8h-12.2l-7,80.5h-23.8
					l7-80.5h-9.9c-3.6,40.6-8.4,57.4-22.8,84.6c-6.3-5-13.4-10.2-20.3-14.9c2.8-5.4,5.2-9.9,7.3-14.4l-12.9,5.9
					c-2.8-7.9-6.1-16.6-9.7-25.3l18.6-7.9c2.9,6.5,5.3,11.7,7.7,17.5c3.9-11.9,5.9-25.3,7.9-47.7l5.6-64.1
					C1073,199.9,1091.6,197.6,1110,194.4 M1041.4,203.6L1041.4,203.6 M1040.6,243.4L1040.6,243.4 M1114.4,244.1L1114.4,244.1
					 M1035.7,273.1L1035.7,273.1 M1015.2,185.3c-0.1,0-0.2,0-0.3,0l-28.2,1.7c-1.4,0.1-2.7,0.7-3.5,1.8c-0.9,1.1-1.2,2.5-1,3.9
					c0.3,1.8,0.6,3.9,1,6h-19.8c-2.5,0-4.7,1.9-4.9,4.5l-1.9,21.3c-0.1,1.4,0.3,2.7,1.3,3.7c0.7,0.7,1.5,1.2,2.5,1.5
					c-0.1,1.1,0.1,2.3,0.7,3.2c1.1,1.7,2.3,3.6,3.5,5.5h-8.2c-2.5,0-4.7,1.9-4.9,4.5l-1.8,21.1c-0.1,1.4,0.3,2.7,1.3,3.7
					c0.7,0.8,1.7,1.3,2.7,1.5c-0.9,0.8-1.6,2-1.7,3.3l-1.9,21.3c-0.1,1.4,0.3,2.7,1.3,3.7c0.9,1,2.2,1.6,3.6,1.6h0.7
					c-4.6,9.7-9.2,18.6-14.3,27.6c-0.7,1.2-0.8,2.6-0.4,3.8c0.4,1.3,1.3,2.4,2.5,3l17.2,8.7c0.4,0.2,0.8,0.3,1.1,0.4
					c0.2,2.2,0.5,4.3,0.7,6.4l0.2,1.4c0.3,2.5,2.4,4.4,4.9,4.4c7.4,0,11.7-0.2,16.6-0.5c16.5-1.1,24.8-9.8,26.4-27.3l0.2-2.5
					c0.7,1.9,1.4,3.9,2.2,5.9c0.5,1.3,1.4,2.3,2.7,2.9c0.6,0.3,1.3,0.4,1.9,0.4c0.7,0,1.4-0.1,2-0.4l0.3-0.1
					c-0.1,0.2-0.2,0.3-0.2,0.5l-0.8,1.5c-1.2,2.2-0.5,5,1.6,6.4c6.9,4.7,13.9,9.8,20,14.7c0.9,0.7,2,1.1,3.1,1.1c0.3,0,0.7,0,1-0.1
					c1.4-0.3,2.7-1.2,3.3-2.5c14.5-27.2,19.5-44.7,23-82h0.1l-6.6,75.2c-0.1,1.4,0.3,2.7,1.3,3.7c0.9,1,2.2,1.6,3.6,1.6h23.8
					c2.5,0,4.7-1.9,4.9-4.5l6.7-76.1h7.7c2.5,0,4.7-1.9,4.9-4.5l2.1-23.5c0-0.2,0.1-0.5,0.1-0.7c0-2.7-2.2-4.9-4.9-4.9l0,0H1074
					l1-11.5c14.5-1.4,27.9-2.9,41.9-4.9c1.4-0.2,2.6-1,3.4-2.1c0.8-1.2,1-2.6,0.7-4l-6-23.5c-0.6-2.2-2.5-3.7-4.8-3.7
					c-0.3,0-0.6,0-0.8,0.1c-20.3,3.5-38.8,5.6-61.8,7c-1.7,0.1-3.2,1.1-4,2.6c-0.6-0.2-1.2-0.4-1.9-0.4l0,0h-20.2
					c-0.4-3.5-0.7-6.5-1.1-9.2C1019.8,187.1,1017.7,185.3,1015.2,185.3L1015.2,185.3z M997,229.8h7.1c-1.1,1.8-2.3,3.6-3.4,5.4
					c-1.2-1.8-2.4-3.5-3.6-5.2C997.1,230,997.1,229.9,997,229.8L997,229.8z M1035.3,238.5c1.3-1.7,2.5-3.5,3.8-5.2l0.6-0.9
					c0.1-0.1,0.2-0.3,0.3-0.4l-0.6,6.6h-4.1V238.5z"/>
			</g>
			<g>
				<path class="st1" d="M1141.7,219.2l2.6-29.2h23.7l-2.6,29.2h13.6l-2.1,23.7h-13.6l-1.3,14.6c6.2,5.4,12.3,10.7,18.7,15.9
					l-14.9,22.1c-2.1-2.7-4.4-5.4-6.5-7.9l-5.6,63.8H1130l5-57.4c-4.4,8.2-9.3,16.4-14.7,24.3c-0.2-10.9-0.5-26.5-1.2-37.6
					c7.6-10.4,14.6-23.3,20.4-37.9h-15.6l2.1-23.7h15.7V219.2z M1217.6,228.1l0.5-5.4h-37.3l1.6-18h18.8c-1.9-3-3.8-6.2-6-9.9
					l21.6-5.4c3.2,5.2,6,9.9,9.2,15.3h10.7c4.8-5.4,8.4-10.1,12.4-15.4l21.7,5.2c-2.8,3.4-5.8,6.9-8.8,10.2h18.5l-1.6,18h-37.4
					l-0.5,5.4h33.2l-1.4,15.4h-33.2l-0.5,5.4h40.8l-1.6,18.1H1233c7.5,2,14.9,4,22.4,6.2l-7.4,13.6c-4.1-1.3-7.8-2.7-11.4-4.2
					l-0.5,5.7c1.9,3.7,3.7,7.2,5.8,10.2c8-5.7,14.7-10.9,22.2-17.5l13.6,15.4c-8.8,6.7-15.6,11.6-22.9,16.8
					c5.8,4.9,12.6,8.9,20.9,12.4c-4.7,7.4-8.6,14.1-12.8,21.5c-14.3-9.4-22.8-16.9-29.5-27.4l-0.7,8.4c-1.3,14.9-6.4,21.6-19.1,22.1
					c-7.2,0.3-13.8,0.3-20,0.3c-0.5-6-0.9-11.2-1.6-18c-6.4,6-14.4,11.6-25,16.8c-3.1-5.4-6.7-11.6-10.9-17.8
					c14.4-5.4,20.1-9.4,26.5-16.8h-17.3l1.5-16.8h40.4l-1.4,16.3c-3.2,6.2-7.1,11.6-12,16.4c3,0.2,5.8,0.3,8.9,0.3
					c4.2,0,6.4-2,6.8-7l2.6-30h-29.7l1.5-17.1h35.7c-3.9-1.2-8-2.5-12.6-3.9l4.4-6.2H1174l1.6-18.1h40.3l0.5-5.4h-33.1l1.4-15.4
					h32.9V228.1z"/>
				<path d="M1249.2,189.4l21.7,5.2c-2.8,3.4-5.8,6.9-8.8,10.2h18.5l-1.6,18h-37.4l-0.5,5.4h33.2l-1.4,15.4h-33.2l-0.5,5.4h40.8
					l-1.6,18.1h-45.3c7.5,2,14.9,4,22.4,6.2l-7.4,13.6c-4.1-1.3-7.8-2.7-11.4-4.2l-0.5,5.7c1.9,3.7,3.7,7.2,5.8,10.2
					c8-5.7,14.7-10.9,22.2-17.5l13.6,15.4c-8.8,6.7-15.6,11.6-22.9,16.8c5.8,4.9,12.6,8.9,20.9,12.4c-4.7,7.4-8.6,14.1-12.8,21.5
					c-14.3-9.4-22.8-16.9-29.5-27.4l-0.7,8.4c-1.3,14.9-6.4,21.6-19.1,22.1c-7.2,0.3-13.8,0.3-20,0.3c-0.5-6-0.9-11.2-1.6-18
					c-6.4,6-14.4,11.6-25,16.8c-3.1-5.4-6.7-11.6-10.9-17.8c14.4-5.4,20.1-9.4,26.5-16.8h-17.3l1.5-16.8h40.4l-1.4,16.3
					c-3.2,6.2-7.1,11.6-12,16.4c3,0.2,5.8,0.3,8.9,0.3c4.2,0,6.4-2,6.8-7l2.6-30h-29.7l1.5-17.1h35.7c-3.9-1.2-8-2.5-12.6-3.9
					l4.4-6.2H1174l1.6-18.1h40.3l0.5-5.4h-33.1l1.4-15.4h33.1l0.5-5.4H1181l1.6-18h18.8c-1.9-3-3.8-6.2-6-9.9l21.6-5.4
					c3.2,5.2,6,9.9,9.2,15.3h10.7C1241.6,199.4,1245.2,194.7,1249.2,189.4 M1168,190l-2.6,29.2h13.6l-2.1,23.7h-13.6l-1.3,14.6
					c6.2,5.4,12.3,10.7,18.7,15.9l-14.9,22.1c-2.1-2.7-4.4-5.4-6.5-7.9l-5.6,63.8H1130l5-57.4c-4.4,8.2-9.3,16.4-14.7,24.3
					c-0.2-10.9-0.5-26.5-1.2-37.6c7.6-10.4,14.6-23.3,20.4-37.9h-15.6l2.1-23.7h15.6l2.6-29.2h23.8 M1280.6,204.8L1280.6,204.8
					 M1179,219.2L1179,219.2 M1274.4,228.1L1274.4,228.1 M1280.1,248.9L1280.1,248.9 M1207.5,298.3L1207.5,298.3 M1249.2,184.5
					c-1.5,0-3,0.7-3.9,2c-3.2,4.4-6.5,8.7-10.7,13.5h-5.7l-0.4-0.7c-2.5-4.2-4.8-8-7.4-12.2c-0.9-1.5-2.5-2.3-4.2-2.3
					c-0.4,0-0.8,0-1.2,0.1l-21.6,5.4c-1.5,0.4-2.7,1.4-3.3,2.9c-0.6,1.4-0.5,3.1,0.3,4.4c0.5,0.9,1,1.7,1.5,2.5h-10
					c-2.5,0-4.7,1.9-4.9,4.5l-0.9,9.9h-5.9l2.1-23.9c0.1-1.4-0.3-2.7-1.3-3.7c-0.9-1-2.2-1.6-3.6-1.6h-23.7c-2.5,0-4.7,1.9-4.9,4.5
					l-2.2,24.7h-11.1c-2.5,0-4.7,1.9-4.9,4.5l-2.1,23.7c-0.1,1.4,0.3,2.7,1.3,3.7c0.9,1,2.2,1.6,3.6,1.6h8.2
					c-5,11.3-10.8,21.6-17,30.1c-0.7,0.9-1,2.1-0.9,3.2c0.7,10.8,1,25.9,1.2,37v0.4c0,2.1,1.5,4,3.5,4.6c0.5,0.1,0.9,0.2,1.4,0.2
					c1.6,0,3.1-0.8,4.1-2.1c1.3-1.9,2.6-3.9,3.9-5.8l-3.1,35.7c-0.1,1.4,0.3,2.7,1.3,3.7c0.9,1,2.2,1.6,3.6,1.6h23.7
					c2.5,0,4.7-1.9,4.9-4.5l0.5-6.2c1.4,2.3,2.6,4.5,3.7,6.4c0.9,1.6,2.6,2.5,4.3,2.5c0.7,0,1.5-0.2,2.2-0.5
					c7.1-3.5,13.4-7.3,18.8-11.4c0.2,2.2,0.4,4.4,0.6,6.8l0.1,1.8c0.2,2.6,2.3,4.5,4.9,4.5c6.3,0,12.9,0,20.2-0.3
					c16.9-0.7,21.7-11.7,23.3-22.6c5.7,6.1,12.9,11.9,23.1,18.6c0.8,0.5,1.7,0.8,2.7,0.8c0.4,0,0.8,0,1.2-0.1
					c1.3-0.3,2.5-1.2,3.1-2.4c4.6-8.2,8.4-14.6,12.7-21.3c0.8-1.2,1-2.7,0.5-4.1c-0.4-1.4-1.4-2.5-2.8-3.1
					c-5.5-2.4-10.3-4.9-14.5-7.8c5.4-3.9,10.9-7.9,17.6-13c1.1-0.8,1.8-2.1,1.9-3.4c0.1-1.4-0.3-2.7-1.2-3.7l-13.6-15.4
					c-1-1.1-2.3-1.7-3.7-1.7c-1.2,0-2.3,0.4-3.2,1.2c-1.4,1.2-2.7,2.4-4.1,3.5l2.9-5.3c0.6-1.1,0.8-2.4,0.4-3.6h18.1
					c2.5,0,4.7-1.9,4.9-4.5l1.6-17.8c0-0.2,0.1-0.5,0.1-0.7c0-2.7-2.2-4.9-4.9-4.9l0,0h-2.2l0,0l1.3-15.1c0-0.2,0.1-0.5,0.1-0.7
					s0-0.3,0-0.5c2.4-0.1,4.4-2,4.7-4.5l1.5-17.6c0-0.2,0.1-0.5,0.1-0.7c0-2.7-2.2-4.9-4.9-4.9l0,0h-7.7c0.6-0.7,1.2-1.4,1.8-2.2
					c1.1-1.3,1.4-3.1,0.9-4.7c-0.5-1.6-1.9-2.8-3.5-3.2l-21.7-5.2C1250,184.5,1249.6,184.5,1249.2,184.5L1249.2,184.5z M1168,194.9
					L1168,194.9L1168,194.9L1168,194.9z M1167.8,247.8h2.9c-0.1,0.2-0.1,0.5-0.1,0.7l-0.8,9.2c-0.1-0.1-0.2-0.2-0.3-0.2l-2.4-2.1
					L1167.8,247.8L1167.8,247.8z M1185.5,272h17.1c0,0.1,0,0.2-0.1,0.2h-17C1185.5,272.1,1185.5,272,1185.5,272L1185.5,272z
					 M1173.3,293.4l5.1-7.7l-0.7,7.7H1173.3L1173.3,293.4z M1243.6,291.5c-0.2-0.4-0.5-0.9-0.7-1.3c0.6,0.2,1.1,0.4,1.7,0.6
					C1244.3,291,1243.9,291.3,1243.6,291.5L1243.6,291.5z M1161.1,324.7l0.6-6.6c0.1,0.1,0.2,0.2,0.3,0.3c0.9,1,2.2,1.6,3.6,1.6h4.6
					C1167.7,321.5,1164.8,323,1161.1,324.7L1161.1,324.7z"/>
			</g>
			<g>
				<path class="st1" d="M1298.8,227.5c-1.4-6.5-3.4-13.4-5.5-20.1c18.7-4.9,33.6-10.1,52.9-18.1l8.1,18.1
					C1333.7,215.7,1319.1,220.9,1298.8,227.5z M1318.5,264.4c-0.7-1.3-1.4-2.9-2.1-4.4c-6.3,2.7-13.1,5.5-20.9,8.9
					c-1.5-6.4-3.4-12.8-5.8-20.3c4.5-1.3,8.8-2.7,12.8-4c-1.9-3.4-3.8-6.9-5.9-10.7l17.3-7.9c2.3,3.9,4.5,7.9,6.6,11.4
					c2.1-0.8,4-1.7,5.9-2.5c-2-3.5-4.2-7.2-6.6-11.1l17-8.1c2.2,3.5,4.3,6.7,6.3,10.1c2.7-1.5,5.1-3.2,7.8-4.9l6,11.9l2.3-26.7h23.5
					c1.5-5.2,2.8-10.4,4.1-15.9l27,1.7c-1.7,4.2-3.5,9.2-5.6,14.3h35.7l-7.5,85.4h-17.6l-2.6,29.4c-0.3,3.7,0.4,5,2.6,5
					s3.1-0.8,4.1-4.9c1.3-5.5,2.2-11.7,3.7-20.6c7.1,3,12,5,18.5,7.4c-1.3,7.7-3.6,18-5.5,24.8c-2.9,10.2-9.1,15.3-22,15.3h-8.1
					c-13.8,0-18.5-5.7-17.2-20l3.2-36.4h-7.2c-0.5,3.9-1,7.2-1.5,10.9c-3.4,21.3-11.7,33.6-35.8,50.2c-3.4-5.2-6.7-10.2-10.7-15.8
					c-4.6,8.7-12.1,12.2-23.8,12.8c-7.1,0.3-15,0.3-19.5,0.3c-0.5-5.9-1.1-12.4-2.3-19.6c-1.6,0.5-3,1.2-4.5,2
					c-1.2-6-3.2-13.3-5.5-21c15.6-6,27.5-12.8,39.5-22.3c-0.3-2.4-0.4-4.7-0.7-7c-10.6,7.7-18.7,12.4-31.2,18.6
					c-1.3-6.4-3-13.3-4.9-20.3C1299.2,275.9,1308.2,271.4,1318.5,264.4z M1323.5,316.2l0.3-3.5c-7.9,6-16.1,10.9-25.7,15.9
					c4.9,0.2,8.7,0.2,12.8,0C1318.8,328.3,1322.8,324.6,1323.5,316.2z M1356.2,240.4c-6.5,3.5-12.7,6.7-19.2,9.9
					c10.1,19.1,11,35.2,8.3,65.8c-0.4,4.7-1.1,8.6-1.9,12.1c13.4-9.7,18.5-17.4,20.3-26.8c0.6-3.2,1-6.2,1.4-9.7h-13.4L1356.2,240.4
					z M1379.5,239h38.4l1-10.9h-38.4L1379.5,239z M1416.2,258.7h-38.4l-1,11.1h38.4L1416.2,258.7z"/>
				<path d="M1346.2,189.2l8.1,18.1c-20.7,8.4-35.3,13.6-55.6,20.1c-1.4-6.5-3.4-13.4-5.5-20.1
					C1312,202.5,1326.9,197.2,1346.2,189.2 M1386.7,190.2l27,1.7c-1.7,4.2-3.5,9.2-5.6,14.3h35.7l-7.5,85.4h-17.6l-2.6,29.4
					c-0.3,3.7,0.4,5,2.6,5s3.1-0.8,4.1-4.9c1.3-5.5,2.2-11.7,3.7-20.6c7.1,3,12,5,18.5,7.4c-1.3,7.7-3.6,18-5.5,24.8
					c-2.9,10.2-9.1,15.3-22,15.3h-8.1c-13.8,0-18.5-5.7-17.2-20l3.2-36.4h-7.2c-0.5,3.9-1,7.2-1.5,10.9
					c-3.4,21.3-11.7,33.6-35.8,50.2c-3.4-5.2-6.7-10.2-10.7-15.8c-4.6,8.7-12.1,12.2-23.8,12.8c-7.1,0.3-15,0.3-19.5,0.3
					c-0.5-5.9-1.1-12.4-2.3-19.6c-1.6,0.5-3,1.2-4.5,2c-1.2-6-3.2-13.3-5.5-21c15.6-6,27.5-12.8,39.5-22.3c-0.3-2.4-0.4-4.7-0.7-7
					c-10.6,7.7-18.7,12.4-31.2,18.6c-1.3-6.4-3-13.3-4.9-20.3c11.8-4.4,20.7-8.9,31.1-15.9c-0.7-1.3-1.4-2.9-2.1-4.4
					c-6.3,2.7-13.1,5.5-20.9,8.9c-1.5-6.4-3.4-12.8-5.8-20.3c4.5-1.3,8.8-2.7,12.8-4c-1.9-3.4-3.8-6.9-5.9-10.7l17.3-7.9
					c2.3,3.9,4.5,7.9,6.6,11.4c2.1-0.8,4-1.7,5.9-2.5c-2-3.5-4.2-7.2-6.6-11.1l17-8.1c2.2,3.5,4.3,6.7,6.3,10.1
					c2.7-1.5,5.1-3.2,7.8-4.9l6,11.9l2.3-26.7h23.5C1384.1,200.9,1385.4,195.7,1386.7,190.2 M1418.8,228.1h-38.4l-1,10.9h38.4
					L1418.8,228.1 M1356.2,240.4c-6.5,3.5-12.7,6.7-19.2,9.9c10.1,19.1,11,35.2,8.3,65.8c-0.4,4.7-1.1,8.6-1.9,12.1
					c13.4-9.7,18.5-17.4,20.3-26.8c0.6-3.2,1-6.2,1.4-9.7h-13.4L1356.2,240.4 M1416.2,258.7h-38.4l-1,11.1h38.4L1416.2,258.7
					 M1323.8,312.7c-7.9,6-16.1,10.9-25.7,15.9c2.4,0.1,4.6,0.1,6.7,0.1s4.1,0,6.1-0.1c7.9-0.3,11.9-4,12.7-12.4L1323.8,312.7
					 M1443.9,206.1L1443.9,206.1 M1346.2,184.3c-0.6,0-1.3,0.1-1.9,0.4c-19.8,8.2-34.4,13.3-52.3,17.9c-1.3,0.3-2.4,1.2-3.1,2.4
					s-0.8,2.6-0.4,3.8c2.3,7.2,4.1,13.9,5.3,19.7c0.1,0.3,0.2,0.6,0.3,1c-1.2,0.6-2,1.6-2.4,2.8c-0.4,1.3-0.3,2.7,0.4,3.9
					c1.1,1.9,2.1,3.7,3,5.5c-2.1,0.7-4.4,1.4-7,2.2c-1.3,0.4-2.3,1.2-2.9,2.4s-0.7,2.5-0.4,3.8c2.4,7.8,4.3,13.9,5.7,19.9
					c0.3,1.2,1,2.3,2,3c-2.2,0.9-4.5,1.8-7,2.8c-2.4,0.9-3.7,3.4-3,5.9c1.5,5.7,3.5,13.1,4.9,20c0.2,1.1,0.8,2,1.5,2.7
					c-2,0.8-4,1.7-6.1,2.5c-2.4,0.9-3.7,3.5-2.9,6c2,6.7,4.3,14.3,5.4,20.5c0.3,1.5,1.3,2.8,2.7,3.5c0.7,0.3,1.4,0.5,2.1,0.5
					c0.2,0,0.4,0,0.6,0c0.6,4.7,1,9,1.4,13.2c0.2,2.5,2.3,4.5,4.9,4.5c4.7,0,12.5,0,19.7-0.3c10.7-0.5,18.2-3.3,23.5-9.1
					c1.9,2.8,3.8,5.6,5.7,8.5l0.9,1.4c0.7,1.1,1.9,1.9,3.2,2.1c0.3,0.1,0.6,0.1,0.9,0.1c1,0,2-0.3,2.8-0.9
					c19.2-13.3,29.3-24.4,34.5-39.6l-0.9,10.4c-0.8,9,0.6,15.1,4.5,19.4c3.7,4.1,9.3,6,17.6,6h8.1c14.6,0,23-6,26.7-18.8
					c1.9-6.7,4.2-17.1,5.6-25.3c0.4-2.3-0.9-4.7-3.2-5.5c-6.2-2.2-10.9-4.2-17-6.7h6.6c2.5,0,4.7-1.9,4.9-4.5l7.4-85.1
					c0-0.2,0.1-0.5,0.1-0.7c0-2.7-2.2-4.9-4.9-4.9l0,0h-28.5c0.2-0.6,0.5-1.2,0.7-1.9c0.8-2,1.5-3.9,2.2-5.6
					c0.6-1.5,0.5-3.1-0.4-4.5c-0.8-1.3-2.3-2.2-3.9-2.3l-27-1.7c-0.1,0-0.2,0-0.3,0c-2.3,0-4.2,1.5-4.8,3.8
					c-0.9,3.7-1.9,7.8-3.1,12.2h-19.7c-0.7,0-1.4,0.1-2,0.4l-6.5-14.5C1349.9,185.4,1348.1,184.3,1346.2,184.3L1346.2,184.3z
					 M1343.3,217c3.3-1.3,6.8-2.6,10.3-4.1l-0.3,3.8c-0.4-0.2-0.8-0.4-1.2-0.5c-0.4-0.1-0.9-0.2-1.3-0.2c-0.9,0-1.8,0.3-2.6,0.8
					c-0.8,0.5-1.6,1-2.3,1.5c-0.4,0.3-0.9,0.6-1.3,0.8c-0.4-0.6-0.8-1.3-1.2-1.9C1343.4,217.1,1343.3,217,1343.3,217L1343.3,217z
					 M1384.9,233h28.6l-0.1,1.1h-28.6L1384.9,233L1384.9,233z M1343.6,252.5c2.3-1.2,4.6-2.3,6.9-3.5l-1.6,18.5
					C1347.6,262.4,1345.9,257.5,1343.6,252.5L1343.6,252.5z M1382.2,263.6h28.6l-0.1,1.3h-28.6L1382.2,263.6L1382.2,263.6z
					 M1350.3,316c0.6-7.1,1-13.6,1.2-19.5c0.1,0,0.1,0,0.2,0h7.9c-0.2,1.3-0.4,2.6-0.7,3.9C1358,305.4,1355.9,310.3,1350.3,316
					L1350.3,316z M1423.3,296.5h0.4c-0.2,0.1-0.3,0.2-0.4,0.4V296.5L1423.3,296.5z"/>
			</g>
		</g>
	</g>
</g>
</svg>
