<?xml version="1.0" encoding="utf-8"?>
<!-- Generator: Adobe Illustrator 28.3.0, SVG Export Plug-In . SVG Version: 6.00 Build 0)  -->
<svg version="1.1" id="_圖層_2" xmlns="http://www.w3.org/2000/svg" xmlns:xlink="http://www.w3.org/1999/xlink" x="0px" y="0px"
	 viewBox="0 0 300 390" style="enable-background:new 0 0 300 390;" xml:space="preserve">
<style type="text/css">
	.st0{fill-rule:evenodd;clip-rule:evenodd;fill:#FCDDD6;}
	.st1{fill-rule:evenodd;clip-rule:evenodd;fill:#382B26;}
	.st2{fill-rule:evenodd;clip-rule:evenodd;fill:#EFF2F4;}
	.st3{fill-rule:evenodd;clip-rule:evenodd;fill:#FF2B85;}
	.st4{fill:#FF2B85;}
	.st5{fill:#FFFFFF;}
</style>
<g id="Layer_1">
	<path class="st0" d="M226.8,231.1l31,19.8l23,9.7l11.7-1.5c0,0,4.9-2.7,6-13.8c1.1-11.1-16.8-44.9-16.8-44.9s-33.5-46.8-33-47.9
		c0.5-1.1-19.1-29.5-19.1-29.5s-8-24.9-8-25.1s2.2-15,2.2-15h-5.5l-4.9,7.3l-1.7,6.1l-9.9,2.3l-8.6,2.9l0.1,12.7l2.4,12.1l2.8,4
		l12.2,2.2l4.3,10.8l27.3,43.1l5.7,19.6l-6.2,4.7l-10.6,9.5L226.8,231.1L226.8,231.1z"/>
	<path class="st0" d="M18.9,135l-2.2,1.9l1.1,8.1v3.3l-7.1,4.9l-5.5,5.3l-1.1,8.9l1,13.4l3,9.3l2.8,3.8l1.6,3.9l1.9,24.5l-2.9,24.7
		l-5.3,43.4l6.8,33.9c0,0,8.1,9.7,14.6,7.8c6.6-1.8,16.2-15.5,16.2-15.5l0.9-31.3L31.9,210l6.7-32.7l-3.4-18.8
		c0,0-5.3-12.2-5.3-12.7c0-0.6-8.1-11.6-8.1-11.6L18.9,135L18.9,135z"/>
	<path class="st1" d="M139,100.1l-6.8,7.3l-4.3,12l2.2,10.6l0.8,2.7l-1.4,5.9l1.9,1.7c0,0,7.9-4.8,8.2-4.8c0.3,0,10.3-2.1,10.3-2.1
		s-2.4-11.3-3.1-13.2s-5.3-16.7-5.3-16.7l1.5-2.4L139,100.1L139,100.1z"/>
	<path class="st1" d="M74.1,34.2c0,0,21.9-40.3,61.4-27.2s35.5,41.5,35.5,41.5l-4.1,26.9l-10,1.8l-8.6-4.6l-5.7-8.3l-4.6-20.5
		l-3.2-6.8l-5.2-5.8l-4.6-5.3l-1.1-4l-11.5,0.3l-21,7.9l-12.4,9.8l-5.6,5.9L74.1,34.2L74.1,34.2z"/>
	<path class="st2" d="M38.6,249.9l7.7,59.8l5.8,24.8l3.6,38l4.1,10.4l12.1,1.6c0,0,75.6-14.6,76.2-14.6c0.6,0,47.5-7.5,47.5-7.5
		l18.5-7.8l-9.5-30.9l-9.7-52.7c0,0,3.1-19.7,3.4-20c0.3-0.3,2.7-15.4,2.7-15.4l0.8-5.7c0,0-10.6-4.2-16.5-5.6
		c-5.9-1.4-21.2-7.4-21.2-7.4l-36.8,1.7l-62.2,19.6L38.6,249.9L38.6,249.9z"/>
	<path class="st0" d="M123,21c0,0-29.3-7.5-48.5,24.7s3.1,70.3,3.1,70.3l2.8,2l1.1,4.7l-9.1,27.4l-1.7,3l-6.7,3.1l20.4,3.9l19.1-3.5
		l23.4-12.9l5.4-10.7l-4-15.1l6.8-12.6l4.8-4.5l8.7-1.8l12.9-12.8l-0.9-9.7l-5,0.1l-9.3-5.7L139,45.7l-12-20.3L123,21L123,21z"/>
	<path class="st3" d="M6.1,190.1v45.5l5.3,8.2c0,0,4.1-29.4,3.7-30.6c-0.4-1.2-1.2-12.8-1.2-12.8l-4.1-10.2H6.1L6.1,190.1z"/>
	<path class="st3" d="M38.6,163.4c0.9-0.3,25.4-7.1,25.4-7.1l20.5,3.5l16.8-1.3l28.1-17.5l10.1-5.8h43.3l26.4,19.9l30,27.5l8.3,20.8
		l1.1,4c0,0-12.6,0.5-28.3,36.2l-3.2,1.7l-6.3-5.7L203,232c0,0-6.2-4.4-17.3-7.7c-11.1-3.3-22.2-7.5-22.2-7.5h-32.2l-36.6,11.9
		l-46.4,17l-9.9,4.1l-4.9-28.4c0,0,0.2-22.6,0.7-23.9s3.8-19,3.8-19L38.6,163.4L38.6,163.4z"/>
	<path class="st4" d="M72.9,49.4c-0.5,0-1-0.1-1.4-0.4c-1.1-0.8-1.3-2.2-0.6-3.3c22.9-32.3,50.5-26.7,51.6-26.5
		c1.3,0.3,2.1,1.5,1.8,2.8c-0.3,1.3-1.5,2.1-2.8,1.8c-1.1-0.2-25.8-5-46.8,24.6C74.4,49.1,73.7,49.4,72.9,49.4L72.9,49.4z"/>
	<path class="st4" d="M72.9,38.2c-0.3,0-0.6-0.1-0.9-0.2c-1.2-0.5-1.8-1.9-1.3-3.1c0.2-0.4,17-39.8,63.9-29.7
		c1.3,0.3,2.1,1.5,1.8,2.8s-1.5,2.1-2.8,1.8c-43-9.3-57.9,25.4-58.6,26.8C74.7,37.6,73.9,38.1,72.9,38.2L72.9,38.2z"/>
	<path class="st4" d="M128,19.9c-0.6,0-1.2-0.2-1.6-0.6c-0.9-0.9-1-2.4-0.1-3.3l3-3.1c0.9-0.9,2.4-1,3.3-0.1c0.9,0.9,1,2.4,0.1,3.3
		l-3,3.1C129.2,19.7,128.6,19.9,128,19.9L128,19.9z"/>
	<path class="st4" d="M169.2,50.5c-1.3,0-2.4-1-2.4-2.3c-0.3-29.7-25.5-35.2-26.5-35.4c-1.3-0.3-2.1-1.5-1.8-2.8s1.5-2.1,2.8-1.8
		c0.3,0.1,30,6.4,30.3,40C171.5,49.5,170.5,50.5,169.2,50.5L169.2,50.5L169.2,50.5z"/>
	<path class="st4" d="M153.1,79.9c-0.3,0-0.7-0.1-1-0.2c-0.6-0.3-13.9-6.8-14.6-24.1c-0.6-14.8-13-26.3-13.1-26.4
		c-1-0.9-1-2.4-0.2-3.3c0.9-1,2.4-1,3.3-0.2c0.6,0.5,14,12.8,14.7,29.7c0.6,14.3,11.4,19.8,11.9,20c1.2,0.6,1.7,2,1.1,3.2
		C154.9,79.4,154,79.9,153.1,79.9L153.1,79.9z"/>
	<path class="st4" d="M161.9,84.6c-0.3,0-0.6-0.1-1-0.2c-1.2-0.5-1.7-1.9-1.2-3.1c6.4-14.2,6.4-25.1,6.4-25.2c0-1.3,1-2.4,2.3-2.4
		c1.3-0.1,2.4,1,2.4,2.3c0,0.5,0.1,12-6.8,27.3C163.7,84.1,162.8,84.6,161.9,84.6L161.9,84.6z"/>
	<path class="st4" d="M141.7,104c-1.2,0-2.5-0.3-3.9-1c-1.2-0.6-1.6-2-1-3.2s2-1.6,3.2-1c2.8,1.5,5.6-0.9,9.8-4.9
		c1.5-1.4,3-2.8,4.6-4c3.3-2.5,5.1-7.4,4.3-10c-0.3-0.9-0.7-1-1.1-1.1c-3.5-0.3-7,3.4-8.1,4.9c-0.8,1.1-2.2,1.3-3.3,0.5
		c-1.1-0.8-1.3-2.2-0.5-3.3c0.2-0.3,5.4-7.5,12.4-6.8c2.6,0.3,4.5,1.9,5.2,4.5c1.3,4.7-1.5,11.6-6,15.1c-1.4,1.1-2.9,2.4-4.2,3.7
		C149.7,100.5,146,104,141.7,104z"/>
	<path class="st4" d="M131,135.1c-0.8,0-1.6-0.4-2-1.1c-9.9-15.6,3.4-29.4,3.5-29.6c0.9-0.9,2.4-0.9,3.3,0c0.9,0.9,0.9,2.4,0,3.3
		c-0.5,0.5-10.7,11.3-2.9,23.7c0.7,1.1,0.4,2.6-0.7,3.3C131.9,135,131.4,135.1,131,135.1z"/>
	<path class="st4" d="M87.4,121.2c-1.9,0-3.8-0.1-5.5-0.3c-13.4-1.8-15.2-19.1-16.8-34.4c-0.3-2.5-0.5-5.1-0.9-7.5
		c-2.3-17.7,6.6-27.7,7-28.1c0.9-1,2.4-1,3.3-0.2c1,0.9,1,2.4,0.2,3.3c-0.3,0.4-7.8,8.9-5.8,24.3c0.3,2.5,0.6,5.1,0.9,7.7
		c1.5,14.2,3.1,28.9,12.8,30.2c13.2,1.8,32.5-4.4,37.8-10.5c0.9-1,2.4-1.1,3.3-0.2c1,0.9,1.1,2.4,0.2,3.3
		C117.9,115.7,100.9,121.3,87.4,121.2L87.4,121.2z"/>
	<path class="st4" d="M70.2,155c-0.8,0-1.5-0.3-1.9-1c-0.8-1.1-0.5-2.5,0.6-3.3c7.9-5.6,10-25.2,10.1-32.4c0-1.3,1.1-2.3,2.4-2.3
		c1.3,0,2.3,1.1,2.3,2.4c0,1.1-0.7,28.1-12.1,36.1C71.2,154.8,70.7,155,70.2,155L70.2,155z"/>
	<path class="st4" d="M92.4,52.1c-1,0-2-0.7-2.3-1.7c-1.2-4-6-5.4-6-5.4c-1.2-0.4-2-1.7-1.6-2.9c0.4-1.2,1.7-2,2.9-1.6
		c0.3,0.1,7.4,2.1,9.3,8.7c0.4,1.2-0.3,2.6-1.6,2.9C92.8,52,92.6,52.1,92.4,52.1z"/>
	<path class="st4" d="M129,63.5c-0.8,0-1.5-0.3-1.9-1c-7.1-10-20.4-7-21-6.8c-1.3,0.3-2.5-0.5-2.9-1.7c-0.3-1.3,0.5-2.5,1.7-2.9
		c0.7-0.2,17-4,25.9,8.7c0.8,1.1,0.5,2.5-0.6,3.3C129.9,63.4,129.4,63.5,129,63.5z"/>
	<path class="st4" d="M86.9,59.3c-0.9,0-1.7-0.5-2.1-1.3c-1.8-3.5-5.8-3-6-3c-1.3,0.2-2.5-0.7-2.7-2c-0.2-1.3,0.7-2.5,2-2.7
		c0.3-0.1,7.4-1,10.8,5.4c0.6,1.2,0.2,2.6-1,3.2C87.7,59.2,87.3,59.3,86.9,59.3z"/>
	<path class="st4" d="M120,69.2c-0.5,0-1.1-0.2-1.5-0.6c-6.3-5.3-12.9-3.4-13.2-3.3c-1.2,0.4-2.6-0.3-3-1.6c-0.4-1.2,0.3-2.6,1.5-3
		c0.4-0.1,9.4-2.9,17.7,4.2c1,0.9,1.1,2.3,0.3,3.3C121.3,68.9,120.6,69.2,120,69.2L120,69.2z"/>
	<path class="st4" d="M91.4,82.8c-0.1,0-0.3,0-0.4,0c-11.3-1.8-11.6-4-11.7-5.2c-0.1-0.9,0.1-2.4,2.5-3.3c2.8-1.1,6.6-7.3,8.4-11
		c0.6-1.2,2-1.7,3.1-1.1c1.2,0.5,1.7,2,1.1,3.1c-0.4,1-3.9,8.1-8.3,11.8c1.6,0.4,3.6,0.9,5.5,1.2c1.3,0.2,2.2,1.4,2,2.7
		C93.6,82,92.5,82.8,91.4,82.8L91.4,82.8z"/>
	<path class="st4" d="M90.7,96.2c-8.8,0-12.5-4.3-12.7-4.5c-0.9-1-0.7-2.5,0.3-3.3c1-0.8,2.5-0.7,3.3,0.2c0.2,0.2,3,3.1,10.1,2.8
		c1.3-0.1,2.4,1,2.5,2.3c0.1,1.3-1,2.4-2.3,2.5C91.5,96.2,91.1,96.2,90.7,96.2L90.7,96.2z"/>
	<path class="st4" d="M86.3,163.3c-7.1,0-11.2-1.9-11.6-2.1c-1.2-0.6-1.7-2-1.1-3.2c0.6-1.2,2-1.7,3.1-1.1c0.9,0.4,21,9.2,50.6-18.3
		c1-0.9,2.5-0.8,3.3,0.1c0.9,1,0.8,2.5-0.1,3.3C111.8,159.5,96.2,163.3,86.3,163.3L86.3,163.3z"/>
	<path class="st4" d="M236.3,185.2c-0.7,0-1.3-0.3-1.8-0.8c-16.7-18.9-46.8-48.3-56.9-46.6c-15.3,2.6-36.6,0.1-37.5,0
		c-1.3-0.2-2.2-1.3-2.1-2.6c0.2-1.3,1.3-2.2,2.6-2.1c0.2,0,21.5,2.5,36.1,0c16-2.7,56.6,42.9,61.2,48.2c0.9,1,0.8,2.5-0.2,3.3
		C237.3,185,236.8,185.2,236.3,185.2L236.3,185.2z"/>
	<path class="st4" d="M149.3,138.6c-0.2,0-0.4,0-0.7-0.1c-1.2-0.4-2-1.7-1.6-2.9c1.8-6.2-0.3-9.3-3.3-13.6c-1-1.4-2-2.9-2.9-4.5
		c-4.3-7.7-0.3-16.7-0.1-17.1c0.5-1.2,2-1.7,3.1-1.2c1.2,0.5,1.7,1.9,1.2,3.1c-0.1,0.1-3.2,7.2-0.1,12.8c0.8,1.5,1.8,2.8,2.7,4.2
		c3.1,4.6,6.4,9.3,3.9,17.6C151.3,137.9,150.4,138.6,149.3,138.6L149.3,138.6z"/>
	<path class="st4" d="M65.4,386.5c-2.7,0-4.6-0.3-5.9-1c-6-3.4-6.1-5.1-7.1-21.8c-0.1-2.3-0.3-4.9-0.5-7.8
		c-1.4-23.4-9.5-46-9.6-46.2c-0.4-1.2,0.2-2.6,1.4-3c1.2-0.4,2.6,0.2,3,1.4c0.3,0.9,8.4,23.4,9.9,47.6c0.2,3,0.3,5.6,0.5,7.8
		c0.6,10.5,2.1,16.5,4.7,17.9c3.4,1.9,24.5-2.3,41.5-5.6c7.1-1.4,14.5-2.9,21.5-4.1c6.9-1.2,15.9-2.4,25.3-3.6
		c13.9-1.8,29.7-3.8,41.6-6.4c17.3-3.9,18.6-7.5,18.6-8.6c0-3.5-2.6-11.6-5.6-21c-7.1-22.4-17.9-56.3-9.8-77.5
		c10.7-28.1-5.1-60.2-5.2-60.6c-0.6-1.2-0.1-2.6,1.1-3.2c1.2-0.6,2.6-0.1,3.2,1.1c0.7,1.4,16.9,34.3,5.4,64.4
		c-7.5,19.6,3,52.6,9.9,74.4c3.4,10.6,5.8,18.2,5.8,22.5c0,10.8-25.5,14.8-64.3,19.7c-9.4,1.2-18.3,2.3-25.1,3.5
		c-7,1.2-14.3,2.7-21.5,4.1C85.6,384,72.7,386.5,65.4,386.5L65.4,386.5z"/>
	<path class="st4" d="M216.8,248.7c-0.6,0-1.2-0.1-1.9-0.4c-8-3.2-15.6-21.6-16.4-23.7c-0.5-1.2,0.1-2.6,1.3-3.1
		c1.2-0.5,2.6,0.1,3.1,1.3c2.9,7.2,9.2,19.2,13.8,21c1.1-0.4,3.3-5.3,4.9-9c4.2-9.6,10.5-24.1,24.2-29.1c1.2-0.4,2.6,0.2,3,1.4
		c0.4,1.2-0.2,2.6-1.4,3c-11.8,4.3-17.4,17.1-21.5,26.5C223,243.3,220.7,248.7,216.8,248.7L216.8,248.7z"/>
	<path class="st4" d="M221.5,246.8c-0.8,0-1.6-0.1-2.4-0.2c-1.3-0.2-2.2-1.4-1.9-2.7c0.2-1.3,1.4-2.2,2.7-1.9
		c6.6,1.1,14.2-4.8,14.2-4.8c1-0.8,2.5-0.6,3.3,0.4c0.8,1,0.6,2.5-0.4,3.3C236.6,241.2,229.3,246.9,221.5,246.8L221.5,246.8z"/>
	<path class="st4" d="M283.3,263.4c-10.4,0-23-8-29-12.3c-8.7-6.2-29.4-18.2-29.7-18.3c-1.1-0.6-1.5-2.1-0.9-3.2
		c0.6-1.1,2.1-1.5,3.2-0.9c0.9,0.5,21.1,12.2,30,18.6c11.4,8.1,25.9,14.9,32.5,9.4c1-0.8,2.5-0.7,3.3,0.3c0.8,1,0.7,2.5-0.3,3.3
		C290,262.5,286.8,263.4,283.3,263.4z"/>
	<path class="st4" d="M296.8,253.2c-0.3,0-0.5-0.1-0.8-0.2c-1.2-0.4-1.9-1.8-1.4-3c2.5-6.8-2.1-17.9-6.2-27.7
		c-1.6-3.8-3.1-7.4-4.3-10.8c-4-12-41.6-65.1-50.3-73.6c-7.2-7-9.9-17.4-12.6-27.5c-0.7-2.7-1.4-5.5-2.3-8.2
		c-2.3-7.6,0.2-13.2,1.7-16.6c0.1-0.3,0.3-0.7,0.5-1.1c0,0,0,0,0,0c-4,0-6.7,8.8-7.4,13.1c-0.2,1.3-1.4,2.2-2.7,2
		c-1.3-0.2-2.2-1.4-2-2.7c0.3-1.8,2.9-17.1,12-17.1c0.1,0,0.1,0,0.2,0c0.9,0,3.3,0.1,4.4,1.9c1.1,1.8,0.3,3.7-0.7,5.9
		c-1.4,3.1-3.3,7.3-1.5,13.3c0.8,2.8,1.6,5.6,2.3,8.3c2.6,9.9,5.1,19.2,11.3,25.3c8,7.8,46.8,61.8,51.4,75.4
		c1.1,3.3,2.6,6.8,4.1,10.6c4.6,11.1,9.4,22.6,6.2,31.1C298.6,252.6,297.7,253.2,296.8,253.2L296.8,253.2z"/>
	<path class="st4" d="M192.7,108.5c-1.1,0-2.1-0.8-2.3-1.9c-0.6-3.1,0.6-5.1,1.6-6.2c4.1-4.4,14.1-3.3,15.2-3.1
		c1.3,0.2,2.2,1.3,2,2.6c-0.2,1.3-1.3,2.2-2.6,2c-3.6-0.4-9.4-0.2-11.2,1.7c-0.3,0.3-0.7,0.9-0.4,2.1c0.2,1.3-0.6,2.5-1.9,2.8
		C193,108.5,192.8,108.5,192.7,108.5L192.7,108.5z"/>
	<path class="st4" d="M192.6,114.2C192.6,114.2,192.5,114.2,192.6,114.2c-1.4,0-2.4-1.1-2.4-2.4c0.1-2.1,1-3.9,2.6-5.3
		c5-4.2,16-2.8,17.2-2.6c1.3,0.2,2.2,1.4,2,2.7s-1.4,2.2-2.7,2c-3.9-0.5-10.9-0.6-13.5,1.6c-0.6,0.5-0.9,1-0.9,1.8
		C194.9,113.2,193.9,114.2,192.6,114.2L192.6,114.2z"/>
	<path class="st4" d="M196.6,126.3L196.6,126.3c-2.7,0-4.2-1.2-5-2.3c-2-2.5-1.5-6.1-1.3-6.9c0.2-1.8,1.1-3.4,2.6-4.5
		c5-3.7,16.1-1.2,17.4-0.9c1.3,0.3,2.1,1.6,1.8,2.8c-0.3,1.3-1.6,2.1-2.8,1.8c-4.2-1-11.1-1.6-13.5,0.2c-0.4,0.3-0.6,0.7-0.7,1.2
		c0,0.1,0,0.2,0,0.3c-0.2,0.9-0.2,2.5,0.4,3.2c0.1,0.1,0.4,0.5,1.4,0.5c1.3,0,2.4,1.1,2.3,2.4C199,125.3,197.9,126.3,196.6,126.3
		L196.6,126.3z"/>
	<path class="st4" d="M258.5,239.6c-0.5,0-1-0.2-1.4-0.5c-4.1-3-6.6-12-10.3-26.4c-1.5-5.6-3-11.5-4.6-16.6
		c-5.3-16.3-23-44.6-26.1-46.6c-2.6-1.5-3.9-5.1-5.4-8.8c-0.7-1.9-1.9-4.9-2.7-5.6c-2.9,0.2-9.6,0.4-13-3.1c-1.6-1.6-2.2-3.7-2-6.1
		c0.2-1.7,1-3.1,2.4-4.2c5.1-3.9,17.4-2,18.7-1.7c1.3,0.2,2.2,1.4,1.9,2.7c-0.2,1.3-1.4,2.2-2.7,1.9c-4.8-0.8-12.6-1-15.1,0.8
		c-0.5,0.3-0.5,0.6-0.6,0.9c-0.1,1.3,0.3,1.9,0.6,2.2c1.6,1.6,5.9,2,9.4,1.7c3.9-0.4,5.7,4.2,7.4,8.6c0.9,2.4,2.2,5.8,3.3,6.5
		c4.9,2.9,23.2,33.8,28.2,49.2c1.7,5.2,3.2,11.1,4.7,16.8c2.6,10.1,5.6,21.5,8.5,23.7c1.1,0.8,1.3,2.3,0.5,3.3
		C259.9,239.2,259.2,239.5,258.5,239.6L258.5,239.6z"/>
	<path class="st4" d="M25.9,334.5c-1.2,0-2.2-0.9-2.4-2.1c-0.2-1.3,0.8-2.5,2.1-2.6c10.5-1.3,18-17.7,16.6-30.2
		c-0.6-5.5-2.5-16.9-4.6-30c-3.2-19.6-6.9-41.9-7.8-53.8c-0.9-12.1,1.5-22.1,3.4-30.1c1.3-5.3,2.4-10,2.2-13.8
		c-0.3-6.6-1.9-9.6-4.3-14.2c-1.1-2.2-2.4-4.6-3.8-7.8c-4.8-11.2-7.1-12.9-9.7-12c-0.6,0.9,0.9,5.5,3.7,9.8c0.7,1.1,0.4,2.6-0.7,3.3
		s-2.6,0.4-3.3-0.7c-1.4-2.2-5.8-9.5-4.3-13.9c0.5-1.4,1.6-2.5,3.1-3c7.5-2.5,11.5,5.2,15.6,14.7c1.3,3,2.5,5.4,3.6,7.5
		c2.5,4.8,4.5,8.6,4.8,16.2c0.2,4.5-1,9.4-2.3,15.1c-1.9,8.1-4.1,17.3-3.3,28.7c0.9,11.7,4.5,33.8,7.7,53.4
		c2.2,13.2,4.1,24.6,4.7,30.3c1.6,15-7.2,33.7-20.8,35.4C26.1,334.4,26,334.4,25.9,334.5L25.9,334.5z"/>
	<path class="st4" d="M15.2,330.8c-0.6,0-1.2-0.2-1.7-0.7c-0.4-0.4-4.2-4.4-8.4-20.8c-4.4-17.2,1.5-52.9,4.3-70
		c3.1-18.6,0-39.1,0-39.3c-0.2-1.3,0.7-2.5,2-2.7c1.3-0.2,2.5,0.7,2.7,2c0.1,0.9,3.2,21.4,0,40.8c-2.8,16.8-8.5,51.8-4.4,68.1
		c3.8,14.9,7.1,18.6,7.1,18.6c0.9,0.9,1,2.4,0.1,3.3C16.4,330.6,15.8,330.8,15.2,330.8L15.2,330.8z"/>
	<path class="st4" d="M10.5,195.2c-1,0-1.9-0.6-2.2-1.5l0,0c0,0-1-2.3-5.1-7.2c-3.2-3.8-2.6-6.2-1.7-8.3c0.4-1,0.5-1.1-0.1-2
		c-2.2-3.4-1.3-6-0.6-8c0.5-1.3,0.8-2.4,0.5-3.9c-1.1-4.6,1.9-8.1,4.5-9.8c0.2-1,0.8-2.2,2-3.5c3.1-3.2,8.9-4.7,17.3-4.5
		c1.3,0,2.3,1.1,2.3,2.4c0,1.3-1.1,2.3-2.4,2.3c-11.8-0.3-14.5,3.2-14.6,4.6c0.2,1-0.4,1.7-1.3,2.2c0,0-3.9,2.1-3.2,5.1
		c0.7,2.9,0,5-0.6,6.6c-0.6,1.7-0.8,2.4,0.1,3.8c2,3,1.1,5.2,0.5,6.5c-0.4,1-0.6,1.5,1,3.4c4.7,5.6,5.8,8.3,5.9,8.6
		c0.5,1.2-0.2,2.6-1.4,3.1C11.1,195.2,10.8,195.2,10.5,195.2L10.5,195.2z"/>
	<path class="st4" d="M30,167.5c-0.3,0-0.6-0.1-0.9-0.2c-1.2-0.5-1.8-1.9-1.3-3.1c0,0,1.7-4.5-0.9-6.1c-2.8-1.7-8.2-0.4-9.9,0.2
		c-1.2,0.4-2.6-0.2-3-1.4c-0.4-1.2,0.2-2.6,1.4-3c0.9-0.3,8.7-3,13.9,0.2c4.8,2.9,4,9.1,2.8,11.9C31.8,166.9,30.9,167.5,30,167.5z"
		/>
	<path class="st4" d="M30,174.3c0,0-0.1,0-0.2,0c-1.3-0.1-2.3-1.2-2.2-2.5c0.1-1.9-0.6-2.8-1.1-3.3c-2.8-2.4-10-1.6-12.3-1.1
		c-1.3,0.3-2.5-0.5-2.8-1.8c-0.3-1.3,0.5-2.5,1.8-2.8c1.1-0.2,11.3-2.3,16.4,2.1c1.4,1.2,3,3.4,2.8,7.2
		C32.2,173.4,31.2,174.3,30,174.3L30,174.3z"/>
	<path class="st4" d="M24.1,187.9c-2.2,0-4.2-1.1-5.2-3c-0.6-1.2-0.2-2.6,1-3.2c1.2-0.6,2.6-0.2,3.2,1c0.2,0.4,0.8,0.6,1.4,0.4
		c1.3-0.3,2.8-1.8,3.1-5.3c0.1-0.8-0.2-1.2-0.5-1.4c-2.2-2-9.9-1.6-14.6-0.7c-1.3,0.3-2.5-0.6-2.8-1.9c-0.3-1.3,0.6-2.5,1.9-2.8
		c2.3-0.4,13.9-2.5,18.7,1.8c1.5,1.4,2.2,3.2,2.1,5.3c-0.5,6.1-3.9,9-6.8,9.6C25,187.9,24.5,187.9,24.1,187.9L24.1,187.9z"/>
	<path class="st4" d="M44.8,163.9c-1.1,0-2.1-0.8-2.3-1.9c-0.3-1.3,0.5-2.5,1.8-2.8c3.9-0.8,14.6-3.3,17.4-4.7
		c1.2-0.6,2.6-0.1,3.2,1.1c0.6,1.2,0.1,2.6-1.1,3.2c-3.8,1.9-17,4.8-18.5,5.1C45.1,163.9,44.9,163.9,44.8,163.9L44.8,163.9z"/>
	<path class="st4" d="M5.1,240.6c-1.2,0-2.3-1-2.4-2.2c-0.7-10.8,0.7-50.8,0.8-52.5c0.1-1.3,1.1-2.3,2.5-2.3
		c1.3,0.1,2.3,1.1,2.3,2.5c0,0.4-1.5,41.5-0.8,52c0.1,1.3-0.9,2.4-2.2,2.5C5.3,240.7,5.2,240.7,5.1,240.6L5.1,240.6z"/>
	<path class="st4" d="M42.2,250.9c-0.9,0-1.7-0.5-2.2-1.4c-0.5-1.2,0-2.6,1.1-3.1c1.1-0.5,28.2-13.1,41.1-17c1.3-0.4,3-1,5.2-1.7
		c19.9-6.8,72.9-24.9,102.2-2.3c1,0.8,1.2,2.3,0.4,3.3c-0.8,1-2.3,1.2-3.3,0.4c-27.3-21.1-78.5-3.6-97.8,3c-2.2,0.8-4,1.4-5.3,1.8
		c-12.6,3.9-40.2,16.7-40.5,16.8C42.9,250.8,42.5,250.9,42.2,250.9L42.2,250.9z"/>
	<path class="st5" d="M122.6,190.9c0.2,0,0.4,0,0.6-0.1c0.1,0.3,0.2,0.7,0.3,1c-0.2,0-0.5,0-0.7,0.1c-0.4,0.1-0.5,0.4-0.4,0.7
		c0.1,0.3,0.2,0.6,0.3,1c0.4-0.1,0.8-0.2,1.2-0.3c0.1,0.3,0.2,0.7,0.3,1c-0.4,0.1-0.8,0.2-1.2,0.3c0.4,1.5,0.8,2.9,1.2,4.4
		c-0.4,0.1-0.8,0.2-1.2,0.3c-0.4-1.5-0.8-2.9-1.2-4.4c-0.3,0.1-0.6,0.2-1,0.3c-0.1-0.3-0.2-0.7-0.3-1c0.3-0.1,0.6-0.2,1-0.3
		c-0.1-0.3-0.2-0.6-0.2-0.9C120.9,192.1,121.4,191.2,122.6,190.9L122.6,190.9z M130.7,194.6c0.4,1.7-0.7,3.1-2.3,3.5
		c-1.5,0.4-3.2-0.4-3.6-2.1c-0.4-1.7,0.7-3.2,2.3-3.6C128.6,192,130.3,192.9,130.7,194.6L130.7,194.6z M129.4,194.8
		c-0.2-1-1-1.7-2.2-1.4c-1.2,0.3-1.6,1.2-1.3,2.2c0.2,1,1,1.6,2.2,1.4C129.3,196.8,129.7,195.8,129.4,194.8z M137.1,193.3
		c0.3,1.7-0.9,3.1-2.4,3.4c-1.5,0.3-3.2-0.6-3.5-2.3c-0.4-1.7,0.8-3.2,2.4-3.5C135.2,190.6,136.8,191.6,137.1,193.3L137.1,193.3z
		 M135.9,193.5c-0.2-1-1-1.7-2.1-1.5c-1.2,0.2-1.6,1.2-1.4,2.2c0.2,1,1,1.7,2.1,1.5C135.6,195.4,136.1,194.5,135.9,193.5z
		 M141.5,187c0.4-0.1,0.8-0.1,1.3-0.2c0.4,2.7,0.8,5.4,1.2,8.2c-0.4,0.1-0.7,0.1-1.1,0.2c-0.1-0.2-0.1-0.3-0.2-0.5
		c0,0-0.1,0-0.1-0.1c0,0,0,0.1-0.1,0.1c-0.3,0.4-0.9,0.7-1.5,0.8c-1.6,0.2-3.1-0.7-3.4-2.4c-0.3-1.7,0.9-3.1,2.5-3.4
		c0.6-0.1,1.3,0,1.7,0.3c0,0,0.1,0,0.1,0.1c0,0,0-0.1,0.1-0.1C141.8,189.1,141.6,188.1,141.5,187z M142.4,192.4c-0.2-1-1-1.7-2-1.6
		c-1.2,0.2-1.7,1.1-1.5,2.1c0.2,1,0.9,1.7,2.1,1.5C141.9,194.4,142.5,193.4,142.4,192.4z M150.6,191.4c0.2,1.7-1,3-2.6,3.2
		c-0.6,0.1-1.2-0.1-1.6-0.4c0,0-0.1,0-0.1-0.1c0,0-0.1,0.1-0.1,0.1c0.1,1,0.3,2,0.4,3c-0.4,0.1-0.8,0.1-1.2,0.2
		c-0.4-2.7-0.7-5.4-1.1-8c0.4-0.1,0.8-0.1,1.1-0.2c0.1,0.2,0.1,0.3,0.2,0.5c0,0,0.1,0,0.1,0.1c0,0,0-0.1,0.1-0.1
		c0.3-0.4,0.9-0.7,1.5-0.8C148.9,188.6,150.4,189.7,150.6,191.4L150.6,191.4z M149.4,191.5c-0.1-1-0.8-1.8-2-1.6
		c-1.1,0.1-1.7,1-1.6,2c0.1,1,1,1.7,2,1.6C148.9,193.4,149.5,192.5,149.4,191.5L149.4,191.5z M155.8,190.3c0.1,1.2,0.2,2.3,0.2,3.5
		c-0.3,0-0.7,0.1-1,0.1c-0.1-0.2-0.1-0.5-0.2-0.7c-0.4,0.6-0.9,0.9-1.7,1c-1,0.1-1.8-0.4-1.9-1.6c-0.1-1.1,0.8-1.9,2.4-2.1
		c0.3,0,0.7-0.1,1-0.1c0-0.1,0-0.2,0-0.2c-0.1-0.7-0.5-1-1.2-0.9c-0.5,0.1-0.9,0.3-1,0.8c-0.4,0-0.8-0.1-1.1-0.1
		c0.2-1,1-1.7,2.1-1.7C154.9,188.1,155.8,188.8,155.8,190.3z M154.7,191.3c-0.4,0-0.7,0.1-1.1,0.1c-0.7,0.1-1.2,0.4-1.1,1
		c0,0.4,0.3,0.7,0.8,0.6c0.4,0,0.8-0.2,1-0.5c0.3-0.3,0.4-0.6,0.4-1.1C154.7,191.4,154.7,191.4,154.7,191.3z M159.6,187.8
		c-0.5,0-1.1,0.3-1.3,0.7c0,0,0,0-0.1,0.1c0,0-0.1,0-0.1-0.1c-0.1-0.2-0.1-0.3-0.2-0.5c-0.4,0-0.8,0-1.1,0.1
		c0.1,1.9,0.2,3.7,0.3,5.6c0.4,0,0.8-0.1,1.2-0.1c-0.1-1.1-0.1-2.3-0.2-3.4c0-0.7,0.6-1.3,1.3-1.3c0.8,0,1.2,0.4,1.3,1.1
		c0.1,1.1,0.1,2.3,0.1,3.5c0.4,0,0.8,0,1.2-0.1c0-1.1-0.1-2.3-0.1-3.5C162,188.7,161.1,187.8,159.6,187.8L159.6,187.8z M167.6,185.1
		c0.4,0,0.9,0,1.3,0c0,2.8,0,5.5-0.1,8.3c-0.4,0-0.7,0-1.1,0c0-0.2-0.1-0.3-0.1-0.5c0,0,0,0-0.1-0.1c0,0,0,0-0.1,0.1
		c-0.4,0.4-1,0.6-1.6,0.6c-1.6,0-2.9-1.1-3-2.9c-0.1-1.7,1.3-3,2.9-3c0.6,0,1.3,0.2,1.6,0.6c0,0,0,0,0.1,0.1c0,0,0,0,0.1-0.1
		C167.6,187.2,167.6,186.1,167.6,185.1L167.6,185.1z M167.7,190.6c0-1-0.8-1.8-1.8-1.8c-1.2,0-1.8,0.9-1.8,1.9c0,1,0.7,1.8,1.8,1.8
		C167,192.4,167.7,191.6,167.7,190.6L167.7,190.6z M174.6,190c-0.1,1.2-0.1,2.3-0.1,3.5c-0.3,0-0.7,0-1,0c0-0.3-0.1-0.5-0.1-0.8
		c-0.4,0.5-1,0.8-1.8,0.8c-1,0-1.8-0.6-1.7-1.7c0-1.2,1-1.8,2.6-1.8c0.3,0,0.7,0,1,0c0-0.1,0-0.2,0-0.2c0-0.7-0.4-1-1.1-1
		c-0.5,0-0.9,0.2-1.1,0.7c-0.4-0.1-0.7-0.2-1.1-0.2c0.3-1,1.1-1.5,2.3-1.5C173.9,187.8,174.6,188.5,174.6,190L174.6,190z M173.3,191
		c-0.4,0-0.7,0-1.1,0c-0.8,0-1.2,0.3-1.2,0.8c0,0.4,0.2,0.7,0.7,0.7c0.4,0,0.8-0.1,1.1-0.3c0.3-0.3,0.5-0.6,0.5-1
		C173.3,191.1,173.3,191,173.3,191z M152.1,173.9c0.5,0.8,0.9,1.7,0.9,2.6c0.2,3.4-2.6,6-6.4,6.5s-7.2-1.5-7.7-4.8
		c-0.2-0.9,0-1.9,0.3-2.8l0,0c0.1-0.2-0.1-0.4-0.1-0.4l0,0c-0.9-0.7-1.1-2.1-0.1-3c0.9-0.9,2.4-0.9,3.3-0.5c0,0,0.3,0.2,0.7,0
		c0,0,0,0,0,0c0.7-0.3,1.5-0.5,2.3-0.6c0.4,0,0.7-0.1,1.1-0.1c0.4,0,0.9,0.1,1.3,0.1c0,0,0,0,0,0c0.4,0.1,0.7-0.2,0.7-0.2l0,0
		c0.4-0.3,0.9-0.5,1.5-0.6c0.6-0.1,1.2,0,1.7,0.3c0,0,0,0,0.1,0c0.1,0.1,0.2,0.1,0.2,0.1c0.1,0.1,0.1,0.2,0.1,0.3c0,0,0,0.1,0,0.1
		c0,0.1,0,0.2,0,0.3c0.1,0.1,0.5,0,0.6,0.2c0.3,0.6,0.2,1.3-0.2,1.9c0,0.1-0.1,0.1-0.1,0.1l0,0C152.2,173.5,152,173.7,152.1,173.9
		L152.1,173.9L152.1,173.9L152.1,173.9z M144.9,177.4c0,0.2,0.5,0.6,1.1,0.5c0.6-0.1,1-0.5,0.9-0.8c0-0.2-0.5-0.3-1.1-0.2
		C145.3,177,144.9,177.2,144.9,177.4z M139.9,174.1c0.4-0.6,0.9-1.1,1.5-1.6c0,0,0.1-0.1,0.1-0.1c0,0,0-0.1,0-0.1c0,0,0,0-0.1-0.1
		c-0.1,0-0.1-0.1-0.2-0.1c-0.2-0.1-0.4-0.1-0.5-0.1c-0.7,0-1.4,0.5-1.5,1.1c-0.1,0.3,0,0.6,0.2,0.9c0,0,0,0,0,0c0,0,0.1,0.1,0.1,0.1
		l0,0C139.8,174.2,139.9,174.2,139.9,174.1L139.9,174.1z M143,177.8c0.1-0.6,0.8-1.5,1.1-1.9c0.3-0.4,0.2-1-0.4-1.3
		c-0.3-0.1-0.7-0.1-1-0.1c-0.3,0.1-0.6,0.1-0.6,0.1c-0.6,0.2-1,0.5-1.2,0.9c-0.8,0.9-0.4,2-0.3,2.3c0.3,0.5,0.9,1,1.5,1l0,0
		C142.7,178.7,142.9,178.4,143,177.8L143,177.8z M148.1,178.4c0-0.2-0.2-0.4-0.5-0.3c-0.2,0.1-0.9,0.3-1.5,0.4c0,0-0.1,0-0.1,0l0,0
		l0,0c0,0-0.1,0-0.1,0c-0.6,0.1-1.4,0-1.6,0c-0.3,0-0.4,0.1-0.4,0.4c0.1,0.7,1.1,1.3,2.2,1.2l0,0l0,0l0,0
		C147.3,179.9,148.1,179.1,148.1,178.4L148.1,178.4z M150.3,174.3c-0.3-0.2-0.8-0.4-1.4-0.5c0,0-0.3,0-0.6,0c-0.3,0-0.6,0.1-0.9,0.3
		c-0.6,0.4-0.5,1.1-0.1,1.4c0.4,0.3,1.3,1,1.5,1.6s0.6,0.8,1.1,0.7c0.6-0.1,1-0.7,1.2-1.3l0,0C151.2,176.2,151.3,175.1,150.3,174.3
		L150.3,174.3z M151.5,172.7c0.2-0.3,0.2-0.6,0-0.9c-0.3-0.6-1-0.9-1.7-0.7c-0.2,0-0.4,0.1-0.5,0.2c-0.1,0-0.1,0.1-0.2,0.1
		c0,0,0,0,0,0.1s0,0.1,0.1,0.1c0,0,0.1,0,0.1,0.1c0.7,0.3,1.3,0.7,1.8,1.2c0.1,0.1,0.2,0.1,0.3,0.1
		C151.4,172.8,151.5,172.8,151.5,172.7C151.5,172.7,151.5,172.7,151.5,172.7L151.5,172.7L151.5,172.7z M143.1,175.5
		c-0.2,0-0.4,0.2-0.3,0.4c0,0.2,0.2,0.3,0.4,0.3c0.2,0,0.4-0.2,0.3-0.4C143.5,175.6,143.3,175.5,143.1,175.5z M148.3,174.9
		c-0.2,0-0.4,0.2-0.4,0.4c0,0.2,0.2,0.3,0.4,0.3c0.2,0,0.4-0.2,0.4-0.4C148.7,175,148.5,174.9,148.3,174.9z"/>
</g>
</svg>
